<?xml version="1.0" encoding="UTF-8" standalone="no"?>
<svg
   xmlns:dc="http://purl.org/dc/elements/1.1/"
   xmlns:cc="http://creativecommons.org/ns#"
   xmlns:rdf="http://www.w3.org/1999/02/22-rdf-syntax-ns#"
   xmlns:svg="http://www.w3.org/2000/svg"
   xmlns="http://www.w3.org/2000/svg"
   version="1.1"
   id="svg3522"
   viewBox="0 0 572.56336 592.47732"
   height="133.22369"
   width="128">
  <defs
     id="defs3524">
    <clipPath
       id="clipPath3422"
       clipPathUnits="userSpaceOnUse">
      <path
         id="path3424"
         d="m 0,1024 1024,0 L 1024,0 0,0 0,1024 Z" />
    </clipPath>
  </defs>
  <metadata
     id="metadata3527">
    <rdf:RDF>
      <cc:Work
         rdf:about="">
        <dc:format>image/svg+xml</dc:format>
        <dc:type
           rdf:resource="http://purl.org/dc/dcmitype/StillImage" />
        <dc:title></dc:title>
      </cc:Work>
    </rdf:RDF>
  </metadata>
  <g
     transform="translate(-76.575457,-170.41934)"
     id="layer1">
    <g
       transform="matrix(1.25,0,0,-1.25,227.7542,467.97195)"
       id="g3410">
      <path
         id="path3412"
         style="fill:#231f20;fill-opacity:1;fill-rule:evenodd;stroke:none"
         d="m 0,0 -0.004,-1.033 156.149,-147.643 4.404,23.079 L 0,0 Z" />
    </g>
    <g
       transform="matrix(1.25,0,0,-1.25,434.51846,289.2062)"
       id="g3414">
      <path
         id="path3416"
         style="fill:#231f20;fill-opacity:1;fill-rule:evenodd;stroke:none"
         d="M 0,0 -156.896,-35.839 -144.334,-48.201 0.643,-0.433 0,0 Z" />
    </g>
    <g
       id="g3418"
       transform="matrix(1.25,0,0,-1.25,-255.89142,1209.9312)">
      <g
         clip-path="url(#clipPath3422)"
         id="g3420">
        <g
           transform="translate(601.459,365.2549)"
           id="g3426">
          <path
             id="path3428"
             style="fill:#ffffff;fill-opacity:1;fill-rule:evenodd;stroke:none"
             d="m 0,0 c -5.862,0 -11.625,1.107 -17.129,3.291 -11.521,4.572 -20.57,13.35 -25.479,24.716 -4.909,11.362 -5.092,23.953 -0.518,35.452 7.067,17.765 24.003,29.242 43.146,29.242 5.861,0 11.624,-1.107 17.127,-3.291 C 28.669,84.838 37.718,76.061 42.627,64.694 47.535,53.332 47.719,40.741 43.145,29.242 36.078,11.478 19.143,0 0.002,0 L 0,0 Z" />
        </g>
        <g
           transform="translate(601.4789,466.9567)"
           id="g3430">
          <path
             id="path3432"
             style="fill:#231f20;fill-opacity:1;fill-rule:nonzero;stroke:none"
             d="m 0,0 c -22.039,0 -42.876,-13.218 -51.508,-34.916 -11.299,-28.401 2.598,-60.574 31.04,-71.86 6.713,-2.664 13.638,-3.926 20.447,-3.926 22.039,0 42.876,13.218 51.508,34.916 11.299,28.401 -2.598,60.573 -31.04,71.86 C 13.734,-1.262 6.809,0 0,0 m 0,-18 c 4.719,0 9.364,-0.894 13.808,-2.657 9.287,-3.686 16.581,-10.76 20.537,-19.919 3.954,-9.152 4.102,-19.294 0.417,-28.557 -5.696,-14.318 -19.349,-23.57 -34.783,-23.57 -4.719,0 -9.365,0.895 -13.808,2.658 -9.287,3.685 -16.581,10.759 -20.537,19.918 -3.954,9.153 -4.102,19.295 -0.417,28.557 C -29.087,-27.252 -15.434,-18 0,-18" />
        </g>
        <g
           transform="translate(645.4912,684.522)"
           id="g3434">
          <path
             id="path3436"
             style="fill:#ffffff;fill-opacity:1;fill-rule:evenodd;stroke:none"
             d="m 0,0 c -8.975,0 -17.794,1.686 -26.213,5.008 -17.684,6.98 -31.55,20.389 -39.04,37.756 -7.432,17.23 -7.687,36.312 -0.72,53.732 10.807,27.021 36.715,44.481 66.002,44.481 8.974,0 17.792,-1.685 26.213,-5.009 17.685,-6.98 31.55,-20.388 39.041,-37.755 C 72.714,80.982 72.97,61.9 66.003,44.481 55.195,17.46 29.288,0 0.004,0 L 0,0 Z" />
        </g>
        <g
           transform="translate(645.5209,832.9985)"
           id="g3438">
          <path
             id="path3440"
             style="fill:#231f20;fill-opacity:1;fill-rule:nonzero;stroke:none"
             d="m 0,0 c -31.22,0 -60.739,-18.624 -72.966,-49.196 -16.006,-40.016 3.68,-85.347 43.97,-101.249 9.51,-3.753 19.321,-5.532 28.966,-5.532 31.221,0 60.739,18.624 72.967,49.196 C 88.942,-66.765 69.256,-21.434 28.965,-5.532 19.456,-1.779 9.645,0 0,0 m 0,-15 c 8.027,0 15.919,-1.509 23.458,-4.485 15.817,-6.242 28.214,-18.228 34.909,-33.75 6.635,-15.384 6.863,-32.422 0.642,-47.976 -4.78,-11.95 -12.979,-22.021 -23.711,-29.123 -10.521,-6.963 -22.737,-10.643 -35.328,-10.643 -8.026,0 -15.919,1.509 -23.459,4.485 -15.816,6.242 -28.213,18.228 -34.907,33.749 -6.636,15.385 -6.864,32.423 -0.643,47.977 4.78,11.95 12.979,22.021 23.711,29.123 C -24.806,-18.68 -12.59,-15 0,-15" />
        </g>
        <g
           transform="translate(332.9717,600.4858)"
           id="g3442">
          <path
             id="path3444"
             style="fill:#ffffff;fill-opacity:1;fill-rule:evenodd;stroke:none"
             d="m 0,0 c -7.142,0 -14.163,1.341 -20.868,3.985 -14.077,5.552 -25.11,16.214 -31.065,30.021 -5.9,13.68 -6.101,28.83 -0.565,42.659 8.598,21.481 29.218,35.361 52.531,35.361 7.142,0 14.163,-1.341 20.868,-3.985 C 34.978,102.489 46.01,91.828 51.965,78.02 57.866,64.34 58.066,49.189 52.531,35.361 43.933,13.881 23.312,0 0.001,0 L 0,0 Z" />
        </g>
        <g
           transform="translate(333.0049,723.0115)"
           id="g3446">
          <path
             id="path3448"
             style="fill:#231f20;fill-opacity:1;fill-rule:nonzero;stroke:none"
             d="m 0,0 c -26.646,0 -51.842,-15.885 -62.28,-41.959 -13.661,-34.129 3.14,-72.789 37.527,-86.35 8.116,-3.2 16.487,-4.717 24.719,-4.717 26.646,0 51.843,15.886 62.28,41.959 13.661,34.129 -3.14,72.789 -37.527,86.35 C 16.603,-1.516 8.232,0 0,0 m 0,-21 c 5.817,0 11.542,-1.094 17.015,-3.253 11.459,-4.519 20.435,-13.188 25.276,-24.412 4.785,-11.095 4.948,-23.382 0.459,-34.598 -3.457,-8.634 -9.386,-15.911 -17.149,-21.044 -7.636,-5.05 -16.501,-7.718 -25.635,-7.718 -5.817,0 -11.542,1.094 -17.015,3.252 -11.458,4.519 -20.435,13.189 -25.276,24.412 -4.785,11.096 -4.948,23.382 -0.459,34.598 3.457,8.634 9.387,15.912 17.149,21.044 C -17.999,-23.669 -9.134,-21 0,-21" />
        </g>
        <g
           transform="translate(612,636)"
           id="g3450">
          <path
             id="path3452"
             style="fill:#231f20;fill-opacity:1;fill-rule:evenodd;stroke:none"
             d="m 0,0 -33,-133 28,-24 33,14 3,138 -31,5 z" />
        </g>
        <g
           transform="translate(604,670)"
           id="g3454">
          <path
             id="path3456"
             style="fill:#231f20;fill-opacity:1;fill-rule:evenodd;stroke:none"
             d="M 0,0 9,-30 40,-35 56,-9 0,0 Z" />
        </g>
        <g
           transform="translate(611.5349,787.9225)"
           id="g3458">
          <path
             id="path3460"
             style="fill:#231f20;fill-opacity:1;fill-rule:evenodd;stroke:none"
             d="m 0,0 c -10.369,-10.911 -14.923,-24.897 -13.615,-37.718 3.806,11.669 10.314,22.861 19.538,32.577 8.988,9.447 19.56,16.439 30.758,20.944 C 23.827,16.126 10.229,10.763 0,0" />
        </g>
      </g>
    </g>
  </g>
</svg>
