<?xml version="1.0" encoding="UTF-8" standalone="no"?>
<!-- Created with Inkscape (http://www.inkscape.org/) -->

<svg
   xmlns:osb="http://www.openswatchbook.org/uri/2009/osb"
   xmlns:dc="http://purl.org/dc/elements/1.1/"
   xmlns:cc="http://creativecommons.org/ns#"
   xmlns:rdf="http://www.w3.org/1999/02/22-rdf-syntax-ns#"
   xmlns:svg="http://www.w3.org/2000/svg"
   xmlns="http://www.w3.org/2000/svg"
   xmlns:sodipodi="http://sodipodi.sourceforge.net/DTD/sodipodi-0.dtd"
   xmlns:inkscape="http://www.inkscape.org/namespaces/inkscape"
   width="300"
   height="210.60751"
   viewBox="0 0 300.00001 210.6075"
   id="svg5314"
   version="1.1"
   inkscape:version="0.91 r13725"
   sodipodi:docname="wallet_love.svg">
  <defs
     id="defs5316">
    <linearGradient
       id="linearGradient5874"
       osb:paint="solid">
      <stop
         style="stop-color:#0fc48b;stop-opacity:1;"
         offset="0"
         id="stop5876" />
    </linearGradient>
  </defs>
  <sodipodi:namedview
     id="base"
     pagecolor="#ffffff"
     bordercolor="#666666"
     borderopacity="1.0"
     inkscape:pageopacity="0.0"
     inkscape:pageshadow="2"
     inkscape:zoom="0.7"
     inkscape:cx="195.1475"
     inkscape:cy="133.26058"
     inkscape:document-units="px"
     inkscape:current-layer="layer1"
     showgrid="false"
     fit-margin-top="0"
     fit-margin-left="0"
     fit-margin-right="0"
     fit-margin-bottom="0"
     inkscape:window-width="1920"
     inkscape:window-height="1036"
     inkscape:window-x="79"
     inkscape:window-y="0"
     inkscape:window-maximized="0"
     units="px" />
  <metadata
     id="metadata5319">
    <rdf:RDF>
      <cc:Work
         rdf:about="">
        <dc:format>image/svg+xml</dc:format>
        <dc:type
           rdf:resource="http://purl.org/dc/dcmitype/StillImage" />
        <dc:title></dc:title>
      </cc:Work>
    </rdf:RDF>
  </metadata>
  <g
     inkscape:label="Layer 1"
     inkscape:groupmode="layer"
     id="layer1"
     transform="translate(-288.57143,-292.77275)">
    <path
       d="m 585.65235,459.04733 c 0,22.86996 -18.53999,41.41385 -41.41384,41.41385 l -193.2659,0 c -22.86995,0 -41.40995,-18.54389 -41.40995,-41.41385 l 0,-121.94324 c 0,-22.86995 18.54,-41.40995 41.40995,-41.40995 l 193.2659,0 c 22.87385,0 41.41384,18.54 41.41384,41.40995 l 0,121.94324 z"
       style="fill:none;stroke:#231f20;stroke-width:5.83814335;stroke-linecap:butt;stroke-linejoin:miter;stroke-miterlimit:10;stroke-dasharray:none;stroke-opacity:1"
       id="path354"
       inkscape:connector-curvature="0" />
    <path
       d="m 369.04439,415.20425 c 0,6.4239 -5.20762,11.63153 -11.63542,11.63153 l -54.28111,0 c -6.42974,0 -11.63736,-5.20763 -11.63736,-11.63153 l 0,-34.25433 c 0,-6.42391 5.20762,-11.63153 11.63736,-11.63153 l 54.28111,0 c 6.4278,0 11.63542,5.20762 11.63542,11.63153 l 0,34.25433 z"
       style="fill:#0fc48b;fill-opacity:1;stroke:#231f20;stroke-width:5.83814335;stroke-linecap:butt;stroke-linejoin:miter;stroke-miterlimit:10;stroke-dasharray:none;stroke-opacity:1"
       id="path362"
       inkscape:connector-curvature="0" />
    <path
       d="m 352.12466,398.07571 c 0,6.35579 -5.14924,11.50698 -11.50504,11.50698 -6.35384,0 -11.50114,-5.15119 -11.50114,-11.50698 0,-6.35384 5.1473,-11.50309 11.50114,-11.50309 6.3558,0 11.50504,5.14925 11.50504,11.50309 z"
       style="fill:#ffffff;fill-opacity:1;fill-rule:evenodd;stroke:#231f20;stroke-width:5.83814335;stroke-linecap:butt;stroke-linejoin:miter;stroke-miterlimit:10;stroke-dasharray:none;stroke-opacity:1"
       id="path370"
       inkscape:connector-curvature="0" />
    <path
       d="m 545.0452,501.26768 -31.9157,0 0,-206.38277 31.9157,0 0,206.38277 z"
       style="fill:#0fc48b;fill-opacity:1;fill-rule:nonzero;stroke:#231f20;stroke-width:4.22435713;stroke-linecap:butt;stroke-linejoin:miter;stroke-miterlimit:10;stroke-dasharray:none;stroke-opacity:1"
       id="path478"
       inkscape:connector-curvature="0" />
    <path
       d="m 464.3278,353.34744 c -8.82287,0 -16.79226,3.74234 -22.41868,9.73106 -5.62641,-5.98872 -13.59661,-9.73106 -22.42027,-9.73106 -17.00806,0 -30.84541,13.90337 -30.84541,30.99112 0,27.94202 44.00723,54.39692 49.02655,57.32124 1.30999,0.76329 2.77376,1.14573 4.23994,1.14573 1.46457,0 2.92994,-0.38244 4.24074,-1.14573 5.01691,-2.92513 49.02091,-29.37922 49.02091,-57.32124 -7.8e-4,-17.08775 -13.83654,-30.99112 -30.84378,-30.99112 z m -22.41787,80.28923 c -15.59018,-9.94524 -42.5055,-34.61216 -42.5055,-47.27078 0,-7.80273 12.363,-21.24421 20.08521,-21.24421 7.71982,0 18.05386,6.34863 18.05386,14.15138 0,4.64975 -0.28252,9.43354 4.36723,9.43354 4.64976,0 5.38049,-4.78379 5.38049,-9.43354 0,-7.80275 8.30511,-14.15138 16.02412,-14.15138 7.72142,0 22.10933,13.44148 22.10933,21.24421 -0.002,12.65781 -27.92699,37.32473 -43.51474,47.27078 z"
       id="path5"
       inkscape:connector-curvature="0"
       style="fill:#ffc107"
       sodipodi:nodetypes="scsscsccscsssssscc" />
  </g>
</svg>
