<?xml version="1.0" encoding="UTF-8" standalone="no"?>
<!-- Generator: Adobe Illustrator 18.0.0, SVG Export Plug-In . SVG Version: 6.00 Build 0)  -->

<svg
   xmlns:dc="http://purl.org/dc/elements/1.1/"
   xmlns:cc="http://creativecommons.org/ns#"
   xmlns:rdf="http://www.w3.org/1999/02/22-rdf-syntax-ns#"
   xmlns:svg="http://www.w3.org/2000/svg"
   xmlns="http://www.w3.org/2000/svg"
   xmlns:sodipodi="http://sodipodi.sourceforge.net/DTD/sodipodi-0.dtd"
   xmlns:inkscape="http://www.inkscape.org/namespaces/inkscape"
   version="1.1"
   id="Capa_1"
   x="0px"
   y="0px"
   viewBox="0 0 297 297"
   style="enable-background:new 0 0 297 297;"
   xml:space="preserve"
   width="512px"
   height="512px"
   inkscape:version="0.91 r13725"
   sodipodi:docname="piggy-bank.svg"><metadata
     id="metadata45"><rdf:RDF><cc:Work
         rdf:about=""><dc:format>image/svg+xml</dc:format><dc:type
           rdf:resource="http://purl.org/dc/dcmitype/StillImage" /></cc:Work></rdf:RDF></metadata><defs
     id="defs43" /><sodipodi:namedview
     pagecolor="#ffffff"
     bordercolor="#666666"
     borderopacity="1"
     objecttolerance="10"
     gridtolerance="10"
     guidetolerance="10"
     inkscape:pageopacity="0"
     inkscape:pageshadow="2"
     inkscape:window-width="1327"
     inkscape:window-height="735"
     id="namedview41"
     showgrid="false"
     inkscape:zoom="0.65186406"
     inkscape:cx="183.21595"
     inkscape:cy="400.67006"
     inkscape:window-x="1820"
     inkscape:window-y="68"
     inkscape:window-maximized="0"
     inkscape:current-layer="g3" /><g
     id="g3"><path
       d="m 206.927,94.904 c -10.958,0 -20.856,4.648 -27.844,12.086 -6.988,-7.438 -16.887,-12.086 -27.846,-12.086 -21.124,0 -38.31,17.268 -38.31,38.491 0,34.704 54.657,67.561 60.891,71.193 1.627,0.948 3.445,1.423 5.266,1.423 1.819,0 3.639,-0.475 5.267,-1.423 6.231,-3.633 60.884,-36.489 60.884,-71.193 -0.001,-21.223 -17.185,-38.491 -38.308,-38.491 z m -27.843,99.71927 c -19.363,-12.352 -52.79185,-42.98832 -52.79185,-58.71032 0,-9.691 15.35485,-26.38532 24.94585,-26.38532 9.588,0 22.4229,7.885 22.4229,17.576 0,5.775 -0.3509,11.71647 5.4241,11.71647 5.775,0 6.68258,-5.94147 6.68258,-11.71647 0,-9.691 10.31495,-17.576 19.90195,-17.576 9.59,0 27.45979,16.69432 27.45979,26.38532 -0.002,15.721 -34.68532,46.35732 -54.04532,58.71032 z"
       id="path5"
       inkscape:connector-curvature="0"
       style="fill:#ffc107"
       sodipodi:nodetypes="scsscsccscsssssscc" /><path
       d="m 295.22025,59.380194 c 0,-5.775 1.99107,-9.567125 -3.78393,-9.567125 -5.775,0 -9.12219,2.457311 -9.12219,8.232311 0,6.732 -10.45413,9.90162 -14.52413,15.55362 -25.605,-29.004 -65.685,-47.716 -110.662,-47.716 -10.207,0 -20.355,0.967 -30.259,2.881 C 108.703,8.881 80.762,8.628 79.481,8.628 l -0.003,0 c -2.772,0 -5.433,1.102 -7.393,3.062 -1.962,1.962 -3.064,4.622 -3.064,7.396 l 0,34.173 C 53.1,64.585 40.206,78.818 31.281,94.904 l -20.823,0 C 4.683,94.904 0,99.587 0,105.361 l 0,86.277 c 0,5.774 4.683,10.457 10.458,10.457 l 20.821,0 c 5.412,9.763 12.276,18.831 20.486,27.061 l 0,48.758 c 0,5.775 4.683,10.458 10.458,10.458 l 51.766,0 c 5.775,0 10.458,-4.683 10.458,-10.458 l 0,-10.159 c 10.65,2.233 21.594,3.362 32.681,3.362 11.078,0 22.021,-1.13 32.68,-3.368 l 0,10.165 c 0,5.775 4.683,10.458 10.458,10.458 l 51.766,0 c 5.775,0 10.458,-4.683 10.458,-10.458 l 0,-48.741 C 284.779,206.825 297,178.347 297,148.5 c 0,-20.733 -5.908,-40.276 -16.315,-57.416 6,-7.141 14.53525,-15.924806 14.53525,-31.703806 z m -35.6463,153.272426 c -2.115,1.979 -9.57195,10.52832 -9.54513,13.42519 l 0.44494,48.05426 -49.5384,1.33481 -1.33481,-17.63738 c -0.25024,-3.30654 -1.12806,-5.99206 -3.79406,-7.96306 -2.667,-1.973 -6.99888,3.66613 -10.17188,4.63813 -12.849,3.937 -14.76261,5.04213 -28.50561,5.04213 -13.76,0 -18.34324,-3.32782 -31.17624,-7.25982 -4.50582,-2.75075 3.17463,0.0649 -7.50125,-1.52356 -2.667,1.973 -3.16426,5.54214 -3.35012,8.85293 l -0.88988,15.85163 -51.317145,0 0.889876,-39.17049 c 0.06575,-2.89426 0.578752,-11.00126 -1.536248,-12.97926 -9.499,-8.881 -9.883993,-10.96012 -15.184993,-21.97412 -1.742,-3.621 -6.293876,-12.15213 -10.312876,-12.15213 l -23.844007,0 0.889876,-79.59901 19.393627,0 c 4.018,0 5.011373,-1.41213 6.753373,-5.03313 8.031,-16.688996 16.76562,-31.332996 33.67462,-42.344996 2.964,-1.931 7.913151,-6.118196 7.865565,-9.653876 L 81.038241,19.501613 c 7.687,1.869 26.754759,6.019 33.112759,15.223 2.452,3.548 6.833,8.784504 11.028,7.787504 4.78,-1.138 13.65044,-2.895876 18.56544,-3.512876 -1.069,1.641 -5.2565,7.600441 -5.2565,9.704441 0,5.775 4.68507,7.943218 10.458,7.788373 l 33.17618,-0.889876 c 5.77293,-0.154846 8.23231,-1.568435 8.23231,-7.343435 0,-0.682 -3.6285,-8.910945 -3.7535,-9.555945 47.974,13.111 101.05446,65.826011 101.05446,111.134011 -0.002,25.438 -7.96544,44.01781 -28.08144,62.81581 z"
       id="path7"
       inkscape:connector-curvature="0"
       style="fill:#ffc107"
       sodipodi:nodetypes="ssscscssssccssssccsssscscsssscscscsccsccsccsccsccsccsccsccccssssccc" /><path
       d="M79.476,112.159c-2.75,0-5.438,1.118-7.394,3.063c-1.945,1.946-3.063,4.645-3.063,7.395s1.118,5.448,3.063,7.393   c1.945,1.945,4.644,3.065,7.394,3.065c2.761,0,5.448-1.12,7.393-3.065c1.956-1.944,3.065-4.643,3.065-7.393   s-1.109-5.448-3.065-7.395C84.924,113.277,82.226,112.159,79.476,112.159z"
       fill="#ffc107"
       id="path9" /></g><g
     id="g11" /><g
     id="g13" /><g
     id="g15" /><g
     id="g17" /><g
     id="g19" /><g
     id="g21" /><g
     id="g23" /><g
     id="g25" /><g
     id="g27" /><g
     id="g29" /><g
     id="g31" /><g
     id="g33" /><g
     id="g35" /><g
     id="g37" /><g
     id="g39" /></svg>