<?xml version="1.0" encoding="UTF-8" standalone="no"?>
<!-- Created with Inkscape (http://www.inkscape.org/) -->

<svg
   xmlns:osb="http://www.openswatchbook.org/uri/2009/osb"
   xmlns:dc="http://purl.org/dc/elements/1.1/"
   xmlns:cc="http://creativecommons.org/ns#"
   xmlns:rdf="http://www.w3.org/1999/02/22-rdf-syntax-ns#"
   xmlns:svg="http://www.w3.org/2000/svg"
   xmlns="http://www.w3.org/2000/svg"
   xmlns:sodipodi="http://sodipodi.sourceforge.net/DTD/sodipodi-0.dtd"
   xmlns:inkscape="http://www.inkscape.org/namespaces/inkscape"
   id="svg2"
   version="1.1"
   inkscape:version="0.91 r13725"
   xml:space="preserve"
   width="300"
   height="354.72913"
   viewBox="0 0 300 354.72912"
   sodipodi:docname="social4_10.svg"><metadata
     id="metadata8"><rdf:RDF><cc:Work
         rdf:about=""><dc:format>image/svg+xml</dc:format><dc:type
           rdf:resource="http://purl.org/dc/dcmitype/StillImage" /><dc:title /></cc:Work></rdf:RDF></metadata><defs
     id="defs6"><linearGradient
       id="linearGradient4576"
       osb:paint="solid"><stop
         style="stop-color:#cf0000;stop-opacity:1;"
         offset="0"
         id="stop4578" /></linearGradient><clipPath
       clipPathUnits="userSpaceOnUse"
       id="clipPath16"><path
         d="m 0,0 799.92,0 0,799.92 L 0,799.92 0,0 Z"
         id="path18"
         inkscape:connector-curvature="0" /></clipPath><radialGradient
       fx="0"
       fy="0"
       cx="0"
       cy="0"
       r="1"
       gradientUnits="userSpaceOnUse"
       gradientTransform="matrix(565.62372,0,0,-565.62372,399.95947,399.95996)"
       spreadMethod="pad"
       id="radialGradient24"><stop
         style="stop-opacity:1;stop-color:#5f6284"
         offset="0"
         id="stop26" /><stop
         style="stop-opacity:1;stop-color:#34384e"
         offset="1"
         id="stop28" /></radialGradient><clipPath
       clipPathUnits="userSpaceOnUse"
       id="clipPath36"><path
         d="m 0,799.92 799.92,0 L 799.92,0 0,0 0,799.92 Z"
         id="path38"
         inkscape:connector-curvature="0" /></clipPath><radialGradient
       fx="0"
       fy="0"
       cx="0"
       cy="0"
       r="1"
       gradientUnits="userSpaceOnUse"
       gradientTransform="matrix(565.62372,0,0,-565.62372,399.95947,399.95996)"
       spreadMethod="pad"
       id="radialGradient118"><stop
         style="stop-opacity:1;stop-color:#5f6284"
         offset="0"
         id="stop120" /><stop
         style="stop-opacity:1;stop-color:#34384e"
         offset="1"
         id="stop122" /></radialGradient><clipPath
       clipPathUnits="userSpaceOnUse"
       id="clipPath130"><path
         d="m 0,799.92 799.92,0 L 799.92,0 0,0 0,799.92 Z"
         id="path132"
         inkscape:connector-curvature="0" /></clipPath></defs><sodipodi:namedview
     pagecolor="#ffffff"
     bordercolor="#666666"
     borderopacity="1"
     objecttolerance="10"
     gridtolerance="10"
     guidetolerance="10"
     inkscape:pageopacity="0"
     inkscape:pageshadow="2"
     inkscape:window-width="1440"
     inkscape:window-height="856"
     id="namedview4"
     showgrid="false"
     inkscape:zoom="1.2212462"
     inkscape:cx="150"
     inkscape:cy="177.36457"
     inkscape:window-x="12"
     inkscape:window-y="0"
     inkscape:window-maximized="0"
     inkscape:current-layer="g128"
     showguides="false"
     fit-margin-top="0"
     fit-margin-left="0"
     fit-margin-right="0"
     fit-margin-bottom="0" /><g
     id="g10"
     inkscape:groupmode="layer"
     inkscape:label="social4_10"
     transform="matrix(1.25,0,0,-1.25,-350.10132,631.88292)"><g
       id="g32"
       style="fill:#ffc107;fill-opacity:1"><g
         id="g34"
         clip-path="url(#clipPath36)"
         style="fill:#ffc107;fill-opacity:1" /></g><g
       id="g4627"
       transform="matrix(0.39022531,0,0,0.39022531,243.9593,221.72303)"><path
         transform="matrix(0.8,0,0,-0.8,0,799.92)"
         id="path98"
         d="m 503.48633,90.863281 c -1.19625,0 -2.38055,0.02312 -3.56055,0.04687 -92.615,1.98125 -138.56867,80.995859 -140.63867,141.193369 l 0.0742,-0.0312 c 16.35375,-3.17375 22.15375,7.91617 27.9375,21.01367 0.66795,2.11537 1.24589,4.0267 1.78515,5.84961 l 4.84375,-24.4336 c 0.29375,-1.83 1.54922,-3.44828 3.41797,-4.11328 l 163.04102,-58.17969 0.008,0.0234 c 2.55375,-0.915 5.41945,0.28735 6.5332,2.8086 l 40.20704,87.73242 c 0.78424,-4.61271 2.03696,-9.26307 3.97851,-13.61524 l 0.14453,0.60742 c 1.12,-3.0325 2.50102,-5.70093 4.10352,-8.02343 1.8225,-2.50125 3.97633,-4.79727 6.51758,-6.79102 5.005,-3.70375 11.00625,-5.46211 17.375,-5.50586 C 631.19908,175.17406 588.879,90.863286 503.4865,90.863286 Z m 55.86523,92.857419 -155.67773,55.55078 -10.44922,52.16797 c -0.0759,1.27681 -0.15434,2.56561 -0.23438,4.02539 -2.2,4.97625 -5.86929,3.64133 -8.12304,-2.85742 0.92625,-6.2725 0.57906,-14.16984 -1.27344,-22.49609 -4.025,-18.09 -13.62305,-31.34867 -21.43555,-29.60742 -0.995,0.22125 -1.91179,0.67593 -2.74804,1.33593 l -0.0742,-0.0137 0,0.0137 c -5.72875,4.53 -7.61742,18.78016 -4.10742,34.56641 3.9275,17.65625 13.16343,30.70438 20.86718,29.70313 11.8575,43.35624 38.79172,83.97812 73.10547,105.14062 l 0,25.91211 0.006,-0.004 42.68555,25.47071 -72.36133,69.45703 -29.76758,-55.58594 0,-0.002 c -16.325,7.745 -34.2689,17.84734 -54.47265,30.96484 -43.39125,28.17375 -61.36547,88.71406 -86.82422,160.41406 l 0.35351,0.2461 c 40.47625,50.0775 145.69797,79.51609 251.10547,81.58984 104.7925,2.0625 209.77016,-22.92359 251.50391,-81.58984 l 0,-0.002 C 726.0361,596.07966 708.35797,534.96021 664.44547,507.46271 644.18172,494.77521 626.04875,484.96615 609.49625,477.3924 l -29.29101,54.69336 -71.88867,-69.49024 42.23828,-25.43554 0,-25.91016 c 34.32,-21.165 61.25687,-61.7957 73.10937,-105.1582 7.73,1.16375 17.04805,-11.93305 20.99805,-29.68555 3.51625,-15.80125 1.61875,-30.06187 -4.125,-34.57813 l -0.002,-0.0586 c -0.8125,-0.62125 -1.69946,-1.05312 -2.65821,-1.26562 -7.015,-1.5625 -15.4689,8.97078 -20.03515,24.23828 l -0.041,-0.16211 -0.10742,0.66406 c -0.45875,1.575 -0.87875,3.20094 -1.25,4.86719 -1.2025,5.41 -1.77203,10.63867 -1.76953,15.35742 -2.21828,5.0951 -5.47657,7.39701 -7.54688,2.44336 L 559.35156,183.7207 Z m -59.06445,284.97266 40.61914,40.22266 -27.42383,55.36523 7.81055,142.77539 -21.36719,0 -21.32422,0 7.81446,-142.78125 -27.47071,-55.47851 40.98047,-39.75196 0.36133,-0.35156 z"
         style="fill:#ffc107;fill-opacity:1;fill-rule:evenodd;stroke:none"
         inkscape:connector-curvature="0" /><g
         style="fill:#ffc107;fill-opacity:1"
         transform="translate(159.4863,117.2939)"
         id="g40"><path
           inkscape:connector-curvature="0"
           id="path42"
           style="fill:#ffc107;fill-opacity:1;fill-rule:evenodd;stroke:none"
           d="m 0,0 c -18.137,-5.546 -25.143,-26.591 -24.019,-45.039 l 44.255,-33.323 c 9.765,2.382 19.991,7.587 29.424,15.285 22.964,18.741 22.887,48.431 15.172,56.447 C 57.118,1.386 28.148,8.608 0,0" /></g><g
         style="fill:#ffc107;fill-opacity:1"
         transform="translate(142.5439,83.669896)"
         id="g44"><path
           inkscape:connector-curvature="0"
           id="path46"
           style="fill:#ffc107;fill-opacity:1;fill-rule:evenodd;stroke:none"
           d="m 0,0 0,0 c 6.993,-3.392 16.998,-0.969 18.879,6.543 l 22.954,91.713 c 1.881,7.514 0.449,15.486 -6.543,18.879 -6.992,3.392 -15.467,0.441 -18.875,-6.544 L -6.542,18.877 C -8.431,11.336 -6.992,3.393 0,0" /></g><g
         style="fill:#ffc107;fill-opacity:1"
         transform="translate(246.4092,203.3379)"
         id="g48"><path
           inkscape:connector-curvature="0"
           id="path50"
           style="fill:#ffc107;fill-opacity:1;fill-rule:evenodd;stroke:none"
           d="m 0,0 0,0 c -1.778,7.566 -9.406,12.121 -16.986,10.521 l -59.648,-11.78 c -7.581,-1.601 -13.207,-10.425 -11.429,-17.991 1.78,-7.564 9.416,-12.279 16.986,-10.517 l 60.557,12.783 C -2.914,-15.378 1.778,-7.565 0,0" /></g><g
         style="fill:#ffc107;fill-opacity:1"
         transform="translate(315.7607,163.8027)"
         id="g52"><path
           inkscape:connector-curvature="0"
           id="path54"
           style="fill:#ffc107;fill-opacity:1;fill-rule:evenodd;stroke:none"
           d="m 0,0 0,0 c 3.373,7.001 0.492,15.721 -6.597,18.858 l -67.662,29.96 c -7.088,3.14 -15.487,0.407 -18.859,-6.595 -3.373,-7.003 -0.399,-15.469 6.597,-18.859 L -18.857,-6.597 C -11.75,-9.745 -3.372,-7.003 0,0" /></g><g
         style="fill:#ffc107;fill-opacity:1"
         transform="translate(205.9229,189.2559)"
         id="g56"><path
           inkscape:connector-curvature="0"
           id="path58"
           style="fill:#ffc107;fill-opacity:1;fill-rule:evenodd;stroke:none"
           d="m 0,0 c -5.091,-12.303 -29.013,-72.816 4.536,-69.989 33.55,2.827 -38.012,-46.852 -38.012,-46.852 l -24.462,49.466 c 0,0 10.814,62.131 57.938,67.375" /></g><g
         style="fill:#ffc107;fill-opacity:1"
         transform="translate(146.7832,119.7949)"
         id="g60"><path
           inkscape:connector-curvature="0"
           id="path62"
           style="fill:#ffc107;fill-opacity:1;fill-rule:evenodd;stroke:none"
           d="M 0,0 51.871,-49.611 30.927,-79.348 -26.477,-36.125 0,0 Z" /></g><g
         style="fill:#ffc107;fill-opacity:1"
         transform="translate(109.6074,81.837904)"
         id="g64"><path
           inkscape:connector-curvature="0"
           id="path66"
           style="fill:#ffc107;fill-opacity:1;fill-rule:evenodd;stroke:none"
           d="M 0,0 73.253,-55.156 56.212,-77.789 -17.041,-22.632 0,0 Z" /></g><g
         style="fill:#ffc107;fill-opacity:1"
         transform="translate(640.6758,117.2939)"
         id="g68"><path
           inkscape:connector-curvature="0"
           id="path70"
           style="fill:#ffc107;fill-opacity:1;fill-rule:evenodd;stroke:none"
           d="m 0,0 c 18.136,-5.546 25.143,-26.591 24.019,-45.039 l -44.255,-33.323 c -9.765,2.382 -19.991,7.587 -29.424,15.285 -22.964,18.741 -22.887,48.431 -15.172,56.447 C -57.118,1.386 -28.148,8.608 0,0" /></g><g
         style="fill:#ffc107;fill-opacity:1"
         transform="translate(657.6172,83.669896)"
         id="g72"><path
           inkscape:connector-curvature="0"
           id="path74"
           style="fill:#ffc107;fill-opacity:1;fill-rule:evenodd;stroke:none"
           d="m 0,0 0,0 c -6.992,-3.392 -16.997,-0.969 -18.878,6.543 l -22.954,91.713 c -1.881,7.514 -0.449,15.486 6.543,18.879 6.992,3.392 15.467,0.441 18.875,-6.544 L 6.543,18.877 C 8.432,11.336 6.993,3.393 0,0" /></g><g
         style="fill:#ffc107;fill-opacity:1"
         transform="translate(553.7529,203.3379)"
         id="g76"><path
           inkscape:connector-curvature="0"
           id="path78"
           style="fill:#ffc107;fill-opacity:1;fill-rule:evenodd;stroke:none"
           d="M 0,0 0,0 C 1.778,7.566 9.406,12.121 16.986,10.521 L 78.104,-1.542 c 7.58,-1.601 11.737,-10.142 9.959,-17.708 -1.78,-7.564 -9.416,-12.279 -16.986,-10.517 L 10.52,-16.984 C 2.913,-15.378 -1.779,-7.565 0,0" /></g><g
         style="fill:#ffc107;fill-opacity:1"
         transform="translate(484.4014,163.8027)"
         id="g80"><path
           inkscape:connector-curvature="0"
           id="path82"
           style="fill:#ffc107;fill-opacity:1;fill-rule:evenodd;stroke:none"
           d="m 0,0 0,0 c -3.373,7.001 -0.492,15.721 6.596,18.858 l 67.663,29.96 c 7.088,3.14 15.487,0.407 18.859,-6.595 3.373,-7.003 0.399,-15.469 -6.597,-18.859 L 18.857,-6.597 C 11.749,-9.745 3.372,-7.003 0,0" /></g><g
         style="fill:#ffc107;fill-opacity:1"
         transform="translate(594.2393,189.2559)"
         id="g84"><path
           inkscape:connector-curvature="0"
           id="path86"
           style="fill:#ffc107;fill-opacity:1;fill-rule:evenodd;stroke:none"
           d="m 0,0 c 5.091,-12.303 29.013,-72.816 -4.536,-69.989 -33.55,2.827 38.012,-46.852 38.012,-46.852 l 24.461,49.466 C 57.937,-67.375 47.124,-5.244 0,0" /></g><g
         style="fill:#ffc107;fill-opacity:1"
         transform="translate(653.3789,119.7949)"
         id="g88"><path
           inkscape:connector-curvature="0"
           id="path90"
           style="fill:#ffc107;fill-opacity:1;fill-rule:evenodd;stroke:none"
           d="M 0,0 -51.871,-49.611 -30.927,-79.348 26.477,-36.125 0,0 Z" /></g><g
         style="fill:#ffc107;fill-opacity:1"
         transform="translate(690.5547,81.837904)"
         id="g92"><path
           inkscape:connector-curvature="0"
           id="path94"
           style="fill:#ffc107;fill-opacity:1;fill-rule:evenodd;stroke:none"
           d="M 0,0 -73.253,-55.156 -56.212,-77.789 17.041,-22.632 0,0 Z" /></g><path
         inkscape:connector-curvature="0"
         id="path104"
         style="fill:#ffc107;fill-opacity:1;fill-rule:evenodd;stroke:none"
         d="m 256.237,0 287.688,0 0,297.76 -287.688,0 0,-297.76 z" /><g
         id="g106"><g
           id="g108"><g
             id="g114"><g
               id="g116"><path
                 inkscape:connector-curvature="0"
                 id="path124"
                 style="fill:#ffc107;fill-opacity:1;stroke:none"
                 d="m 256.237,0 287.688,0 0,297.76 -287.688,0 0,-297.76 z" /></g></g></g></g><g
         id="g128"
         clip-path="url(#clipPath130)"><path
           d="m 268.16,0 263.842,0 0,285.419 -263.842,0 0,-285.419 z"
           style="fill:#eeeff6;fill-opacity:1;fill-rule:evenodd;stroke:none"
           id="path134"
           inkscape:connector-curvature="0" /><path
           d="m 281.492,135.318 232.33,0 0,16.01 -232.33,0 0,-16.01 z"
           style="fill:#0fc48b;fill-opacity:1;fill-rule:evenodd;stroke:none"
           id="path136"
           inkscape:connector-curvature="0" /><path
           d="m 281.492,108.088 232.33,0 0,16.01 -232.33,0 0,-16.01 z"
           style="fill:#0fc48b;fill-opacity:1;fill-rule:evenodd;stroke:none"
           id="path138"
           inkscape:connector-curvature="0" /><path
           d="m 281.492,80.859 232.33,0 0,16.01 -232.33,0 0,-16.01 z"
           style="fill:#0fc48b;fill-opacity:1;fill-rule:evenodd;stroke:none"
           id="path140"
           inkscape:connector-curvature="0" /><path
           d="m 281.492,53.63 232.33,0 0,16.01 -232.33,0 0,-16.01 z"
           style="fill:#0fc48b;fill-opacity:1;fill-rule:evenodd;stroke:none"
           id="path142"
           inkscape:connector-curvature="0" /><path
           d="m 281.492,174.92 73.191,0 0,97.697 -73.191,0 0,-97.697 z"
           style="fill:#ffffff;fill-opacity:1;fill-rule:evenodd;stroke:none"
           id="path144"
           inkscape:connector-curvature="0" /><g
           id="g146"
           transform="translate(318.084,203.8896)"><path
             d="m 0,0 -5.963,-5.785 3.997,-8.072 -1.137,-20.779 3.103,0 0,-6.207 c -15.339,0.303 -30.65,4.586 -36.54,11.873 l -0.052,0.035 c 3.705,10.434 6.321,19.245 12.635,23.344 2.939,1.909 5.551,3.379 7.927,4.506 l 4.331,-8.089 10.53,10.108 -6.212,3.706 0,3.77 c -4.993,3.079 -8.913,8.991 -10.639,15.3 -1.121,-0.146 -2.464,1.753 -3.036,4.322 -0.511,2.297 -0.236,4.371 0.598,5.031 l 0,10e-4 0.011,-10e-4 c 0.121,0.096 0.255,0.162 0.4,0.194 1.137,0.254 2.533,-1.676 3.118,-4.309 0.27,-1.211 0.321,-2.361 0.187,-3.273 0.327,-0.946 0.861,-1.141 1.181,-0.416 0.117,2.13 0.267,2.699 -0.828,6.167 -0.841,1.906 -1.685,3.519 -4.065,3.057 l -0.011,-0.004 c 0.301,8.76 6.988,20.258 20.465,20.546 L 0,0 Z M 0.053,0.051 0,0 0,55.025 c 0.172,0.004 0.344,0.007 0.519,0.007 12.426,0 18.584,-12.268 19.756,-20.166 -0.926,-0.007 -1.799,-0.262 -2.528,-0.801 -0.37,-0.291 -0.684,-0.625 -0.949,-0.989 -0.233,-0.337 -0.434,-0.725 -0.597,-1.167 l -0.02,0.088 c -0.807,-1.805 -0.81,-3.965 -0.681,-5.342 0.287,-1.095 0.838,-0.77 1.198,0.059 0,0.686 0.083,1.447 0.258,2.234 0.054,0.243 0.115,0.48 0.182,0.709 l 0.015,0.097 0.006,-0.025 c 0.665,2.223 1.895,3.755 2.916,3.528 0.139,-0.031 0.268,-0.094 0.386,-0.184 l 0.001,-0.009 c 0.836,-0.657 1.112,-2.732 0.601,-5.032 C 20.487,25.449 19.131,23.543 18.007,23.713 16.282,17.402 12.362,11.49 7.368,8.41 l 0,-3.77 -6.146,-3.702 10.461,-10.112 4.262,7.959 c 2.409,-1.102 5.047,-2.529 7.996,-4.376 C 30.331,-9.593 32.903,-18.485 36.6,-28.97 30.526,-37.507 15.249,-41.143 0,-40.843 l 0,6.207 3.109,0 -1.136,20.778 3.991,8.056 -5.911,5.853 z"
             style="fill:#ffc107;fill-opacity:1;fill-rule:evenodd;stroke:none;stroke-opacity:1"
             id="path148"
             inkscape:connector-curvature="0" /></g><g
           style="fill:#ffffff"
           id="g150"
           transform="translate(334.6201,231.8652)"><path
             d="m 0,0 c 0.288,-0.65 -0.901,-1.695 -0.905,-1.685 l -6.984,15.23 -22.653,-8.084 -1.575,-7.86 c -0.193,-0.986 -1.216,1.615 -1.024,2.6 l 1.18,5.953 c 0.043,0.267 0.226,0.502 0.498,0.6 l 23.725,8.465 0.002,-0.002 c 0.371,0.133 0.788,-0.043 0.95,-0.409 L 0,0 Z"
             style="fill:#ffffff;fill-opacity:1;fill-rule:nonzero;stroke:none"
             id="path152"
             inkscape:connector-curvature="0" /></g><path
           d="m 371.103,256.608 142.72,0 0,16.01 -142.72,0 0,-16.01 z"
           style="fill:#0fc48b;fill-opacity:1;fill-rule:evenodd;stroke:none"
           id="path156"
           inkscape:connector-curvature="0" /><path
           d="m 371.103,229.379 142.72,0 0,16.01 -142.72,0 0,-16.01 z"
           style="fill:#0fc48b;fill-opacity:1;fill-rule:evenodd;stroke:none"
           id="path158"
           inkscape:connector-curvature="0" /><path
           d="m 371.103,202.149 142.72,0 0,16.01 -142.72,0 0,-16.01 z"
           style="fill:#0fc48b;fill-opacity:1;fill-rule:evenodd;stroke:none"
           id="path160"
           inkscape:connector-curvature="0" /><path
           d="m 371.103,174.92 142.72,0 0,16.01 -142.72,0 0,-16.01 z"
           style="fill:#0fc48b;fill-opacity:1;fill-rule:evenodd;stroke:none"
           id="path162"
           inkscape:connector-curvature="0" /><g
           id="g164"
           transform="translate(543.9248,106.4619)" /><g
           style="fill:#ffc107;fill-opacity:1;stroke:none;stroke-opacity:1"
           id="g168"
           transform="translate(598.3047,94.4629)"><path
             d="m 0,0 0,0 c -5.047,-7.604 -15.784,-10.204 -22.996,-4.648 l -65.167,50.196 c -7.213,5.556 -9.696,15.391 -4.65,22.995 5.047,7.603 15.378,9.677 22.994,4.646 L -4.648,22.992 C 2.582,17.423 5.046,7.603 0,0"
             style="fill:#ffc107;fill-opacity:1;fill-rule:evenodd;stroke:none;stroke-opacity:1"
             id="path170"
             inkscape:connector-curvature="0" /></g><g
           id="g172"
           transform="translate(256.2373,106.4619)" /><g
           id="g176"
           transform="translate(201.8574,94.4629)"><path
             d="m 0,0 0,0 c 5.047,-7.604 15.784,-10.204 22.996,-4.648 l 65.167,50.196 c 7.212,5.556 9.696,15.391 4.65,22.995 -5.047,7.603 -15.378,9.677 -22.994,4.646 L 4.648,22.992 C -2.582,17.423 -5.046,7.603 0,0"
             style="fill:#ffc107;fill-opacity:1;fill-rule:evenodd;stroke:none"
             id="path178"
             inkscape:connector-curvature="0" /></g><path
           d="m 280.40551,27.489896 232.33,0 0,16.01 -232.33,0 0,-16.01 z"
           style="fill:#0fc48b;fill-opacity:1;fill-rule:evenodd;stroke:none"
           id="path142-7"
           inkscape:connector-curvature="0" /><path
           d="m 280.31077,2.1634556 232.33,0 0,16.0100004 -232.33,0 0,-16.0100004 z"
           style="fill:#0fc48b;fill-opacity:1;fill-rule:evenodd;stroke:none"
           id="path142-9"
           inkscape:connector-curvature="0" /></g></g></g></svg>