<?xml version="1.0" encoding="UTF-8" standalone="no"?>
<!-- Generator: Adobe Illustrator 16.0.0, SVG Export Plug-In . SVG Version: 6.00 Build 0)  -->

<svg
   xmlns:dc="http://purl.org/dc/elements/1.1/"
   xmlns:cc="http://creativecommons.org/ns#"
   xmlns:rdf="http://www.w3.org/1999/02/22-rdf-syntax-ns#"
   xmlns:svg="http://www.w3.org/2000/svg"
   xmlns="http://www.w3.org/2000/svg"
   xmlns:sodipodi="http://sodipodi.sourceforge.net/DTD/sodipodi-0.dtd"
   xmlns:inkscape="http://www.inkscape.org/namespaces/inkscape"
   version="1.1"
   id="Capa_1"
   x="0px"
   y="0px"
   width="300.00034"
   height="229.95599"
   viewBox="0 0 110.072 84.37274"
   xml:space="preserve"
   inkscape:version="0.91 r13725"
   sodipodi:docname="fast-forward-sketched-arrows.svg"><metadata
     id="metadata8081"><rdf:RDF><cc:Work
         rdf:about=""><dc:format>image/svg+xml</dc:format><dc:type
           rdf:resource="http://purl.org/dc/dcmitype/StillImage" /><dc:title></dc:title></cc:Work></rdf:RDF></metadata><defs
     id="defs8079" /><sodipodi:namedview
     pagecolor="#ffffff"
     bordercolor="#666666"
     borderopacity="1"
     objecttolerance="10"
     gridtolerance="10"
     guidetolerance="10"
     inkscape:pageopacity="0"
     inkscape:pageshadow="2"
     inkscape:window-width="1284"
     inkscape:window-height="686"
     id="namedview8077"
     showgrid="false"
     fit-margin-top="0"
     fit-margin-left="0"
     fit-margin-right="0"
     fit-margin-bottom="0"
     inkscape:zoom="0.4609375"
     inkscape:cx="88.170035"
     inkscape:cy="114.97852"
     inkscape:window-x="21"
     inkscape:window-y="38"
     inkscape:window-maximized="0"
     inkscape:current-layer="Capa_1" /><g
     id="g8043"
     transform="matrix(0.58594184,0,0,0.58594184,-4.7076286e-4,-12.850378)"><path
       d="M 157.142,59.993 C 139.694,47.467 118.478,31.386 97.44,25.602 c -0.056,-0.015 -0.104,0.001 -0.158,-0.01 -1.198,-1.942 -4.694,-1.593 -4.695,1.229 -0.006,14.395 0.085,28.803 0.41,43.201 C 85.708,62.506 72.841,55.453 67.07,51.351 52.945,41.31 36.865,30.321 20,25.328 19.995,21.167 13.551,20.703 13.08,24.635 4.97,48.977 3.263,76.401 1.685,101.817 c -0.904,14.556 -6.061,52.244 7.784,63.071 1.359,1.062 3.095,1.073 4.338,0.349 1.02,0.769 2.457,1.01 3.376,0.119 10.186,-4.325 19.637,-15.742 28.433,-22.325 8.783,-6.573 17.441,-13.284 26.27,-19.797 3.128,-2.308 15.998,-9.704 22.645,-16.587 1.174,18.504 3.045,36.953 6.091,55.292 0.037,-0.017 0.073,-0.032 0.111,-0.047 0.088,0.326 0.133,0.652 0.282,0.979 1.977,4.316 7.828,1.028 7.135,-3.008 -1.458,-8.483 -2.571,-16.993 -3.536,-25.516 2.243,3.465 4.921,6.59 7.981,9.392 1.565,1.433 3.426,3.105 5.497,4.032 -5.435,4.976 -10.071,10.566 -7.197,13.735 0.189,0.208 0.507,0.272 0.771,0.203 0.201,-0.052 0.402,-0.104 0.604,-0.157 0.341,-0.09 0.458,-0.341 0.456,-0.598 0.288,0.066 0.663,0.086 1.169,0.014 2.039,-0.299 4.635,-3.578 6.093,-4.824 6.825,-5.829 13.993,-11.25 20.845,-17.049 8.756,-7.412 17.337,-15.069 25.811,-22.802 7.049,-6.433 18.305,-14.33 20.993,-23.886 0.078,-0.279 0.092,-0.55 0.094,-0.817 2.115,-11.735 -23.259,-26.335 -30.589,-31.597 z m -142.257,99.86 c -1.495,-6.314 -2.594,-12.682 -3.421,-19.081 2.1,1.751 4.196,3.508 6.309,5.244 1.98,1.626 4.034,3.396 6.181,4.999 -3.069,2.89 -6.121,5.8 -9.069,8.838 z m 11.622,-11.274 c -1.909,-1.245 -3.847,-2.452 -5.697,-3.756 -3.319,-2.341 -6.54,-4.811 -9.749,-7.298 -0.478,-4.242 -0.815,-8.5 -1.042,-12.769 2.537,3.606 5.236,7.095 8.168,10.414 3.065,3.472 7.113,7.66 11.512,10.571 -1.059,0.951 -2.143,1.874 -3.192,2.838 z m 6.969,-6.193 c -3.817,-2.662 -7.83,-5.07 -11.334,-8.285 -4.603,-4.225 -8.639,-8.991 -12.311,-14.028 -0.149,-4.508 -0.136,-9.027 -0.047,-13.551 6.388,8.791 14.264,16.479 21.594,24.454 1.41,1.534 3.665,5.242 6.207,7.993 -1.359,1.15 -2.766,2.249 -4.109,3.417 z m 7.55,-6.278 c -3.129,-3.359 -8.437,-9.832 -9.635,-10.976 -7.63,-7.273 -14.923,-14.685 -21.47,-22.924 0.127,-3.648 0.343,-7.301 0.598,-10.953 5.774,7.236 12.341,13.845 18.936,20.317 6.061,5.949 12.195,12.936 18.896,18.603 -2.451,1.968 -4.907,3.931 -7.325,5.933 z m 11.213,-9.042 C 46.801,121.338 39.897,116.469 34.167,111.426 25.812,104.072 17.954,96.388 10.779,87.929 c 0.375,-4.694 0.854,-9.387 1.401,-14.075 7.503,8.434 15.283,16.626 23.104,24.763 7.316,7.612 14.849,16.997 23.564,23.362 -2.212,1.688 -4.429,3.37 -6.609,5.087 z M 62.56,119.139 C 55.47,110.721 45.749,103.612 37.866,96.035 29.223,87.728 20.909,79.108 12.617,70.456 c 0.484,-3.879 1.028,-7.752 1.601,-11.618 14.268,21.311 35.391,38.614 54.16,55.95 -1.939,1.449 -3.878,2.902 -5.818,4.351 z m 10.186,-7.616 C 54.615,91.345 31.383,76.805 14.825,54.936 15.578,50.1 16.398,45.283 17.252,40.48 28.5,50.959 40.664,60.393 52.325,70.4 c 11.78,10.11 20.601,21.933 31.236,32.828 -3.578,2.798 -7.181,5.565 -10.815,8.295 z M 92.267,97.575 c 1.449,-2.464 -2.093,0.327 -4.726,2.487 C 83.38,88.856 70.414,79.733 61.773,72.461 47.804,60.707 32.905,50.105 19.175,38.055 c -0.451,-0.396 -0.958,-0.452 -1.414,-0.334 0.485,-2.663 0.96,-5.333 1.472,-7.981 14.352,7.465 27.403,16.646 40.502,26.157 7.767,5.639 15.25,11.653 22.661,17.748 3.397,2.794 6.615,7.106 10.935,8.331 0.16,4.734 0.37,9.465 0.605,14.192 -0.647,0.238 -1.242,0.679 -1.669,1.407 z m 28.613,47.728 c -2.377,-0.874 -4.864,-3.126 -6.611,-4.611 -3.315,-2.82 -6.358,-6.108 -8.799,-9.71 -0.343,-0.506 -0.854,-0.646 -1.315,-0.551 -0.371,-3.517 -0.697,-7.035 -1.01,-10.556 0.058,0.145 0.116,0.288 0.228,0.423 4.377,5.332 9.211,10.209 14.273,14.888 2.093,1.933 4.654,4.551 7.387,6.725 -1.281,1.017 -2.706,2.165 -4.153,3.392 z m 8.824,-7.117 c -0.192,0.172 -0.46,0.395 -0.764,0.641 -2.921,-2.118 -6.189,-4.025 -8.771,-6.163 -5.294,-4.382 -10.242,-9.223 -14.773,-14.388 -0.884,-1.008 -2.122,-0.241 -2.328,0.789 -0.471,-5.389 -0.829,-10.788 -1.192,-16.188 6.886,6.346 13.433,13.086 19.943,19.8 3.36,3.464 7.31,8.616 11.792,11.986 -1.304,1.173 -2.601,2.353 -3.907,3.523 z m 7.385,-6.658 C 125.61,120.507 113.654,109.541 101.606,99.221 101.3,94.42 101.035,89.617 100.777,84.813 c 6.909,6.942 13.847,13.857 20.907,20.644 6.924,6.654 14.052,14.391 22.061,20.071 -2.221,1.999 -4.437,4.001 -6.656,6 z m 16.913,-15.249 c -2.287,2.064 -4.575,4.125 -6.863,6.188 -7.005,-7.019 -15.663,-12.952 -23.065,-19.398 -8.037,-6.999 -15.815,-14.257 -23.484,-21.648 -0.298,-5.729 -0.573,-11.461 -0.853,-17.193 9.642,8.976 19.802,17.428 29.758,26.041 8.902,7.701 17.232,16.96 26.766,23.861 -0.753,0.731 -1.505,1.467 -2.259,2.149 z m 5.284,-5.2 C 152.177,101.836 141.374,94.626 132.438,87.322 121.355,78.262 110.352,69.159 99.517,59.804 99.384,57.095 99.214,54.389 99.076,51.68 c 25.433,13.777 44.633,34.186 66.737,52.399 -2.194,2.368 -4.364,4.745 -6.527,7 z M 98.935,49.085 c -0.294,-5.626 -0.563,-11.253 -0.918,-16.876 30.695,14.599 57.378,35.422 81.437,58.908 -1.128,0.842 -2.235,1.762 -3.331,2.713 -8.59,-10.367 -21.544,-19.02 -31.594,-26.822 -13.719,-10.654 -28.39,-20.672 -44.474,-27.379 -1.152,-0.481 -1.979,1.495 -0.849,2.015 16.975,7.8 31.793,19.175 45.988,31.184 9.148,7.739 17.163,17.465 26.261,25.358 -0.757,0.755 -1.512,1.521 -2.259,2.299 -22.411,-17.947 -43.992,-39.176 -70.261,-51.4 z"
       id="path8045"
       inkscape:connector-curvature="0"
       style="fill:#ffc107" /></g><g
     id="g8047"
     transform="translate(-38.892069,-51.742318)" /><g
     id="g8049"
     transform="translate(-38.892069,-51.742318)" /><g
     id="g8051"
     transform="translate(-38.892069,-51.742318)" /><g
     id="g8053"
     transform="translate(-38.892069,-51.742318)" /><g
     id="g8055"
     transform="translate(-38.892069,-51.742318)" /><g
     id="g8057"
     transform="translate(-38.892069,-51.742318)" /><g
     id="g8059"
     transform="translate(-38.892069,-51.742318)" /><g
     id="g8061"
     transform="translate(-38.892069,-51.742318)" /><g
     id="g8063"
     transform="translate(-38.892069,-51.742318)" /><g
     id="g8065"
     transform="translate(-38.892069,-51.742318)" /><g
     id="g8067"
     transform="translate(-38.892069,-51.742318)" /><g
     id="g8069"
     transform="translate(-38.892069,-51.742318)" /><g
     id="g8071"
     transform="translate(-38.892069,-51.742318)" /><g
     id="g8073"
     transform="translate(-38.892069,-51.742318)" /><g
     id="g8075"
     transform="translate(-38.892069,-51.742318)" /></svg>