<?xml version="1.0" encoding="UTF-8" standalone="no"?>
<svg
   xmlns:dc="http://purl.org/dc/elements/1.1/"
   xmlns:cc="http://creativecommons.org/ns#"
   xmlns:rdf="http://www.w3.org/1999/02/22-rdf-syntax-ns#"
   xmlns:svg="http://www.w3.org/2000/svg"
   xmlns="http://www.w3.org/2000/svg"
   viewBox="0 0 183.7375 245.54926"
   height="245.54926"
   width="183.7375"
   xml:space="preserve"
   version="1.1"
   id="svg2"><metadata
     id="metadata8"><rdf:RDF><cc:Work
         rdf:about=""><dc:format>image/svg+xml</dc:format><dc:type
           rdf:resource="http://purl.org/dc/dcmitype/StillImage" /><dc:title></dc:title></cc:Work></rdf:RDF></metadata><defs
     id="defs6"><clipPath
       id="clipPath18"
       clipPathUnits="userSpaceOnUse"><path
         id="path20"
         d="M 0,800 800,800 800,0 0,0 0,800 Z" /></clipPath><clipPath
       id="clipPath154"
       clipPathUnits="userSpaceOnUse"><path
         id="path156"
         d="M 0,800 800,800 800,0 0,0 0,800 Z" /></clipPath></defs><g
     transform="matrix(1.25,0,0,-1.25,-408.34738,949.02425)"
     id="g10"><g
       transform="translate(349.5591,701.334)"
       id="g204"><path
         id="path206"
         style="fill:#333333;fill-opacity:1;fill-rule:nonzero;stroke:none"
         d="m 0,0 c -1.801,1.803 -4.476,1.941 -6.278,0.139 l -7.834,-7.834 c -1.802,-1.802 -1.665,-4.476 0.138,-6.28 1.579,-1.578 3.972,-1.707 5.948,-0.338 l 4.524,-4.524 8.365,8.366 -4.523,4.525 C 1.709,-3.971 1.58,-1.578 0,0" /></g><g
       transform="translate(400.644,753.5654)"
       id="g208"><path
         id="path210"
         style="fill:#333333;fill-opacity:1;fill-rule:nonzero;stroke:none"
         d="m 0,0 c -13.512,0 -24.504,-10.083 -24.504,-22.478 0,-12.392 10.992,-22.475 24.504,-22.475 13.511,0 24.504,10.083 24.504,22.475 C 24.504,-10.083 13.511,0 0,0 m 0,-50.607 c -16.629,0 -30.159,12.619 -30.159,28.129 0,15.512 13.53,28.132 30.159,28.132 16.629,0 30.158,-12.62 30.158,-28.132 0,-15.51 -13.529,-28.129 -30.158,-28.129" /></g><g
       transform="translate(400.1729,701.29)"
       id="g212"><path
         id="path214"
         style="fill:#333333;fill-opacity:1;fill-rule:nonzero;stroke:none"
         d="m 0,0 c -35.848,0 -65.013,-29.165 -65.013,-65.014 0,-35.848 29.165,-65.014 65.013,-65.014 35.848,0 65.014,29.166 65.014,65.014 C 65.014,-29.165 35.848,0 0,0 m 0,-138.51 c -40.526,0 -73.495,32.97 -73.495,73.496 0,40.527 32.969,73.496 73.495,73.496 40.525,0 73.495,-32.969 73.495,-73.496 0,-40.526 -32.97,-73.496 -73.495,-73.496" /></g><path
       id="path216"
       style="fill:#333333;fill-opacity:1;fill-rule:nonzero;stroke:none"
       d="m 404,686 -7,0 0,10 7,0 0,-10 z" /><g
       transform="translate(367.2822,673.4023)"
       id="g218"><path
         id="path220"
         style="fill:#333333;fill-opacity:1;fill-rule:nonzero;stroke:none"
         d="M 0,0 -4,-4 -10.997,2.998 -6.999,6.996 0,0 Z" /></g><path
       id="path222"
       style="fill:#333333;fill-opacity:1;fill-rule:nonzero;stroke:none"
       d="m 352,633 -11,0 0,6 11,0 0,-6 z" /><g
       transform="translate(363.2822,603.4258)"
       id="g224"><path
         id="path226"
         style="fill:#333333;fill-opacity:1;fill-rule:nonzero;stroke:none"
         d="M 0,0 4,-3.998 -2.999,-10.996 -6.997,-6.997 0,0 Z" /></g><path
       id="path228"
       style="fill:#333333;fill-opacity:1;fill-rule:nonzero;stroke:none"
       d="m 397,586 7,0 0,-9 -7,0 0,9 z" /><g
       transform="translate(433.2588,599.4277)"
       id="g230"><path
         id="path232"
         style="fill:#333333;fill-opacity:1;fill-rule:nonzero;stroke:none"
         d="m 0,0 3.998,3.998 6.998,-6.997 -4,-3.999 L 0,0 Z" /></g><path
       id="path234"
       style="fill:#333333;fill-opacity:1;fill-rule:nonzero;stroke:none"
       d="m 450,639 10,0 0,-6 -10,0 0,6 z" /><g
       transform="translate(437.2568,669.4023)"
       id="g236"><path
         id="path238"
         style="fill:#333333;fill-opacity:1;fill-rule:nonzero;stroke:none"
         d="m 0,0 -3.998,4 6.996,6.996 4,-3.998 L 0,0 Z" /></g><path
       id="path240"
       style="fill:#333333;fill-opacity:1;fill-rule:nonzero;stroke:none"
       d="m 411,703 -19,0 0,23 19,0 0,-23 z" /><g
       transform="translate(417,724.4131)"
       id="g242"><path
         id="path244"
         style="fill:#333333;fill-opacity:1;fill-rule:nonzero;stroke:none"
         d="m 0,0 c 0,-0.78 -0.633,-1.413 -1.413,-1.413 l -29.174,0 C -31.367,-1.413 -32,-0.78 -32,0 l 0,15.174 c 0,0.78 0.633,1.413 1.413,1.413 l 29.174,0 C -0.633,16.587 0,15.954 0,15.174 L 0,0 Z" /></g><g
       style="fill:#0fc48b;fill-opacity:1"
       transform="translate(431.7734,668.6572)"
       id="g246"><path
         id="path248"
         style="fill:#0fc48b;fill-opacity:1;fill-rule:nonzero;stroke:none"
         d="m 0,0 -30.773,-31.187 0,44.263 c 12,0 22.936,-4.975 30.922,-13.006 C 0.179,0.043 -0.016,0.028 0,0" /></g><g
       transform="translate(406.9297,630.5947)"
       id="g250"><path
         id="path252"
         style="fill:#333333;fill-opacity:1;fill-rule:nonzero;stroke:none"
         d="m 0,0 c -3.289,-3.92 -8.506,-4.555 -12.123,-0.937 l -0.32,0.319 c -3.619,3.619 -2.987,8.833 0.936,12.123 8.743,7.34 27.314,20.245 35.423,26.158 1.689,1.231 3.271,-0.85 2.246,-2.232 C 19.168,26.003 7.341,8.746 0,0" /></g></g></svg>