<?xml version="1.0" encoding="utf-8"?>
<!-- Generator: Adobe Illustrator 23.0.3, SVG Export Plug-In . SVG Version: 6.00 Build 0)  -->
<svg version="1.1" id="Layer_1" xmlns="http://www.w3.org/2000/svg" xmlns:xlink="http://www.w3.org/1999/xlink" x="0px" y="0px"
	 viewBox="0 0 547.04 537.4" style="enable-background:new 0 0 547.04 537.4;" xml:space="preserve">
<style type="text/css">
	.st0{fill:#312F32;}
	.st1{fill:#02C588;}
</style>
<g>
	<path class="st0" d="M342,11.58c1.98-3.95,0.37-8.76-3.58-10.73c-3.95-1.98-8.76-0.37-10.73,3.58l-34.92,69.84h-19.13h-0.23h-19.13
		L219.36,4.42c-1.97-3.95-6.78-5.55-10.73-3.58c-3.95,1.98-5.55,6.78-3.58,10.73l35.22,70.44l8.99,86.81L231.82,271.6
		c-1.11,6.53,3.29,12.73,9.82,13.84c0.68,0.12,1.35,0.17,2.02,0.17c5.75,0,10.82-4.14,11.82-10L273.4,170h0.01h0.23h0.01
		l17.92,105.62c0.99,5.85,6.07,10,11.82,10c0.67,0,1.34-0.06,2.02-0.17c6.53-1.11,10.93-7.3,9.82-13.84l-17.43-102.77l8.99-86.81
		L342,11.58z"/>
	<circle class="st0" cx="273.52" cy="43.05" r="25.57"/>
	<polygon class="st0" points="364.7,448.18 364.7,294.01 182.35,294.01 182.35,410.62 0,410.62 0,537.4 182.35,537.4 364.7,537.4 
		547.04,537.4 547.04,448.18 	"/>
	<rect x="182.35" y="294.01" class="st1" width="182.35" height="6.52"/>
	<rect x="364.7" y="448.18" class="st1" width="182.35" height="6.52"/>
	<rect y="410.62" class="st1" width="182.35" height="6.52"/>
	<path class="st1" d="M289.26,46.72c0,8.69-7.05,15.74-15.74,15.74s-15.74-7.05-15.74-15.74H289.26z"/>
	<polygon class="st1" points="275.29,82.05 279,130.96 273.53,137.81 268.05,130.96 271.76,82.05 268.05,76.57 279,76.57 	"/>
</g>
</svg>
