<?xml version="1.0" encoding="utf-8"?>
<!-- Generator: Adobe Illustrator 23.0.3, SVG Export Plug-In . SVG Version: 6.00 Build 0)  -->
<svg version="1.1" id="Capa_1" xmlns="http://www.w3.org/2000/svg" xmlns:xlink="http://www.w3.org/1999/xlink" x="0px" y="0px"
	 viewBox="0 0 31.4 31.4" style="enable-background:new 0 0 31.4 31.4;" xml:space="preserve">
<style type="text/css">
	.st0{fill:#02C588;}
	.st1{fill:#F1EEF4;}
	.st2{fill:#312F32;}
</style>
<g>
	<g>
		<circle class="st0" cx="15.7" cy="15.7" r="15.7"/>
	</g>
	<g>
		<circle class="st1" cx="15.7" cy="15.7" r="14.7"/>
	</g>
	<g>
		<g>
			<path class="st2" d="M27.9,7.5l-0.4,0.1l-2.3,0.2l-0.7,1.1L24,8.8l-1.9-1.7l-0.3-0.9l-0.4-0.9l-1.2-1.1L18.9,4l0,0.6l1.4,1.3
				l0.7,0.8l-0.7,0.4l-0.6-0.2l-0.9-0.4l0-0.7l-1.2-0.5L17.1,7l-1.2,0.3l0.1,1l1.6,0.3L17.9,7l1.3,0.2l0.6,0.4h1l0.7,1.3l1.7,1.8
				L23,11.4l-1.4-0.2l-2.4,1.2l-1.8,2.1l-0.2,0.9h-0.6l-1.2-0.5l-1.1,0.5l0.3,1.2l0.5-0.6l0.9,0l-0.1,1.1l0.7,0.2l0.7,0.8l1.2-0.3
				l1.3,0.2l1.6,0.4l0.8,0.1l1.3,1.5l2.6,1.5l-1.7,3.2l-1.7,0.8L22,27.3L19.4,29l-0.3,1c6.4-1.6,11.2-7.3,11.2-14.3
				C30.4,12.7,29.5,9.9,27.9,7.5z"/>
			<path class="st2" d="M17.4,23.4l-1.1-2l1-2l-1-0.3L15.2,18l-2.4-0.5L12,15.7v1h-0.4l-2.1-2.9v-2.3L8,9L5.5,9.4H3.9L3,8.9l1.1-0.8
				L3,8.3c-1.3,2.2-2,4.7-2,7.4c0,8.1,6.6,14.7,14.7,14.7c0.6,0,1.2-0.1,1.8-0.1l-0.2-1.8c0,0,0.7-2.6,0.7-2.7
				C18.1,25.7,17.4,23.4,17.4,23.4z"/>
			<path class="st2" d="M6.5,5.7l2.6-0.4l1.2-0.7l1.4,0.4L13.8,5l0.7-1.2L15.6,4l2.6-0.2L19,3l1-0.7l1.4,0.2L22,2.4
				c-1.9-0.9-4-1.4-6.3-1.4C11.1,1,7.1,3.1,4.4,6.4h0L6.5,5.7z M16.3,2.5l1.5-0.8l1,0.6l-1.4,1.1l-1.3,0.1L15.5,3L16.3,2.5z
				 M11.9,2.6l0.7,0.3l0.9-0.3l0.5,0.8l-2,0.5l-1-0.6C10.9,3.4,11.9,2.8,11.9,2.6z"/>
		</g>
	</g>
	<g>
		<path class="st0" d="M22.5,19.3c0,0.3-0.2,1.3-1.3,2.6c-1.1-1.3-1.2-2.3-1.3-2.6c0-0.1,0-0.1,0-0.1c0-0.7,0.6-1.3,1.3-1.3
			c0.7,0,1.3,0.6,1.3,1.3C22.5,19.2,22.5,19.3,22.5,19.3z"/>
		<g>
			<circle class="st1" cx="21.3" cy="19.2" r="0.6"/>
		</g>
	</g>
	<g>
		<path class="st0" d="M19.3,9.1c0,0.3-0.2,1.3-1.3,2.6c-1.1-1.3-1.2-2.3-1.3-2.6c0-0.1,0-0.1,0-0.1c0-0.7,0.6-1.3,1.3-1.3
			c0.7,0,1.3,0.6,1.3,1.3C19.3,9,19.3,9.1,19.3,9.1z"/>
		<g>
			<circle class="st1" cx="18.1" cy="9" r="0.6"/>
		</g>
	</g>
</g>
</svg>
