<svg xmlns="http://www.w3.org/2000/svg" viewBox="0 0 183.7375 245.54926" height="245.549" width="183.738"><path d="M28.6 72.357c-2.25-2.254-5.594-2.426-7.846-.174l-9.793 9.793c-2.25 2.252-2.08 5.595.174 7.85 1.974 1.972 4.965 2.133 7.435.422l5.654 5.655L34.68 85.446l-5.654-5.657c1.712-2.47 1.55-5.46-.425-7.433M92.458 7.068c-16.89 0-30.63 12.603-30.63 28.097 0 15.49 13.74 28.094 30.63 28.094 16.888 0 30.63-12.605 30.63-28.095 0-15.494-13.742-28.097-30.63-28.097m0 63.258c-20.787 0-37.7-15.773-37.7-35.16C54.76 15.775 71.672 0 92.46 0c20.786 0 37.697 15.775 37.697 35.165 0 19.388-16.91 35.16-37.697 35.16" fill="#333"/><path d="M91.87 72.412c-44.81 0-81.268 36.456-81.268 81.267 0 44.81 36.457 81.267 81.267 81.267 44.81 0 81.266-36.458 81.266-81.268 0-44.812-36.457-81.268-81.267-81.268m0 173.137C41.21 245.55 0 204.336 0 153.68c0-50.66 41.21-91.87 91.87-91.87 50.655 0 91.867 41.21 91.867 91.87 0 50.657-41.212 91.87-91.868 91.87" fill="#333"/><path d="M96.653 91.524h-8.75v-12.5h8.75v12.5zM50.755 107.27l-5 5-8.746-8.746 4.997-4.998 8.748 8.745zM31.653 157.774h-13.75v-7.5h13.75v7.5zM45.755 194.742l5 4.998-8.748 8.747-4.998-5 8.745-8.745zM87.903 216.524h8.75v11.25h-8.75v-11.25zM133.226 199.74l4.998-4.998 8.747 8.746-5 5-8.744-8.748zM154.153 150.274h12.5v7.5h-12.5v-7.5zM138.224 112.27l-4.998-5 8.745-8.744 5 4.998-8.746 8.747zM105.403 70.274h-23.75v-28.75h23.75v28.75z" fill="#333"/><path d="M112.903 43.508c0 .975-.792 1.766-1.767 1.766H74.67c-.976 0-1.767-.79-1.767-1.766V24.54c0-.975.79-1.766 1.766-1.766h36.466c.975 0 1.767.79 1.767 1.766v18.968z" fill="#333"/><path d="M131.37 113.203l-38.467 38.984v-55.33c15 0 28.67 6.22 38.653 16.258.037.034-.207.053-.187.088" fill="#0fc48b"/><path d="M100.315 160.78c-4.112 4.9-10.633 5.695-15.154 1.172l-.4-.4c-4.523-4.522-3.733-11.04 1.17-15.152 10.93-9.175 34.143-25.307 44.28-32.698 2.11-1.54 4.088 1.063 2.807 2.79-8.742 11.785-23.526 33.356-32.702 44.29" fill="#333"/></svg>