<svg width="30" height="30" viewBox="0 0 30 30" fill="none" xmlns="http://www.w3.org/2000/svg">
<path fill-rule="evenodd" clip-rule="evenodd" d="M15 2.99992C8.37262 2.99992 3.00004 8.3725 3.00004 14.9999C3.00004 21.6273 8.37262 26.9999 15 26.9999C21.6275 26.9999 27 21.6273 27 14.9999C27 8.3725 21.6275 2.99992 15 2.99992ZM0.333374 14.9999C0.333374 6.89974 6.89986 0.333252 15 0.333252C23.1002 0.333252 29.6667 6.89974 29.6667 14.9999C29.6667 23.1001 23.1002 29.6666 15 29.6666C6.89986 29.6666 0.333374 23.1001 0.333374 14.9999ZM15.3442 9.69912C14.7235 9.59265 14.0852 9.7093 13.5422 10.0284C12.9993 10.3475 12.5868 10.8484 12.3778 11.4425C12.1334 12.1371 11.3722 12.5022 10.6776 12.2578C9.98292 12.0134 9.61789 11.2522 9.86225 10.5576C10.2802 9.36943 11.1052 8.36754 12.1911 7.72936C13.2769 7.09119 14.5536 6.85791 15.795 7.07084C17.0364 7.28377 18.1624 7.92917 18.9735 8.89273C19.7845 9.8561 20.2284 11.0753 20.2267 12.3346C20.2261 14.3751 18.7133 15.7226 17.633 16.4428C17.0521 16.83 16.4808 17.1147 16.0599 17.3018C15.8475 17.3962 15.6687 17.4678 15.5399 17.5168C15.4754 17.5414 15.4231 17.5605 15.385 17.574L15.3387 17.5902L15.3239 17.5953L15.3187 17.597L15.3167 17.5977C15.3163 17.5978 15.315 17.5983 14.8934 16.3334L15.315 17.5983C14.6164 17.8311 13.8613 17.4536 13.6285 16.755C13.3957 16.0569 13.7726 15.3023 14.4703 15.0689L14.4916 15.0615C14.5121 15.0542 14.5457 15.042 14.5906 15.0249C14.6805 14.9906 14.8142 14.9372 14.9768 14.8649C15.306 14.7187 15.7346 14.5034 16.1538 14.224C17.0732 13.611 17.56 12.9589 17.56 12.3334V12.3314C17.561 11.7016 17.339 11.0918 16.9334 10.6101C16.5279 10.1283 15.9649 9.80559 15.3442 9.69912ZM15 20.3333C14.2637 20.3333 13.6667 20.9302 13.6667 21.6666C13.6667 22.403 14.2637 22.9999 15 22.9999H15.0134C15.7498 22.9999 16.3467 22.403 16.3467 21.6666C16.3467 20.9302 15.7498 20.3333 15.0134 20.3333H15Z" fill="#00B074"/>
</svg>
