<?xml version="1.0" encoding="utf-8"?>
<!-- Generator: Adobe Illustrator 23.0.3, SVG Export Plug-In . SVG Version: 6.00 Build 0)  -->
<svg version="1.1" id="Layer_1" xmlns="http://www.w3.org/2000/svg" xmlns:xlink="http://www.w3.org/1999/xlink" x="0px" y="0px"
	 viewBox="0 0 110.03 80.78" style="enable-background:new 0 0 110.03 80.78;" xml:space="preserve">
<style type="text/css">
	.st0{fill:#777777;}
</style>
<g id="Group_281" transform="translate(-1444 -1156.213)">
	<g id="Group_280" transform="translate(1444 1156.214)">
		<g id="Group_267" transform="translate(84.468 34.493)">
			<g id="Group_266">
				<path id="Path_483" class="st0" d="M12.61,1.87C8.87,0,1.85-0.03,1.55-0.03c-0.89,0-1.61,0.72-1.61,1.61
					c0,0.89,0.72,1.61,1.61,1.61c1.81,0,7.07,0.28,9.62,1.55c0.8,0.4,1.76,0.08,2.16-0.72C13.73,3.23,13.41,2.26,12.61,1.87
					L12.61,1.87z"/>
			</g>
		</g>
		<g id="Group_269" transform="translate(0 0)">
			<g id="Group_268">
				<path id="Path_484" class="st0" d="M105.11,59.31l-6.66-1.9c-0.29-0.08-0.49-0.35-0.49-0.65v-2.22c0.55-0.38,1.06-0.8,1.54-1.26
					c2.33-2.24,3.64-5.34,3.63-8.58v-3.07l0.64-1.29c0.71-1.42,1.08-2.99,1.08-4.57v-8.31c0-0.89-0.72-1.61-1.61-1.61H87.74
					c-5.65,0.01-10.22,4.58-10.23,10.23v0.1c0,1.32,0.31,2.62,0.9,3.8l0.83,1.65v2.63c0,4.02,1.92,7.8,5.17,10.17v2.33
					c0,0.36,0,0.51-1.33,0.89l-3.25,0.93l-9.39-3.42c0.04-0.46-0.12-0.9-0.44-1.23l-3-3.15v-5.3c0.32-0.26,0.63-0.53,0.93-0.81
					c3.79-3.57,5.95-8.55,5.95-13.75v-4.23c1.14-2.46,1.72-5.13,1.72-7.84V1.61c0-0.89-0.72-1.61-1.61-1.61H49.86
					c-8.5,0.01-15.39,6.9-15.4,15.4v3.45c0,2.71,0.59,5.38,1.72,7.84v3.64c-0.02,5.78,2.5,11.28,6.89,15.03v5.42l-3,3.15
					c-0.31,0.33-0.47,0.78-0.44,1.23l-9.92,3.61c-0.71,0.26-1.38,0.61-1.99,1.04l-1.56-0.78c4.64-2.02,6.1-4.86,6.17-5
					c0.23-0.45,0.23-0.99,0-1.44c-1.16-2.32-1.3-6.58-1.42-10.01c-0.04-1.14-0.07-2.22-0.14-3.17c-0.55-7.73-6.43-13.56-13.67-13.56
					S4,31.68,3.45,39.41c-0.07,0.96-0.1,2.04-0.14,3.17c-0.11,3.42-0.25,7.68-1.42,10.01c-0.23,0.45-0.23,0.99,0,1.44
					c0.07,0.14,1.54,2.97,6.18,5l-4.32,2.16c-2.3,1.14-3.76,3.5-3.75,6.07v11.91c0,0.89,0.72,1.61,1.61,1.61s1.61-0.72,1.61-1.61
					c0,0,0,0,0,0V67.26c0-1.35,0.76-2.58,1.97-3.18l5.39-2.7l1.87,1.78c2.62,2.49,6.73,2.49,9.34,0l1.87-1.78l1.76,0.88
					c-0.85,1.35-1.3,2.91-1.3,4.5v12.41c0,0.89,0.72,1.61,1.61,1.61c0.89,0,1.61-0.72,1.61-1.61c0,0,0,0,0,0V66.76
					c0-2.22,1.39-4.2,3.48-4.96L41.28,58l4.35,6.53c0.55,0.83,1.45,1.37,2.45,1.47c0.11,0.01,0.22,0.02,0.33,0.02
					c0.88,0,1.73-0.35,2.35-0.98l2.66-2.66v16.79c0,0.89,0.72,1.61,1.61,1.61c0.89,0,1.61-0.72,1.61-1.61V62.38l2.66,2.66
					c0.62,0.63,1.47,0.98,2.35,0.98c0.11,0,0.22-0.01,0.33-0.02c0.99-0.1,1.89-0.64,2.45-1.47L68.78,58l10.46,3.8
					c2.08,0.76,3.47,2.74,3.48,4.96v12.41c0,0.89,0.72,1.61,1.61,1.61c0.89,0,1.61-0.72,1.61-1.61c0,0,0,0,0,0V66.76
					c0-2.2-0.86-4.31-2.38-5.9l0.4-0.11c0.51-0.14,1.02-0.32,1.5-0.54l4.11,4.11v14.84c0,0.89,0.72,1.61,1.61,1.61
					s1.61-0.72,1.61-1.61c0,0,0,0,0,0V64.32l4.09-4.09c0.22,0.11,0.45,0.2,0.69,0.27l6.66,1.9c1.52,0.44,2.58,1.83,2.58,3.42v13.34
					c0,0.89,0.72,1.61,1.61,1.61c0.89,0,1.61-0.72,1.61-1.61V65.83C110.02,62.81,108.02,60.15,105.11,59.31z M10.34,56.46
					c-1.99-0.62-3.78-1.77-5.17-3.32c0.45-1.25,0.76-2.54,0.92-3.86c0.89,2.12,2.36,3.94,4.25,5.25L10.34,56.46z M19.57,60.82
					c-1.37,1.31-3.53,1.31-4.9,0l-1.5-1.42c0.26-0.48,0.39-1.02,0.39-1.57v-1.72c2.32,0.72,4.8,0.72,7.12,0v1.72
					c0,0.55,0.13,1.09,0.39,1.57L19.57,60.82z M17.12,53.43c-4.82-0.01-8.72-3.91-8.73-8.73c0.01-0.88-0.7-1.6-1.59-1.61
					c-0.1,0-0.2,0.01-0.29,0.02c0-0.14,0.01-0.28,0.01-0.41c0.04-1.11,0.07-2.16,0.13-3.05c0.17-2.81,1.32-5.47,3.26-7.52
					c3.85-3.98,10.19-4.08,14.16-0.23c0.08,0.08,0.16,0.16,0.23,0.23c1.94,2.04,3.09,4.7,3.26,7.52c0.06,0.9,0.1,1.94,0.13,3.05
					l0.01,0.29c-1.89-2.81-4.71-4.87-7.96-5.82c-1.98-0.64-4.05-0.96-6.13-0.97c-0.42,0.01-0.82,0.19-1.12,0.49L9.61,39.7
					c-0.63,0.63-0.62,1.65,0.01,2.28c0.63,0.63,1.65,0.62,2.28-0.01c0.01-0.01,0.02-0.02,0.03-0.03l2.42-2.51
					c2.08,0.1,8.79,0.88,11.39,6.62C25.08,50.3,21.42,53.43,17.12,53.43L17.12,53.43z M23.9,56.47v-1.92
					c1.9-1.3,3.37-3.13,4.26-5.25c0.16,1.31,0.47,2.61,0.92,3.85C27.68,54.7,25.89,55.84,23.9,56.47L23.9,56.47z M39.41,30.32v-4
					c0-0.24-0.05-0.48-0.16-0.7c-1.03-2.11-1.56-4.43-1.56-6.77V15.4C37.7,8.68,43.14,3.23,49.86,3.22h22.52v15.62
					c0,2.35-0.54,4.66-1.56,6.77c-0.11,0.22-0.16,0.46-0.16,0.7v4.6c0.02,4.32-1.77,8.46-4.94,11.4c-0.39,0.37-0.81,0.72-1.24,1.05
					l-0.03,0.02c-2.99,2.27-6.71,3.38-10.46,3.12C45.82,45.97,39.41,38.86,39.41,30.32z M48.49,62.75
					c-0.02,0.03-0.06,0.04-0.09,0.03c-0.03,0-0.06-0.02-0.08-0.05l-5.01-7.52l1.61-1.7l7.6,5.2L48.49,62.75z M55.04,56.53
					l-8.73-5.97v-3.01c2.31,1.25,4.86,1.99,7.48,2.16c0.43,0.03,0.85,0.04,1.27,0.04c3.03,0.01,6.02-0.73,8.71-2.14v2.94
					L55.04,56.53z M61.75,62.73c-0.02,0.03-0.05,0.05-0.08,0.05c-0.03,0.01-0.07-0.01-0.09-0.03l-4.03-4.03l7.6-5.2l1.61,1.7
					L61.75,62.73z M91.19,61.37l-3.66-3.66c0.07-0.31,0.1-0.64,0.1-0.96v-0.68c1.03,0.34,2.11,0.53,3.19,0.56
					c0.12,0,0.25,0.01,0.37,0.01c1.2,0,2.4-0.18,3.55-0.54v0.65c0,0.32,0.04,0.63,0.12,0.94L91.19,61.37z M97.27,50.96
					c-1.69,1.65-3.98,2.54-6.35,2.46c-4.81-0.3-8.54-4.34-8.46-9.16v-3.01c0-0.25-0.06-0.5-0.17-0.72l-1-1.99
					c-0.37-0.73-0.56-1.54-0.56-2.36v-0.1c0-3.87,3.14-7,7-7h13.9v6.69c0,1.09-0.25,2.16-0.74,3.13l-0.81,1.63
					c-0.11,0.22-0.17,0.47-0.17,0.72v3.45C99.92,47.06,98.96,49.32,97.27,50.96z"/>
			</g>
		</g>
		<g id="Group_271" transform="translate(99.99 67.262)">
			<g id="Group_270">
				<path id="Path_485" class="st0" d="M1.54-0.05c-0.89,0-1.61,0.72-1.61,1.61l0,0V11.9c0,0.89,0.72,1.61,1.61,1.61
					s1.61-0.72,1.61-1.61V1.56C3.15,0.67,2.43-0.05,1.54-0.05L1.54-0.05z"/>
			</g>
		</g>
		<g id="Group_273" transform="translate(6.899 69.395)">
			<g id="Group_272">
				<path id="Path_486" class="st0" d="M1.61-0.05c-0.89,0-1.61,0.72-1.61,1.61l0,0v8.21c0,0.89,0.72,1.61,1.61,1.61
					c0.89,0,1.61-0.72,1.61-1.61V1.56C3.22,0.67,2.5-0.05,1.61-0.05C1.61-0.05,1.61-0.05,1.61-0.05z"/>
			</g>
		</g>
		<g id="Group_275" transform="translate(41.392 14.654)">
			<g id="Group_274">
				<path id="Path_487" class="st0" d="M26.85,4.77C20.75-1.32,8-0.16,2.8,0.63c-1.63,0.24-2.84,1.65-2.83,3.3v3.71
					c0,0.89,0.72,1.61,1.61,1.61s1.61-0.72,1.61-1.61c0,0,0,0,0,0V3.93c0-0.05,0.03-0.1,0.08-0.11c3.46-0.53,6.97-0.7,10.47-0.51
					c5.03,0.33,8.67,1.6,10.82,3.75c0.64,0.62,1.66,0.61,2.28-0.02C27.46,6.4,27.46,5.4,26.85,4.77L26.85,4.77z"/>
			</g>
		</g>
		<g id="Group_277" transform="translate(34.493 70.712)">
			<g id="Group_276">
				<path id="Path_488" class="st0" d="M1.59-0.05c-0.89,0-1.61,0.72-1.61,1.61l0,0v6.89c0,0.89,0.72,1.61,1.61,1.61
					c0.89,0,1.61-0.72,1.61-1.61V1.56C3.2,0.67,2.48-0.05,1.59-0.05z"/>
			</g>
		</g>
		<g id="Group_279" transform="translate(72.436 70.712)">
			<g id="Group_278">
				<path id="Path_489" class="st0" d="M1.56-0.05c-0.89,0-1.61,0.72-1.61,1.61l0,0v6.89c0,0.89,0.72,1.61,1.61,1.61
					s1.61-0.72,1.61-1.61V1.56C3.17,0.67,2.45-0.05,1.56-0.05L1.56-0.05z"/>
			</g>
		</g>
	</g>
</g>
</svg>
