<?xml version="1.0" encoding="utf-8"?>
<!-- Generator: Adobe Illustrator 23.0.3, SVG Export Plug-In . SVG Version: 6.00 Build 0)  -->
<svg version="1.1" id="Layer_1" xmlns="http://www.w3.org/2000/svg" xmlns:xlink="http://www.w3.org/1999/xlink" x="0px" y="0px"
	 viewBox="0 0 110.03 110.05" style="enable-background:new 0 0 110.03 110.05;" xml:space="preserve">
<style type="text/css">
	.st0{fill:#777777;}
</style>
<g id="Group_262">
	<g id="Group_261">
		<path id="Path_459" class="st0" d="M9.26,99.27V79.6l4.25-2.84h6.83v-3.69H12.4l-6.83,4.55v21.65c-2.89,1.02-4.4,4.19-3.38,7.07
			s4.19,4.4,7.07,3.38s4.4-4.19,3.38-7.07C12.08,101.07,10.84,99.82,9.26,99.27L9.26,99.27z M7.41,106.31
			c-1.02,0-1.85-0.83-1.85-1.85c0-1.02,0.83-1.85,1.85-1.85s1.85,0.83,1.85,1.85l0,0C9.26,105.49,8.43,106.32,7.41,106.31
			L7.41,106.31z"/>
		<path id="Path_460" class="st0" d="M10.77,70.99h9.58v-3.7h-9.58c-1.02-2.89-4.19-4.4-7.07-3.38c-2.89,1.02-4.4,4.19-3.38,7.07
			s4.19,4.4,7.07,3.38C8.97,73.81,10.21,72.57,10.77,70.99z M3.72,69.14c0-1.02,0.83-1.85,1.85-1.85s1.85,0.83,1.85,1.85
			c0,1.02-0.83,1.85-1.85,1.85c0,0,0,0,0,0C4.55,70.99,3.72,70.16,3.72,69.14L3.72,69.14z"/>
		<path id="Path_461" class="st0" d="M5.57,60.55c2.34-0.01,4.42-1.49,5.2-3.7h9.58v-3.7h-9.58c-1.03-2.88-4.19-4.38-7.07-3.35
			C0.82,50.84-0.68,54,0.35,56.88C1.13,59.09,3.23,60.56,5.57,60.55L5.57,60.55z M5.57,53.16c1.02,0,1.85,0.83,1.85,1.85
			s-0.83,1.85-1.85,1.85s-1.85-0.83-1.85-1.85C3.72,53.99,4.55,53.17,5.57,53.16z"/>
		<rect id="Rectangle_20" x="12.96" y="60.25" class="st0" width="7.39" height="3.69"/>
		<rect id="Rectangle_21" x="12.96" y="46.08" class="st0" width="7.39" height="3.69"/>
		<rect id="Rectangle_22" x="0.02" y="38.99" class="st0" width="20.32" height="3.69"/>
		<path id="Path_462" class="st0" d="M14.04,36.96h6.31v-3.69h-4.78l-4.46-4.46v-3.27c2.89-1.02,4.4-4.19,3.38-7.07
			s-4.19-4.4-7.07-3.38c-2.89,1.02-4.4,4.19-3.38,7.07c0.56,1.58,1.8,2.82,3.38,3.38v4.8L14.04,36.96z M9.26,18.48
			c1.02,0,1.85,0.83,1.85,1.85s-0.83,1.85-1.85,1.85s-1.85-0.83-1.85-1.85C7.42,19.31,8.24,18.49,9.26,18.48z"/>
		<path id="Path_463" class="st0" d="M33.28,15.55v4.78h3.69v-6.31L30.35,7.4H0.02v3.7h28.79L33.28,15.55z"/>
		<path id="Path_464" class="st0" d="M40.66,8.17v12.17h3.69V6.64l-6.63-6.62H0.02v3.69h36.18L40.66,8.17z"/>
		<rect id="Rectangle_23" x="46.09" y="12.94" class="st0" width="3.69" height="7.39"/>
		<rect id="Rectangle_24" x="67.35" y="0.01" class="st0" width="3.69" height="20.32"/>
		<path id="Path_465" class="st0" d="M53.09,10.76v9.58h3.7v-6.62l3.7,3.7v2.93h3.7v-4.46l-5.91-5.91c2.44-1.84,2.93-5.31,1.09-7.75
			c-1.84-2.44-5.31-2.93-7.75-1.09c-2.44,1.84-2.93,5.31-1.09,7.75C51.17,9.74,52.07,10.4,53.09,10.76L53.09,10.76z M54.94,3.71
			c1.02,0,1.85,0.83,1.85,1.85S55.96,7.4,54.94,7.4s-1.85-0.83-1.85-1.85C53.09,4.53,53.92,3.71,54.94,3.71z"/>
		<path id="Path_466" class="st0" d="M76.77,11.86l4.46-4.46h18.05c0.56,1.57,1.79,2.8,3.36,3.36v25.44l-4.46,4.46h-8.47v3.69h10
			l6.62-6.62V10.76c2.88-1.01,4.39-4.17,3.38-7.05c-1.01-2.88-4.17-4.39-7.05-3.38c-1.58,0.56-2.82,1.8-3.38,3.38H79.7l-6.62,6.62
			v10h3.7V11.86z M104.48,3.71c1.02,0,1.85,0.83,1.85,1.85s-0.83,1.85-1.85,1.85c-1.02,0-1.85-0.83-1.85-1.85c0,0,0,0,0,0
			C102.63,4.53,103.46,3.71,104.48,3.71z"/>
		<path id="Path_467" class="st0" d="M91.11,22.5l4.14,4.14v2.17l-4.46,4.46H89.7v3.69h2.61l6.62-6.62v-5.22l-6.62-6.62h-1.1
			c-1.04-2.86-4.2-4.34-7.06-3.3c-2.86,1.04-4.34,4.2-3.3,7.06c1.04,2.86,4.2,4.34,7.06,3.3C89.36,25.02,90.52,23.92,91.11,22.5
			L91.11,22.5z M86.01,22.18c-1.02,0-1.85-0.83-1.85-1.85s0.83-1.85,1.85-1.85s1.85,0.83,1.85,1.85c0,0,0,0,0,0
			C87.85,21.35,87.03,22.18,86.01,22.18L86.01,22.18z"/>
		<rect id="Rectangle_25" x="89.7" y="46.08" class="st0" width="20.32" height="3.69"/>
		<path id="Path_468" class="st0" d="M106.33,99.27V57.52L99.7,50.9h-10v3.7h8.47l4.46,4.46v9.55l-2.93-2.93h-10v3.7h8.47l4.46,4.46
			v25.44c-2.89,1.02-4.4,4.19-3.38,7.07c1.02,2.89,4.19,4.4,7.07,3.38s4.4-4.19,3.38-7.07C109.15,101.07,107.91,99.83,106.33,99.27
			L106.33,99.27z M104.48,106.32c-1.02,0-1.85-0.83-1.85-1.85s0.83-1.85,1.85-1.85s1.85,0.83,1.85,1.85v0
			C106.33,105.49,105.5,106.32,104.48,106.32z"/>
		<rect id="Rectangle_26" x="89.7" y="60.25" class="st0" width="7.39" height="3.69"/>
		<path id="Path_469" class="st0" d="M98.94,79.69l-6.62-6.62H89.7v3.7h1.08l4.46,4.46v10.32H76.77v-1.85h-3.7v5.54h22.17v2.93
			l-4.46,4.46h-3.27c-1.02-2.89-4.19-4.4-7.07-3.38c-2.89,1.02-4.4,4.19-3.38,7.07s4.19,4.4,7.07,3.38c1.58-0.56,2.82-1.8,3.38-3.38
			h4.8l6.62-6.62L98.94,79.69z M82.31,106.32c-1.02,0-1.85-0.83-1.85-1.85s0.83-1.85,1.85-1.85s1.85,0.83,1.85,1.85v0
			C84.16,105.49,83.33,106.32,82.31,106.32z"/>
		<path id="Path_470" class="st0" d="M36.97,89.69h-3.69v1.85H23.7c-1.02-2.89-4.19-4.4-7.07-3.38c-2.89,1.02-4.4,4.19-3.38,7.07
			s4.19,4.4,7.07,3.38c1.58-0.56,2.82-1.8,3.38-3.38h13.27V89.69z M18.5,95.23c-1.02,0-1.85-0.83-1.85-1.85
			c0-1.02,0.83-1.85,1.85-1.85s1.85,0.83,1.85,1.85l0,0C20.34,94.41,19.52,95.23,18.5,95.23L18.5,95.23z"/>
		<rect id="Rectangle_27" x="67.35" y="89.69" class="st0" width="3.69" height="20.32"/>
		<rect id="Rectangle_28" x="60.26" y="89.69" class="st0" width="3.69" height="20.32"/>
		<path id="Path_471" class="st0" d="M53.43,92.62l-3.7,3.7v-6.63h-3.7v9.58c-2.89,1.01-4.41,4.18-3.4,7.07
			c1.01,2.89,4.18,4.41,7.07,3.4s4.41-4.18,3.4-7.07c-0.36-1.04-1.03-1.94-1.9-2.6l5.91-5.91v-4.46h-3.7L53.43,92.62z M47.89,106.32
			c-1.02,0-1.85-0.83-1.85-1.85c0-1.02,0.83-1.85,1.85-1.85s1.85,0.83,1.85,1.85l0,0C49.73,105.49,48.91,106.32,47.89,106.32
			L47.89,106.32z"/>
		<path id="Path_472" class="st0" d="M42.85,89.69h-3.7v4.78l-5.54,5.54v10h3.7v-8.47L42.85,96L42.85,89.69z"/>
		<path id="Path_473" class="st0" d="M73.96,86h3.44v-3.44h5.16v-5.16h3.44v-3.44h-3.44V70.5h3.44v-3.44h-3.44v-3.44h3.44v-3.44
			h-3.44v-3.44h3.44v-3.44h-3.44v-3.44h3.44V46.4h-3.44v-3.44h3.44v-3.44h-3.44v-3.44h3.44v-3.44h-3.44v-5.16H77.4v-3.44h-3.44v3.44
			h-3.44v-3.44h-3.44v3.44h-3.44v-3.44h-3.44v3.44h-3.44v-3.44H53.3v3.44h-3.44v-3.44h-3.44v3.44h-3.44v-3.44h-3.44v3.44h-3.44
			v-3.44h-3.44v3.44h-0.71l-4.45,4.45v0.71h-3.44v3.44h3.44v3.44h-3.44v3.44h3.44v3.44h-3.44v3.44h3.44v3.44h-3.44v3.44h3.44v3.44
			h-3.44v3.44h3.44v3.44h-3.44v3.44h3.44v3.44h-3.44v3.44h3.44v5.16h5.16V86h3.44v-3.44h3.44V86h3.44v-3.44h3.44V86h3.44v-3.44h3.44
			V86h3.44v-3.44h3.44V86h3.44v-3.44h3.44V86h3.44v-3.44h3.44L73.96,86z M30.93,79.11V33.35l2.43-2.43h45.76v48.2L30.93,79.11z"/>
		<path id="Path_474" class="st0" d="M71.39,46.48l3.22-3.22l-7.84-7.84l-3.22,3.23c-0.96-0.5-1.96-0.92-2.99-1.24v-4.56H49.48v4.55
			c-1.03,0.32-2.03,0.74-2.99,1.24l-3.22-3.22l-7.84,7.84l3.22,3.22c-0.5,0.96-0.92,1.96-1.24,2.99h-4.56v11.08h4.55
			c0.32,1.03,0.74,2.03,1.25,2.99l-3.22,3.22l7.84,7.84l3.22-3.22c0.96,0.5,1.96,0.92,2.99,1.24v4.55h11.08v-4.55
			c1.03-0.32,2.03-0.74,2.99-1.24l3.22,3.22l7.84-7.84l-3.22-3.22c0.5-0.96,0.92-1.96,1.24-2.99h4.55V49.47h-4.55
			C72.31,48.44,71.9,47.44,71.39,46.48z M73.49,56.86h-3.75l-0.33,1.44c-0.37,1.62-1.01,3.16-1.9,4.57l-0.79,1.25l2.65,2.65
			l-2.61,2.61l-2.65-2.65l-1.25,0.79c-1.41,0.89-2.95,1.53-4.57,1.9l-1.44,0.33v3.75h-3.69v-3.75l-1.44-0.33
			c-1.62-0.37-3.16-1.01-4.57-1.9l-1.25-0.79l-2.65,2.65l-2.61-2.61l2.65-2.65l-0.79-1.25c-0.89-1.41-1.53-2.95-1.9-4.57l-0.33-1.44
			h-3.75v-3.69h3.75l0.33-1.44c0.37-1.62,1.01-3.16,1.9-4.57l0.79-1.25l-2.65-2.65l2.61-2.61l2.65,2.65l1.25-0.79
			c1.41-0.89,2.95-1.53,4.57-1.9l1.44-0.32v-3.75h3.7v3.75l1.44,0.33c1.62,0.37,3.16,1.01,4.57,1.9l1.25,0.79l2.65-2.65l2.61,2.61
			l-2.65,2.65l0.79,1.25c0.89,1.41,1.53,2.95,1.9,4.57l0.33,1.43h3.75L73.49,56.86z"/>
		<path id="Path_475" class="st0" d="M55.02,45.78c-5.1,0-9.24,4.14-9.24,9.24s4.14,9.24,9.24,9.24s9.24-4.14,9.24-9.24v0
			C64.25,49.91,60.12,45.78,55.02,45.78z M55.02,60.55c-3.06,0-5.54-2.48-5.54-5.54s2.48-5.54,5.54-5.54s5.54,2.48,5.54,5.54l0,0
			C60.56,58.07,58.08,60.55,55.02,60.55z"/>
	</g>
</g>
</svg>
