<svg width="48" height="49" viewBox="0 0 48 49" fill="none" xmlns="http://www.w3.org/2000/svg">
<path d="M47.9495 22.7587C47.9495 19.9322 45.6782 17.6609 42.8517 17.6609H32.2524C33.2618 15.4905 34.4227 12.1593 34.4227 8.57571C34.4227 5.19401 32.6057 2.51893 29.2745 0.954259C28.0126 0.34858 26.5489 0.34858 25.2871 0.954259C24.0252 1.55994 23.1167 2.67035 22.7634 4.03312L22.1073 6.50631C20.9464 10.948 18.5237 14.8344 15.2429 17.459C14.6372 17.9637 13.9811 18.3675 13.3249 18.7713C12.7697 18.1151 11.9621 17.7114 11.0536 17.7114H2.97792C1.36278 17.7114 0 19.0237 0 20.6893V44.664C0 46.2792 1.3123 47.642 2.97792 47.642H11.0032C12.0126 47.642 12.8707 47.1372 13.4259 46.3801C18.3218 47.7934 22.8139 48.5 27.7098 48.5H39.4196C42.2461 48.5 44.5174 46.2287 44.5174 43.4022C44.5174 42.4937 44.265 41.5852 43.8612 40.8786C45.2745 39.97 46.2334 38.3549 46.2334 36.5883C46.2334 35.6798 45.9811 34.8218 45.5773 34.0647C46.9905 33.1562 47.9495 31.541 47.9495 29.7745C47.9495 28.4621 47.4448 27.2508 46.6372 26.3423C47.4448 25.2823 47.9495 24.071 47.9495 22.7587ZM7.01577 43.5032C5.80442 43.5032 4.84543 42.5442 4.84543 41.3328C4.84543 40.1215 5.80442 39.1625 7.01577 39.1625C8.22713 39.1625 9.18612 40.1215 9.18612 41.3328C9.18612 42.4937 8.22713 43.5032 7.01577 43.5032ZM39.6215 27.9069H42.8517C43.8107 27.9069 44.6183 28.7145 44.6183 29.6735C44.6183 30.6325 43.8612 31.4401 42.8517 31.4401H39.0158C38.1073 31.4401 37.3502 32.1972 37.3502 33.1057C37.3502 34.0142 38.1073 34.7713 39.0158 34.7713H41.1357C42.0946 34.7713 42.9022 35.5789 42.9022 36.5379C42.9022 37.4968 42.1451 38.3044 41.1357 38.3044H37.7539C36.8454 38.3044 36.0883 39.0615 36.0883 39.97C36.0883 40.8786 36.8454 41.6357 37.7539 41.6357H39.47C40.429 41.6357 41.2366 42.4432 41.2366 43.4022C41.2366 44.3612 40.4795 45.1688 39.47 45.1688H27.7098C23.0158 45.1688 18.7256 44.4622 13.9811 43.0489V22.2035C15.0915 21.6483 16.2019 20.9416 17.2618 20.0836C21.0978 17.0047 23.9748 12.5126 25.2871 7.31388L25.9432 4.84069C26.0946 4.33596 26.448 4.0836 26.6498 3.98265C26.8517 3.8817 27.306 3.73028 27.7603 3.98265C29.9306 4.99211 30.9905 6.45584 30.9905 8.52524C30.9905 13.6735 28.0126 18.418 28.0126 18.418C27.7098 18.9227 27.6593 19.5789 27.9621 20.1341C28.265 20.6893 28.8202 20.9921 29.4259 20.9921H42.8517C43.8107 20.9921 44.6183 21.7997 44.6183 22.7587C44.6183 23.7177 43.8612 24.5252 42.8517 24.5252H39.6215C38.7129 24.5252 37.9558 25.2823 37.9558 26.1909C37.9558 27.0994 38.6625 27.9069 39.6215 27.9069Z" fill="#00B074"/>
</svg>
