<?xml version="1.0" encoding="utf-8"?>
<!-- Generator: Adobe Illustrator 23.0.3, SVG Export Plug-In . SVG Version: 6.00 Build 0)  -->
<svg version="1.1" id="Layer_1" xmlns="http://www.w3.org/2000/svg" xmlns:xlink="http://www.w3.org/1999/xlink" x="0px" y="0px"
	 viewBox="0 0 72.5 55.73" style="enable-background:new 0 0 72.5 55.73;" xml:space="preserve">
<g id="laptop" transform="translate(0 -59.201)">
	<g id="Group_296" transform="translate(0 59.201)">
		<g id="Group_295" transform="translate(0 0)">
			<path id="Path_491" d="M72.49,50.53c0-0.01,0-0.02,0-0.03c0-0.04-0.01-0.08-0.02-0.12v-0.01c-0.01-0.04-0.02-0.07-0.03-0.11
				l-0.01-0.03c-0.01-0.03-0.03-0.06-0.04-0.09l-0.01-0.02l-5.68-11.2V2.06C66.7,0.92,65.78,0,64.65,0c0,0,0,0,0,0H7.85
				C6.71,0,5.8,0.92,5.79,2.06v36.86l-5.68,11.2l-0.01,0.02c-0.02,0.03-0.03,0.06-0.04,0.09l-0.01,0.03
				c-0.01,0.04-0.02,0.07-0.03,0.11v0.01C0.02,50.41,0.01,50.46,0,50.5c0,0.01,0,0.02,0,0.03s0,0.04,0,0.07v2.69
				c0,1.35,1.09,2.44,2.44,2.44h67.61c1.35,0,2.44-1.09,2.45-2.44c0,0,0,0,0,0V50.6C72.5,50.57,72.49,50.55,72.49,50.53z M7.92,2.12
				h56.66V38.1H7.92V2.12z M7.51,40.22h57.48l4.72,9.31H46.37l-1.17-4.24c-0.24-0.87-1.03-1.47-1.93-1.47H29.22
				c-0.9,0-1.69,0.6-1.93,1.47l-1.17,4.25H2.79L7.51,40.22z M44.17,49.53H28.33l0.99-3.59h13.86L44.17,49.53z M70.37,53.28
				c0,0.18-0.14,0.32-0.32,0.32l0,0H2.44c-0.18,0-0.32-0.14-0.32-0.32l0,0v-1.63h68.25L70.37,53.28z"/>
		</g>
	</g>
	<g id="Group_298" transform="translate(10.184 81.085)">
		<g id="Group_297" transform="translate(0 0)">
			<path id="Path_492" d="M51.07,0C50.48,0,50,0.48,50,1.06v10.77H2.12V1.06C2.12,0.48,1.65,0,1.06,0C0.48,0,0,0.48,0,1.06v11.23
				c0,0.92,0.75,1.66,1.67,1.66h48.8c0.92,0,1.66-0.75,1.67-1.66V1.06C52.13,0.48,51.65,0,51.07,0C51.07,0,51.07,0,51.07,0z"/>
		</g>
	</g>
	<g id="Group_300" transform="translate(10.184 63.591)">
		<g id="Group_299" transform="translate(0 0)">
			<path id="Path_493" d="M50.46,0H1.66C0.74,0,0,0.74,0,1.66V12.9c0,0.59,0.48,1.06,1.06,1.06c0.59,0,1.06-0.48,1.06-1.06V2.12H50
				V12.9c0,0.59,0.48,1.06,1.06,1.06c0.59,0,1.06-0.48,1.06-1.06V1.66C52.13,0.75,51.38,0,50.46,0z"/>
		</g>
	</g>
</g>
</svg>
