<?xml version="1.0" encoding="utf-8"?>
<!-- Generator: Adobe Illustrator 23.0.3, SVG Export Plug-In . SVG Version: 6.00 Build 0)  -->
<svg version="1.1" id="Layer_1" xmlns="http://www.w3.org/2000/svg" xmlns:xlink="http://www.w3.org/1999/xlink" x="0px" y="0px"
	 viewBox="0 0 48.89 50.13" style="enable-background:new 0 0 48.89 50.13;" xml:space="preserve">
<g id="like" transform="translate(-0.393)">
	<g id="Path_556">
		<path d="M31.02,47.72c-3.76,0.09-7.52-0.39-11.14-1.44c-0.74-0.25-1.5-0.41-2.28-0.46H9.34c-0.4,0-0.73-0.33-0.73-0.73V27.87
			c0-0.4,0.33-0.73,0.73-0.73c0,0,0,0,0,0c2.87,0,5.35-1.58,7.38-4.71c2.85-4.4,4.53-6.86,7.55-10.75c2.11-2.68,3.7-5.73,4.72-8.98
			l0.1-0.51c0.17-0.89,0.36-1.82,1.84-1.82c2.92,0,4.49,3.37,4.49,6.54c0,1.96-0.74,4.59-2.25,8.05c-0.49,0.81-0.57,1.8-0.24,2.68
			c0.12,0.19,0.34,0.31,0.57,0.29h11.6c2.23,0.19,3.94,2.06,3.92,4.3c0.1,1.39-0.41,2.76-1.42,3.74c0.95,0.89,1.47,2.14,1.42,3.44
			c-0.06,1.65-0.94,3.15-2.35,4c0.73,0.91,1.09,2.06,1.02,3.23c0,2.33-1.99,3.52-3.26,4.04c0.52,1.08,0.64,2.3,0.35,3.46
			C44.35,46.64,40.23,47.72,31.02,47.72z M10.07,44.35h7.54c0.91,0.05,1.81,0.22,2.67,0.52c3.49,1.01,7.11,1.48,10.74,1.39
			c10.36,0,12.16-1.5,12.31-2.39c0.29-1.71-0.02-2.45-0.62-3.08c-0.28-0.29-0.26-0.76,0.03-1.03c0.09-0.09,0.21-0.15,0.33-0.18
			c0.03-0.01,3.14-0.77,3.14-2.95c0-2.19-1.08-2.62-1.13-2.64c-0.28-0.11-0.47-0.38-0.48-0.68c-0.01-0.3,0.17-0.57,0.45-0.69
			c0.03-0.01,2.49-1.05,2.49-3.22c0.1-1.16-0.52-2.27-1.57-2.79c-0.38-0.14-0.57-0.56-0.43-0.94c0.08-0.22,0.27-0.39,0.5-0.45
			c0.05-0.01,1.49-0.47,1.49-3c0.01-1.46-1.09-2.68-2.54-2.84H33.5c-0.72,0.02-1.4-0.34-1.79-0.95c-0.63-0.97-0.59-2.45,0.12-4.07
			c1.43-3.27,2.13-5.71,2.13-7.46c0-2.11-0.94-5.07-3.03-5.07c-0.1-0.01-0.2,0-0.29,0.03c-0.01,0.04-0.07,0.36-0.12,0.61l-0.11,0.55
			c-1.07,3.47-2.76,6.71-4.99,9.56c-2.99,3.84-4.65,6.28-7.48,10.65c-2.15,3.31-4.79,5.1-7.87,5.35L10.07,44.35L10.07,44.35z"/>
		<path d="M30.09,47.98c-3.48,0-6.93-0.49-10.28-1.46c-0.73-0.25-1.47-0.4-2.23-0.45l-8.25,0c-0.54,0-0.98-0.44-0.98-0.98V27.87
			c0-0.54,0.44-0.98,0.98-0.98c2.78,0,5.19-1.55,7.17-4.6c2.84-4.39,4.52-6.85,7.56-10.77c2.09-2.67,3.67-5.67,4.68-8.91l0.1-0.49
			c0.18-0.9,0.4-2.02,2.09-2.02c3.08,0,4.74,3.5,4.74,6.79c0,1.99-0.74,4.65-2.27,8.15c-0.46,0.78-0.54,1.68-0.23,2.49
			c0.05,0.07,0.19,0.15,0.32,0.13l11.62,0c2.37,0.2,4.19,2.2,4.17,4.55c0.1,1.37-0.37,2.72-1.31,3.73c0.89,0.92,1.37,2.17,1.31,3.46
			c-0.06,1.64-0.89,3.14-2.24,4.06c0.66,0.92,0.98,2.04,0.91,3.18c0,2.34-1.89,3.58-3.18,4.15c0.45,1.07,0.54,2.26,0.26,3.39
			c-0.45,2.65-4.63,3.79-13.99,3.79C30.71,47.97,30.4,47.98,30.09,47.98z M30.93,0.61c-1.28,0-1.42,0.71-1.6,1.62l-0.1,0.52
			c-1.03,3.32-2.63,6.37-4.77,9.09c-3.03,3.9-4.7,6.36-7.53,10.73c-2.08,3.2-4.63,4.83-7.59,4.83c-0.27,0-0.48,0.22-0.48,0.48v17.22
			c0,0.27,0.22,0.48,0.48,0.48h8.27c0.81,0.06,1.6,0.22,2.36,0.48c3.58,1.04,7.3,1.52,11.05,1.43h0.01c8.94,0,13.11-1.05,13.5-3.39
			c0.28-1.12,0.17-2.28-0.33-3.31l-0.12-0.24l0.25-0.1c1.16-0.47,3.1-1.6,3.1-3.81c0.07-1.12-0.27-2.21-0.97-3.07l-0.18-0.22
			l0.25-0.15c1.35-0.81,2.18-2.23,2.23-3.79c0.05-1.23-0.44-2.41-1.34-3.25l-0.19-0.18l0.19-0.18c0.95-0.93,1.44-2.22,1.34-3.54
			c0.02-2.11-1.6-3.89-3.69-4.07l-11.58,0c-0.3,0.02-0.61-0.13-0.78-0.41c-0.39-1-0.29-2.06,0.23-2.94c1.49-3.4,2.22-6,2.22-7.92
			C35.17,3.85,33.68,0.61,30.93,0.61z M30.12,46.52c-3.35,0-6.68-0.47-9.91-1.41c-0.85-0.29-1.73-0.46-2.62-0.51l-7.53,0v-0.25H9.82
			V28.34l0.23-0.02c3-0.24,5.58-2,7.68-5.23c2.79-4.32,4.45-6.76,7.49-10.67c2.22-2.84,3.89-6.03,4.95-9.48l0.25-1.28l0.15-0.04
			c0.12-0.04,0.25-0.05,0.38-0.04c0,0,0,0,0,0c2.24,0,3.26,3.11,3.26,5.32c0,1.78-0.7,4.25-2.15,7.56
			c-0.67,1.54-0.73,2.94-0.14,3.83c0.34,0.53,0.94,0.85,1.58,0.84h11.52c1.61,0.17,2.8,1.5,2.79,3.09c0,2.7-1.6,3.22-1.67,3.24
			c-0.16,0.04-0.29,0.15-0.34,0.3c-0.09,0.25,0.03,0.53,0.28,0.62c1.17,0.58,1.84,1.77,1.73,3.04c0,2.34-2.62,3.42-2.65,3.43
			c-0.18,0.08-0.29,0.25-0.29,0.45c0,0.2,0.13,0.38,0.32,0.45c0.13,0.05,1.29,0.56,1.29,2.87c0,2.39-3.3,3.19-3.34,3.2
			c-0.08,0.02-0.16,0.06-0.22,0.12c-0.09,0.09-0.15,0.21-0.15,0.34s0.04,0.25,0.13,0.34c0.63,0.67,0.99,1.49,0.69,3.3
			c-0.29,1.7-4.64,2.59-12.56,2.59C30.72,46.52,30.42,46.52,30.12,46.52z M10.32,44.1h7.29c0.95,0.05,1.87,0.23,2.75,0.53
			c3.46,1,7.04,1.47,10.66,1.37c10.85,0,11.98-1.67,12.07-2.18c0.28-1.62,0-2.28-0.56-2.87c-0.18-0.19-0.27-0.44-0.27-0.7
			c0.01-0.26,0.12-0.51,0.31-0.68c0.13-0.12,0.28-0.2,0.45-0.24c0.03-0.01,2.95-0.73,2.95-2.71c0-2-0.93-2.39-0.97-2.41
			c-0.38-0.14-0.63-0.5-0.64-0.91c-0.01-0.4,0.23-0.77,0.6-0.92c0.03-0.01,2.34-0.99,2.34-2.99c0.09-1.09-0.47-2.09-1.43-2.56
			c-0.48-0.18-0.74-0.75-0.55-1.25c0.11-0.3,0.37-0.53,0.68-0.61c0.04-0.01,1.31-0.42,1.31-2.76c0.01-1.34-0.99-2.45-2.32-2.59
			l-11.49,0c-0.79,0.01-1.57-0.39-2-1.07c-0.68-1.03-0.64-2.6,0.1-4.3c1.42-3.24,2.11-5.65,2.11-7.36c0-2-0.86-4.82-2.78-4.82
			c-0.03,0-0.05,0-0.08,0l-0.2,0.99c-1.09,3.53-2.78,6.78-5.04,9.67c-3.02,3.9-4.68,6.33-7.46,10.63c-2.13,3.29-4.77,5.12-7.83,5.44
			V44.1z"/>
	</g>
	<g id="Path_557">
		<path d="M9.34,49.88H1.37c-0.4,0-0.73-0.33-0.73-0.73V24.04c0-0.4,0.33-0.73,0.73-0.73h7.96c0.4,0,0.73,0.33,0.73,0.73v25.12
			C10.07,49.56,9.74,49.88,9.34,49.88C9.34,49.88,9.34,49.88,9.34,49.88z M2.11,48.42h6.5V24.77h-6.5L2.11,48.42z"/>
		<path d="M9.34,50.13H1.37c-0.54,0-0.98-0.44-0.98-0.98V24.04c0-0.54,0.44-0.98,0.98-0.98h7.96c0.54,0,0.98,0.44,0.98,0.98v25.12
			c0,0.26-0.1,0.51-0.29,0.69C9.85,50.03,9.6,50.13,9.34,50.13z M1.37,23.56c-0.27,0-0.48,0.22-0.48,0.48v25.12
			c0,0.27,0.22,0.48,0.48,0.48h7.96c0.13,0,0.25-0.05,0.34-0.14c0.09-0.09,0.14-0.21,0.14-0.34V24.04c0-0.27-0.22-0.48-0.48-0.48
			H1.37z M8.85,48.67h-7V24.52h7V48.67z M2.35,48.17h6V25.02h-6V48.17z"/>
	</g>
</g>
</svg>
