<?xml version="1.0" encoding="utf-8"?>
<!-- Generator: Adobe Illustrator 23.0.3, SVG Export Plug-In . SVG Version: 6.00 Build 0)  -->
<svg version="1.1" id="Layer_1" xmlns="http://www.w3.org/2000/svg" xmlns:xlink="http://www.w3.org/1999/xlink" x="0px" y="0px"
	 viewBox="0 0 61.56 56.82" style="enable-background:new 0 0 61.56 56.82;" xml:space="preserve">
<g id="paper-plane" transform="translate(20.008 15.281)">
	<g id="Group_556" transform="translate(4.377 0)">
		<g id="Group_555" transform="translate(0 0)">
			<path id="Path_549" d="M36.71,0.19c-0.25-0.14-0.56-0.14-0.81,0.01L21.05,8.99c-0.39,0.23-0.52,0.73-0.29,1.11
				c0.23,0.39,0.73,0.52,1.11,0.29l10.66-6.3l-19.85,20.6L2.8,21.65l12.88-7.62c0.39-0.23,0.52-0.73,0.29-1.11
				c-0.23-0.39-0.73-0.52-1.11-0.29l0,0L0.4,21.19c-0.39,0.23-0.51,0.73-0.28,1.11c0.1,0.17,0.27,0.3,0.46,0.36l11.79,3.61l5.2,9.47
				c0.01,0.01,0.01,0.02,0.02,0.03c0.23,0.38,0.72,0.51,1.11,0.28c0.06-0.03,0.11-0.07,0.15-0.12l5.98-5.84l11.25,3.44
				c0.43,0.13,0.88-0.11,1.01-0.54c0.02-0.08,0.04-0.16,0.04-0.24V0.9C37.12,0.61,36.97,0.34,36.71,0.19z M17.61,26.77
				c-0.09,0.14-0.14,0.3-0.14,0.46v4.96l-3.55-6.47L29.63,9.42L17.61,26.77z M19.09,33.42v-5.1l3.97,1.22L19.09,33.42z M35.5,31.66
				l-15.93-4.87l15.93-23V31.66z"/>
		</g>
	</g>
	<g id="Group_558" transform="translate(4.377 27.935)">
		<g id="Group_557">
			<path id="Path_550" d="M8.95,0.32c-0.32-0.32-0.83-0.32-1.15,0L0.24,7.89c-0.3,0.33-0.28,0.84,0.05,1.15
				c0.31,0.29,0.79,0.29,1.1,0l7.57-7.57C9.27,1.15,9.27,0.64,8.95,0.32z"/>
		</g>
	</g>
	<g id="Group_562" transform="translate(10.179 39.831)">
		<g id="Group_561">
			<path id="Path_552" d="M1.38,0.32c-0.32-0.32-0.83-0.32-1.15,0c-0.32,0.32-0.32,0.83,0,1.15c0.32,0.32,0.83,0.32,1.15,0
				C1.54,1.32,1.62,1.11,1.62,0.9C1.62,0.68,1.54,0.48,1.38,0.32z"/>
		</g>
	</g>
	<g id="Group_564" transform="translate(12.202 33.8)">
		<g id="Group_563">
			<path id="Path_553" d="M5.39,0.32c-0.32-0.32-0.83-0.32-1.15,0L0.24,4.33c-0.33,0.3-0.35,0.82-0.05,1.15s0.82,0.35,1.15,0.05
				c0.02-0.01,0.03-0.03,0.05-0.05l4.01-4.01C5.71,1.15,5.71,0.64,5.39,0.32z"/>
		</g>
	</g>
	<g id="Group_566" transform="translate(26.023 33.492)">
		<g id="Group_565">
			<path id="Path_554" d="M5.4,0.32c-0.32-0.32-0.83-0.32-1.15,0L0.24,4.34c-0.33,0.3-0.35,0.82-0.05,1.15s0.82,0.35,1.15,0.05
				C1.35,5.52,1.37,5.5,1.38,5.49L5.4,1.47C5.72,1.15,5.72,0.64,5.4,0.32z"/>
		</g>
	</g>
	<g id="Group_568" transform="translate(21.596 10.811)">
		<g id="Group_567">
			<path id="Path_555" d="M1.38,0.32c-0.32-0.32-0.83-0.32-1.15,0s-0.32,0.83,0,1.15c0.32,0.32,0.83,0.32,1.15,0
				C1.54,1.32,1.62,1.11,1.62,0.9C1.62,0.68,1.54,0.48,1.38,0.32z"/>
		</g>
	</g>
</g>
<g id="linked-in-logo" transform="translate(25.928 -10.629)">
	<path id="LinkedIn_3_" d="M19.33,22.04v7.15h-4.14v-6.67c0-1.68-0.6-2.82-2.1-2.82c-0.96,0.01-1.81,0.61-2.13,1.51
		c-0.11,0.33-0.16,0.67-0.14,1.01v6.96H6.68c0,0,0.06-11.29,0-12.46h4.14v1.76c-0.01,0.01-0.02,0.03-0.02,0.04h0.02v-0.04
		c0.76-1.33,2.2-2.12,3.73-2.06C17.28,16.43,19.33,18.21,19.33,22.04z M2.34,10.72c-1.19-0.1-2.23,0.78-2.34,1.97
		s0.78,2.23,1.97,2.34c0.11,0.01,0.21,0.01,0.32,0h0.03c1.19,0.1,2.24-0.78,2.34-1.97s-0.78-2.24-1.97-2.34
		C2.58,10.71,2.46,10.71,2.34,10.72z M0.25,29.19h4.14V16.72H0.25V29.19z"/>
</g>
<g id="speech-bubble_1_" transform="translate(0 13.32)">
	<path id="Path_558" d="M2.73,24.8c-0.42,0-0.84-0.07-1.24-0.2L0.6,24.29l0.69-0.65c0.73-0.67,1.14-1.62,1.15-2.61
		C0.89,19.35,0.02,17.15,0,14.86c0-5.48,5.08-9.94,11.33-9.94s11.33,4.46,11.33,9.94s-5.08,9.94-11.33,9.94
		c-1.84,0-3.66-0.39-5.33-1.17C5.05,24.34,3.92,24.74,2.73,24.8z M5.87,22.28l0.33,0.17c1.6,0.79,3.35,1.21,5.14,1.2
		c5.61,0,10.18-3.94,10.18-8.79s-4.57-8.78-10.18-8.78S1.15,10.01,1.15,14.86c0.02,2.07,0.84,4.06,2.28,5.54l0.15,0.16l0.01,0.22
		c0.04,1.02-0.24,2.02-0.81,2.87c1.03-0.09,2-0.49,2.8-1.14L5.87,22.28z"/>
	<path id="Path_559" d="M5.84,17.58c-0.35,0.01-0.69-0.03-1.03-0.1c-0.19-0.04-0.38-0.1-0.55-0.2c-0.02-0.03-0.03-0.08-0.03-0.17
		c0.01-0.1,0.02-0.19,0.04-0.28c0.02-0.09,0.05-0.18,0.09-0.26c0.03-0.08,0.07-0.11,0.1-0.1c0.16,0.06,0.34,0.11,0.53,0.17
		c0.24,0.06,0.49,0.09,0.73,0.08c0.26,0.01,0.53-0.04,0.77-0.13c0.2-0.07,0.33-0.26,0.32-0.47c0.01-0.18-0.07-0.36-0.21-0.48
		c-0.23-0.17-0.48-0.3-0.75-0.39c-0.19-0.07-0.37-0.16-0.55-0.25c-0.17-0.09-0.32-0.19-0.46-0.32c-0.13-0.12-0.24-0.27-0.31-0.44
		c-0.08-0.19-0.12-0.4-0.11-0.6c0-0.19,0.04-0.37,0.11-0.54c0.07-0.17,0.19-0.32,0.34-0.44c0.17-0.13,0.37-0.23,0.58-0.29
		c0.28-0.08,0.56-0.11,0.85-0.11c0.21,0,0.39,0,0.53,0.01c0.12,0.01,0.23,0.02,0.35,0.04c0.08,0.01,0.15,0.03,0.22,0.05
		c0.06,0.02,0.11,0.03,0.16,0.05s0.07,0.07,0.07,0.17c0,0.1-0.01,0.2-0.04,0.29c-0.02,0.1-0.05,0.19-0.1,0.27
		c-0.04,0.08-0.09,0.11-0.13,0.1c-0.11-0.03-0.25-0.06-0.44-0.1c-0.18-0.04-0.36-0.06-0.54-0.06c-0.26-0.02-0.51,0.03-0.74,0.15
		c-0.13,0.09-0.21,0.25-0.2,0.41c0,0.18,0.08,0.34,0.23,0.44c0.22,0.14,0.46,0.26,0.71,0.34c0.42,0.15,0.81,0.39,1.13,0.7
		c0.25,0.27,0.38,0.62,0.36,0.99c0.01,0.26-0.05,0.51-0.17,0.74c-0.11,0.19-0.27,0.35-0.45,0.46c-0.2,0.12-0.42,0.2-0.65,0.24
		C6.34,17.57,6.09,17.58,5.84,17.58z"/>
	<path id="Path_560" d="M12.65,17.53c-0.09,0.01-0.19-0.01-0.26-0.07c-0.05-0.08-0.07-0.17-0.06-0.26V13.9
		c-0.25,0.41-0.45,0.73-0.58,0.95l-0.3,0.49c-0.06,0.1-0.1,0.17-0.11,0.18c-0.01,0.01-0.01,0.02-0.02,0.04
		c-0.06,0.1-0.1,0.16-0.12,0.18c-0.04,0.03-0.09,0.05-0.14,0.04h-0.15c-0.06,0.01-0.11-0.01-0.16-0.04
		c-0.04-0.06-0.08-0.12-0.11-0.18l-0.97-1.65v3.35c0,0.07-0.01,0.13-0.04,0.19c-0.03,0.05-0.1,0.07-0.22,0.07H9
		c-0.08,0-0.16-0.01-0.23-0.04c-0.07-0.03-0.1-0.12-0.1-0.28v-4.54c-0.01-0.09,0.01-0.18,0.07-0.25c0.06-0.04,0.13-0.07,0.2-0.06
		h0.47c0.06,0,0.12,0.01,0.17,0.03c0.06,0.03,0.11,0.08,0.15,0.14l1.26,2l1.26-1.99c0.03-0.06,0.08-0.11,0.14-0.15
		c0.05-0.03,0.1-0.04,0.16-0.04h0.52c0.12,0,0.19,0.02,0.21,0.08c0.02,0.08,0.03,0.16,0.03,0.25v4.58c0,0.07-0.01,0.14-0.04,0.21
		c-0.03,0.04-0.1,0.07-0.22,0.07L12.65,17.53z"/>
	<path id="Path_561" d="M15.81,17.58c-0.35,0.01-0.69-0.03-1.03-0.1c-0.19-0.04-0.38-0.1-0.55-0.2c-0.03-0.03-0.03-0.08-0.03-0.17
		c0.01-0.1,0.02-0.19,0.04-0.28c0.02-0.09,0.05-0.18,0.08-0.26c0.03-0.08,0.07-0.11,0.1-0.1c0.16,0.06,0.34,0.11,0.53,0.17
		c0.24,0.06,0.49,0.09,0.73,0.08c0.26,0.01,0.53-0.04,0.77-0.13c0.2-0.07,0.33-0.26,0.32-0.47c0.01-0.18-0.07-0.36-0.21-0.48
		c-0.23-0.17-0.48-0.3-0.75-0.39c-0.19-0.07-0.37-0.16-0.55-0.25c-0.17-0.09-0.32-0.19-0.46-0.32c-0.13-0.12-0.24-0.27-0.31-0.44
		c-0.08-0.19-0.12-0.4-0.11-0.6c0-0.19,0.04-0.37,0.11-0.54c0.07-0.17,0.19-0.32,0.34-0.44c0.17-0.13,0.37-0.23,0.58-0.29
		c0.28-0.08,0.56-0.11,0.85-0.11c0.21,0,0.39,0,0.53,0.01c0.12,0.01,0.23,0.02,0.35,0.04c0.08,0.01,0.15,0.03,0.22,0.05
		c0.06,0.02,0.11,0.03,0.16,0.05s0.07,0.07,0.07,0.17c0,0.1-0.01,0.2-0.04,0.29c-0.02,0.1-0.05,0.19-0.1,0.27
		c-0.04,0.08-0.09,0.11-0.13,0.1c-0.11-0.03-0.25-0.07-0.44-0.1c-0.18-0.04-0.36-0.06-0.54-0.06c-0.26-0.02-0.51,0.03-0.74,0.15
		c-0.13,0.09-0.21,0.25-0.2,0.41c0,0.18,0.08,0.34,0.23,0.44c0.22,0.14,0.46,0.26,0.71,0.34c0.42,0.15,0.81,0.39,1.13,0.7
		c0.25,0.27,0.38,0.62,0.36,0.99c0.01,0.26-0.05,0.51-0.17,0.74c-0.11,0.19-0.27,0.35-0.45,0.46c-0.2,0.12-0.42,0.2-0.65,0.24
		C16.31,17.57,16.06,17.58,15.81,17.58z"/>
</g>
</svg>
