<?xml version="1.0" encoding="utf-8"?>
<!-- Generator: Adobe Illustrator 23.0.3, SVG Export Plug-In . SVG Version: 6.00 Build 0)  -->
<svg version="1.1" id="Layer_1" xmlns="http://www.w3.org/2000/svg" xmlns:xlink="http://www.w3.org/1999/xlink" x="0px" y="0px"
	 viewBox="0 0 55.3 22.6" style="enable-background:new 0 0 55.3 22.6;" xml:space="preserve">
<style type="text/css">
	.st0{fill-rule:evenodd;clip-rule:evenodd;fill:#FFFFFF;}
	.st1{fill:#FFFFFF;}
</style>
<g id="Group_1" transform="translate(0)">
	<path id="Path_1" class="st0" d="M5.7,11.4L5.7,11.4l7.4,7l0.2-1.1L5.7,11.4z M13.5,4.6L6.1,6.3l0.6,0.6L13.5,4.6L13.5,4.6
		L13.5,4.6z"/>
	<path id="Path_2" class="st1" d="M15.9,17.4c-1.1,0-2,0.7-2.4,1.7c-0.5,1.4,0.1,2.9,1.5,3.4c0.3,0.1,0.6,0.2,1,0.2
		c1.1,0,2-0.7,2.4-1.7c0.5-1.4-0.1-2.9-1.5-3.4C16.5,17.4,16.2,17.4,15.9,17.4 M15.9,18.2c0.2,0,0.4,0,0.6,0.1c0.4,0.2,0.8,0.5,1,1
		c0.2,0.4,0.2,0.9,0,1.4c-0.3,0.7-0.9,1.1-1.6,1.1c-0.2,0-0.4,0-0.6-0.1c-0.4-0.2-0.8-0.5-1-0.9c-0.2-0.4-0.2-0.9,0-1.4
		C14.5,18.7,15.1,18.2,15.9,18.2 M17.9,0c-1.5,0-2.9,0.9-3.4,2.3c-0.8,1.9,0.2,4.1,2.1,4.8c0,0,0,0,0,0c0.4,0.2,0.9,0.3,1.4,0.3
		c1.5,0,2.9-0.9,3.5-2.3c0.8-1.9-0.2-4.1-2.1-4.8c0,0,0,0,0,0C18.9,0.1,18.4,0,17.9,0 M17.9,0.7c0.4,0,0.8,0.1,1.1,0.2
		c0.7,0.3,1.3,0.9,1.6,1.6s0.3,1.6,0,2.3c-0.2,0.6-0.6,1.1-1.1,1.4c-0.5,0.3-1.1,0.5-1.7,0.5c-0.4,0-0.8-0.1-1.1-0.2
		c-0.7-0.3-1.3-0.9-1.6-1.6c-0.3-0.7-0.3-1.5,0-2.3c0.2-0.6,0.6-1,1.1-1.4C16.8,0.9,17.3,0.7,17.9,0.7 M3.2,5.2
		c-1.3,0-2.5,0.8-2.9,2c-0.6,1.6,0.2,3.4,1.8,4.1c0,0,0,0,0,0c0.4,0.1,0.8,0.2,1.2,0.2c1.3,0,2.5-0.8,2.9-2c0.6-1.6-0.2-3.4-1.8-4.1
		h0C4,5.3,3.6,5.2,3.2,5.2 M3.2,6.2c0.3,0,0.5,0.1,0.8,0.2c0.6,0.2,1,0.6,1.2,1.2c0.2,0.5,0.2,1.1,0,1.6c-0.2,0.4-0.4,0.8-0.8,1
		c-0.4,0.2-0.8,0.4-1.2,0.4c-0.3,0-0.5-0.1-0.8-0.1c-0.5-0.2-1-0.6-1.2-1.2c-0.2-0.5-0.2-1.1,0-1.7c0.2-0.4,0.4-0.8,0.8-1
		C2.3,6.3,2.7,6.2,3.2,6.2"/>
	<path id="Path_3" class="st0" d="M16.3,9.3l-1.6,6.3l1.3,1.1l1.6-0.7l0.1-6.5L16.3,9.3L16.3,9.3z M16,7.7l0.4,1.4l1.5,0.2l0.8-1.2
		L16,7.7z M16.3,2.1c-0.5,0.5-0.7,1.1-0.6,1.8c0.2-0.6,0.5-1.1,0.9-1.5c0.4-0.4,0.9-0.8,1.5-1C17.4,1.4,16.8,1.6,16.3,2.1"/>
</g>
<g id="Group_2" transform="translate(73.718 23.243)">
	<path id="Path_4" class="st0" d="M-22.6-11.4v-0.1c0-0.3,0.1-0.6,0.3-0.8c0.2-0.2,0.5-0.3,0.9-0.3c0.3,0,0.6,0.1,0.8,0.3
		c0.2,0.3,0.2,0.5,0.2,0.8c0,0.2,0,0.3-0.1,0.4c-0.1,0.1-0.3,0.1-0.4,0.1h-1c-0.1,0-0.3,0-0.4-0.1C-22.5-11.2-22.6-11.3-22.6-11.4
		 M-22.2-10.3l1.8-0.1c0.2,0,0.4,0,0.6-0.1c0.1,0,0.3-0.1,0.4-0.2c0.1-0.1,0.1-0.2,0.2-0.3c0-0.2,0-0.4,0-0.6c0-0.3,0-0.6-0.1-0.9
		c-0.1-0.3-0.2-0.5-0.4-0.7c-0.2-0.2-0.4-0.4-0.7-0.4c-0.3-0.1-0.7-0.2-1-0.1c-0.3,0-0.7,0-1,0.1c-0.3,0.1-0.6,0.2-0.8,0.4
		c-0.2,0.2-0.4,0.5-0.5,0.8c-0.1,0.4-0.2,0.9-0.2,1.3v0.6c0,0.4,0,0.8,0.2,1.2c0.1,0.3,0.3,0.6,0.5,0.8c0.3,0.2,0.5,0.4,0.9,0.5
		c0.4,0.1,0.8,0.2,1.3,0.1c0.3,0,0.6,0,0.9-0.1c0.2,0,0.4-0.1,0.6-0.2c0.1-0.1,0.1-0.1,0.2-0.2c0-0.1,0.1-0.2,0.1-0.3
		c0-0.1,0-0.3-0.1-0.3c-0.1-0.1-0.2-0.1-0.3-0.1c-0.1,0-0.3,0.1-0.5,0.1c-0.2,0-0.4,0-0.6,0c-0.4,0-0.9-0.1-1.2-0.3
		c-0.3-0.2-0.4-0.5-0.4-0.9c0-0.1,0-0.2,0.1-0.3C-22.4-10.2-22.3-10.3-22.2-10.3 M-26.7-9.6c0,0.1,0,0.2,0,0.3c0,0.1,0,0.1-0.1,0.1
		c-0.1,0-0.1,0.1-0.2,0.1c-0.1,0-0.2,0-0.3,0c-0.2,0-0.5,0-0.7-0.1c-0.2,0-0.3-0.1-0.4-0.2c-0.1-0.1-0.2-0.3-0.2-0.5
		c0-0.3,0-0.6,0-0.9c0-0.3,0-0.6,0-0.9c0-0.2,0.1-0.4,0.2-0.6c0.1-0.1,0.2-0.2,0.3-0.3c0.2-0.1,0.3-0.1,0.5-0.1c0.2,0,0.4,0,0.5,0
		c0.1,0,0.2,0,0.3,0.1c0.1,0,0.1,0.1,0.1,0.1c0,0.1,0,0.2,0,0.3L-26.7-9.6L-26.7-9.6z M-25.4-13.3c-0.1-0.1-0.3-0.2-0.4-0.2
		c-0.2-0.1-0.4-0.1-0.6-0.1c-0.2,0-0.5,0-0.7,0c-0.4,0-0.9,0-1.3,0.1c-0.3,0.1-0.6,0.3-0.9,0.5c-0.3,0.3-0.4,0.6-0.5,0.9
		c-0.1,0.4-0.2,0.9-0.2,1.4c0,0.4,0,0.9,0.1,1.3c0.1,0.3,0.2,0.6,0.5,0.8c0.2,0.2,0.5,0.3,0.8,0.4c0.4,0.1,0.8,0.1,1.2,0.1
		c0.2,0,0.3,0,0.4,0c0.1,0,0.1,0,0.2,0c0,0,0.1,0,0.1,0.1s0,0.1,0,0.1v0.3c0,0.2-0.1,0.4-0.4,0.5C-27.5-7-27.9-7-28.3-7
		c-0.2,0-0.5,0-0.7,0c-0.2,0-0.4,0-0.6,0s-0.3,0.2-0.3,0.4c0,0.1,0,0.3,0.1,0.3c0.1,0.1,0.2,0.2,0.4,0.2c0.2,0.1,0.4,0.1,0.6,0.1
		c0.2,0,0.5,0,0.7,0c0.4,0,0.7,0,1-0.1c0.3,0,0.6-0.1,0.9-0.3c0.3-0.1,0.5-0.3,0.6-0.6c0.2-0.3,0.3-0.7,0.3-1.1V-13
		C-25.3-13.1-25.3-13.2-25.4-13.3 M-32.8-9.2c0,0.2,0,0.4-0.2,0.5c-0.2,0.1-0.4,0.1-0.6,0.1c-0.2,0-0.3,0-0.5,0
		c-0.1,0-0.2-0.1-0.3-0.1c-0.1-0.1-0.1-0.1-0.2-0.3c0-0.1,0-0.3,0-0.4c0-0.2,0-0.5,0.2-0.7c0.2-0.1,0.4-0.2,0.6-0.2h0.4
		c0.2,0,0.3,0,0.4,0.1c0.1,0.1,0.1,0.2,0.1,0.3L-32.8-9.2L-32.8-9.2z M-31.9-13.2c-0.2-0.1-0.4-0.3-0.7-0.3
		c-0.3-0.1-0.7-0.1-1.1-0.1c-0.2,0-0.5,0-0.7,0c-0.2,0-0.4,0.1-0.6,0.1c-0.2,0.1-0.3,0.1-0.4,0.2c-0.1,0.1-0.2,0.2-0.1,0.4
		c0,0.1,0,0.3,0.1,0.4c0.1,0.1,0.2,0.1,0.2,0.1c0,0,0,0,0,0c0,0,0,0,0,0c0.2,0,0.4-0.1,0.6-0.1c0.2,0,0.4,0,0.6,0
		c0.2,0,0.4,0,0.6,0.1c0.1,0,0.2,0.1,0.3,0.2c0.1,0.1,0.1,0.1,0.1,0.3c0,0.1,0,0.2,0,0.3c0,0.1,0,0.3-0.1,0.4
		c-0.1,0.1-0.2,0.1-0.3,0.1l-0.9,0.1c-0.3,0.1-0.7,0.1-1,0.2c-0.2,0.1-0.4,0.2-0.6,0.3c-0.1,0.1-0.2,0.3-0.3,0.5
		c0,0.2-0.1,0.5-0.1,0.7c0,0.3,0,0.5,0.1,0.7c0.1,0.2,0.2,0.4,0.4,0.5c0.2,0.1,0.4,0.2,0.7,0.3c0.3,0.1,0.7,0.1,1,0.1
		c0.3,0,0.6,0,0.8,0c0.2,0,0.5,0,0.7-0.1c0.2,0,0.4-0.1,0.5-0.2c0.1-0.1,0.2-0.3,0.2-0.4v-3.4c0-0.3,0-0.6-0.1-0.9
		C-31.6-12.9-31.7-13.1-31.9-13.2 M-37.1-10.3c-0.1-0.1-0.2-0.3-0.4-0.4c-0.2-0.1-0.4-0.3-0.6-0.4c-0.3-0.2-0.5-0.4-0.8-0.6
		c-0.1-0.1-0.2-0.3-0.2-0.4c0-0.1,0-0.3,0.2-0.4c0.2-0.1,0.4-0.1,0.6-0.1c0.1,0,0.3,0,0.5,0s0.3,0,0.5,0c0.1,0,0.3,0,0.3-0.1
		c0.1-0.1,0.1-0.2,0.1-0.4c0-0.1,0-0.2,0-0.3c0-0.1-0.1-0.2-0.2-0.2c-0.2-0.1-0.3-0.1-0.5-0.1c-0.3,0-0.6-0.1-0.9-0.1
		c-0.3,0-0.5,0-0.8,0.1c-0.2,0-0.4,0.1-0.6,0.2c-0.2,0.1-0.3,0.3-0.4,0.5c-0.1,0.2-0.2,0.5-0.2,0.8c0,0.3,0.1,0.6,0.3,0.8
		c0.3,0.3,0.6,0.6,0.9,0.8c0.2,0.1,0.4,0.3,0.5,0.4c0.1,0.1,0.2,0.2,0.3,0.3c0.1,0.1,0.1,0.2,0.2,0.3c0,0.1,0,0.1,0,0.2
		c0,0.1,0,0.2-0.1,0.3c0,0.1-0.1,0.1-0.2,0.2c-0.1,0-0.2,0.1-0.3,0.1c-0.1,0-0.2,0-0.3,0c-0.2,0-0.3,0-0.5,0s-0.3,0-0.5-0.1
		c-0.1,0-0.3,0-0.3,0.1c-0.1,0.1-0.1,0.2-0.1,0.4c0,0.2,0.1,0.4,0.3,0.5c0.4,0.1,0.8,0.2,1.3,0.2c0.3,0,0.6,0,0.9-0.1
		c0.2,0,0.5-0.1,0.7-0.3c0.2-0.1,0.3-0.3,0.5-0.5c0.1-0.2,0.2-0.5,0.2-0.8c0-0.2,0-0.3-0.1-0.5C-37-10-37-10.1-37.1-10.3 M-42-13.5
		c-0.1,0-0.2,0-0.2-0.1c-0.1,0-0.2,0-0.3,0s-0.2,0-0.3,0s-0.2,0-0.2,0.1c-0.1,0-0.1,0.1-0.2,0.1c0,0.1-0.1,0.1-0.1,0.2v5
		c0,0.1,0,0.1,0.1,0.2c0,0.1,0.1,0.1,0.2,0.1c0.1,0,0.2,0.1,0.2,0.1c0.1,0,0.2,0,0.3,0s0.2,0,0.3,0c0.1,0,0.2,0,0.2-0.1
		c0.1,0,0.1-0.1,0.2-0.1c0,0,0.1-0.1,0.1-0.2v-5c0-0.1,0-0.1-0.1-0.2C-41.9-13.4-42-13.5-42-13.5 M-41.8-15.6
		c-0.1-0.1-0.2-0.1-0.2-0.1c-0.1,0-0.3,0-0.4,0s-0.3,0-0.4,0c-0.1,0-0.2,0.1-0.3,0.1c-0.1,0.1-0.1,0.1-0.1,0.2c0,0.1,0,0.3,0,0.4
		c0,0.1,0,0.2,0,0.3c0,0.1,0.1,0.1,0.1,0.2c0.1,0.1,0.2,0.1,0.3,0.1c0.1,0,0.3,0,0.4,0s0.3,0,0.4,0c0.1,0,0.2-0.1,0.2-0.1
		c0.1-0.1,0.1-0.1,0.1-0.2c0-0.1,0-0.3,0-0.4c0-0.1,0-0.2,0-0.3C-41.7-15.5-41.8-15.6-41.8-15.6 M-44.5-15c-0.2-0.1-0.4-0.1-0.5-0.1
		c-0.1,0-0.3,0-0.4,0.1c-0.1,0.1-0.2,0.2-0.2,0.3c0,0.2-0.1,0.4-0.1,0.7c-0.1,0.3-0.1,0.6-0.2,0.9s-0.2,0.7-0.2,1
		c-0.1,0.4-0.2,0.7-0.2,1c-0.1,0.3-0.2,0.6-0.2,0.9c-0.1,0.3-0.1,0.5-0.2,0.7c0,0.1,0,0.1-0.1,0.2c0,0-0.1,0-0.1,0c0,0-0.1,0-0.1,0
		c0-0.1-0.1-0.1-0.1-0.2c0-0.2-0.1-0.4-0.2-0.7s-0.1-0.6-0.2-0.9s-0.2-0.7-0.2-1c-0.1-0.4-0.2-0.7-0.2-1.1c-0.1-0.3-0.1-0.6-0.2-0.9
		c-0.1-0.3-0.1-0.5-0.2-0.7c0-0.1-0.1-0.3-0.2-0.3c-0.1-0.1-0.3-0.1-0.4-0.1c-0.2,0-0.4,0-0.6,0.1c-0.1,0.1-0.2,0.2-0.2,0.3
		c0,0.2,0,0.4,0.1,0.6c0.1,0.3,0.1,0.6,0.2,1.1s0.2,0.9,0.3,1.3c0.1,0.5,0.2,0.9,0.3,1.4c0.1,0.4,0.2,0.9,0.3,1.2
		c0.1,0.4,0.2,0.7,0.3,0.9c0,0.1,0.1,0.2,0.2,0.3s0.2,0.1,0.3,0.1c0.1,0,0.2,0.1,0.4,0.1c0.1,0,0.3,0,0.4,0c0.1,0,0.3,0,0.4,0
		c0.1,0,0.2,0,0.3-0.1c0.1,0,0.2-0.1,0.3-0.1c0.1-0.1,0.1-0.2,0.2-0.3c0.1-0.2,0.2-0.5,0.3-0.9s0.2-0.8,0.3-1.2s0.2-0.9,0.3-1.4
		s0.2-0.9,0.3-1.3s0.2-0.8,0.2-1.1c0-0.2,0.1-0.4,0.1-0.6C-44.2-14.8-44.3-14.9-44.5-15"/>
</g>
</svg>
