<svg width="18" height="17" viewBox="0 0 18 17" fill="none" xmlns="http://www.w3.org/2000/svg">
<path d="M14.375 7.08301C14.375 9.16023 13.0155 11.2185 11.4615 12.8588C10.705 13.6574 9.94508 14.3121 9.37317 14.7675C9.23672 14.8762 9.11144 14.9731 9 15.0576C8.88856 14.9731 8.76328 14.8762 8.62683 14.7675C8.05492 14.3121 7.29499 13.6574 6.53845 12.8588C4.98449 11.2185 3.625 9.16023 3.625 7.08301C3.625 5.65747 4.19129 4.29032 5.1993 3.28231C6.20731 2.2743 7.57446 1.70801 9 1.70801C10.4255 1.70801 11.7927 2.2743 12.8007 3.28231C13.8087 4.29032 14.375 5.65747 14.375 7.08301Z" stroke="#A8ABB2" stroke-width="2" stroke-linecap="round" stroke-linejoin="round"/>
<path d="M9 9.20801C10.1736 9.20801 11.125 8.25661 11.125 7.08301C11.125 5.9094 10.1736 4.95801 9 4.95801C7.82639 4.95801 6.875 5.9094 6.875 7.08301C6.875 8.25661 7.82639 9.20801 9 9.20801Z" fill="#A8ABB2"/>
</svg>
