<svg width="97" height="24" viewBox="0 0 97 24" fill="none" xmlns="http://www.w3.org/2000/svg">
<path d="M0.735107 5.63086C0.735107 5.63086 3.11508 15.4012 3.49491 16.9871C3.93825 18.8381 4.73706 19.5194 7.04018 19.06L8.5263 13.0024C8.90295 11.4977 9.15558 10.425 9.3977 8.89438H9.44029C9.61042 10.44 9.85266 11.5022 10.1626 13.0076C10.1626 13.0076 10.7676 15.7576 11.0774 17.202C11.388 18.6459 12.2524 19.5559 14.5083 19.0605L18.0494 5.63189H15.1904L13.9815 11.4377C13.6565 13.1277 13.3616 14.4482 13.1342 15.9942H13.0938C12.8872 14.4636 12.6243 13.1954 12.2939 11.5489L11.0351 5.63189H8.05635L6.70993 11.3998C6.32848 13.1525 5.97171 14.5678 5.74483 16.0614H5.70374C5.4714 14.6548 5.16194 12.876 4.82684 11.1794C4.82684 11.1794 4.0269 7.05391 3.74624 5.63189L0.735386 5.63227L0.735107 5.63086ZM27.9894 5.63086V19.0594H30.7113V16.2079V5.63022H27.9894V5.63086ZM66.3257 5.63086V15.5373C66.3257 16.9032 66.5823 17.8601 67.1312 18.4448C67.6108 18.9561 68.4007 19.2871 69.3473 19.2871C70.152 19.2871 70.9438 19.1342 71.317 18.995L71.2819 16.8639C71.0042 16.9324 70.6848 16.9872 70.2479 16.9872C69.3207 16.9872 69.0097 16.3922 69.0097 15.1658V11.3757H71.3803V8.80639H69.0097V5.6309H66.3256L66.3257 5.63086ZM21.9064 8.74389C20.2147 8.74389 18.8719 9.21973 18.14 9.6435L18.6756 11.4811C19.3455 11.058 20.4121 10.7078 21.4221 10.7078C23.0942 10.7035 23.3676 11.655 23.3676 12.2653V12.4096C19.7241 12.4041 17.4226 13.6672 17.4226 16.2419C17.4226 17.8139 18.5942 19.2871 20.6314 19.2871C21.8854 19.2871 22.9342 18.786 23.5628 17.9832H23.6245C23.6245 17.9832 24.0407 19.7267 26.3338 19.06C26.2134 18.3343 26.1742 17.5606 26.1742 16.6287V13.0414C26.1742 10.7549 25.1998 8.74393 21.9064 8.74393L21.9064 8.74389ZM38.1889 8.74389C36.4856 8.74389 35.7201 9.60867 35.256 10.3424H35.2157V8.97162H32.618V19.0601H35.3545V13.1436C35.3545 12.8663 35.3861 12.573 35.4828 12.3178C35.7095 11.7221 36.2627 11.0253 37.1459 11.0253C38.25 11.0253 38.7667 11.9605 38.7667 13.3102V19.06H41.5002V13.0719C41.5002 12.8072 41.5365 12.4883 41.6142 12.2541C41.839 11.5766 42.4353 11.0252 43.2564 11.0252C44.3757 11.0252 44.913 11.9442 44.913 13.5323V19.06H47.6484V13.1182C47.6484 9.98463 46.0602 8.74394 44.2673 8.74394C43.4733 8.74394 42.8466 8.9434 42.28 9.29189C41.8037 9.58468 41.3774 10.0007 41.0047 10.5484H40.9644C40.5308 9.46119 39.5136 8.74394 38.1884 8.74394L38.1889 8.74389ZM53.2156 8.74389C51.5243 8.74389 50.1817 9.21973 49.4491 9.6435L49.9856 11.4811C50.6548 11.058 51.7221 10.7078 52.7315 10.7078C54.4025 10.7035 54.6765 11.655 54.6765 12.2653V12.4096C51.0335 12.4041 48.7318 13.6672 48.7318 16.2419C48.7318 17.8139 49.9039 19.2871 51.9422 19.2871C53.1953 19.2871 54.2444 18.786 54.8719 17.9832H54.9337C54.9337 17.9832 55.3499 19.7267 57.6434 19.06C57.5227 18.3343 57.484 17.5606 57.484 16.6287V13.0414C57.484 10.7549 56.5093 8.74393 53.2155 8.74393L53.2156 8.74389ZM64.5793 8.74389C63.5315 8.74389 62.3393 9.42153 61.8389 10.8742H61.7625V8.97149H59.2991V19.06H62.1073V13.894C62.1073 13.6153 62.1242 13.3723 62.1682 13.1495C62.3759 12.0674 63.202 11.3756 64.3878 11.3756C64.7133 11.3756 64.9463 11.411 65.1983 11.4474V8.8063C64.987 8.76352 64.8424 8.7438 64.5795 8.7438L64.5793 8.74389ZM23.4555 14.1973V15.4559C23.4555 15.642 23.4393 15.8341 23.3878 16.0021C23.1772 16.701 22.4544 17.2917 21.5509 17.2917C20.7976 17.2917 20.1992 16.8634 20.1992 15.9573C20.1992 14.5714 21.722 14.1883 23.4556 14.1973H23.4555ZM54.7647 14.1973V15.4559C54.7647 15.642 54.7482 15.8341 54.697 16.0021C54.4864 16.701 53.7638 17.2917 52.8603 17.2917C52.1069 17.2917 51.5084 16.8634 51.5084 15.9573C51.5084 14.5714 53.0312 14.1883 54.7647 14.1973H54.7647Z" fill="#93979B"/>
<path d="M86.0974 0.774445C85.2187 0.774445 84.5202 1.26607 84.5202 1.86456L85.0539 7.91855C85.1128 8.28329 85.5588 8.56463 86.0979 8.56463C86.6381 8.56393 87.0825 8.28282 87.1427 7.91855L87.6789 1.86456C87.6789 1.26612 86.9785 0.774496 86.0985 0.774496L86.0974 0.774445ZM77.4007 5.63066C76.9445 5.64151 76.4263 5.98754 76.0966 6.56014C75.6558 7.32261 75.7339 8.17468 76.2497 8.47361L81.7492 11.0394C82.0927 11.1674 82.5593 10.923 82.8295 10.4563C82.8296 10.4563 82.8295 10.4561 82.8295 10.4561C83.101 9.98709 83.08 9.45978 82.7942 9.22588L77.8272 5.73566C77.6982 5.66081 77.5531 5.62712 77.4011 5.63074L77.4007 5.63066ZM94.7941 5.63066C94.642 5.62705 94.4972 5.66073 94.3684 5.73558L89.4008 9.22581C89.1167 9.45969 89.0957 9.98703 89.3657 10.456L89.366 10.4563C89.6372 10.9229 90.1023 11.1674 90.4458 11.0393L95.9477 8.47366C96.4657 8.17473 96.5399 7.3227 96.102 6.56019C95.7709 5.98758 95.2518 5.64156 94.7957 5.63071L94.7941 5.63066ZM81.9546 13.618C81.8835 13.6171 81.8145 13.6281 81.7499 13.6524L76.2505 16.2151C75.7347 16.5154 75.6565 17.3678 76.0974 18.1311C76.5369 18.892 77.3117 19.2538 77.8276 18.9554L82.795 15.4678C83.0808 15.2311 83.1019 14.7039 82.8303 14.2354L82.8326 14.2364C82.613 13.8548 82.2629 13.6222 81.9546 13.618L81.9546 13.618ZM90.2426 13.618C89.9347 13.6222 89.5853 13.8549 89.3652 14.2365L89.3672 14.2355C89.097 14.704 89.1179 15.2312 89.402 15.4679L94.3696 18.9555C94.8846 19.2539 95.6601 18.8921 96.1017 18.1311C96.5395 17.3678 96.4653 16.5154 95.9473 16.2152L90.4471 13.6525C90.3825 13.6282 90.3137 13.6171 90.2427 13.6181L90.2426 13.618ZM86.0966 16.127C85.5584 16.1277 85.1134 16.4078 85.0546 16.7716L84.521 22.8253C84.521 23.4248 85.2194 23.9155 86.0981 23.9155C86.9785 23.9155 87.6783 23.4248 87.6783 22.8253L87.1434 16.7716C87.0832 16.4078 86.6388 16.1277 86.0986 16.127H86.0966H86.0966Z" fill="#93979B"/>
</svg>
