<svg width="121" height="51" viewBox="0 0 121 51" fill="none" xmlns="http://www.w3.org/2000/svg">
<path d="M93.4094 2.19922V25.4133L93.1132 25.658L92.8171 25.9026L92.5332 26.1594L92.2617 26.4163L92.0026 26.6731L91.7434 26.9422L91.4966 27.2113L91.2498 27.4804V2.19922H65.2977V23.3341H63.1504V2.19922H37.1982V23.3708H35.051V2.19922H9.0988V26.3307L2.47192 48.2116H8.29667L11.2214 38.5248H12.0605L16.898 48.2116H23.9321L19.2427 38.5248H29.8803L26.9309 48.2116H33.2863L36.1986 38.5493H37.6055V38.5247H39.6046H39.7651H51.7724L48.9588 48.1871H55.3759L58.1031 38.5247H60.9908L61.0648 48.1871H66.4453L72.6279 38.5247H76.6756L74.5777 48.1871H80.896L82.9569 38.5247H86.6097L86.5851 39.0751L86.5981 39.6378L86.6228 40.1759L86.6721 40.7141L86.7091 40.9709L86.7461 41.2278L86.7954 41.4846L86.8447 41.7415L86.9064 41.9983L86.968 42.2429L87.042 42.4875L87.116 42.7322L87.2025 42.9768L87.2889 43.2092L87.3876 43.4415L87.4864 43.6617L87.5975 43.8941L87.7086 44.1142L87.8321 44.3222L87.9555 44.5423L88.0913 44.7502L88.2394 44.9459L88.3875 45.1539L88.5479 45.3373L88.7083 45.533L88.8688 45.7165L89.0539 45.8999L89.239 46.0712L89.4734 46.2669L89.7079 46.4626L89.9547 46.646L90.2139 46.8173L90.473 46.9885L90.7322 47.1475L91.0037 47.282L91.2875 47.4287L91.559 47.551L91.8428 47.6733L92.1267 47.7834L92.4228 47.8935L92.719 47.9914L93.0152 48.077L93.3113 48.1626L93.6075 48.236L94.1999 48.3705L94.8046 48.4684L95.3969 48.554L95.9892 48.6274L96.5692 48.6763L97.1369 48.7008L97.6922 48.7253H98.2229L98.9386 48.7137L99.6544 48.7021L100.382 48.6654L101.111 48.6287L101.839 48.5675L102.567 48.5063L103.295 48.4329L104.023 48.3473L104.763 48.2494L105.504 48.1393L106.244 48.017L106.985 47.8947L107.725 47.7602L108.466 47.6134L109.206 47.4667L109.959 47.2954L112.155 38.5259H119.362V2.20035H93.4101L93.4094 2.19922ZM11.5052 37.6197L11.5422 37.4852L11.6287 37.6197H11.5052ZM34.1131 24.6061L33.7429 25.8414L30.2875 37.2161L30.1517 37.6197H18.7984L17.9223 35.7606L30.1517 23.3708H22.2908L12.7269 33.5835L15.8244 23.3708H10.0243V3.11654H34.113V24.6061H34.1131ZM40.814 34.2195L40.6289 34.2311L40.4561 34.2428L40.271 34.2544H40.0736H39.8144H39.5923L39.3825 34.266H39.185L37.6425 34.2544L38.3582 31.637L38.6914 30.3405L39.5059 27.295H39.7651H40.0366L40.2957 27.2834H40.5425H41.7395L42.4676 27.295L43.134 27.3195L43.4302 27.3311L43.714 27.3557L43.9855 27.3924L44.2323 27.4291L44.4545 27.4658L44.6643 27.527L44.8617 27.5882L45.0345 27.6616L45.1826 27.735L45.3183 27.8329L45.4418 27.9309L45.5404 28.0532L45.6021 28.1511L45.6514 28.249L45.7007 28.3591L45.7377 28.4814L45.7624 28.6159L45.7754 28.7503V28.8971V29.0561L45.7624 29.2273L45.7508 29.3986L45.7138 29.5943L45.6768 29.79L45.5657 30.2058L45.4299 30.6706L45.2941 31.062L45.146 31.4411L44.9856 31.7958L44.8128 32.126L44.7264 32.2728L44.6399 32.4196L44.5411 32.5664L44.43 32.7008L44.3189 32.8353L44.2078 32.9576L44.0843 33.0799L43.9608 33.19L43.8251 33.2879L43.6893 33.398L43.5412 33.4836L43.3808 33.5815L43.2203 33.6671L43.0476 33.7405L42.8748 33.8139L42.6897 33.8752L42.4923 33.9486L42.2825 33.9974L42.0603 34.0463L41.8382 34.0952L41.5914 34.1319L41.3446 34.1686L41.0854 34.1931L40.8139 34.2177L40.814 34.2195ZM58.3623 37.6197L60.8921 28.6912L60.9909 37.6197H58.3623H58.3623ZM62.2125 23.3341H56.1903L52.0439 37.6197H45.6515L45.9477 37.4974L46.2438 37.3751L46.5277 37.2529L46.8115 37.1184L47.083 36.9839L47.3421 36.8249L47.6013 36.6781L47.8481 36.5191L48.0949 36.3479L48.3294 36.1766L48.5515 36.0054L48.7737 35.8097L48.9834 35.6263L49.1809 35.4183L49.3783 35.2226L49.5635 35.0025L49.7486 34.7946L49.9213 34.5622L50.0818 34.342L50.2422 34.0974L50.3903 33.8528L50.5261 33.6082L50.6618 33.3513L50.7853 33.0823L50.9087 32.8132L51.0199 32.5441L51.1185 32.2628L51.2173 31.9692L51.2913 31.6757L51.3777 31.3822L51.4394 31.0642L51.5011 30.7584L51.5875 30.2692L51.6615 29.8044L51.7108 29.3641L51.7478 28.9482L51.7609 28.5324L51.7478 28.1532L51.7362 27.7741L51.6869 27.4194L51.6376 27.0891L51.5511 26.7589L51.4646 26.4531L51.3412 26.1596L51.2054 25.8783L51.0573 25.597L50.8846 25.3401L50.6871 25.0955L50.5267 24.9243L50.3662 24.7531L50.1935 24.6063L50.0084 24.4718L49.8109 24.3373L49.6135 24.215L49.4037 24.1049L49.1939 24.007L48.9718 23.9091L48.7496 23.8357L48.5152 23.7623L48.2807 23.6889L48.0339 23.6277L47.7871 23.5788L47.5403 23.5299L47.2811 23.4932L46.7505 23.4198L46.2198 23.3831L45.6768 23.3464L45.1215 23.3348H44.0109H42.9126H42.567H41.95H41.1849H40.3334H39.5066H38.8032H38.3095H38.1244V3.11719H62.2132V23.3348L62.2125 23.3341ZM76.8484 37.6197H73.2326L78.7118 29.0581L76.8484 37.6197ZM90.3119 23.7377L90.2989 28.6912L89.9904 29.1193L89.7065 29.5596L89.4227 29.9999L89.1636 30.4402L88.9167 30.8805L88.6699 31.3331L88.4601 31.7734L88.2504 32.2137L88.0529 32.6418L87.8801 33.0821L87.7074 33.5102L87.5593 33.926L87.4235 34.3418L87.3 34.7455L87.1889 35.1369L87.0901 35.5282L87.0285 35.7851L86.9668 36.0542L86.9052 36.311L86.8559 36.5801L86.8065 36.8369L86.7695 37.0938L86.7325 37.3506L86.7079 37.6197H83.1661L86.1896 23.3708L75.9963 23.3592L66.8766 37.6204H66.2102V3.11716H90.3113V23.7383L90.3119 23.7377ZM104.207 43.4538L103.701 43.5394L103.183 43.6128L102.665 43.6862L102.159 43.7474L101.653 43.7963L101.147 43.833L100.653 43.8576H100.16H99.8388L99.518 43.8459L99.2095 43.8214L98.901 43.7847L98.6048 43.7358L98.321 43.687L98.0371 43.6257L97.7656 43.5523L97.5065 43.4667L97.2473 43.3811L97.0005 43.271L96.7661 43.1609L96.5316 43.0265L96.3094 42.892L96.0996 42.7452L95.9022 42.5984L95.7048 42.4272L95.532 42.2437L95.3592 42.0603L95.1988 41.8524L95.0507 41.6444L94.9149 41.412L94.7915 41.1797L94.668 40.935L94.5692 40.6782L94.4828 40.3969L94.4088 40.1156L94.3348 39.822L94.2855 39.5163L94.2485 39.1983L94.2238 38.868L94.2108 38.5256H105.441L104.207 43.4546L104.207 43.4538ZM118.448 37.6197H112.377L113.376 33.6325H101.209L100.209 37.6197H94.3226V36.8003L94.3966 36.4578L94.4583 36.1153L94.5322 35.7484L94.6062 35.3815L94.7173 34.9779L94.8285 34.5742L94.9519 34.1706L95.0877 33.7792L95.2358 33.3879L95.3962 32.9965L95.569 32.6173L95.7418 32.2381L95.9392 31.859L96.1366 31.5043L96.3464 31.1374L96.5809 30.7949L96.8154 30.4525L97.0498 30.1222L97.309 29.8042L97.5805 29.4984L97.8643 29.2049L98.1482 28.9358L98.4567 28.6668L98.7652 28.4099L99.0861 28.1775L99.4316 27.9574L99.7771 27.7617L100.135 27.5782L100.505 27.407L100.888 27.2602L101.283 27.1379L101.69 27.04L102.109 26.9544L102.541 26.8932L102.986 26.8565L103.442 26.8449L103.8 26.8565L104.158 26.881L104.516 26.9299L104.861 27.0033L105.034 27.0522L105.195 27.1011L105.355 27.15L105.503 27.2234L105.651 27.2846L105.799 27.3702L105.935 27.4558L106.071 27.5413L106.194 27.6515L106.318 27.7616L106.429 27.8717L106.54 28.0061L106.639 28.1284L106.725 28.2752L106.799 28.4342L106.873 28.5932L106.935 28.7644L106.984 28.9479L107.021 29.1314L107.058 29.3393L107.071 29.5472V29.7674V29.9998L107.047 30.2444H114.303L114.414 29.7429L114.513 29.1681L114.562 28.8623L114.587 28.532L114.611 28.2018V27.8594L114.6 27.5047L114.563 27.1377L114.526 26.9665L114.501 26.783L114.452 26.5996L114.402 26.4161L114.341 26.2204L114.279 26.037L114.205 25.8535L114.119 25.67L114.032 25.4866L113.921 25.3031L113.81 25.1196L113.687 24.9362L113.538 24.7405L113.378 24.557L113.218 24.3736L113.045 24.2023L112.86 24.0311L112.662 23.8721L112.465 23.7253L112.255 23.5786L112.033 23.4318L111.811 23.3095L111.576 23.1872L111.33 23.0649L111.083 22.9548L110.824 22.8447L110.552 22.7468L110.281 22.6489L110.009 22.5633L109.713 22.4899L109.429 22.4165L109.121 22.3431L108.812 22.2818L108.504 22.2206L108.183 22.1717L107.85 22.135L107.171 22.0616L106.48 22.0004L105.752 21.9759L105.011 21.9643L104.456 21.9759L103.876 21.9875L103.271 22.0242L102.642 22.0731L101.988 22.1465L101.321 22.2321L100.643 22.3422L99.9516 22.489L99.606 22.5624L99.2481 22.648L98.9026 22.7459L98.5447 22.8438L98.1869 22.9539L97.829 23.0762L97.4711 23.1985L97.1256 23.333L96.7677 23.4797L96.4098 23.6387L96.0643 23.7977L95.7064 23.969L95.3609 24.1524L95.0153 24.3481L94.6698 24.5438L94.3243 24.764V3.11539H118.45V37.6186L118.448 37.6197Z" fill="#93979B"/>
</svg>
