<svg width="121" height="45" viewBox="0 0 121 45" fill="none" xmlns="http://www.w3.org/2000/svg">
<g clip-path="url(#clip0)">
<path d="M111.452 42.538C111.673 42.538 112.023 42.5748 112.023 42.2436C112.023 42.0043 111.802 41.9859 111.618 41.9859H111.176V42.538H111.452ZM112.189 43.4215H111.949L111.489 42.6853H111.14V43.4215H110.937V41.8202H111.636C111.765 41.8202 111.913 41.8202 112.023 41.9123C112.133 41.9859 112.207 42.1147 112.207 42.2436C112.207 42.5564 111.986 42.6669 111.71 42.6853L112.189 43.4215ZM110.274 42.6301C110.274 43.311 110.808 43.8448 111.489 43.8448C112.17 43.8448 112.704 43.311 112.704 42.6301C112.704 41.9675 112.17 41.4153 111.489 41.4153C110.808 41.4337 110.274 41.9675 110.274 42.6301ZM112.906 42.6301C112.906 43.4215 112.262 44.0472 111.489 44.0472C110.698 44.0472 110.072 43.4215 110.072 42.6301C110.072 41.8387 110.716 41.2129 111.508 41.2129C112.262 41.2129 112.906 41.8571 112.906 42.6301Z" fill="#93979B"/>
<path d="M67.0042 38.9111H64.1882V35.9664H67.041C68.1637 35.9664 69.1943 36.3345 69.1943 37.4572C69.1759 38.3222 68.4581 38.9111 67.0042 38.9111ZM64.1882 29.1381H66.5624C67.9796 29.1381 68.679 29.6167 68.679 30.5001C68.679 31.2547 68.2741 31.9173 66.5993 31.9173H64.2066V29.1381H64.1882ZM72.1207 33.5737C74.2373 32.8375 75.1575 31.4019 75.1759 29.0645C75.1759 25.4755 71.9367 24.1504 68.3477 24.1504H57.7649V43.9173H68.2373C72.2128 43.9173 75.8385 42.3529 75.8385 38.3774C75.8201 35.6719 74.6606 34.3099 72.1207 33.5737Z" fill="#93979B"/>
<path d="M86.7342 38.9111H83.9183V35.9664H86.771C87.8937 35.9664 88.9244 36.3345 88.9244 37.4572C88.906 38.3222 88.1698 38.9111 86.7342 38.9111ZM83.8999 29.1381H86.2741C87.6913 29.1381 88.3907 29.6167 88.3907 30.5001C88.3907 31.2547 87.9858 31.9173 86.3109 31.9173H83.9183V29.1381H83.8999ZM91.8508 33.5737C93.9674 32.8375 94.8876 31.4019 94.8876 29.0645C94.8876 25.4755 91.6483 24.1504 88.0594 24.1504H77.4766V43.9173H87.949C91.906 43.9173 95.5502 42.3529 95.5502 38.3774C95.5318 35.6719 94.3907 34.3099 91.8508 33.5737Z" fill="#93979B"/>
<path d="M94.5378 24.1504L101.734 35.9295V43.9173H108.342V35.8559L115.796 24.1504H108.967L105.562 29.9111L102.176 24.1504H94.5378Z" fill="#93979B"/>
<path d="M20.8445 24.1504H27.4518V38.3406H35.458V43.9173H20.8445V24.1504Z" fill="#93979B"/>
<path d="M49.851 33.999C49.851 31.6248 48.0841 29.6923 45.8939 29.6923C43.7221 29.6923 41.9369 31.6248 41.9369 33.999C41.9369 36.3917 43.7037 38.3058 45.8939 38.3058C48.0841 38.3058 49.851 36.3733 49.851 33.999ZM56.2375 33.999C56.2375 39.7046 51.6178 44.3242 45.9123 44.3242C40.2068 44.3242 35.5872 39.7046 35.5872 33.999C35.5872 28.2935 40.2068 23.6739 45.9123 23.6739C51.5994 23.6555 56.2375 28.2935 56.2375 33.999Z" fill="#93979B"/>
<path d="M57.3048 16.4033H54.4888V13.4585H57.3416C58.4643 13.4585 59.495 13.8266 59.495 14.9493C59.4766 15.7959 58.7404 16.4033 57.3048 16.4033ZM54.4888 6.63031H56.8631C58.2802 6.63031 58.9796 7.10884 58.9796 7.99227C58.9796 8.74687 58.5747 9.40945 56.8999 9.40945H54.5072L54.4888 6.63031ZM62.4214 11.0659C64.5379 10.3297 65.4582 8.89411 65.4582 6.55669C65.4582 2.96773 62.2189 1.64258 58.6299 1.64258H48.0471V21.4094H58.5195C62.4766 21.4094 66.1207 19.845 66.1207 15.8696C66.1207 13.1456 64.9612 11.8021 62.4214 11.0659Z" fill="#93979B"/>
<path d="M40.1332 11.4718C40.1332 9.0976 38.3663 7.16509 36.1945 7.16509C34.0044 7.16509 32.2375 9.0976 32.2375 11.4718C32.2375 13.8461 34.0044 15.7786 36.1945 15.7786C38.3663 15.797 40.1332 13.8645 40.1332 11.4718ZM46.5197 11.4718C46.5197 17.1773 41.9001 21.8154 36.1945 21.8154C30.489 21.8154 25.8694 17.1958 25.8694 11.4902C25.8694 5.78472 30.489 1.16509 36.1945 1.16509C41.9001 1.14669 46.5197 5.76632 46.5197 11.4718Z" fill="#93979B"/>
<path d="M77.0165 16.4033H74.2005V13.4585H77.0533C78.176 13.4585 79.2066 13.8266 79.2066 14.9493C79.1882 15.7959 78.4704 16.4033 77.0165 16.4033ZM74.2005 6.63031H76.5747C77.9919 6.63031 78.6913 7.10884 78.6913 7.99227C78.6913 8.74687 78.2864 9.40945 76.6116 9.40945H74.2189L74.2005 6.63031ZM82.133 11.0659C84.2496 10.3297 85.1698 8.89411 85.1698 6.55669C85.1698 2.96773 81.9306 1.64258 78.3416 1.64258H67.7588V21.4094H78.2312C82.2066 21.4094 85.8324 19.845 85.8324 15.8696C85.8324 13.1456 84.6729 11.8021 82.133 11.0659Z" fill="#93979B"/>
<path d="M99.2678 1.64258L95.8445 7.40332L92.4764 1.64258H84.8384L92.0347 13.4217V21.3911H98.6421V13.3297L106.078 1.64258H99.2678Z" fill="#93979B"/>
<path d="M17.6423 1.58691V8.89366H11.9736V1.58691H5.36621V21.3538H11.9736V14.047H17.6423V21.3538H24.2497V1.58691H17.6423Z" fill="#93979B"/>
</g>
<defs>
<clipPath id="clip0">
<rect width="120" height="44.5714" fill="white" transform="translate(0.916748 0.0585938)"/>
</clipPath>
</defs>
</svg>
