<svg width="105" height="21" viewBox="0 0 105 21" fill="none" xmlns="http://www.w3.org/2000/svg">
<path opacity="0.5" d="M98.7566 17.2917C98.7566 15.7742 99.9919 14.5431 101.513 14.5431C103.035 14.5431 104.268 15.7742 104.268 17.2917C104.268 18.8092 103.035 20.0395 101.513 20.0395C99.9919 20.0395 98.7566 18.8092 98.7566 17.2917Z" fill="#93979B"/>
<path d="M10.8512 10.0154C10.8512 8.27444 10.5139 6.98284 9.83914 6.14138C9.16357 5.30072 8.14024 4.88078 6.76449 4.88078H5.301V15.527H6.4207C7.94882 15.527 9.06864 15.0753 9.78166 14.1686C10.4938 13.2635 10.8512 11.8789 10.8512 10.0154ZM16.0704 9.8341C16.0704 13.0059 15.2154 15.4499 13.5054 17.1654C11.7954 18.8817 9.39166 19.7399 6.29312 19.7399H0.272339V0.733978H6.7134C9.70105 0.733978 12.0076 1.51419 13.633 3.07382C15.2576 4.63425 16.0704 6.88662 16.0704 9.8341Z" fill="#93979B"/>
<path d="M32.7479 19.7367H37.5389V0.651245H32.7479V19.7367Z" fill="#93979B"/>
<path d="M44.2693 12.6177C44.2693 13.8346 44.4288 14.7627 44.747 15.4006C45.0661 16.0392 45.6003 16.3581 46.3516 16.3581C47.095 16.3581 47.6206 16.0392 47.9268 15.4006C48.2331 14.7627 48.3854 13.8346 48.3854 12.6177C48.3854 11.4072 48.2307 10.4942 47.9204 9.8778C47.6094 9.25983 47.0791 8.95044 46.327 8.95044C45.5917 8.95044 45.0661 9.25826 44.747 9.87066C44.4288 10.4839 44.2693 11.3993 44.2693 12.6177ZM53.2617 12.6177C53.2617 14.9361 52.6523 16.7447 51.4305 18.0411C50.2094 19.3382 48.5003 19.9872 46.303 19.9872C44.1959 19.9872 42.5186 19.3239 41.2736 17.9973C40.0271 16.6707 39.4042 14.878 39.4042 12.6177C39.4042 10.3065 40.0144 8.51063 41.2362 7.23016C42.458 5.94968 44.1712 5.30945 46.3772 5.30945C47.7403 5.30945 48.9462 5.60612 49.991 6.19864C51.0365 6.79116 51.8437 7.63977 52.4107 8.74528C52.9786 9.84919 53.2617 11.1408 53.2617 12.6177Z" fill="#93979B"/>
<path d="M55.1643 19.7367H59.956V12.4325V5.56003H55.1643V19.7367Z" fill="#93979B"/>
<path d="M55.1642 3.84525H59.9559V0.650421H55.1642V3.84525Z" fill="#93979B"/>
<path d="M69.6638 16.1208C70.3107 16.1208 71.081 15.957 71.9798 15.6317V19.1987C71.3338 19.4818 70.7198 19.6846 70.136 19.8047C69.5521 19.9264 68.867 19.9869 68.083 19.9869C66.4743 19.9869 65.3147 19.5836 64.6024 18.7788C63.8934 17.9739 63.5377 16.738 63.5377 15.0702V9.2261H61.8597V5.56122H63.5377V1.94089L68.3662 1.10339V5.56122H71.4233V9.2261H68.3662V14.7441C68.3662 15.6619 68.7993 16.1208 69.6638 16.1208Z" fill="#93979B"/>
<path d="M80.7536 16.1208C81.4004 16.1208 82.1709 15.957 83.0698 15.6317V19.1987C82.4246 19.4818 81.8095 19.6846 81.2257 19.8047C80.6411 19.9264 79.9584 19.9869 79.1728 19.9869C77.5641 19.9869 76.4046 19.5836 75.6939 18.7788C74.9833 17.9739 74.6276 16.738 74.6276 15.0702V9.2261H72.9487V5.56122H74.6276V1.88602L79.4552 1.10339V5.56122H82.5138V9.2261H79.4552V14.7441C79.4552 15.6619 79.8883 16.1208 80.7536 16.1208Z" fill="#93979B"/>
<path d="M89.1156 10.8906C89.181 10.1144 89.4037 9.54575 89.7832 9.18228C90.1645 8.81962 90.635 8.63829 91.1981 8.63829C91.8122 8.63829 92.3003 8.84188 92.6624 9.25226C93.0268 9.66027 93.2167 10.2067 93.2319 10.8906H89.1156ZM95.8725 6.98085C94.7336 5.86739 93.1178 5.30984 91.0274 5.30984C88.8301 5.30984 87.1393 5.95007 85.9542 7.23055C84.7698 8.51103 84.1771 10.3483 84.1771 12.7422C84.1771 15.0606 84.8176 16.8484 86.0953 18.1035C87.3738 19.3585 89.169 19.9868 91.4812 19.9868C92.5914 19.9868 93.5469 19.9113 94.3477 19.7609C95.1436 19.6122 95.914 19.3434 96.6614 18.9552L95.9252 15.7604C95.3821 15.9815 94.8652 16.1517 94.3771 16.2639C93.6721 16.4269 92.8985 16.5088 92.0563 16.5088C91.1328 16.5088 90.4037 16.2837 89.8694 15.8336C89.335 15.3826 89.0503 14.7607 89.0176 13.9686H97.5817V11.7918C97.5817 9.69766 97.0122 8.09351 95.8725 6.98085Z" fill="#93979B"/>
<path d="M22.4292 10.8906C22.4946 10.1144 22.7171 9.54575 23.0967 9.18228C23.4771 8.81962 23.9486 8.63829 24.5125 8.63829C25.125 8.63829 25.6131 8.84188 25.976 9.25226C26.3404 9.66027 26.5295 10.2067 26.5463 10.8906H22.4292ZM29.1869 6.98085C28.0473 5.86739 26.4321 5.30984 24.341 5.30984C22.1429 5.30984 20.4528 5.95007 19.2684 7.23055C18.0841 8.51103 17.4907 10.3483 17.4907 12.7422C17.4907 15.0606 18.1304 16.8484 19.4097 18.1035C20.6874 19.3585 22.4826 19.9868 24.7948 19.9868C25.905 19.9868 26.8604 19.9113 27.6611 19.7609C28.4571 19.6122 29.2277 19.3434 29.9758 18.9552L29.2388 15.7604C28.6956 15.9815 28.1788 16.1517 27.6915 16.2639C26.9849 16.4269 26.212 16.5088 25.3697 16.5088C24.447 16.5088 23.7173 16.2837 23.183 15.8336C22.6478 15.3826 22.3639 14.7607 22.3312 13.9686H30.8953V11.7918C30.8953 9.69766 30.3258 8.09351 29.1869 6.98085Z" fill="#93979B"/>
</svg>
