<svg width="64" height="63" viewBox="0 0 64 63" fill="none" xmlns="http://www.w3.org/2000/svg">
<path d="M63.0784 31.345C63.0784 48.6599 49.0484 62.6899 31.7334 62.6899C14.4184 62.6899 0.388428 48.6474 0.388428 31.345C0.388428 14.0425 14.4184 0 31.7334 0C49.0484 0 63.0784 14.03 63.0784 31.345Z" fill="#93979B"/>
<path d="M16.2498 13.973C16.2498 11.6767 18.1046 9.81891 20.3975 9.81891C22.6903 9.81891 24.5581 11.6767 24.5581 13.973C24.5581 16.2694 22.6903 18.1271 20.3975 18.1271C18.1175 18.14 16.2498 16.2694 16.2498 13.973Z" fill="white"/>
<path d="M10.7013 24.9249C7.09994 24.9249 4.16504 27.6406 4.16504 30.9612C4.16504 34.294 7.09994 37.0097 10.7013 37.0097C12.5468 37.0097 14.3155 36.2814 15.4945 35.0594L14.4949 33.8867C13.6618 34.578 12.3802 35.0223 11.2011 35.0223C8.59944 35.0223 6.47195 33.1954 6.47195 30.9612C6.47195 28.7269 8.58662 26.9 11.2011 26.9C12.3161 26.9 13.6618 27.369 14.5077 28.0233L15.4945 26.8506C14.3411 25.6409 12.5596 24.9249 10.7013 24.9249Z" fill="white"/>
<path d="M26.824 37.0097H34.377V35.0872H28.8981V32.2941H34.377V30.3716H28.8981V27.6027H34.377V25.6802H26.824V37.0097Z" fill="white"/>
<path d="M38.9087 37.0097H46.4617V35.0872H40.9923V25.6802H38.9087V37.0097Z" fill="white"/>
<path d="M53.6372 24.9249C50.5127 24.9249 47.9724 27.6434 47.9724 30.9673C47.9724 34.3036 50.5127 37.0097 53.6372 37.0097C56.7617 37.0097 59.3019 34.3036 59.3019 30.9673C59.3019 27.631 56.7617 24.9249 53.6372 24.9249ZM53.6372 35.218C51.7066 35.218 50.1316 33.3151 50.1316 30.9673C50.1316 28.6196 51.7066 26.7166 53.6372 26.7166C55.5805 26.7166 57.1681 28.6196 57.1681 30.9673C57.1681 33.3151 55.5805 35.218 53.6372 35.218Z" fill="white"/>
<path d="M17.7603 25.6802H21.5368V37.0097H19.5235V27.6027H17.7603V25.6802Z" fill="white"/>
</svg>
