<svg width="101" height="22" viewBox="0 0 101 22" fill="none" xmlns="http://www.w3.org/2000/svg">
<path d="M57.8799 13.7477L63.7981 7.98409H57.9693V5.27006H67.939V8.02862L62.02 13.7699H68.0514V16.484H57.8823L57.8799 13.7477ZM53.6751 1.58173H56.7582V4.37178H53.6751V1.58173ZM53.6335 5.30384H56.7166V16.5178H53.6335V5.30384ZM16.3434 10.877C16.3557 7.67179 18.9708 5.08224 22.1871 5.09042C25.4033 5.0986 28.0051 7.70143 28.001 10.9067C27.9969 14.1119 25.3885 16.7081 22.1722 16.7082C20.6217 16.7104 19.1345 16.0961 18.0402 15.0014C16.946 13.9067 16.3352 12.4222 16.3434 10.877ZM25.0073 10.877C25.0073 9.28468 23.7469 7.95953 22.1722 7.95953C20.5744 7.95953 19.3587 9.28315 19.3587 10.877C19.3587 12.4709 20.5744 13.7945 22.1722 13.7945C23.7469 13.7922 25.008 12.4694 25.008 10.877H25.0073ZM41.9143 5.27006H44.9759V6.52612C45.6954 5.6048 46.7978 5.04587 48.0805 5.04587C50.7369 5.04587 52.3347 6.7503 52.3347 9.64323V16.484H49.2061V10.0471C49.2061 8.54456 48.5081 7.66701 47.136 7.66701C45.9658 7.66701 44.9982 8.47393 44.9982 10.3542V16.4771H41.9166L41.9143 5.27006ZM68.2271 10.877C68.2271 6.90693 71.1546 5.04203 73.6969 5.04203C75.1606 5.04203 76.3077 5.57946 77.0496 6.36565V5.27006H80.1312V16.484H77.0496V15.2279C76.3077 16.1024 75.1144 16.7082 73.6522 16.7082C71.2663 16.7082 68.2271 14.8272 68.2271 10.877ZM77.1382 10.8548C77.1382 9.19485 75.9233 7.84897 74.2577 7.84897C72.5475 7.84897 71.2424 9.12729 71.2424 10.8548C71.2424 12.5822 72.5475 13.882 74.2577 13.882C75.9249 13.882 77.1398 12.5139 77.1398 10.8548H77.1382ZM81.3777 5.27006H84.4385V6.52612C85.1588 5.6048 86.2612 5.04587 87.5439 5.04587C90.1995 5.04587 91.7973 6.7503 91.7973 9.64323V16.484H88.6687V10.0471C88.6687 8.54456 87.9753 7.66701 86.5987 7.66701C85.4284 7.66701 84.4608 8.47393 84.4608 10.3542V16.4771H81.3792L81.3777 5.27006ZM57.8799 16.484V13.7477L63.7981 7.98409H57.9693V5.27006H67.939V8.02862L62.02 13.7699L57.8799 16.484ZM13.0546 10.7795L13.0122 10.8686C12.161 12.6567 10.5955 13.6824 8.7173 13.6824C5.99396 13.6824 3.86382 11.5373 3.86382 8.79946C3.86382 5.99175 5.97932 3.87503 8.78509 3.87503C10.6032 3.87503 11.9845 4.72341 12.8913 6.3979L12.9398 6.48696L15.684 4.73877L15.6377 4.66199C14.2125 2.24277 11.6502 0.798615 8.78509 0.798615C4.20665 0.798615 0.754517 4.23895 0.754517 8.80099C0.754517 13.4383 4.13192 16.8041 8.78509 16.8041C11.7842 16.8041 14.4336 15.145 15.8727 12.3665L15.9159 12.2828L13.0546 10.7795ZM28.7776 10.877C28.7776 6.90693 31.7051 5.04203 34.2474 5.04203C35.7111 5.04203 36.8575 5.6478 37.6001 6.47698V5.27006H40.6817V16.1723C40.6817 19.3347 38.6787 21.8913 34.8752 21.8913C32.0171 21.8913 29.9247 20.4103 29.0202 18.6614L31.7436 17.1366C32.3283 18.3028 33.3614 19.0429 34.8714 19.0429C36.537 19.0429 37.5939 17.7423 37.5939 16.2844V15.2279C36.8513 16.1024 35.6587 16.7082 34.1965 16.7082C31.8152 16.7082 28.7776 14.8272 28.7776 10.877ZM37.6887 10.8548C37.6887 9.19485 36.4738 7.84897 34.8082 7.84897C33.0979 7.84897 31.7929 9.12729 31.7929 10.8548C31.7929 12.5822 33.0979 13.882 34.8082 13.882C36.4738 13.882 37.6887 12.5139 37.6887 10.8548ZM99.3903 8.02862V5.27006H97.2748V1.57098H94.1932V5.27006H92.2788V8.02862H94.1893V11.6171C94.1893 15.2732 95.3596 16.484 98.938 16.484H99.388V13.6133C97.4974 13.6133 97.2725 13.3438 97.2725 11.5949V8.02862H99.3903ZM100.044 2.90919C99.897 3.05707 99.6965 3.14023 99.4873 3.14023C99.2782 3.14023 99.0777 3.05707 98.9303 2.90919C98.7799 2.76313 98.6963 2.56186 98.6992 2.35256C98.7 1.99784 98.9396 1.68782 99.2836 1.59663C99.6276 1.50544 99.9901 1.65582 100.168 1.96329C100.345 2.27076 100.293 2.6587 100.041 2.90919H100.044ZM99.0089 1.87655C98.8799 2.00183 98.8086 2.17463 98.8117 2.3541C98.8088 2.53413 98.8794 2.70762 99.0074 2.83472C99.1341 2.96206 99.3066 3.03369 99.4866 3.03369C99.6665 3.03369 99.839 2.96206 99.9658 2.83472C100.095 2.70818 100.166 2.53446 100.163 2.3541C100.165 2.08016 100.001 1.83223 99.7466 1.7273C99.4927 1.62236 99.2003 1.6814 99.0074 1.87655H99.0089ZM99.4712 1.92031C99.551 1.91622 99.6308 1.92662 99.7069 1.95102C99.7952 1.98604 99.8497 2.0748 99.8409 2.16907C99.8456 2.23676 99.8135 2.30176 99.757 2.33951C99.7186 2.36157 99.6761 2.37567 99.6322 2.38097C99.6913 2.38687 99.7451 2.41758 99.7801 2.46542C99.8093 2.50372 99.8257 2.55017 99.8271 2.59825V2.66197C99.8271 2.68117 99.8271 2.70266 99.8271 2.7257C99.8273 2.74079 99.8296 2.75579 99.834 2.77023L99.8394 2.78097H99.6969C99.6965 2.77817 99.6965 2.77533 99.6969 2.77253V2.76332V2.73568V2.66735C99.7073 2.59172 99.6761 2.51634 99.6152 2.47003C99.5617 2.44761 99.5036 2.43813 99.4457 2.44239H99.3256V2.78097H99.1715V1.92031H99.4712ZM99.6352 2.05544C99.5773 2.03032 99.5142 2.01952 99.4511 2.02396H99.3209V2.33567H99.4588C99.5079 2.33799 99.5569 2.33149 99.6037 2.31648C99.6529 2.2944 99.6869 2.24825 99.6934 2.19484C99.6998 2.14144 99.6778 2.08855 99.6352 2.05544Z" fill="#93979B"/>
</svg>
