<?xml version="1.0" encoding="utf-8"?>
<!-- Generator: Adobe Illustrator 23.0.3, SVG Export Plug-In . SVG Version: 6.00 Build 0)  -->
<svg version="1.1" id="Layer_1" xmlns="http://www.w3.org/2000/svg" xmlns:xlink="http://www.w3.org/1999/xlink" x="0px" y="0px"
	 viewBox="0 0 90 90" style="enable-background:new 0 0 90 90;" xml:space="preserve">
<g id="Group_508" transform="translate(0 0)">
	<path id="Path_523" d="M26.4,42.1v-4.1H15.3V26.8h-4.1v11.1H0v4.1h11.1v11.1h4.1V42.1L26.4,42.1z"/>
	<path id="Path_524" d="M71.1,51.6H40C29.5,51.7,21,60.1,21,70.6v10.9h69V70.6C90,60.1,81.5,51.7,71.1,51.6z M85.9,77.4H25.1v-6.8
		c0-8.2,6.6-14.8,14.8-14.8h31.1c8.2,0,14.8,6.6,14.8,14.8L85.9,77.4L85.9,77.4z"/>
	<path id="Path_525" d="M55.5,49.7c11,0,19.9-8.9,19.9-19.9S66.5,9.9,55.5,9.9s-19.9,8.9-19.9,19.9l0,0
		C35.6,40.8,44.5,49.7,55.5,49.7z M55.5,14c8.7,0,15.8,7.1,15.8,15.8s-7.1,15.8-15.8,15.8c-8.7,0-15.8-7.1-15.8-15.8
		C39.7,21.1,46.8,14,55.5,14L55.5,14z"/>
</g>
</svg>
