<?xml version="1.0" encoding="utf-8"?>
<!-- Generator: Adobe Illustrator 23.0.3, SVG Export Plug-In . SVG Version: 6.00 Build 0)  -->
<svg version="1.1" id="Layer_1" xmlns="http://www.w3.org/2000/svg" xmlns:xlink="http://www.w3.org/1999/xlink" x="0px" y="0px"
	 viewBox="0 0 90 90" style="enable-background:new 0 0 90 90;" xml:space="preserve">
<g id="add-user" transform="translate(0 -33.514)">
	<g id="Group_367" transform="translate(0 33.514)">
		<path id="Path_514" d="M26.3,41.1V37H15.2V25.9h-4.1V37H0v4.1h11.1v11.1h4.1V41.1H26.3z"/>
		<path id="Path_515" d="M70.9,50.6h-31C29.4,50.7,21,59.1,21,69.5v10.9h68.8V69.5C89.7,59.1,81.3,50.7,70.9,50.6z M85.7,76.3H25.1
			v-6.8c0-8.2,6.6-14.8,14.8-14.8h31c8.2,0,14.8,6.6,14.8,14.8V76.3L85.7,76.3z"/>
		<path id="Path_516" d="M55.4,48.7c11,0,19.9-8.9,19.9-19.9c0-11-8.9-19.9-19.9-19.9c-11,0-19.9,8.9-19.9,19.9v0
			C35.5,39.8,44.4,48.7,55.4,48.7z M55.4,13.1c8.7,0,15.8,7.1,15.8,15.8s-7.1,15.8-15.8,15.8s-15.8-7.1-15.8-15.8l0,0
			C39.6,20.2,46.7,13.1,55.4,13.1L55.4,13.1z"/>
	</g>
</g>
</svg>
