<?xml version="1.0" encoding="utf-8"?>
<!-- Generator: Adobe Illustrator 23.0.3, SVG Export Plug-In . SVG Version: 6.00 Build 0)  -->
<svg version="1.1" id="Layer_1" xmlns="http://www.w3.org/2000/svg" xmlns:xlink="http://www.w3.org/1999/xlink" x="0px" y="0px"
	 viewBox="0 0 90 90" style="enable-background:new 0 0 90 90;" xml:space="preserve">
<g>
	<g id="Group_538" transform="translate(8.329 51.175)">
		<g id="Group_537">
			<path id="Path_540" d="M11,36l-2.6-3.7c-0.6-0.8-1.7-1-2.4-0.4c-0.8,0.6-1,1.7-0.4,2.4c0,0,0,0,0,0l2.6,3.7
				c0.6,0.8,1.7,1,2.5,0.4C11.4,37.9,11.5,36.8,11,36L11,36z"/>
		</g>
	</g>
	<g id="Group_540" transform="translate(0 17.006)">
		<g id="Group_539">
			<path id="Path_541" d="M39.6,70.8l-2.9-13.7c-1.4-6.6-5.3-12.5-10.9-16.2l-6.1-4.1c-2.5-1.6-5.8-1.3-7.8,0.8V16.4
				c0-3.2-2.6-5.9-5.9-5.9c-1.3,0-2.6,0.5-3.7,1.3C0.8,12.9,0,14.6,0,16.4v27.2c0,3.6,1.1,7,3.2,9.9l3.1,4.4c0.6,0.8,1.7,1,2.5,0.4
				c0.8-0.6,1-1.7,0.4-2.5l0,0L6,51.5c-1.6-2.3-2.5-5.1-2.5-7.9V16.4c0-1.3,1.1-2.4,2.4-2.4c1.3,0,2.4,1.1,2.4,2.4c0,0,0,0,0,0V38
				c0,3,1.1,6,3.2,8.2c0.1,0.1,0.2,0.2,0.3,0.3c1.2,1.2,2.5,2.7,3.8,4.1l1.8,1.9l0,0l2.7,2.9c0.7,0.7,1.8,0.7,2.5,0.1
				c0.7-0.7,0.7-1.8,0.1-2.5c0,0-2.1-2.2-4.4-4.7l-4-4.3l0,0c-0.9-1.1-0.9-2.8,0.1-3.9c0.9-1,2.4-1.2,3.5-0.4l6.1,4.1
				c4.9,3.3,8.3,8.3,9.5,14.1l2.9,13.7c0.2,0.9,1.1,1.6,2.1,1.4C39.2,72.7,39.8,71.8,39.6,70.8L39.6,70.8L39.6,70.8z"/>
		</g>
	</g>
	<g id="Group_542" transform="translate(6.074 47.999)">
		<g id="Group_541">
			<path id="Path_542" d="M6.9,30.4L6.9,30.4c-0.6-0.8-1.7-1-2.5-0.4c-0.8,0.6-1,1.7-0.4,2.5l0,0l0,0c0.6,0.8,1.7,1,2.5,0.4
				C7.3,32.2,7.5,31.1,6.9,30.4L6.9,30.4z"/>
		</g>
	</g>
	<g id="Group_544" transform="translate(31.151 17.006)">
		<g id="Group_543">
			<path id="Path_543" d="M56.6,11.8c-2.5-2-6.2-1.6-8.3,0.9c-0.8,1-1.3,2.3-1.3,3.7v21.2c-2.1-2.1-5.4-2.4-7.8-0.8l-6.1,4.1
				c-5.6,3.8-9.6,9.6-10.9,16.2l-2.9,13.7c-0.2,0.9,0.4,1.9,1.4,2.1c0.9,0.2,1.9-0.4,2.1-1.4l2.9-13.7c1.2-5.7,4.6-10.8,9.5-14.1
				l6.1-4.1c1.1-0.7,2.6-0.5,3.5,0.4c1,1.1,1,2.8,0.1,3.9l0,0l-8.5,9c-0.7,0.7-0.6,1.8,0.1,2.5c0.7,0.7,1.8,0.6,2.5-0.1l0,0
				c0,0,7.2-7.7,8.4-8.9c0.1-0.1,0.2-0.2,0.3-0.3c2-2.3,3.2-5.2,3.2-8.2V16.4c0-1.3,1.1-2.4,2.4-2.4c1.3,0,2.4,1.1,2.4,2.4
				c0,0,0,0,0,0v27.2c0,2.8-0.9,5.6-2.5,7.9L39.5,70.2c-0.6,0.8-0.4,1.9,0.4,2.5c0.8,0.6,1.9,0.4,2.5-0.4c0,0,0,0,0,0l13.3-18.7
				c2.1-2.9,3.2-6.4,3.2-9.9V16.4C58.8,14.6,58,12.9,56.6,11.8z"/>
		</g>
	</g>
	<g id="Group_546" transform="translate(10.151 5.87)">
		<g id="Group_545">
			<path id="Path_544" d="M57.1,27.8L54,27.1v-0.6c2.1-1.5,3.4-3.9,3.4-6.4V16c0-4.3-3.5-7.9-7.8-7.9c-1.9,0-3.7,0.7-5.1,1.9
				C42.2,4.8,36.2,2.2,31,4.4c-2.6,1-4.6,3.1-5.6,5.7c-3.3-2.8-8.3-2.5-11.1,0.8c-1.2,1.4-1.9,3.2-1.9,5.1v4.1c0,2.6,1.3,5,3.4,6.4
				v0.6l-3.1,0.7c-3.7,0.9-6.4,4.2-6.3,8v3.3c0,1,0.8,1.8,1.8,1.8h8.1c0,0.2,0,0.4,0,0.6v6.3c0,1,0.8,1.8,1.8,1.8h10.6
				c1,0,1.8-0.8,1.8-1.8c0-1-0.8-1.8-1.8-1.8h-1.8v-3.6c0-1-0.8-1.8-1.8-1.8c-1,0-1.8,0.8-1.8,1.8v3.6h-3.5v-4.6
				c0-3.4,2.3-6.3,5.6-7.1l4.8-1.2l3.2,7.3c0.3,0.6,0.9,1.1,1.6,1.1l0,0c0.7,0,1.3-0.4,1.6-1l3.2-7.3l4.8,1.1
				c3.3,0.8,5.6,3.7,5.6,7.1v4.6h-3.5v-3.6c0-1-0.8-1.8-1.8-1.8c-1,0-1.8,0.8-1.8,1.8v3.6h-2c-1,0-1.8,0.8-1.8,1.8
				c0,1,0.8,1.8,1.8,1.8h10.7c1,0,1.8-0.8,1.8-1.8v-6.3c0-0.2,0-0.4,0-0.6h8.1c1,0,1.8-0.8,1.8-1.8l0,0v-3.3
				C63.5,32,60.8,28.7,57.1,27.8z M49.5,11.6c2.3,0,4.2,1.8,4.3,4.1h-2.4c-2.1,0-4.1-0.5-5.9-1.4C46.2,12.7,47.7,11.6,49.5,11.6
				L49.5,11.6z M45.1,19.8c0-0.1,0-0.2,0-0.3V18c2,0.8,4.1,1.2,6.2,1.2h2.5v0.8c0,2.4-1.9,4.4-4.3,4.4c-2.4,0-4.4-1.9-4.4-4.3
				c0,0,0,0,0,0L45.1,19.8z M28.1,13.9L28.1,13.9c0-3.7,3-6.8,6.7-6.8c3.3,0,6.2,2.4,6.7,5.7l-3-1.7c-0.7-0.4-1.7-0.3-2.2,0.4
				c-1.4,1.7-3.6,2.7-5.8,2.7h-2.4V13.9z M20.2,11.6c1.7,0,3.3,1,4,2.6c-1.8,0.9-3.8,1.4-5.9,1.4h-2.4C16,13.4,17.9,11.6,20.2,11.6
				L20.2,11.6z M15.9,19.2h2.5c2.1,0,4.3-0.4,6.2-1.2v2.1c0,2.4-2,4.3-4.4,4.3c-2.4,0-4.3-1.9-4.3-4.3V19.2z M24.4,31
				c-3.4,0.8-6.1,3.2-7.5,6.4H9.8v-1.5c0-2.2,1.5-4.1,3.6-4.6l4.5-1.1c0.8-0.2,1.3-0.9,1.3-1.7v-0.6c0.7,0.1,1.3,0.1,2,0v0.5
				c0,0,0,0.1,0,0.1c0,0.8,0.6,1.6,1.4,1.7l2.6,0.6L24.4,31z M29.3,28.3c-0.5-0.2-0.9-0.4-1.4-0.5l-3.1-0.8v-0.5
				c0.6-0.4,1.1-0.9,1.5-1.4c0.8,1.2,1.8,2.2,3,3V28.3z M36.9,30.9l-2.1,4.7l-2.1-4.7v-1.3c1.4,0.3,2.8,0.3,4.1,0L36.9,30.9z
				 M34.9,26.3c-3.7,0-6.7-3-6.7-6.7v-1.9h2.4c2.8,0,5.4-1,7.5-2.9l3.6,2.1v2.9C41.5,23.4,38.5,26.3,34.9,26.3L34.9,26.3z
				 M40.4,28.3v-0.1c1.2-0.8,2.3-1.8,3-3c0.4,0.5,0.9,1,1.5,1.4v0.5l-3.1,0.8C41.3,27.9,40.9,28.1,40.4,28.3L40.4,28.3z M59.9,37.4
				h-7.1c-1.3-3.2-4.1-5.6-7.5-6.4l-0.9-0.2l2.6-0.6c0.8-0.2,1.4-0.9,1.4-1.7c0,0,0,0,0,0v-0.5c0.7,0.1,1.3,0.1,2,0v0.6
				c0,0.8,0.6,1.5,1.3,1.7l4.5,1.1c2.1,0.5,3.6,2.4,3.6,4.6L59.9,37.4z"/>
		</g>
	</g>
	<g id="Group_548" transform="translate(26.74 32.139)">
		<g id="Group_547">
			<path id="Path_545" d="M19.5,20.3c-0.7-0.7-1.8-0.7-2.5,0c-0.7,0.7-0.7,1.8,0,2.5c0.7,0.7,1.8,0.7,2.5,0c0.3-0.3,0.5-0.8,0.5-1.2
				C20,21.1,19.8,20.7,19.5,20.3z"/>
		</g>
	</g>
	<g id="Group_550" transform="translate(26.739)">
		<g id="Group_549">
			<path id="Path_546" d="M18.2,0c-1,0-1.8,0.8-1.8,1.8c0,0,0,0,0,0v2.6c0,1,0.8,1.8,1.8,1.8c1,0,1.8-0.8,1.8-1.8c0,0,0,0,0,0V1.8
				C20,0.8,19.2,0,18.2,0z"/>
		</g>
	</g>
	<g id="Group_552" transform="translate(20.827 2.088)">
		<g id="Group_551">
			<path id="Path_547" d="M17.7,3.6l-1.8-1.8c-0.7-0.7-1.8-0.7-2.5,0c-0.7,0.7-0.7,1.8,0,2.5c0,0,0,0,0,0l1.8,1.8
				c0.7,0.7,1.8,0.7,2.5,0C18.4,5.5,18.4,4.4,17.7,3.6C17.7,3.7,17.7,3.7,17.7,3.6z"/>
		</g>
	</g>
	<g id="Group_554" transform="translate(31.495 2.116)">
		<g id="Group_553">
			<path id="Path_548" d="M24.3,1.8c-0.7-0.7-1.8-0.7-2.5,0l-1.8,1.8c-0.7,0.7-0.7,1.8,0,2.5c0.7,0.7,1.8,0.7,2.5,0c0,0,0,0,0,0
				l1.8-1.8C24.9,3.6,24.9,2.5,24.3,1.8z"/>
		</g>
	</g>
</g>
</svg>
