<?xml version="1.0" encoding="utf-8"?>
<!-- Generator: Adobe Illustrator 23.0.3, SVG Export Plug-In . SVG Version: 6.00 Build 0)  -->
<svg version="1.1" id="Layer_1" xmlns="http://www.w3.org/2000/svg" xmlns:xlink="http://www.w3.org/1999/xlink" x="0px" y="0px"
	 viewBox="0 0 293 233" style="enable-background:new 0 0 293 233;" xml:space="preserve">
<style type="text/css">
	.st0{fill:#312F32;}
	.st1{fill:none;stroke:#02C588;stroke-width:7;stroke-miterlimit:10;}
	.st2{fill:none;stroke:#312F32;stroke-width:7;stroke-miterlimit:10;}
	.st3{fill:none;stroke:#312F32;stroke-width:6;stroke-miterlimit:10;}
	.st4{fill:#FFFFFF;}
	.st5{fill:#02C588;}
</style>
<circle class="st0" cx="68" cy="117" r="68"/>
<path class="st1" d="M115.34,22.77C132.9,11.22,153.91,4.5,176.5,4.5C238.08,4.5,288,54.42,288,116s-49.92,111.5-111.5,111.5
	c-22.79,0-43.98-6.84-61.63-18.57"/>
<path class="st2" d="M134.16,51.08c12.17-7.95,26.72-12.58,42.34-12.58c42.8,0,77.5,34.7,77.5,77.5s-34.7,77.5-77.5,77.5
	c-15.82,0-30.54-4.74-42.8-12.89"/>
<g>
	<line class="st3" x1="177" y1="48" x2="177" y2="59"/>
	<line class="st3" x1="177" y1="173" x2="177" y2="184"/>
</g>
<g>
	<line class="st3" x1="235" y1="117" x2="246" y2="117"/>
</g>
<g>
	<line class="st3" x1="217.31" y1="76.69" x2="225.08" y2="68.92"/>
</g>
<g>
	<line class="st3" x1="217.31" y1="157.31" x2="225.08" y2="165.08"/>
</g>
<g>
	<path class="st4" d="M83.65,96.07c-0.76-5.85-2.82-10.84-12.79-12.68v25.91c14.85,4.33,23.84,6.94,23.84,22
		c0,18.42-14.95,23.3-23.84,23.3V165h-5.1v-10.4c-13.44-0.76-23.95-6.39-23.95-25.15h9.54c0.65,11.6,3.57,15.5,14.41,17.24v-28.72
		c-11.05-2.6-22.43-6.4-22.43-21.35c0-11.71,9.54-21.14,22.43-21.14v-6.94h5.1v6.94c6.83,0.54,21.35,3.14,22,20.59H83.65z
		 M65.76,83.39c-8.34,0-12.9,5.96-12.9,12.57c0,7.7,6.4,11.16,12.9,12.25V83.39z M70.86,146.68c9.65,0,14.31-6.61,14.31-13.66
		c0-6.07-3.9-10.62-8.45-12.03l-5.85-1.84V146.68z"/>
</g>
<path class="st5" d="M195.14,76.9L177,117l-18.14-40.1c5.53-2.51,11.67-3.9,18.14-3.9S189.61,74.39,195.14,76.9z"/>
<polyline class="st3" points="204,117 177,117 196,75 "/>
</svg>
