<?xml version="1.0" encoding="utf-8"?>
<!-- Generator: Adobe Illustrator 23.0.3, SVG Export Plug-In . SVG Version: 6.00 Build 0)  -->
<svg version="1.1" id="Layer_1" xmlns="http://www.w3.org/2000/svg" xmlns:xlink="http://www.w3.org/1999/xlink" x="0px" y="0px"
	 viewBox="0 0 644 606" style="enable-background:new 0 0 644 606;" xml:space="preserve">
<style type="text/css">
	.st0{fill:#0FC48B;}
	.st1{fill:#04724D;}
	.st2{fill:#E6E6E6;}
	.st3{fill:#787878;}
	.st4{fill:#B3B3B3;}
	.st5{fill:#BFBFBF;}
	.st6{clip-path:url(#SVGID_2_);}
	.st7{fill:#FFFFFF;}
	.st8{fill:#616161;}
	.st9{fill-rule:evenodd;clip-rule:evenodd;fill:#FFFFFF;}
	.st10{clip-path:url(#SVGID_4_);}
	.st11{clip-path:url(#SVGID_6_);}
	.st12{fill:#F2F2F2;}
	.st13{fill:#6E6E6E;}
	.st14{clip-path:url(#SVGID_8_);}
	.st15{clip-path:url(#SVGID_10_);}
	.st16{clip-path:url(#SVGID_12_);}
	.st17{fill:url(#Path_359_1_);}
	.st18{fill:url(#Path_360_1_);}
	.st19{fill:url(#Path_361_1_);}
	.st20{clip-path:url(#SVGID_14_);}
	.st21{clip-path:url(#SVGID_16_);}
	.st22{clip-path:url(#SVGID_18_);}
	.st23{fill:#A6A6A6;}
	.st24{fill:#191919;}
	.st25{fill:#B8B8B8;}
	.st26{fill:#333333;}
	.st27{fill:#828282;}
	.st28{clip-path:url(#SVGID_20_);}
</style>
<g id="Group_246" transform="translate(-1087 -245)">
	<ellipse id="_1794g" class="st0" cx="1409.25" cy="547.25" rx="295.25" ry="295.25"/>
	<g id="Group_242" transform="translate(-173.337 131.437)">
		<path id="Path_236" class="st1" d="M1614.81,637.16c33.79,19.48,89.09,19.48,122.88,0s33.79-51.35,0-70.82s-89.09-19.47-122.88,0
			C1581.01,585.81,1581.01,617.68,1614.81,637.16z"/>
		<path id="Path_237" class="st1" d="M1748.89,500.57c33.79,19.48,89.09,19.48,122.88,0s33.79-51.35,0-70.82s-89.09-19.48-122.88,0
			S1715.09,481.09,1748.89,500.57z"/>
		<path id="Path_238" class="st1" d="M1420.69,502.51c27.7,15.97,73.03,15.97,100.73,0c27.7-15.97,27.7-42.09,0-58.06
			s-73.03-15.96-100.73,0S1393,486.54,1420.69,502.51z"/>
		<path id="Path_239" class="st1" d="M1405.76,412.88c9.44,5.44,24.89,5.44,34.32,0s9.44-14.34,0-19.78s-24.89-5.44-34.32,0
			S1396.32,407.44,1405.76,412.88z"/>
		<path id="Path_240" class="st1" d="M1316.13,515.07c9.44,5.44,24.89,5.44,34.32,0c9.44-5.44,9.44-14.34,0-19.78
			s-24.89-5.44-34.32,0S1306.68,509.63,1316.13,515.07z"/>
		<path id="Path_241" class="st1" d="M1792.72,563.06c9.44,5.44,24.89,5.44,34.32,0c9.44-5.44,9.44-14.34,0-19.78
			s-24.89-5.44-34.32,0S1783.28,557.62,1792.72,563.06z"/>
		<path id="Path_242" class="st1" d="M1461.65,669.09c21.84,12.59,57.58,12.59,79.43,0s21.84-33.19,0-45.78s-57.58-12.59-79.43,0
			S1439.8,656.5,1461.65,669.09z"/>
		<g id="Group_225" transform="translate(1460.973 124.563)">
			<g id="Group_193">
				<g id="Group_157" transform="translate(182.369)">
					<path id="Path_243" class="st2" d="M38.39,63.18C38.85,38.45,59.08,3.59,87.07,7.27l145.75,81.99l-49.18,53.92
						C183.63,143.17,38.31,67.43,38.39,63.18z"/>
					<g id="Group_156" transform="translate(0 56.178)">
						<path id="Path_244" class="st3" d="M8.08,227.01L8,232.1c0.19,1.6,0.46,3.18,0.81,4.75c0.67,1.72,1.8,3.23,3.28,4.35
							l142.05,82.35c-2.21-1.43-3.73-3.71-4.2-6.3c-0.58-2.53,0.07-8.41,0.07-8.41L8.08,227.01z"/>
						<path id="Path_245" class="st2" d="M180.18,84.69L38.39,7l-0.16,208.85c-0.91,9.19-7.33,20.07-15.08,24.53
							c-2.12,1.33-4.57,2.03-7.07,2.04l133.55,71.17c0,9.65,6.85,13.6,15.22,8.77s15.22-16.67,15.22-26.32
							c0-1.07-0.09-2.13-0.29-3.18L180.18,84.69z"/>
						<g id="Group_135" transform="translate(45.011 10.955)">
							<g id="Group_133">
								<g id="Group_126" transform="translate(40.742 12.198)">
									<path id="Path_246" class="st4" d="M8,16.2v1.54l68.68,39.62v-1.54L8,16.2z"/>
									<path id="Path_247" class="st4" d="M8,21.18v1.54l68.68,39.62v-1.54L8,21.18z"/>
									<path id="Path_248" class="st4" d="M8,26.16v1.54l68.68,39.62v-1.54L8,26.16z"/>
									<path id="Path_249" class="st4" d="M8,31.14v1.54L76.68,72.3v-1.54L8,31.14z"/>
									<path id="Path_250" class="st4" d="M8,36.12v1.54l68.68,39.62v-1.54L8,36.12z"/>
									<path id="Path_251" class="st4" d="M8,41.1v1.54l68.68,39.62v-1.54L8,41.1z"/>
									<path id="Path_252" class="st4" d="M8,46.08v1.54l22.21,12.84v-1.54L8,46.08z"/>
									<path id="Path_253" class="st4" d="M8,7v4.18l25.97,15.01v-4.18L8,7z"/>
								</g>
								<g id="Group_132">
									<path id="Path_254" class="st5" d="M8,19.21C8,8.33,15.72,3.88,25.15,9.32s17.16,18.79,17.16,29.66s-7.72,15.32-17.16,9.89
										S8,30.08,8,19.21z"/>
									<g id="Group_131">
										<path id="SVGID-11" class="st4" d="M8,19.21C8,8.33,15.72,3.88,25.15,9.32s17.16,18.79,17.16,29.66
											s-7.72,15.32-17.16,9.89S8,30.08,8,19.21z"/>
										<g>
											<defs>
												<path id="SVGID_1_" d="M8,19.21C8,8.33,15.72,3.88,25.15,9.32s17.16,18.79,17.16,29.66s-7.72,15.32-17.16,9.89
													S8,30.08,8,19.21z"/>
											</defs>
											<clipPath id="SVGID_2_">
												<use xlink:href="#SVGID_1_"  style="overflow:visible;"/>
											</clipPath>
											<g id="Group_130" class="st6">
												<g id="Group_129" transform="translate(3.62 9.277)">
													<path id="Path_255" class="st7" d="M21.92,26.55c4.41,2.54,8.01,0.46,8.01-4.62s-3.6-11.31-8.01-13.85
														s-8.01-0.46-8.01,4.62S17.52,24.01,21.92,26.55z"/>
													<g id="Group_127" transform="translate(5.912 0.002)">
														<path id="Path_256" class="st8" d="M19.51,14.65c-1.29,2.13-5.72,1.66-8.64-0.02c-1.06-0.63-2.02-1.4-2.87-2.28
															c0.17-4.82,3.69-6.75,7.99-4.27c3.81,2.2,7.02,7.16,7.82,11.75c-0.25-0.12-0.49-0.25-0.76-0.39
															C21.19,18.49,19.88,16.72,19.51,14.65z"/>
													</g>
													<path id="Path_257" class="st9" d="M25.22,24.83v7.35l-5.61-3.31v-7.35L25.22,24.83z"/>
													<g id="Group_128" transform="translate(0 19.702)">
														<path id="Path_258" class="st8" d="M9.02,12.39c0.25-0.8,0.59-1.57,1.02-2.3c0.51-0.89,1.22-1.65,2.06-2.22
															c1.34-0.72,2.86-1.01,4.38-0.85c0.18,0.01,1.68,0.23,1.68,0.23c0.09,0.02,0.19,0.04,0.28,0.07
															c0.34,0.09,0.67,0.21,0.98,0.35l5.16,2.81c5.95,3.24,9.72,9.4,9.88,16.17l0.14,5.61L8,17.72
															C8.17,15.91,8.52,14.13,9.02,12.39z"/>
													</g>
												</g>
											</g>
										</g>
									</g>
								</g>
							</g>
							<g id="Group_134" transform="translate(40.853 59.46)">
								<path id="Path_259" class="st0" d="M12.33,7l1.33,4l2.98,2.55l-2.16,0.9l0.51,3.73l-2.67-3.44L9.64,14.5l0.51-3.03L8,7.59
									l2.99,1.57L12.33,7z"/>
								<path id="Path_260" class="st0" d="M23.42,13.39l1.33,4l2.98,2.55l-2.16,0.9l0.51,3.73l-2.67-3.44l-2.67-0.25l0.51-3.03
									l-2.16-3.88l2.99,1.57L23.42,13.39z"/>
								<path id="Path_261" class="st0" d="M34.51,19.79l1.33,4l2.98,2.55l-2.16,0.9l0.51,3.73l-2.67-3.44l-2.67-0.25l0.51-3.03
									l-2.16-3.88l2.99,1.57L34.51,19.79z"/>
								<path id="Path_262" class="st0" d="M45.6,26.18l1.33,4l2.98,2.55l-2.16,0.9l0.51,3.73l-2.67-3.44l-2.67-0.25l0.52-3.03
									l-2.16-3.88l2.99,1.57L45.6,26.18z"/>
								<path id="Path_263" class="st0" d="M56.7,32.57l1.33,4l2.98,2.55l-2.16,0.9l0.51,3.73l-2.67-3.44l-2.67-0.25l0.51-3.03
									l-2.16-3.88l2.99,1.57L56.7,32.57z"/>
							</g>
						</g>
						<g id="Group_145" transform="translate(45.011 88.597)">
							<g id="Group_143">
								<g id="Group_136" transform="translate(40.742 12.198)">
									<path id="Path_264" class="st4" d="M8,16.2v1.54l68.68,39.62v-1.54L8,16.2z"/>
									<path id="Path_265" class="st4" d="M8,21.18v1.54l68.68,39.62V60.8L8,21.18z"/>
									<path id="Path_266" class="st4" d="M8,26.16v1.55l68.68,39.62v-1.54L8,26.16z"/>
									<path id="Path_267" class="st4" d="M8,31.14v1.55L76.68,72.3v-1.54L8,31.14z"/>
									<path id="Path_268" class="st4" d="M8,36.12v1.55l68.68,39.62v-1.54L8,36.12z"/>
									<path id="Path_269" class="st4" d="M8,41.1v1.55l68.68,39.62v-1.54L8,41.1z"/>
									<path id="Path_270" class="st4" d="M8,46.08v1.55l22.21,12.84v-1.54L8,46.08z"/>
									<path id="Path_271" class="st4" d="M8,7v4.18l25.97,15.01v-4.18L8,7z"/>
								</g>
								<g id="Group_142">
									<path id="Path_272" class="st5" d="M8,19.21C8,8.33,15.72,3.88,25.15,9.32s17.16,18.79,17.16,29.66s-7.72,15.33-17.16,9.89
										S8,30.08,8,19.21z"/>
									<g id="Group_141">
										<g>
											<defs>
												<path id="SVGID_3_" d="M8,19.21C8,8.33,15.72,3.88,25.15,9.32s17.16,18.79,17.16,29.66s-7.72,15.33-17.16,9.89
													S8,30.08,8,19.21z"/>
											</defs>
											<clipPath id="SVGID_4_">
												<use xlink:href="#SVGID_3_"  style="overflow:visible;"/>
											</clipPath>
											<g id="Group_140" class="st10">
												<g id="Group_139" transform="translate(3.62 9.276)">
													<path id="Path_273" class="st7" d="M21.92,26.55c4.41,2.54,8.01,0.46,8.01-4.62s-3.6-11.31-8.01-13.85
														s-8.01-0.46-8.01,4.62S17.52,24.01,21.92,26.55z"/>
													<g id="Group_137" transform="translate(5.912 0.002)">
														<path id="Path_274" class="st8" d="M19.51,14.65c-1.29,2.13-5.72,1.66-8.64-0.02c-1.06-0.63-2.02-1.4-2.87-2.28
															c0.17-4.82,3.69-6.75,7.99-4.27c3.81,2.2,7.02,7.16,7.82,11.75c-0.25-0.12-0.49-0.25-0.76-0.39
															C21.19,18.49,19.88,16.72,19.51,14.65z"/>
													</g>
													<path id="Path_275" class="st9" d="M25.22,24.83v7.35l-5.61-3.31v-7.35L25.22,24.83z"/>
													<g id="Group_138" transform="translate(0 19.702)">
														<path id="Path_276" class="st8" d="M9.02,12.39c0.25-0.8,0.59-1.57,1.02-2.3c0.51-0.89,1.22-1.65,2.06-2.22
															c1.34-0.72,2.86-1.01,4.38-0.86c0.18,0.01,1.68,0.23,1.68,0.23c0.09,0.02,0.19,0.04,0.28,0.07
															c0.34,0.09,0.67,0.21,0.98,0.35l5.16,2.81c5.95,3.24,9.72,9.4,9.88,16.17l0.14,5.61L8,17.72
															C8.17,15.91,8.52,14.13,9.02,12.39z"/>
													</g>
												</g>
											</g>
										</g>
									</g>
								</g>
							</g>
							<g id="Group_144" transform="translate(40.853 61.569)">
								<path id="Path_277" class="st0" d="M12.33,7l1.33,4l2.98,2.55l-2.16,0.9l0.51,3.73l-2.67-3.44L9.64,14.5l0.51-3.03L8,7.59
									l2.99,1.57L12.33,7z"/>
								<path id="Path_278" class="st0" d="M23.42,13.39l1.33,4l2.98,2.55l-2.16,0.9l0.51,3.73l-2.67-3.44l-2.67-0.25l0.51-3.03
									l-2.16-3.88l2.99,1.57L23.42,13.39z"/>
								<path id="Path_279" class="st5" d="M34.51,19.78l1.33,4l2.98,2.55l-2.16,0.9l0.51,3.73l-2.67-3.44l-2.67-0.25l0.51-3.03
									l-2.16-3.88l2.99,1.57L34.51,19.78z"/>
								<path id="Path_280" class="st5" d="M45.6,26.18l1.33,4l2.98,2.55l-2.16,0.9l0.51,3.73l-2.67-3.44l-2.67-0.25l0.52-3.03
									l-2.16-3.88l2.99,1.57L45.6,26.18z"/>
								<path id="Path_281" class="st5" d="M56.7,32.57l1.33,4l2.98,2.55l-2.16,0.9l0.51,3.73l-2.67-3.44l-2.67-0.25l0.51-3.03
									l-2.16-3.88l2.99,1.57L56.7,32.57z"/>
							</g>
						</g>
						<g id="Group_155" transform="translate(45.011 162.484)">
							<g id="Group_153">
								<g id="Group_146" transform="translate(40.742 12.198)">
									<path id="Path_282" class="st4" d="M8,16.2v1.55l68.68,39.62v-1.54L8,16.2z"/>
									<path id="Path_283" class="st4" d="M8,21.17v1.55l68.68,39.62v-1.54L8,21.17z"/>
									<path id="Path_284" class="st4" d="M8,26.16v1.55l68.68,39.62v-1.54L8,26.16z"/>
									<path id="Path_285" class="st4" d="M8,31.14v1.55L76.68,72.3v-1.54L8,31.14z"/>
									<path id="Path_286" class="st4" d="M8,36.12v1.55l68.68,39.61v-1.54L8,36.12z"/>
									<path id="Path_287" class="st4" d="M8,41.1v1.55l68.68,39.62v-1.54L8,41.1z"/>
									<path id="Path_288" class="st4" d="M8,46.08v1.55l22.21,12.84v-1.54L8,46.08z"/>
									<path id="Path_289" class="st4" d="M8,7v4.18l25.97,15.01v-4.18L8,7z"/>
								</g>
								<g id="Group_152">
									<path id="Path_290" class="st5" d="M8,19.21C8,8.34,15.72,3.89,25.15,9.33s17.16,18.79,17.16,29.66s-7.72,15.33-17.16,9.89
										S8,30.08,8,19.21z"/>
									<g id="Group_151">
										<g>
											<defs>
												<path id="SVGID_5_" d="M8,19.21C8,8.34,15.72,3.89,25.15,9.33s17.16,18.79,17.16,29.66s-7.72,15.33-17.16,9.89
													S8,30.08,8,19.21z"/>
											</defs>
											<clipPath id="SVGID_6_">
												<use xlink:href="#SVGID_5_"  style="overflow:visible;"/>
											</clipPath>
											<g id="Group_150" class="st11">
												<g id="Group_149" transform="translate(3.62 9.276)">
													<path id="Path_291" class="st7" d="M21.92,26.55c4.41,2.54,8.01,0.46,8.01-4.62s-3.6-11.31-8.01-13.85
														s-8.01-0.46-8.01,4.62S17.52,24.01,21.92,26.55z"/>
													<g id="Group_147" transform="translate(5.912 0.002)">
														<path id="Path_292" class="st8" d="M19.51,14.65c-1.29,2.13-5.72,1.66-8.64-0.02c-1.06-0.63-2.02-1.4-2.87-2.28
															c0.17-4.82,3.69-6.75,7.99-4.27c3.81,2.2,7.02,7.17,7.82,11.76c-0.25-0.12-0.49-0.25-0.76-0.39
															C21.19,18.49,19.88,16.72,19.51,14.65z"/>
													</g>
													<path id="Path_293" class="st9" d="M25.22,24.83v7.34l-5.61-3.31v-7.35L25.22,24.83z"/>
													<g id="Group_148" transform="translate(0 19.702)">
														<path id="Path_294" class="st8" d="M9.02,12.39c0.25-0.8,0.59-1.57,1.02-2.3c0.51-0.89,1.22-1.65,2.06-2.22
															c1.34-0.71,2.86-1.01,4.38-0.86c0.18,0.01,1.68,0.23,1.68,0.23c0.09,0.02,0.19,0.04,0.28,0.07
															c0.34,0.09,0.67,0.21,0.98,0.35l5.16,2.81c5.95,3.24,9.72,9.4,9.88,16.17l0.14,5.61L8,17.72
															C8.17,15.92,8.52,14.13,9.02,12.39z"/>
													</g>
												</g>
											</g>
										</g>
									</g>
								</g>
							</g>
							<g id="Group_154" transform="translate(40.853 60.895)">
								<path id="Path_295" class="st0" d="M12.33,7l1.33,4l2.98,2.55l-2.16,0.9l0.51,3.73l-2.67-3.44L9.64,14.5l0.51-3.03L8,7.59
									l2.99,1.57L12.33,7z"/>
								<path id="Path_296" class="st0" d="M23.42,13.39l1.33,4l2.98,2.55l-2.16,0.9l0.51,3.73l-2.67-3.44l-2.67-0.25l0.51-3.03
									l-2.16-3.88l2.99,1.57L23.42,13.39z"/>
								<path id="Path_297" class="st0" d="M34.51,19.79l1.33,4l2.98,2.55l-2.16,0.9l0.51,3.73l-2.67-3.44l-2.67-0.25l0.51-3.03
									l-2.16-3.88l2.99,1.57L34.51,19.79z"/>
								<path id="Path_298" class="st5" d="M45.6,26.18l1.33,4l2.98,2.55l-2.16,0.9l0.51,3.73l-2.67-3.44l-2.67-0.25l0.52-3.03
									l-2.16-3.88l2.99,1.57L45.6,26.18z"/>
								<path id="Path_299" class="st5" d="M56.7,32.57l1.33,4l2.98,2.55l-2.16,0.9l0.51,3.73l-2.67-3.44l-2.67-0.25l0.51-3.03
									l-2.16-3.88l2.99,1.57L56.7,32.57z"/>
							</g>
						</g>
					</g>
				</g>
				<g id="Group_189" transform="translate(99.294 63.576)">
					<path id="Path_300" class="st12" d="M30.32,63.18C30.77,38.45,51,3.59,79,7.27l145.75,81.99l-49.18,53.92
						C175.56,143.17,30.24,67.43,30.32,63.18z"/>
					<g id="Group_188" transform="translate(0 56.178)">
						<path id="Path_301" class="st12" d="M172.11,84.69L30.32,7l-0.16,208.85c-0.91,9.19-7.33,20.07-15.08,24.53
							c-2.12,1.33-4.57,2.03-7.07,2.04l133.55,71.17c0,9.65,6.85,13.6,15.22,8.77s15.22-16.67,15.22-26.32
							c0-1.07-0.09-2.13-0.29-3.18L172.11,84.69z"/>
						<g id="Group_167" transform="translate(36.499 16.636)">
							<g id="Group_165">
								<g id="Group_158" transform="translate(40.742 12.198)">
									<path id="Path_302" class="st5" d="M8,16.2v1.54l68.68,39.62v-1.54L8,16.2z"/>
									<path id="Path_303" class="st5" d="M8,21.18v1.54l68.68,39.62v-1.54L8,21.18z"/>
									<path id="Path_304" class="st5" d="M8,26.16v1.55l68.68,39.62v-1.55L8,26.16z"/>
									<path id="Path_305" class="st5" d="M8,31.14v1.54L76.68,72.3v-1.54L8,31.14z"/>
									<path id="Path_306" class="st5" d="M8,36.12v1.55l68.68,39.62v-1.54L8,36.12z"/>
									<path id="Path_307" class="st5" d="M8,41.1v1.55l68.68,39.62v-1.54L8,41.1z"/>
									<path id="Path_308" class="st5" d="M8,46.08v1.55l22.21,12.84v-1.54L8,46.08z"/>
									<path id="Path_309" class="st13" d="M8,7v4.18l25.97,15.01v-4.18L8,7z"/>
								</g>
								<g id="Group_164">
									<path id="Path_310" class="st5" d="M8,19.21C8,8.33,15.72,3.88,25.15,9.32s17.16,18.79,17.16,29.66
										c0,10.88-7.72,15.32-17.16,9.89S8,30.08,8,19.21z"/>
									<g id="Group_163">
										<g>
											<defs>
												<path id="SVGID_7_" d="M8,19.21C8,8.33,15.72,3.88,25.15,9.32s17.16,18.79,17.16,29.66c0,10.88-7.72,15.32-17.16,9.89
													S8,30.08,8,19.21z"/>
											</defs>
											<clipPath id="SVGID_8_">
												<use xlink:href="#SVGID_7_"  style="overflow:visible;"/>
											</clipPath>
											<g id="Group_162" class="st14">
												<g id="Group_161" transform="translate(3.62 9.277)">
													<path id="Path_311" class="st7" d="M21.92,26.55c4.41,2.54,8.01,0.46,8.01-4.62s-3.6-11.31-8.01-13.85
														s-8.01-0.46-8.01,4.62S17.52,24.01,21.92,26.55z"/>
													<g id="Group_159" transform="translate(5.912 0.002)">
														<path id="Path_312" class="st8" d="M19.51,14.65c-1.29,2.13-5.72,1.66-8.64-0.02C9.81,14.01,8.85,13.24,8,12.35
															c0.17-4.82,3.69-6.75,7.99-4.27c3.81,2.2,7.02,7.16,7.82,11.75c-0.25-0.12-0.49-0.25-0.76-0.39
															C21.19,18.49,19.88,16.72,19.51,14.65z"/>
													</g>
													<path id="Path_313" class="st9" d="M25.23,24.83v7.35l-5.61-3.31v-7.35L25.23,24.83z"/>
													<g id="Group_160" transform="translate(0 19.702)">
														<path id="Path_314" class="st8" d="M9.02,12.39c0.25-0.8,0.59-1.57,1.02-2.3c0.51-0.89,1.22-1.65,2.06-2.22
															c1.34-0.72,2.87-1.01,4.38-0.85c0.18,0.01,1.68,0.23,1.68,0.23c0.09,0.02,0.19,0.04,0.28,0.07
															c0.34,0.09,0.67,0.21,0.98,0.35l5.17,2.81c5.95,3.24,9.72,9.4,9.88,16.17l0.14,5.61L8,17.72
															C8.18,15.92,8.52,14.13,9.02,12.39z"/>
													</g>
												</g>
											</g>
										</g>
									</g>
								</g>
							</g>
							<g id="Group_166" transform="translate(40.853 59.461)">
								<path id="Path_315" class="st0" d="M12.33,7l1.33,4l2.98,2.55l-2.16,0.9l0.51,3.73l-2.67-3.44L9.64,14.5l0.51-3.03L8,7.59
									l2.99,1.57L12.33,7z"/>
								<path id="Path_316" class="st0" d="M23.42,13.39l1.33,4l2.98,2.55l-2.16,0.9l0.51,3.73l-2.67-3.44l-2.67-0.25l0.51-3.03
									l-2.16-3.88l2.99,1.57L23.42,13.39z"/>
								<path id="Path_317" class="st0" d="M34.51,19.79l1.33,4l2.98,2.55l-2.16,0.9l0.51,3.73l-2.67-3.44l-2.67-0.25l0.52-3.03
									l-2.16-3.88l2.99,1.57L34.51,19.79z"/>
								<path id="Path_318" class="st0" d="M45.6,26.18l1.33,4l2.98,2.55l-2.16,0.9l0.51,3.73l-2.67-3.44l-2.67-0.25l0.51-3.03
									l-2.16-3.88l2.99,1.57L45.6,26.18z"/>
								<path id="Path_319" class="st0" d="M56.7,32.57l1.33,4l2.98,2.55l-2.16,0.9l0.51,3.73l-2.67-3.44l-2.67-0.25l0.51-3.03
									l-2.16-3.88l2.99,1.57L56.7,32.57z"/>
							</g>
						</g>
						<g id="Group_177" transform="translate(36.499 94.279)">
							<g id="Group_175">
								<g id="Group_168" transform="translate(40.742 12.198)">
									<path id="Path_320" class="st5" d="M8,16.2v1.55l68.68,39.62v-1.54L8,16.2z"/>
									<path id="Path_321" class="st5" d="M8,21.18v1.55l68.68,39.62v-1.54L8,21.18z"/>
									<path id="Path_322" class="st5" d="M8,26.16v1.55l68.68,39.62v-1.54L8,26.16z"/>
									<path id="Path_323" class="st5" d="M8,31.14v1.55L76.68,72.3v-1.54L8,31.14z"/>
									<path id="Path_324" class="st5" d="M8,36.12v1.55l68.68,39.62v-1.54L8,36.12z"/>
									<path id="Path_325" class="st5" d="M8,41.1v1.55l68.68,39.62v-1.54L8,41.1z"/>
									<path id="Path_326" class="st5" d="M8,46.08v1.55l22.21,12.84v-1.54L8,46.08z"/>
									<path id="Path_327" class="st13" d="M8,7v4.18l25.97,15.01v-4.18L8,7z"/>
								</g>
								<g id="Group_174">
									<path id="Path_328" class="st5" d="M8,19.21C8,8.33,15.72,3.88,25.15,9.32s17.16,18.79,17.16,29.66s-7.72,15.33-17.16,9.89
										S8,30.08,8,19.21z"/>
									<g id="Group_173">
										<g>
											<defs>
												<path id="SVGID_9_" d="M8,19.21C8,8.33,15.72,3.88,25.15,9.32s17.16,18.79,17.16,29.66s-7.72,15.33-17.16,9.89
													S8,30.08,8,19.21z"/>
											</defs>
											<clipPath id="SVGID_10_">
												<use xlink:href="#SVGID_9_"  style="overflow:visible;"/>
											</clipPath>
											<g id="Group_172" class="st15">
												<g id="Group_171" transform="translate(3.62 9.276)">
													<path id="Path_329" class="st7" d="M21.92,26.55c4.41,2.54,8.01,0.46,8.01-4.62s-3.6-11.31-8.01-13.85
														s-8.01-0.46-8.01,4.62S17.52,24.01,21.92,26.55z"/>
													<g id="Group_169" transform="translate(5.912 0.002)">
														<path id="Path_330" class="st8" d="M19.51,14.65c-1.29,2.13-5.72,1.66-8.64-0.02C9.82,14.01,8.85,13.24,8,12.35
															c0.17-4.82,3.69-6.75,7.99-4.27c3.81,2.2,7.02,7.17,7.82,11.75c-0.25-0.12-0.49-0.25-0.76-0.39
															C21.19,18.49,19.88,16.72,19.51,14.65z"/>
													</g>
													<path id="Path_331" class="st9" d="M25.23,24.83v7.35l-5.61-3.31v-7.35L25.23,24.83z"/>
													<g id="Group_170" transform="translate(0 19.702)">
														<path id="Path_332" class="st8" d="M9.02,12.39c0.25-0.8,0.59-1.57,1.02-2.3c0.51-0.89,1.22-1.65,2.06-2.22
															c1.34-0.72,2.87-1.01,4.38-0.86c0.18,0.01,1.68,0.23,1.68,0.23c0.09,0.02,0.19,0.04,0.28,0.07
															c0.34,0.09,0.67,0.21,0.98,0.35l5.17,2.81c5.95,3.24,9.72,9.4,9.88,16.17l0.14,5.61L8,17.72
															C8.18,15.92,8.52,14.13,9.02,12.39z"/>
													</g>
												</g>
											</g>
										</g>
									</g>
								</g>
							</g>
							<g id="Group_176" transform="translate(40.853 61.569)">
								<path id="Path_333" class="st0" d="M12.33,7l1.33,4l2.98,2.55l-2.16,0.9l0.51,3.73l-2.67-3.44L9.64,14.5l0.51-3.03L8,7.59
									l2.99,1.57L12.33,7z"/>
								<path id="Path_334" class="st0" d="M23.42,13.39l1.33,4l2.98,2.55l-2.16,0.9l0.51,3.73l-2.67-3.44l-2.67-0.25l0.51-3.03
									l-2.16-3.88l2.99,1.57L23.42,13.39z"/>
								<path id="Path_335" class="st5" d="M34.51,19.79l1.33,4l2.98,2.55l-2.16,0.9l0.51,3.73l-2.67-3.44l-2.67-0.25l0.52-3.03
									l-2.16-3.88l2.99,1.57L34.51,19.79z"/>
								<path id="Path_336" class="st5" d="M45.6,26.18l1.33,4l2.98,2.55l-2.16,0.9l0.51,3.73l-2.67-3.44l-2.67-0.25l0.51-3.03
									l-2.16-3.88l2.99,1.57L45.6,26.18z"/>
								<path id="Path_337" class="st5" d="M56.7,32.57l1.33,4l2.98,2.55l-2.16,0.9l0.51,3.73l-2.67-3.44l-2.67-0.25l0.51-3.03
									l-2.16-3.88l2.99,1.57L56.7,32.57z"/>
							</g>
						</g>
						<g id="Group_187" transform="translate(36.499 168.166)">
							<g id="Group_185">
								<g id="Group_178" transform="translate(40.742 12.198)">
									<path id="Path_338" class="st5" d="M8,16.2v1.55l68.68,39.62v-1.54L8,16.2z"/>
									<path id="Path_339" class="st5" d="M8,21.18v1.54l68.68,39.62v-1.54L8,21.18z"/>
									<path id="Path_340" class="st5" d="M8,26.16v1.55l68.68,39.62v-1.54L8,26.16z"/>
									<path id="Path_341" class="st5" d="M8,31.14v1.55L76.68,72.3v-1.54L8,31.14z"/>
									<path id="Path_342" class="st5" d="M8,36.13v1.55l68.68,39.62v-1.54L8,36.13z"/>
									<path id="Path_343" class="st5" d="M8,41.1v1.55l68.68,39.62v-1.54L8,41.1z"/>
									<path id="Path_344" class="st5" d="M8,46.08v1.55l22.21,12.84v-1.54L8,46.08z"/>
									<path id="Path_345" class="st13" d="M8,7v4.18l25.97,15.01v-4.18L8,7z"/>
								</g>
								<g id="Group_184">
									<path id="Path_346" class="st5" d="M8,19.21C8,8.33,15.72,3.88,25.15,9.32s17.16,18.79,17.16,29.66s-7.72,15.33-17.16,9.89
										S8,30.08,8,19.21z"/>
									<g id="Group_183">
										<g>
											<defs>
												<path id="SVGID_11_" d="M8,19.21C8,8.33,15.72,3.88,25.15,9.32s17.16,18.79,17.16,29.66s-7.72,15.33-17.16,9.89
													S8,30.08,8,19.21z"/>
											</defs>
											<clipPath id="SVGID_12_">
												<use xlink:href="#SVGID_11_"  style="overflow:visible;"/>
											</clipPath>
											<g id="Group_182" class="st16">
												<g id="Group_181" transform="translate(3.62 9.276)">
													<path id="Path_347" class="st7" d="M21.92,26.55c4.41,2.54,8.01,0.46,8.01-4.62s-3.6-11.31-8.01-13.85
														s-8.01-0.46-8.01,4.62S17.52,24.01,21.92,26.55z"/>
													<g id="Group_179" transform="translate(5.912 0.002)">
														<path id="Path_348" class="st8" d="M19.51,14.65c-1.29,2.13-5.72,1.66-8.64-0.02c-1.06-0.63-2.02-1.4-2.87-2.28
															c0.17-4.82,3.69-6.75,7.99-4.27c3.81,2.2,7.02,7.17,7.82,11.76c-0.25-0.12-0.49-0.25-0.76-0.39
															C21.19,18.49,19.88,16.72,19.51,14.65z"/>
													</g>
													<path id="Path_349" class="st9" d="M25.23,24.83v7.35l-5.61-3.31v-7.35L25.23,24.83z"/>
													<g id="Group_180" transform="translate(0 19.702)">
														<path id="Path_350" class="st8" d="M9.02,12.39c0.25-0.8,0.59-1.57,1.02-2.3c0.51-0.89,1.22-1.65,2.06-2.22
															c1.34-0.71,2.87-1.01,4.38-0.86c0.18,0.01,1.68,0.23,1.68,0.23c0.09,0.02,0.19,0.04,0.28,0.07
															c0.34,0.09,0.67,0.21,0.98,0.35l5.17,2.81c5.95,3.24,9.72,9.4,9.88,16.17l0.14,5.61L8,17.72
															C8.18,15.92,8.52,14.13,9.02,12.39z"/>
													</g>
												</g>
											</g>
										</g>
									</g>
								</g>
							</g>
							<g id="Group_186" transform="translate(40.853 60.895)">
								<path id="Path_351" class="st0" d="M12.33,7l1.33,4l2.98,2.55l-2.16,0.9l0.51,3.73l-2.67-3.43L9.64,14.5l0.51-3.03L8,7.59
									l2.99,1.57L12.33,7z"/>
								<path id="Path_352" class="st0" d="M23.42,13.39l1.33,4l2.98,2.55l-2.16,0.9l0.51,3.73l-2.67-3.44l-2.67-0.25l0.51-3.03
									l-2.16-3.88l2.99,1.57L23.42,13.39z"/>
								<path id="Path_353" class="st0" d="M34.51,19.78l1.33,4l2.98,2.55l-2.16,0.9l0.51,3.73l-2.67-3.44l-2.67-0.25l0.52-3.03
									l-2.16-3.88l2.99,1.57L34.51,19.78z"/>
								<path id="Path_354" class="st5" d="M45.6,26.17l1.33,4l2.98,2.55l-2.16,0.9l0.51,3.73l-2.67-3.44l-2.67-0.25l0.51-3.03
									l-2.16-3.88l2.99,1.57L45.6,26.17z"/>
								<path id="Path_355" class="st5" d="M56.7,32.57l1.33,4l2.98,2.55l-2.16,0.9l0.51,3.73l-2.67-3.44l-2.67-0.25l0.51-3.03
									l-2.16-3.88l2.99,1.57L56.7,32.57z"/>
							</g>
						</g>
					</g>
				</g>
				<g id="Group_191" transform="translate(8.074 115.606)">
					<path id="Path_356" class="st7" d="M30.32,63.18C30.77,38.45,51,3.59,79,7.27l145.75,81.99l-49.18,53.92
						C175.56,143.17,30.24,67.43,30.32,63.18z"/>
					<g id="Group_190" transform="translate(0 56.178)">
						<path id="Path_357" class="st7" d="M156.77,287.28c-0.13,0.07-0.25,0.16-0.37,0.24L30.15,215.85
							c-0.91,9.19-7.33,20.07-15.08,24.53c-2.12,1.33-4.57,2.03-7.07,2.04l133.55,71.17c0,9.65,6.85,13.6,15.22,8.77
							s15.22-16.67,15.22-26.32S165.14,282.46,156.77,287.28z"/>
						<path id="Path_358" class="st7" d="M30.32,7l-0.16,208.85l141.54,81.42l0.38-212.37L30.32,7z"/>
					</g>
				</g>
				<g id="Group_192" transform="translate(0 79.877)">
					
						<linearGradient id="Path_359_1_" gradientUnits="userSpaceOnUse" x1="-208.1487" y1="991.1722" x2="-208.1487" y2="992.1722" gradientTransform="matrix(61.8015 0 0 -111.2626 13257.2568 110398.6641)">
						<stop  offset="0.203" style="stop-color:#0FC48B"/>
						<stop  offset="0.654" style="stop-color:#037230"/>
					</linearGradient>
					<path id="Path_359" class="st17" d="M412.47,7.85c-2.09-0.73-4.32-0.99-6.53-0.77c-3.68,0.6-7.26,1.76-10.6,3.42
						c-18.96,9.29-30.93,33.21-32.57,47.14c-0.1,0.84-0.17,2.02-0.22,3.35c-0.01,0.16-0.01,0.32-0.02,0.49
						c-0.16,5.01-0.04,11.83-0.04,11.83l0.04-0.02l-0.02,10l61.1,34.97l0.13-78.66l0.02-0.01C426.29,16.94,418.54,9.94,412.47,7.85z
						"/>
					
						<linearGradient id="Path_360_1_" gradientUnits="userSpaceOnUse" x1="-207.6428" y1="990.0698" x2="-207.6428" y2="991.0698" gradientTransform="matrix(65.4771 0 0 -240.8175 13808.46 238789.5938)">
						<stop  offset="0.203" style="stop-color:#0FC48B"/>
						<stop  offset="0.654" style="stop-color:#037230"/>
					</linearGradient>
					<path id="Path_360" class="st18" d="M242.76,360.85c-0.05-0.08-0.1-0.16-0.15-0.24c-0.68-1.07-1.17-2.25-1.45-3.48
						c-0.12-0.56-0.19-1.14-0.21-1.71c-0.06-2.19,0.03-4.37,0.26-6.55l0.03,0.01l0.07-104.22v-3.08l0.01-8.93l0.05-77.44l0.01-0.01
						c2.55-22.64-5.21-29.65-11.28-31.74c-2.09-0.73-4.32-0.99-6.53-0.77c-0.99,0.16-1.96,0.37-2.92,0.61
						c-2.65,0.66-5.23,1.6-7.68,2.81c-9.22,4.52-16.79,12.49-22.32,21.1c-5.84,9.09-9.41,18.88-10.25,26.04
						c-0.11,0.94-0.19,2.31-0.23,3.84l-0.02-0.01v0.61c-0.13,4.93-0.03,11.23-0.03,11.23h0.01l-0.22,124.45v0.41l-0.01,7.22
						l-0.01,4.47l65.48,37.96C244.31,362.77,243.43,361.89,242.76,360.85z"/>
					
						<linearGradient id="Path_361_1_" gradientUnits="userSpaceOnUse" x1="-207.6566" y1="990.1175" x2="-207.6566" y2="991.1175" gradientTransform="matrix(65.371 0 0 -229.268 13878.5361 227302.1406)">
						<stop  offset="0.203" style="stop-color:#0FC48B"/>
						<stop  offset="0.654" style="stop-color:#037230"/>
					</linearGradient>
					<path id="Path_361" class="st19" d="M333.91,297.27c-0.05-0.08-0.1-0.16-0.15-0.23c-0.58-0.93-1.02-1.94-1.3-2.99v-0.2
						l0.14-190.68l0.01-0.01c2.54-22.64-5.21-29.65-11.28-31.74c-2.09-0.73-4.32-0.99-6.53-0.77c-3.68,0.6-7.26,1.75-10.6,3.41
						c-18.96,9.29-30.93,33.21-32.58,47.14c-0.1,0.84-0.17,2.02-0.22,3.35c-0.01,0.16-0.01,0.32-0.02,0.49
						c-0.16,5.01-0.04,11.83-0.04,11.83l0.04-0.02l-0.22,112.98l-0.02,7.63l-0.01,3.77v0.7l65.37,37.9
						C335.46,299.19,334.57,298.31,333.91,297.27z"/>
					<path id="Path_362" class="st0" d="M151.54,412.88c-0.05-0.08-0.1-0.16-0.15-0.24c-0.68-1.07-1.17-2.25-1.45-3.48
						c-0.12-0.56-0.19-1.14-0.21-1.71c-0.06-2.24,0.04-4.48,0.28-6.7L26.74,329.67L8.08,318.92L8,324c0.18,1.6,0.46,3.18,0.81,4.75
						c0.67,1.72,1.8,3.23,3.28,4.35l142.05,82.35C153.09,414.79,152.21,413.92,151.54,412.88z"/>
				</g>
			</g>
			<g id="Group_203" transform="translate(42.562 264.513)">
				<g id="Group_201">
					<g id="Group_194" transform="translate(40.743 12.198)">
						<path id="Path_363" class="st5" d="M8,16.2v1.55l68.68,39.62v-1.54L8,16.2z"/>
						<path id="Path_364" class="st5" d="M8,21.18v1.55l68.68,39.62V60.8L8,21.18z"/>
						<path id="Path_365" class="st5" d="M8,26.16v1.55l68.68,39.62v-1.54L8,26.16z"/>
						<path id="Path_366" class="st5" d="M8,31.14v1.55L76.68,72.3v-1.54L8,31.14z"/>
						<path id="Path_367" class="st5" d="M8,36.12v1.55l68.68,39.62v-1.54L8,36.12z"/>
						<path id="Path_368" class="st5" d="M8,41.1v1.55l68.68,39.62v-1.54L8,41.1z"/>
						<path id="Path_369" class="st5" d="M8,46.08v1.55l22.2,12.84v-1.54L8,46.08z"/>
						<path id="Path_370" class="st13" d="M8,7v4.18l25.97,15.01v-4.18L8,7z"/>
					</g>
					<g id="Group_200">
						<path id="Path_371" class="st5" d="M8,19.21C8,8.33,15.72,3.88,25.16,9.32s17.16,18.79,17.16,29.66s-7.72,15.32-17.16,9.89
							S8,30.08,8,19.21z"/>
						<g id="Group_199">
							<g>
								<defs>
									<path id="SVGID_13_" d="M8,19.21C8,8.33,15.72,3.88,25.16,9.32s17.16,18.79,17.16,29.66s-7.72,15.32-17.16,9.89
										S8,30.08,8,19.21z"/>
								</defs>
								<clipPath id="SVGID_14_">
									<use xlink:href="#SVGID_13_"  style="overflow:visible;"/>
								</clipPath>
								<g id="Group_198" class="st20">
									<g id="Group_197" transform="translate(3.62 9.277)">
										<path id="Path_372" class="st8" d="M20.09,8.9c0,0-11.67-7.07-6.95,17.95l17.78,10.21c0,0,4.29-22.98-5.42-26.46
											S20.09,8.9,20.09,8.9z"/>
										<path id="Path_373" class="st7" d="M21.92,26.55c4.41,2.54,8.01,0.46,8.01-4.61s-3.6-11.31-8.01-13.85
											s-8.01-0.46-8.01,4.61S17.52,24.01,21.92,26.55z"/>
										<g id="Group_195" transform="translate(5.913 0.002)">
											<path id="Path_374" class="st8" d="M19.51,14.65c-1.29,2.13-5.72,1.66-8.64-0.02C9.81,14.01,8.85,13.24,8,12.35
												c0.17-4.82,3.69-6.75,7.99-4.27c3.81,2.2,7.68,6.34,7.82,11.75c-0.01-0.27-0.49-0.25-0.76-0.39
												C21.19,18.49,19.88,16.72,19.51,14.65z"/>
										</g>
										<path id="Path_375" class="st9" d="M25.22,24.83v7.35l-5.61-3.31v-7.35L25.22,24.83z"/>
										<g id="Group_196" transform="translate(0 19.702)">
											<path id="Path_376" class="st0" d="M9.02,12.39c0.25-0.8,0.59-1.57,1.02-2.3c0.51-0.89,1.22-1.65,2.06-2.22
												c1.34-0.72,2.87-1.01,4.38-0.86c0.18,0.01,1.68,0.23,1.68,0.23c0.09,0.02,0.19,0.04,0.28,0.07
												c0.34,0.09,0.67,0.21,0.99,0.35l5.17,2.81c5.95,3.24,9.72,9.4,9.88,16.17l0.14,5.61L8,17.72
												C8.18,15.92,8.52,14.13,9.02,12.39z"/>
										</g>
									</g>
								</g>
							</g>
						</g>
					</g>
				</g>
				<g id="Group_202" transform="translate(40.854 61.57)">
					<path id="Path_377" class="st0" d="M12.33,7l1.33,4l2.98,2.55l-2.16,0.9l0.51,3.73l-2.67-3.44L9.64,14.5l0.51-3.03L8,7.59
						l2.99,1.57L12.33,7z"/>
					<path id="Path_378" class="st0" d="M23.42,13.39l1.33,4l2.98,2.55l-2.16,0.9l0.51,3.73l-2.67-3.44l-2.67-0.25l0.51-3.03
						l-2.16-3.88l2.99,1.57L23.42,13.39z"/>
					<path id="Path_379" class="st5" d="M34.51,19.78l1.33,4l2.98,2.55l-2.16,0.9l0.51,3.73l-2.67-3.44l-2.67-0.25l0.51-3.03
						l-2.16-3.88l2.99,1.57L34.51,19.78z"/>
					<path id="Path_380" class="st5" d="M45.6,26.18l1.33,4l2.98,2.55l-2.16,0.9l0.51,3.73l-2.67-3.44l-2.67-0.25l0.51-3.03
						l-2.16-3.88l2.99,1.57L45.6,26.18z"/>
					<path id="Path_381" class="st5" d="M56.7,32.57l1.33,4l2.98,2.55l-2.16,0.9l0.51,3.73l-2.67-3.44l-2.67-0.25l0.51-3.03
						l-2.16-3.88l2.99,1.57L56.7,32.57z"/>
				</g>
			</g>
			<g id="Group_213" transform="translate(42.562 338.4)">
				<g id="Group_211">
					<g id="Group_204" transform="translate(40.743 12.198)">
						<path id="Path_382" class="st5" d="M8,16.2v1.55l68.68,39.62v-1.54L8,16.2z"/>
						<path id="Path_383" class="st5" d="M8,21.18v1.55l68.68,39.62v-1.54L8,21.18z"/>
						<path id="Path_384" class="st5" d="M8,26.16v1.55l68.68,39.62v-1.54L8,26.16z"/>
						<path id="Path_385" class="st5" d="M8,31.14v1.55L76.68,72.3v-1.54L8,31.14z"/>
						<path id="Path_386" class="st5" d="M8,36.12v1.55l68.68,39.62v-1.54L8,36.12z"/>
						<path id="Path_387" class="st5" d="M8,41.1v1.55l68.68,39.62v-1.54L8,41.1z"/>
						<path id="Path_388" class="st5" d="M8,46.08v1.54l22.2,12.85v-1.54L8,46.08z"/>
						<path id="Path_389" class="st13" d="M8,7v4.18l25.97,15.01V22L8,7z"/>
					</g>
					<g id="Group_210">
						<path id="Path_390" class="st5" d="M8,19.21C8,8.33,15.72,3.88,25.16,9.32s17.16,18.79,17.16,29.66s-7.72,15.33-17.16,9.89
							S8,30.08,8,19.21z"/>
						<g id="Group_209">
							<g>
								<defs>
									<path id="SVGID_15_" d="M8,19.21C8,8.33,15.72,3.88,25.16,9.32s17.16,18.79,17.16,29.66s-7.72,15.33-17.16,9.89
										S8,30.08,8,19.21z"/>
								</defs>
								<clipPath id="SVGID_16_">
									<use xlink:href="#SVGID_15_"  style="overflow:visible;"/>
								</clipPath>
								<g id="Group_208" class="st21">
									<g id="Group_207" transform="translate(3.62 9.277)">
										<path id="Path_391" class="st7" d="M21.92,26.55c4.41,2.54,8.01,0.46,8.01-4.61s-3.6-11.31-8.01-13.85
											s-8.01-0.46-8.01,4.61S17.52,24.01,21.92,26.55z"/>
										<g id="Group_205" transform="translate(5.913 0.002)">
											<path id="Path_392" class="st8" d="M19.51,14.65c-1.29,2.13-5.72,1.66-8.64-0.02c-1.06-0.63-2.02-1.4-2.87-2.28
												c0.17-4.82,3.69-6.75,7.99-4.27c3.81,2.2,7.02,7.17,7.82,11.75c-0.25-0.12-0.49-0.25-0.76-0.39
												C21.19,18.49,19.88,16.72,19.51,14.65z"/>
										</g>
										<path id="Path_393" class="st9" d="M25.22,24.83v7.35l-5.61-3.31v-7.35L25.22,24.83z"/>
										<g id="Group_206" transform="translate(0 19.702)">
											<path id="Path_394" class="st8" d="M9.02,12.39c0.25-0.8,0.59-1.57,1.02-2.3c0.51-0.89,1.22-1.65,2.06-2.22
												c1.34-0.72,2.87-1.01,4.38-0.86c0.18,0.01,1.68,0.23,1.68,0.23c0.09,0.02,0.19,0.04,0.28,0.07
												c0.34,0.09,0.67,0.21,0.99,0.35l5.17,2.81c5.95,3.24,9.72,9.4,9.88,16.17l0.14,5.61L8,17.72
												C8.18,15.92,8.52,14.13,9.02,12.39z"/>
										</g>
									</g>
								</g>
							</g>
						</g>
					</g>
				</g>
				<g id="Group_212" transform="translate(40.854 60.896)">
					<path id="Path_395" class="st0" d="M12.33,7l1.33,4l2.98,2.55l-2.16,0.9l0.51,3.73l-2.67-3.44L9.65,14.5l0.51-3.03L8,7.58
						l2.99,1.57L12.33,7z"/>
					<path id="Path_396" class="st0" d="M23.42,13.39l1.33,4l2.98,2.55l-2.16,0.9l0.51,3.73l-2.67-3.44l-2.67-0.25l0.51-3.03
						l-2.16-3.88l2.99,1.57L23.42,13.39z"/>
					<path id="Path_397" class="st0" d="M34.51,19.79l1.33,4l2.98,2.55l-2.16,0.9l0.51,3.73l-2.67-3.44l-2.67-0.25l0.51-3.03
						l-2.16-3.88l2.99,1.57L34.51,19.79z"/>
					<path id="Path_398" class="st5" d="M45.6,26.18l1.33,4l2.98,2.55l-2.16,0.9l0.51,3.73l-2.67-3.44l-2.67-0.25l0.51-3.03
						l-2.16-3.88l2.99,1.57L45.6,26.18z"/>
					<path id="Path_399" class="st5" d="M56.7,32.57l1.33,4l2.98,2.55l-2.16,0.9l0.51,3.73l-2.67-3.44l-2.67-0.25l0.51-3.03
						l-2.16-3.88l2.99,1.57L56.7,32.57z"/>
				</g>
			</g>
			<g id="Group_224" transform="translate(42.562 186.871)">
				<g id="Group_223">
					<g id="Group_221">
						<g id="Group_214" transform="translate(40.743 12.198)">
							<path id="Path_400" class="st5" d="M8,16.2v1.55l68.68,39.62v-1.54L8,16.2z"/>
							<path id="Path_401" class="st5" d="M8,21.18v1.55l68.68,39.62V60.8L8,21.18z"/>
							<path id="Path_402" class="st5" d="M8,26.16v1.54l68.68,39.62v-1.54L8,26.16z"/>
							<path id="Path_403" class="st5" d="M8,31.14v1.55L76.68,72.3v-1.54L8,31.14z"/>
							<path id="Path_404" class="st5" d="M8,36.12v1.55l68.68,39.62v-1.54L8,36.12z"/>
							<path id="Path_405" class="st5" d="M8,41.1v1.55l68.68,39.62v-1.54L8,41.1z"/>
							<path id="Path_406" class="st5" d="M8,46.08v1.55l22.2,12.84v-1.54L8,46.08z"/>
							<path id="Path_407" class="st13" d="M8,7v4.18l25.97,15.01v-4.18L8,7z"/>
						</g>
						<g id="Group_220">
							<path id="Path_408" class="st5" d="M8,19.21C8,8.33,15.72,3.88,25.16,9.32s17.16,18.79,17.16,29.66s-7.72,15.32-17.16,9.89
								S8,30.08,8,19.21z"/>
							<g id="Group_219">
								<g>
									<defs>
										<path id="SVGID_17_" d="M8,19.21C8,8.33,15.72,3.88,25.16,9.32s17.16,18.79,17.16,29.66s-7.72,15.32-17.16,9.89
											S8,30.08,8,19.21z"/>
									</defs>
									<clipPath id="SVGID_18_">
										<use xlink:href="#SVGID_17_"  style="overflow:visible;"/>
									</clipPath>
									<g id="Group_218" class="st22">
										<g id="Group_217" transform="translate(3.62 9.277)">
											<path id="Path_409" class="st7" d="M21.92,26.55c4.41,2.54,8.01,0.46,8.01-4.62s-3.6-11.31-8.01-13.85
												s-8.01-0.46-8.01,4.62S17.52,24.01,21.92,26.55z"/>
											<g id="Group_215" transform="translate(5.913 0.002)">
												<path id="Path_410" class="st8" d="M19.51,14.66c-1.29,2.13-5.72,1.66-8.64-0.02C9.81,14.01,8.85,13.24,8,12.35
													c0.17-4.82,3.69-6.75,7.99-4.27c3.81,2.2,7.02,7.17,7.82,11.76c-0.25-0.12-0.49-0.25-0.76-0.39
													C21.19,18.49,19.88,16.72,19.51,14.66z"/>
											</g>
											<path id="Path_411" class="st9" d="M25.22,24.83v7.35l-5.61-3.31v-7.35L25.22,24.83z"/>
											<g id="Group_216" transform="translate(0 19.702)">
												<path id="Path_412" class="st8" d="M9.02,12.39c0.25-0.8,0.59-1.57,1.02-2.3c0.51-0.89,1.22-1.65,2.06-2.22
													c1.34-0.71,2.87-1.01,4.38-0.86c0.18,0.01,1.68,0.23,1.68,0.23c0.09,0.02,0.19,0.04,0.28,0.07
													c0.34,0.09,0.67,0.21,0.99,0.35l5.17,2.81c5.95,3.24,9.72,9.4,9.88,16.17l0.14,5.61L8,17.72
													C8.18,15.92,8.52,14.13,9.02,12.39z"/>
											</g>
										</g>
									</g>
								</g>
							</g>
						</g>
					</g>
					<g id="Group_222" transform="translate(40.854 59.461)">
						<path id="Path_413" class="st0" d="M12.33,7l1.33,4l2.98,2.55l-2.16,0.9l0.51,3.73l-2.67-3.44L9.64,14.5l0.51-3.03L8,7.59
							l2.99,1.57L12.33,7z"/>
						<path id="Path_414" class="st0" d="M23.42,13.39l1.33,4l2.98,2.55l-2.16,0.9l0.51,3.73l-2.67-3.44l-2.67-0.25l0.51-3.03
							l-2.16-3.88l2.99,1.57L23.42,13.39z"/>
						<path id="Path_415" class="st0" d="M34.51,19.79l1.33,4l2.98,2.55l-2.16,0.9l0.51,3.73l-2.67-3.44l-2.67-0.25l0.51-3.03
							l-2.16-3.88l2.99,1.57L34.51,19.79z"/>
						<path id="Path_416" class="st0" d="M45.6,26.18l1.33,4l2.98,2.55l-2.16,0.9l0.51,3.73l-2.67-3.44l-2.67-0.25l0.51-3.03
							l-2.16-3.88l2.99,1.57L45.6,26.18z"/>
						<path id="Path_417" class="st0" d="M56.7,32.57l1.33,4l2.98,2.55l-2.16,0.9l0.51,3.73l-2.67-3.44l-2.67-0.25l0.51-3.03
							l-2.16-3.88l2.99,1.57L56.7,32.57z"/>
					</g>
				</g>
				<path id="Path_418" class="st8" d="M23.62,30.07l0.06,1.04l3.09,1.79l-0.08-1.14L23.62,30.07z"/>
			</g>
		</g>
		<g id="Group_231" transform="translate(1260.337 415.391)">
			<g id="Group_227" transform="translate(107.255)">
				<g id="Group_226">
					<path id="Path_419" class="st23" d="M12.5,12.78l-1.91,118.3c-0.03,2.11,1.07,4.08,2.89,5.15l129.84,76.52
						c2.79,1.65,6.39,0.72,8.03-2.08c0.52-0.87,0.8-1.87,0.81-2.88l1.89-117.02c0.03-2.1-1.05-4.05-2.85-5.13L21.39,7.84
						c-2.78-1.67-6.38-0.77-8.05,2.01C12.81,10.74,12.52,11.75,12.5,12.78z"/>
					<path id="Path_420" class="st8" d="M9.91,14.23L8,132.53c-0.03,2.11,1.07,4.08,2.89,5.15l129.83,76.52
						c2.79,1.65,6.39,0.72,8.03-2.07c0.52-0.87,0.8-1.87,0.81-2.88l1.89-117.02c0.03-2.1-1.05-4.05-2.85-5.13L18.79,9.29
						c-2.78-1.67-6.38-0.76-8.05,2.02C10.21,12.19,9.93,13.2,9.91,14.23z"/>
					<path id="Path_421" class="st24" d="M11.54,17.76L9.7,131.83c-0.03,2.04,1.03,3.93,2.79,4.96l125.2,73.79
						c2.69,1.59,6.16,0.69,7.75-2c0.5-0.84,0.77-1.8,0.78-2.78l1.82-112.84c0.03-2.02-1.02-3.91-2.75-4.94L20.1,13
						c-2.68-1.61-6.16-0.73-7.76,1.95C11.83,15.8,11.55,16.77,11.54,17.76z"/>
				</g>
			</g>
			<g id="Group_230" transform="translate(0 128.163)">
				<g id="Group_228">
					<path id="Path_422" class="st8" d="M10.93,70.35l102.21-59.58c1.82-1.06,4.08-1.06,5.9,0l130.29,75.74
						c2.8,1.63,3.75,5.22,2.12,8.02c-0.51,0.88-1.24,1.61-2.12,2.12l-101.11,58.94c-1.81,1.06-4.05,1.07-5.87,0.03L10.97,80.51
						c-2.81-1.61-3.79-5.19-2.18-8C9.3,71.62,10.03,70.87,10.93,70.35z"/>
					<path id="Path_423" class="st25" d="M10.91,67.38L113.13,7.8c1.82-1.06,4.08-1.06,5.9,0l130.29,75.74
						c2.8,1.63,3.75,5.22,2.12,8.02c-0.51,0.88-1.24,1.61-2.12,2.12l-101.11,58.94c-1.81,1.06-4.05,1.07-5.87,0.03L10.95,77.54
						c-2.81-1.61-3.79-5.19-2.18-8C9.28,68.64,10.02,67.9,10.91,67.38z"/>
					<path id="Path_424" class="st26" d="M58.59,93.72l33.05-19.27c0.59-0.34,1.32-0.34,1.91,0l42.13,24.49
						c0.91,0.53,1.21,1.69,0.68,2.6c-0.16,0.28-0.4,0.52-0.68,0.68l-32.7,19.06c-0.59,0.34-1.31,0.34-1.9,0.01L58.6,97.01
						c-0.91-0.52-1.22-1.69-0.69-2.6C58.07,94.12,58.31,93.89,58.59,93.72z"/>
				</g>
				<g id="Group_229" transform="translate(111.777 41.404)">
					<path id="Path_425" class="st27" d="M8,7"/>
				</g>
				<path id="Path_426" class="st26" d="M106.54,19.55l-2.79,1.7l123.17,71.09l3-1.67L106.54,19.55z"/>
				<path id="Path_427" class="st26" d="M100.56,22.95l-2.79,1.7l123.17,71.09l3-1.67L100.56,22.95z"/>
				<path id="Path_428" class="st26" d="M94.57,26.36l-2.79,1.7l123.17,71.09l3-1.67L94.57,26.36z"/>
				<path id="Path_429" class="st26" d="M88.58,29.77l-2.79,1.7l123.17,71.09l3-1.67L88.58,29.77z"/>
				<path id="Path_430" class="st26" d="M82.6,33.17l-2.79,1.7l123.18,71.09l3-1.67L82.6,33.17z"/>
				<path id="Path_431" class="st26" d="M76.61,36.58l-2.79,1.7l123.17,71.09l3-1.67L76.61,36.58z"/>
				<path id="Path_432" class="st0" d="M129.13,32.49l-2.79,1.7l2.74,1.63l3-1.67L129.13,32.49z"/>
				<path id="Path_433" class="st0" d="M137.25,57.84l-2.79,1.7l2.74,1.63l3-1.67L137.25,57.84z"/>
				<path id="Path_434" class="st0" d="M185.68,72.04l-2.79,1.7l2.74,1.63l3-1.67L185.68,72.04z"/>
				<path id="Path_435" class="st0" d="M193.05,76.26l-2.79,1.7l2.74,1.63l3-1.67L193.05,76.26z"/>
				<path id="Path_436" class="st0" d="M109.72,28.21l-2.79,1.7l6.09,3.56l3-1.67L109.72,28.21z"/>
				<path id="Path_437" class="st0" d="M159.13,84.23l-2.79,1.7l6.09,3.56l3-1.67L159.13,84.23z"/>
			</g>
		</g>
		<g id="Group_241" transform="translate(1383.357 476.93)">
			<g id="Group_239">
				<g id="Group_232" transform="translate(40.742 12.198)">
					<path id="Path_438" class="st5" d="M8,16.2v1.55l68.68,39.62v-1.54L8,16.2z"/>
					<path id="Path_439" class="st5" d="M8,21.18v1.55l68.68,39.62V60.8L8,21.18z"/>
					<path id="Path_440" class="st5" d="M8,26.16v1.55l68.68,39.61v-1.54L8,26.16z"/>
					<path id="Path_441" class="st5" d="M8,31.14v1.55L76.67,72.3v-1.54L8,31.14z"/>
					<path id="Path_442" class="st5" d="M8,36.12v1.55l68.68,39.62v-1.54L8,36.12z"/>
					<path id="Path_443" class="st5" d="M8,41.1v1.55l68.68,39.62v-1.54L8,41.1z"/>
					<path id="Path_444" class="st5" d="M8,46.08v1.54L30.2,60.46v-1.54L8,46.08z"/>
					<path id="Path_445" class="st13" d="M8,7v4.18l25.97,15.01v-4.18L8,7z"/>
				</g>
				<g id="Group_238">
					<path id="Path_446" class="st5" d="M8,19.21C8,8.33,15.72,3.88,25.16,9.32s17.16,18.79,17.16,29.66s-7.72,15.33-17.15,9.89
						S8,30.08,8,19.21z"/>
					<g id="Group_237">
						<g>
							<defs>
								<path id="SVGID_19_" d="M8,19.21C8,8.33,15.72,3.88,25.16,9.32s17.16,18.79,17.16,29.66s-7.72,15.33-17.15,9.89
									S8,30.08,8,19.21z"/>
							</defs>
							<clipPath id="SVGID_20_">
								<use xlink:href="#SVGID_19_"  style="overflow:visible;"/>
							</clipPath>
							<g id="Group_236" class="st28">
								<g id="Group_235" transform="translate(3.62 9.276)">
									<path id="Path_447" class="st7" d="M21.92,26.55c4.41,2.54,8.01,0.46,8.01-4.62s-3.6-11.31-8.01-13.85
										s-8.01-0.46-8.01,4.62S17.52,24.01,21.92,26.55z"/>
									<g id="Group_233" transform="translate(5.913 0.002)">
										<path id="Path_448" class="st8" d="M19.51,14.65c-1.28,2.13-5.71,1.66-8.64-0.02c-1.06-0.63-2.02-1.4-2.87-2.28
											C8.17,7.53,11.69,5.6,16,8.08c3.81,2.2,7.02,7.17,7.82,11.76c-0.25-0.12-0.49-0.25-0.75-0.39
											C21.19,18.49,19.88,16.72,19.51,14.65z"/>
									</g>
									<path id="Path_449" class="st9" d="M25.22,24.83v7.35l-5.61-3.31v-7.35L25.22,24.83z"/>
									<g id="Group_234" transform="translate(0 19.702)">
										<path id="Path_450" class="st8" d="M9.02,12.39c0.25-0.8,0.6-1.57,1.02-2.3c0.51-0.89,1.22-1.65,2.06-2.22
											c1.34-0.71,2.87-1.01,4.38-0.86c0.18,0.01,1.68,0.23,1.68,0.23c0.09,0.02,0.19,0.04,0.28,0.06
											c0.34,0.09,0.67,0.21,0.99,0.35l5.17,2.81c5.95,3.24,9.72,9.4,9.88,16.17l0.14,5.61L8,17.72
											C8.18,15.92,8.52,14.13,9.02,12.39z"/>
									</g>
								</g>
							</g>
						</g>
					</g>
				</g>
			</g>
			<g id="Group_240" transform="translate(40.853 60.896)">
				<path id="Path_451" class="st0" d="M12.32,7l1.33,4l2.98,2.55l-2.16,0.9l0.51,3.73l-2.67-3.44L9.64,14.5l0.51-3.03L8,7.59
					l2.99,1.57L12.32,7z"/>
				<path id="Path_452" class="st0" d="M23.42,13.39l1.33,4l2.98,2.55l-2.16,0.9l0.51,3.73l-2.67-3.44l-2.67-0.25l0.52-3.03
					l-2.16-3.88l2.99,1.57L23.42,13.39z"/>
				<path id="Path_453" class="st0" d="M34.51,19.79l1.33,4l2.98,2.55l-2.16,0.9l0.51,3.73l-2.67-3.44l-2.67-0.25l0.51-3.03
					l-2.16-3.88l2.99,1.57L34.51,19.79z"/>
				<path id="Path_454" class="st5" d="M45.6,26.18l1.33,4l2.98,2.55l-2.16,0.9l0.51,3.73l-2.67-3.44l-2.67-0.25l0.51-3.03
					l-2.16-3.88l2.99,1.57L45.6,26.18z"/>
				<path id="Path_455" class="st5" d="M56.7,32.57l1.33,4l2.98,2.55l-2.16,0.9l0.51,3.73l-2.67-3.44l-2.67-0.25l0.51-3.03
					l-2.16-3.88l2.99,1.57L56.7,32.57z"/>
			</g>
		</g>
	</g>
</g>
</svg>
