<svg width="40" height="48" viewBox="0 0 40 48" fill="none" xmlns="http://www.w3.org/2000/svg">
<path d="M14.7273 0C12.522 0 10.7479 1.68626 10.4659 3.81818H7.63637C7.06519 3.81824 6.54552 4.33791 6.54546 4.90909V6C4.69717 6 2.829 6 0.988645 6C0.452372 6.05054 -0.00231369 6.55226 8.85867e-06 7.09091V41.4545C6.61314e-05 42.0257 0.519735 42.5454 1.09092 42.5455H18.9375C20.8262 45.8021 24.3366 48 28.3636 48C34.3756 48 39.2727 43.1029 39.2727 37.0909C39.2727 31.4488 34.954 26.7866 29.4546 26.233V7.09091C29.4545 6.51973 28.9348 6.00006 28.3636 6H22.9091V4.90909C22.909 4.33791 22.3894 3.81824 21.8182 3.81818H18.9886C18.7066 1.68626 16.9326 0 14.7273 0ZM14.7273 2.18182C15.9549 2.18182 16.9091 3.13604 16.9091 4.36364V4.90909C16.9092 5.48027 17.4288 5.99994 18 6H20.7273V8.18182H8.72728V6H11.4546C12.0257 5.99994 12.5454 5.48027 12.5455 4.90909V4.36364C12.5455 3.13604 13.4997 2.18182 14.7273 2.18182ZM2.18183 8.18182H6.54546V9.27273C6.54552 9.84391 7.06519 10.3636 7.63637 10.3636H21.8182C22.3894 10.3636 22.909 9.84391 22.9091 9.27273V8.18182H27.2727V12H2.18183V8.18182ZM2.18183 14.1818H27.2727V26.233C26.3052 26.3304 25.3712 26.5625 24.4943 26.8977C24.3401 26.4763 23.9032 26.1756 23.4546 26.1818C19.969 26.1818 16.4666 26.1818 12.9886 26.1818C12.4174 26.2085 11.9219 26.7526 11.9487 27.3239C11.9754 27.8951 12.5197 28.3905 13.0909 28.3636H21.8352C20.5014 29.3679 19.4094 30.6814 18.6477 32.1818C16.7653 32.1818 14.8631 32.1818 12.9886 32.1818C12.4174 32.2085 11.9219 32.7526 11.9487 33.3239C11.9754 33.8951 12.5197 34.3905 13.0909 34.3636H17.8125C17.5853 35.2395 17.4546 36.1459 17.4546 37.0909C17.4546 38.2314 17.6395 39.3294 17.9659 40.3636H2.18183V14.1818ZM9.68183 17.983C9.44361 18.0174 9.21792 18.1333 9.05115 18.3068L7.09092 20.267L6.76705 19.9432C6.36387 19.5285 5.61581 19.5253 5.2091 19.9365C4.80239 20.3478 4.81385 21.0957 5.23296 21.4943L6.32387 22.5852C6.72716 22.9839 7.45468 22.9839 7.85796 22.5852L10.5852 19.858C10.9208 19.5428 11.021 19.0038 10.8212 18.5891C10.6214 18.1744 10.1374 17.9169 9.68183 17.983ZM12.9886 20.1818C12.4174 20.2085 11.9219 20.7526 11.9487 21.3239C11.9754 21.8951 12.5197 22.3905 13.0909 22.3636H23.4546C24.0309 22.3718 24.561 21.8491 24.561 21.2727C24.561 20.6963 24.0309 20.1737 23.4546 20.1818C19.969 20.1818 16.4666 20.1818 12.9886 20.1818ZM9.68183 23.983C9.44361 24.0174 9.21792 24.1333 9.05115 24.3068L7.09092 26.267L6.76705 25.9432C6.36387 25.5285 5.61581 25.5253 5.2091 25.9365C4.80239 26.3478 4.81385 27.0957 5.23296 27.4943L6.32387 28.5852C6.72716 28.9839 7.45468 28.9839 7.85796 28.5852L10.5852 25.858C10.9208 25.5428 11.021 25.0038 10.8212 24.5891C10.6214 24.1744 10.1374 23.9169 9.68183 23.983ZM28.3636 28.3636C33.1965 28.3636 37.0909 32.258 37.0909 37.0909C37.0909 41.9237 33.1965 45.8182 28.3636 45.8182C23.5308 45.8182 19.6364 41.9237 19.6364 37.0909C19.6364 32.258 23.5308 28.3636 28.3636 28.3636ZM9.68183 29.983C9.44361 30.0174 9.21792 30.1333 9.05115 30.3068L7.09092 32.267L6.76705 31.9432C6.36387 31.5285 5.61581 31.5253 5.2091 31.9365C4.80239 32.3478 4.81385 33.0957 5.23296 33.4943L6.32387 34.5852C6.72716 34.9839 7.45468 34.9839 7.85796 34.5852L10.5852 31.858C10.9208 31.5428 11.021 31.0038 10.8212 30.5891C10.6214 30.1744 10.1374 29.9169 9.68183 29.983ZM32.0455 32.7102C31.8072 32.7446 31.5816 32.8605 31.4148 33.0341L26.7273 37.7216L25.3125 36.3068C24.9093 35.8921 24.1613 35.8889 23.7546 36.3002C23.3478 36.7114 23.3593 37.4594 23.7784 37.858L25.9602 40.0398C26.3635 40.4385 27.091 40.4385 27.4943 40.0398L32.9489 34.5852C33.2844 34.2701 33.3846 33.7311 33.1848 33.3164C32.985 32.9017 32.501 32.6442 32.0455 32.7102Z" fill="#00B074"/>
</svg>
