<svg width="52" height="49" viewBox="0 0 52 49" fill="none" xmlns="http://www.w3.org/2000/svg">
<path d="M9.99781 29.5614C13.5176 29.5614 16.371 26.708 16.371 23.1882C16.371 19.6684 13.5176 16.8151 9.99781 16.8151C6.478 16.8151 3.62463 19.6684 3.62463 23.1882C3.62463 26.708 6.478 29.5614 9.99781 29.5614Z" fill="#00B074"/>
<path d="M13.5929 45.0313L14.1921 40.1288C14.5189 37.5687 15.7717 35.3898 17.6238 33.8646C16.3709 32.2849 14.4644 31.3044 12.34 31.3044H7.601C4.16929 31.3044 1.28229 33.8646 0.900992 37.2963L0.247333 42.7435C0.13839 43.4516 0.628634 44.1053 1.33676 44.2687C4.06034 44.8679 7.00181 45.1402 9.99774 45.1402C11.2506 45.1947 12.449 45.1402 13.5929 45.0313Z" fill="#00B074"/>
<path d="M42.2449 29.5614C45.7647 29.5614 48.6181 26.708 48.6181 23.1882C48.6181 19.6684 45.7647 16.8151 42.2449 16.8151C38.7251 16.8151 35.8717 19.6684 35.8717 23.1882C35.8717 26.708 38.7251 29.5614 42.2449 29.5614Z" fill="#00B074"/>
<path d="M51.3417 37.2419C50.9604 33.8102 48.0189 31.25 44.6417 31.25H39.9026C37.7782 31.25 35.8717 32.2305 34.6189 33.8102C36.4709 35.3354 37.7782 37.5142 38.0506 40.0744L38.6498 44.9768C39.7937 45.0858 41.0465 45.1403 42.2449 45.1403C45.2953 45.1403 48.1823 44.8134 50.9059 44.2687C51.614 44.1053 52.0498 43.4516 51.9953 42.7435L51.3417 37.2419Z" fill="#00B074"/>
<path d="M35.8718 45.9573L35.2181 40.4557C34.8368 37.0785 31.9498 34.5183 28.5181 34.5183H23.7791C20.3474 34.5183 17.4604 37.0785 17.0791 40.4557L16.4254 45.9573C16.3165 46.6655 16.8067 47.3736 17.5149 47.4825C20.2384 48.0817 23.1799 48.3541 26.1758 48.3541C29.2263 48.3541 32.1132 48.0273 34.8368 47.4825C35.4905 47.3736 35.9263 46.6655 35.8718 45.9573Z" fill="#00B074"/>
<path d="M26.1213 32.7753C29.6411 32.7753 32.4945 29.9219 32.4945 26.4021C32.4945 22.8823 29.6411 20.0289 26.1213 20.0289C22.6015 20.0289 19.7482 22.8823 19.7482 26.4021C19.7482 29.9219 22.6015 32.7753 26.1213 32.7753Z" fill="#00B074"/>
<path d="M32.1132 7.48989L29.3352 7.272C28.8994 7.21753 28.4637 6.94517 28.3002 6.5094L27.2108 3.94923C26.775 2.96875 25.3588 2.96875 24.9775 3.94923L23.888 6.5094C23.7246 6.94517 23.3433 7.21753 22.8531 7.272L20.1295 7.48989C19.0401 7.59883 18.6043 8.90615 19.4214 9.61428L21.5458 11.4118C21.8726 11.6842 22.036 12.1744 21.9271 12.6102L21.2734 15.3338C21.001 16.3688 22.145 17.1858 23.071 16.6411L25.4677 15.1704C25.849 14.9525 26.3393 14.9525 26.7206 15.1704L29.1173 16.6411C30.0433 17.1858 31.1872 16.3688 30.9149 15.3338L30.2612 12.6102C30.1523 12.1744 30.3157 11.6842 30.6425 11.4118L32.7669 9.61428C33.6385 8.90615 33.2027 7.59883 32.1132 7.48989Z" fill="#00B074"/>
<path d="M48.2368 4.27602L45.4587 4.05813C45.023 4.00366 44.5872 3.7313 44.4238 3.29553L43.3343 0.735366C42.8986 -0.245122 41.4823 -0.245122 41.101 0.735366L40.0116 3.29553C39.8482 3.7313 39.4669 4.00366 38.9766 4.05813L36.253 4.27602C35.1636 4.38496 34.7278 5.69228 35.5449 6.40041L37.6693 8.19797C37.9961 8.47033 38.1595 8.96057 38.0506 9.39635L37.3969 12.1199C37.1246 13.1549 38.2685 14.0264 39.1945 13.4272L41.5913 11.9565C41.9726 11.7386 42.4628 11.7386 42.8441 11.9565L45.2408 13.4272C46.1669 13.972 47.3108 13.1549 47.0384 12.1199L46.3847 9.39635C46.2758 8.96057 46.4392 8.47033 46.7661 8.19797L48.8904 6.40041C49.762 5.69228 49.3262 4.38496 48.2368 4.27602Z" fill="#00B074"/>
<path d="M15.9896 4.27602L13.2115 4.05813C12.7758 4.00366 12.34 3.7313 12.1766 3.29553L11.0872 0.735366C10.6514 -0.245122 9.23512 -0.245122 8.85382 0.735366L7.76439 3.29553C7.60097 3.7313 7.21967 4.00366 6.72943 4.05813L4.00585 4.27602C2.91642 4.38496 2.48064 5.69228 3.29772 6.40041L5.42211 8.19797C5.74894 8.47033 5.91235 8.96057 5.80341 9.39635L5.14975 12.1199C4.87739 13.1549 6.0213 14.0264 6.94731 13.4272L9.34406 11.9565C9.72536 11.7386 10.2156 11.7386 10.5969 11.9565L12.9937 13.4272C13.9197 13.972 15.0636 13.1549 14.7912 12.1199L14.1376 9.39635C14.0286 8.96057 14.192 8.47033 14.5189 8.19797L16.6433 6.40041C17.5148 5.69228 17.079 4.38496 15.9896 4.27602Z" fill="#00B074"/>
</svg>
