<svg width="61" height="49" viewBox="0 0 61 49" fill="none" xmlns="http://www.w3.org/2000/svg">
<path d="M13.0452 41.4433H1.89317C0.86117 41.4433 0.0241699 40.6063 0.0241699 39.5743C0.0241699 38.5423 0.86117 37.7053 1.89317 37.7053H13.0452C14.0772 37.7053 14.9142 38.5423 14.9142 39.5743C14.9142 40.6063 14.0772 41.4433 13.0452 41.4433Z" fill="#00B074"/>
<path d="M60.9192 23.0434H60.9202V23.0404V23.0374C61.0322 22.3974 61.0252 21.7514 60.9072 21.1274V21.1224V21.1194L60.9042 21.1024L60.9012 21.0914L60.8812 20.9994C60.8732 20.9594 60.8642 20.9204 60.8552 20.8804L60.8532 20.8714L60.8502 20.8564L60.8492 20.8524L60.8482 20.8504L60.8452 20.8444C60.7182 20.3284 60.5162 19.8324 60.2432 19.3734L60.2412 19.3674H60.2402C59.7362 18.5214 58.9942 17.8044 58.0502 17.3324L24.5612 0.563441C23.6142 0.0894411 22.5912 -0.0745594 21.6082 0.0304406V0.0294407L21.6042 0.0304406C21.0532 0.0894406 20.5142 0.233441 20.0082 0.456441L20.0032 0.457441L19.8442 0.532441L19.8372 0.53544L19.8262 0.54044L19.8252 0.541441L19.8222 0.543441C19.2442 0.825441 18.7142 1.21244 18.2632 1.69344L18.2622 1.69444L18.2632 1.69544C17.9212 2.06144 17.6252 2.47944 17.3902 2.94944L6.91322 23.8714C5.59322 26.5064 6.66422 29.7244 9.29922 31.0434L42.7872 47.8124C45.4222 49.1324 48.6402 48.0614 49.9592 45.4264L60.4352 24.5044C60.6732 24.0314 60.8312 23.5394 60.9192 23.0434ZM56.5102 23.9964L47.3712 42.2474L42.3212 27.0664L56.5102 23.9964ZM30.5742 28.1184C30.7582 28.5134 31.0642 28.8164 31.4312 29.0004C31.8012 29.1854 32.2352 29.2494 32.6632 29.1554L38.6462 27.8614L44.1142 44.2964L11.9432 28.1874L28.1022 22.8124L30.5742 28.1184ZM55.7192 20.3454L33.3332 25.1874L23.5772 4.25044L55.7192 20.3454ZM26.5132 19.4014L10.6972 24.6634L20.1592 5.76644L26.5132 19.4014Z" fill="#00B074"/>
<path d="M22.2392 48.5454H1.89317C0.86117 48.5454 0.0241699 47.7084 0.0241699 46.6764C0.0241699 45.6444 0.86117 44.8074 1.89317 44.8074H22.2402C23.2722 44.8074 24.1092 45.6444 24.1092 46.6764C24.1082 47.7084 23.2722 48.5454 22.2392 48.5454Z" fill="#00B074"/>
</svg>
