<?xml version="1.0" encoding="utf-8"?>
<!-- Generator: Adobe Illustrator 23.0.3, SVG Export Plug-In . SVG Version: 6.00 Build 0)  -->
<svg version="1.1" id="Layer_1" xmlns="http://www.w3.org/2000/svg" xmlns:xlink="http://www.w3.org/1999/xlink" x="0px" y="0px"
	 viewBox="0 0 55.35 55.25" style="enable-background:new 0 0 55.35 55.25;" xml:space="preserve">
<g id="Group_325">
	<path id="Path_500" d="M12.02,23.73c3.26,0,5.91-2.65,5.91-5.91c0-3.26-2.65-5.91-5.91-5.91c-3.26,0-5.91,2.64-5.91,5.91
		C6.11,21.08,8.75,23.73,12.02,23.73z M12.02,13.88c2.18,0,3.94,1.76,3.94,3.94s-1.76,3.94-3.94,3.94S8.08,20,8.08,17.82l0,0
		C8.08,15.65,9.84,13.88,12.02,13.88z"/>
	<path id="Path_501" d="M43.53,23.73c3.26,0,5.91-2.65,5.91-5.91s-2.65-5.91-5.91-5.91c-3.26,0-5.91,2.64-5.91,5.91
		C37.63,21.08,40.27,23.73,43.53,23.73z M43.53,13.88c2.18,0,3.94,1.76,3.94,3.94c0,2.18-1.76,3.94-3.94,3.94s-3.94-1.76-3.94-3.94
		v0C39.59,15.65,41.36,13.88,43.53,13.88z"/>
	<path id="Path_502" d="M53.38,25.7v12.8c0,1.63-1.32,2.95-2.96,2.95V30.62c0-2.72-2.21-4.92-4.93-4.92h-4.92
		c-0.54,0-0.99,0.44-0.99,0.98c0,0,0,0,0,0v5.91h-7.88c-0.54,0-0.99,0.44-0.99,0.99l0,0v2.95h-5.91v-2.95
		c0-0.54-0.44-0.99-0.98-0.99c0,0,0,0,0,0h-7.88v-5.91c0-0.54-0.44-0.99-0.98-0.99h0h-4.92c-2.72,0-4.92,2.21-4.92,4.92v10.83
		c-1.63,0-2.96-1.33-2.96-2.96V25.7H0.2v12.8c0,1.96,1.16,3.73,2.95,4.51v12.24h1.97V43.43h9.85v10.83c0,0.54,0.44,0.99,0.98,0.99
		l0,0h4.92V38.5h13.79v16.75h4.93c0.54,0,0.99-0.44,0.99-0.99l0,0V43.43h9.85v11.82h1.97V43.01c1.79-0.78,2.95-2.55,2.95-4.51V25.7
		H53.38z M19.9,36.53h-7.88v-5.91h-1.97v6.89c0,0.54,0.44,0.99,0.99,0.99l0,0h6.89c0.54,0,0.98,0.44,0.99,0.99v13.79h-1.97V42.44
		c0-0.54-0.44-0.99-0.99-0.99l0,0H7.09V30.62c0-1.63,1.32-2.95,2.95-2.95h3.94v5.91c0,0.54,0.44,0.99,0.98,0.99l0,0h7.88v1.97H19.9z
		 M39.6,41.46c-0.54,0-0.99,0.44-0.99,0.99l0,0v10.83h-1.97V39.49c0-0.54,0.44-0.98,0.99-0.99h6.89c0.54,0,0.99-0.44,0.99-0.99l0,0
		v-6.89h-1.97v5.91H32.7v-1.97h7.88c0.54,0,0.99-0.44,0.99-0.99l0,0v-5.91h3.93c1.63,0,2.95,1.32,2.95,2.95v10.83H39.6z"/>
	<path id="Path_503" d="M18.91,9.94v2.95c0,0.42,0.27,0.8,0.67,0.94c0.1,0.03,0.21,0.05,0.31,0.05c0.31,0,0.6-0.15,0.79-0.39
		l2.66-3.55h7.39c1.63,0,2.95-1.32,2.96-2.95V3.05c0-1.63-1.32-2.95-2.96-2.95H18.91c-1.63,0-2.95,1.32-2.95,2.95v3.94
		C15.96,8.62,17.28,9.94,18.91,9.94z M17.92,3.05c0-0.54,0.44-0.98,0.99-0.99h11.82c0.54,0,0.98,0.44,0.99,0.99v3.94
		c0,0.54-0.44,0.98-0.99,0.99h-7.88c-0.31,0-0.6,0.15-0.79,0.39l-1.18,1.57V8.96c0-0.54-0.44-0.99-0.99-0.99l0,0h-0.99
		c-0.54,0-0.98-0.44-0.99-0.99L17.92,3.05z"/>
	<rect id="Rectangle_62" x="19.9" y="4.03" width="9.85" height="1.97"/>
	<rect id="Rectangle_63" x="26.79" y="24.71" width="5.91" height="1.97"/>
	<path id="Path_504" d="M25.8,20.77c-1.63,0-2.95,1.32-2.95,2.95v3.94c0,1.63,1.32,2.95,2.95,2.95h7.88c1.63,0,2.95-1.32,2.96-2.95
		v-0.69l1.8-2.71c0.3-0.45,0.18-1.06-0.27-1.37c-0.16-0.11-0.35-0.17-0.55-0.17h-1.15c-0.42-1.18-1.53-1.97-2.79-1.97H25.8z
		 M34.67,23.73c0,0.54,0.44,0.99,0.99,0.99l0,0h0.13l-0.95,1.42c-0.11,0.16-0.16,0.35-0.17,0.55v0.99c0,0.54-0.44,0.98-0.99,0.99
		H25.8c-0.54,0-0.98-0.44-0.99-0.99v-3.94c0-0.54,0.44-0.98,0.99-0.99h7.88C34.23,22.75,34.67,23.19,34.67,23.73z"/>
	<rect id="Rectangle_64" x="22.85" y="15.85" width="1.97" height="1.97"/>
	<rect id="Rectangle_65" x="26.79" y="15.85" width="1.97" height="1.97"/>
	<rect id="Rectangle_66" x="30.73" y="15.85" width="1.97" height="1.97"/>
</g>
</svg>
