<?xml version="1.0" encoding="utf-8"?>
<!-- Generator: Adobe Illustrator 23.0.3, SVG Export Plug-In . SVG Version: 6.00 Build 0)  -->
<svg version="1.1" id="Layer_1" xmlns="http://www.w3.org/2000/svg" xmlns:xlink="http://www.w3.org/1999/xlink" x="0px" y="0px"
	 viewBox="0 0 75.07 55.11" style="enable-background:new 0 0 75.07 55.11;" xml:space="preserve">
<g id="Group_323" transform="translate(-1444 -1156.214)">
	<g id="Group_280" transform="translate(1444 1156.214)">
		<g id="Group_267" transform="translate(57.581 23.514)">
			<g id="Group_266">
				<path id="Path_483" d="M8.65,1.29C6.1,0.01,1.31,0,1.1,0C0.5,0,0,0.49,0,1.1c0,0.61,0.49,1.1,1.1,1.1
					c1.24,0,4.82,0.19,6.56,1.06c0.55,0.25,1.21,0.01,1.46-0.54C9.37,2.19,9.16,1.57,8.65,1.29L8.65,1.29z"/>
			</g>
		</g>
		<g id="Group_269" transform="translate(0 0)">
			<g id="Group_268">
				<path id="Path_484" d="M71.71,40.46l-4.54-1.3c-0.2-0.06-0.33-0.24-0.33-0.44V37.2c0.37-0.26,0.72-0.55,1.05-0.86
					c1.59-1.53,2.48-3.65,2.48-5.85V28.4l0.44-0.88c0.48-0.97,0.74-2.04,0.74-3.12v-5.67c0-0.61-0.49-1.1-1.1-1.1H59.86
					c-3.85,0-6.97,3.13-6.98,6.98v0.07c0,0.9,0.21,1.79,0.61,2.6l0.56,1.13v1.8c0,2.74,1.31,5.32,3.53,6.94v1.59
					c0,0.25,0,0.35-0.91,0.61l-2.22,0.63l-6.41-2.33c0.02-0.31-0.09-0.62-0.3-0.84l-2.05-2.16v-3.61c0.22-0.18,0.43-0.36,0.64-0.56
					c2.59-2.43,4.06-5.83,4.06-9.38V18.2c0.78-1.68,1.18-3.5,1.18-5.35V1.1c0-0.61-0.49-1.1-1.1-1.1H34.02
					c-5.8,0.01-10.49,4.71-10.5,10.5v2.35c0,1.85,0.4,3.67,1.18,5.35v2.48c-0.01,3.94,1.7,7.69,4.7,10.25v3.7l-2.05,2.15
					c-0.21,0.23-0.32,0.53-0.3,0.84l-6.76,2.46c-0.48,0.18-0.94,0.42-1.36,0.71l-1.06-0.53c1.74-0.64,3.22-1.84,4.21-3.41
					c0.15-0.31,0.15-0.67,0-0.98c-0.79-1.58-0.89-4.49-0.97-6.83c-0.03-0.78-0.05-1.51-0.1-2.17c-0.38-5.27-4.38-9.25-9.33-9.25
					s-8.95,3.98-9.33,9.25c-0.05,0.65-0.07,1.39-0.1,2.17c-0.08,2.33-0.17,5.24-0.97,6.83c-0.15,0.31-0.15,0.67,0,0.98
					c0.99,1.57,2.47,2.77,4.22,3.41l-2.94,1.48C0.99,42.52-0.01,44.13,0,45.88V54c0,0.61,0.49,1.1,1.1,1.1s1.1-0.49,1.1-1.1v-8.12
					c0-0.92,0.52-1.76,1.34-2.17l3.67-1.84l1.28,1.21c1.79,1.7,4.59,1.7,6.37,0l1.28-1.21l1.2,0.6c-0.58,0.92-0.88,1.98-0.88,3.07
					v8.46c0,0.61,0.49,1.1,1.1,1.1s1.1-0.49,1.1-1.1v-8.46c0-1.51,0.95-2.87,2.37-3.39l7.13-2.59l2.97,4.45
					c0.38,0.57,0.99,0.93,1.67,1c0.08,0.01,0.15,0.01,0.23,0.01c0.6,0,1.18-0.24,1.61-0.67l1.81-1.81v11.45c0,0.61,0.49,1.1,1.1,1.1
					c0.61,0,1.1-0.49,1.1-1.1V42.55l1.81,1.81c0.43,0.43,1,0.67,1.61,0.67c0.08,0,0.15,0,0.23-0.01c0.68-0.07,1.29-0.43,1.67-1
					l2.97-4.45l7.13,2.59c1.42,0.52,2.37,1.87,2.37,3.39v8.46c0,0.61,0.49,1.1,1.1,1.1c0.61,0,1.1-0.49,1.1-1.1v-8.46
					c0-1.5-0.59-2.94-1.63-4.02l0.27-0.08c0.35-0.09,0.69-0.22,1.02-0.37l2.81,2.81v10.13c0,0.61,0.49,1.1,1.1,1.1
					c0.61,0,1.1-0.49,1.1-1.1V43.88l2.79-2.79c0.15,0.08,0.31,0.14,0.47,0.19l4.54,1.3c1.04,0.3,1.76,1.25,1.76,2.33v9.1
					c0,0.61,0.49,1.1,1.1,1.1c0.61,0,1.1-0.49,1.1-1.1v-9.1C75.07,42.85,73.69,41.03,71.71,40.46z M7.05,38.52
					c-1.36-0.42-2.58-1.21-3.53-2.27c0.31-0.85,0.52-1.73,0.63-2.63c0.6,1.45,1.61,2.69,2.9,3.58L7.05,38.52z M13.35,41.49
					c-0.94,0.89-2.41,0.89-3.35,0l-1.02-0.97c0.18-0.33,0.27-0.7,0.27-1.07v-1.17c1.58,0.49,3.27,0.49,4.85,0v1.17
					c0,0.37,0.09,0.74,0.27,1.07L13.35,41.49z M11.68,36.45c-3.29,0-5.95-2.67-5.95-5.96c0-0.6-0.48-1.1-1.09-1.1
					c-0.06,0-0.13,0.01-0.19,0.02c0-0.1,0.01-0.19,0.01-0.28c0.02-0.76,0.05-1.47,0.09-2.08c0.11-1.92,0.9-3.73,2.22-5.13
					c2.62-2.71,6.95-2.78,9.66-0.16c0.05,0.05,0.11,0.11,0.16,0.16c1.32,1.39,2.11,3.21,2.22,5.13c0.04,0.61,0.07,1.33,0.09,2.08
					l0.01,0.2c-1.29-1.92-3.21-3.32-5.43-3.97c-1.35-0.44-2.76-0.66-4.18-0.67c-0.29,0.01-0.56,0.13-0.76,0.34l-1.99,2.06
					c-0.44,0.42-0.45,1.12-0.02,1.56c0.42,0.44,1.12,0.45,1.56,0.02c0.02-0.02,0.03-0.03,0.05-0.05l1.65-1.71
					c1.42,0.07,6,0.6,7.77,4.52C17.11,34.32,14.61,36.45,11.68,36.45L11.68,36.45z M16.31,38.52v-1.31c1.29-0.89,2.3-2.13,2.9-3.58
					c0.11,0.9,0.32,1.78,0.63,2.63C18.88,37.31,17.66,38.1,16.31,38.52L16.31,38.52z M26.89,20.68v-2.73c0-0.17-0.04-0.33-0.11-0.48
					c-0.7-1.44-1.07-3.02-1.07-4.62V10.5c0-4.59,3.72-8.3,8.31-8.31h15.36v10.66c0,1.6-0.36,3.18-1.07,4.62
					c-0.07,0.15-0.11,0.31-0.11,0.48v3.13c0.01,2.95-1.21,5.77-3.37,7.78c-0.27,0.25-0.55,0.49-0.84,0.71l-0.02,0.01
					c-2.04,1.55-4.58,2.31-7.14,2.13C31.14,31.23,26.79,26.41,26.89,20.68z M33.08,42.81c-0.02,0.02-0.04,0.03-0.06,0.02
					c-0.02,0-0.04-0.01-0.06-0.03l-3.42-5.13l1.1-1.16l5.19,3.55L33.08,42.81z M37.55,38.57l-5.95-4.07v-2.05
					c1.57,0.85,3.31,1.36,5.1,1.47c0.29,0.02,0.58,0.03,0.87,0.03c2.07,0,4.11-0.5,5.94-1.46v2.01L37.55,38.57z M42.13,42.8
					c-0.01,0.02-0.03,0.03-0.06,0.03c-0.02,0-0.05,0-0.06-0.02l-2.75-2.75l5.19-3.55l1.1,1.16L42.13,42.8z M62.21,41.87l-2.5-2.5
					c0.05-0.21,0.07-0.43,0.07-0.65v-0.46c0.7,0.23,1.44,0.36,2.18,0.39c0.08,0,0.17,0,0.25,0c0.82,0,1.64-0.12,2.42-0.37v0.44
					c0,0.22,0.03,0.43,0.08,0.64L62.21,41.87z M66.35,34.77c-1.15,1.13-2.72,1.73-4.33,1.68c-3.28-0.2-5.83-2.96-5.77-6.25v-2.06
					c0-0.17-0.04-0.34-0.12-0.49l-0.68-1.36c-0.25-0.5-0.38-1.05-0.38-1.61v-0.07c0-2.64,2.14-4.78,4.78-4.78h9.48v4.57
					c0,0.74-0.17,1.47-0.5,2.14l-0.56,1.11c-0.08,0.15-0.12,0.32-0.12,0.49v2.35C68.17,32.1,67.52,33.65,66.35,34.77L66.35,34.77z"
					/>
			</g>
		</g>
		<g id="Group_271" transform="translate(68.162 45.852)">
			<g id="Group_270">
				<path id="Path_485" d="M1.1,0C0.49,0,0,0.49,0,1.1l0,0v7.05c0,0.61,0.49,1.1,1.1,1.1s1.1-0.49,1.1-1.1V1.1
					C2.2,0.49,1.71,0,1.1,0L1.1,0z"/>
			</g>
		</g>
		<g id="Group_273" transform="translate(4.703 47.305)">
			<g id="Group_272">
				<path id="Path_486" d="M1.1,0C0.49,0,0,0.49,0,1.1l0,0v5.6c0,0.61,0.49,1.1,1.1,1.1c0.61,0,1.1-0.49,1.1-1.1V1.1
					C2.2,0.49,1.71,0,1.1,0C1.1,0,1.1,0,1.1,0z"/>
			</g>
		</g>
		<g id="Group_275" transform="translate(28.216 9.989)">
			<g id="Group_274">
				<path id="Path_487" d="M18.34,3.26C14.18-0.89,5.48-0.1,1.93,0.44C0.82,0.6,0,1.56,0,2.68v2.53c0,0.61,0.49,1.1,1.1,1.1
					c0.61,0,1.1-0.49,1.1-1.1c0,0,0,0,0,0V2.68c0-0.04,0.02-0.07,0.06-0.07C4.62,2.25,7.02,2.13,9.4,2.26
					c3.43,0.23,5.91,1.09,7.38,2.56c0.44,0.42,1.14,0.4,1.55-0.04C18.74,4.35,18.74,3.69,18.34,3.26L18.34,3.26z"/>
			</g>
		</g>
		<g id="Group_277" transform="translate(23.514 48.203)">
			<g id="Group_276">
				<path id="Path_488" d="M1.1,0C0.49,0,0,0.49,0,1.1l0,0v4.7c0,0.61,0.49,1.1,1.1,1.1c0.61,0,1.1-0.49,1.1-1.1V1.1
					C2.2,0.49,1.71,0,1.1,0z"/>
			</g>
		</g>
		<g id="Group_279" transform="translate(49.379 48.203)">
			<g id="Group_278">
				<path id="Path_489" d="M1.1,0C0.49,0,0,0.49,0,1.1l0,0v4.7c0,0.61,0.49,1.1,1.1,1.1s1.1-0.49,1.1-1.1V1.1C2.2,0.49,1.71,0,1.1,0
					L1.1,0z"/>
			</g>
		</g>
	</g>
</g>
</svg>
