<svg width="48" height="48" viewBox="0 0 48 48" fill="none" xmlns="http://www.w3.org/2000/svg">
<g clip-path="url(#clip0)">
<path d="M46.1791 19.4731C45.5216 18.8156 45.2687 17.804 45.5216 16.8936C46.432 13.4542 44.4089 9.96417 40.9694 9.00316C40.059 8.75026 39.3509 8.04215 39.098 7.08114C38.1876 3.64173 34.647 1.61855 31.2076 2.52898C30.2972 2.78188 29.3361 2.52898 28.628 1.82086C26.2002 -0.606955 21.9515 -0.606955 19.5237 1.82086C18.8662 2.4784 17.8546 2.7313 16.9442 2.4784C13.5047 1.56797 9.96417 3.59115 9.05374 7.03056C8.80084 7.94099 8.09273 8.6491 7.13172 8.902C3.69231 9.86301 1.66913 13.4036 2.57956 16.843C2.83246 17.7534 2.57956 18.7144 1.87144 19.4226C0.657534 20.6365 0 22.255 0 23.9747C0 25.6944 0.657534 27.313 1.87144 28.5269C2.52898 29.1844 2.78188 30.196 2.52898 31.1064C2.07376 32.7756 2.32666 34.4953 3.18651 35.9621C4.04636 37.4289 5.41201 38.491 7.08114 38.9463C7.99157 39.1992 8.69969 39.9073 8.95258 40.8683C9.4078 42.5374 10.47 43.9031 11.9368 44.7629C13.4036 45.6228 15.1739 45.8757 16.7924 45.4204C17.7028 45.1675 18.7144 45.4204 19.372 46.1286C20.6365 47.393 22.255 48 23.9241 48C25.5933 48 27.2118 47.393 28.4763 46.1286C29.1338 45.471 30.1454 45.2181 31.0559 45.471C32.725 45.9262 34.4447 45.6733 35.9115 44.8135C37.3783 43.9536 38.4405 42.588 38.8957 40.9189C39.1486 40.0084 39.8567 39.3003 40.8177 39.0474C42.4868 38.5922 43.8525 37.53 44.7123 36.0632C45.5722 34.5964 45.7745 32.8261 45.3699 31.2076C45.117 30.2972 45.3699 29.2856 46.078 28.628C48.6575 26.0485 48.6575 22.0021 46.1791 19.4731ZM43.4984 25.8967C41.8799 27.5659 41.2223 29.9431 41.8293 32.118C42.0316 32.8261 41.9305 33.5342 41.5764 34.1412C41.2223 34.7482 40.666 35.2034 39.9579 35.4057C37.7324 36.0126 36.0126 37.7323 35.4057 39.9578C35.2034 40.666 34.7987 41.2223 34.1918 41.5764C33.5848 41.9305 32.8767 42.0316 32.1686 41.8293C29.9431 41.2223 27.5659 41.8799 25.9473 43.4984C24.9357 44.51 23.216 44.51 22.1538 43.4984C20.9399 42.2845 19.2708 41.627 17.6017 41.627C17.0453 41.627 16.4889 41.6776 15.9326 41.8293C15.2244 42.0316 14.5163 41.9305 13.9094 41.5764C13.3024 41.2223 12.8472 40.666 12.6449 39.9578C12.0379 37.7323 10.3182 36.0126 8.09273 35.4057C7.38462 35.2034 6.82824 34.7987 6.47418 34.1918C6.12013 33.5848 6.01897 32.8767 6.22129 32.1686C6.82824 29.9431 6.17071 27.5659 4.55216 25.9473C4.04636 25.4415 3.79347 24.784 3.79347 24.0759C3.79347 23.3678 4.04636 22.7102 4.60274 22.1538C6.22129 20.5353 6.87882 18.1581 6.27187 15.9326C5.91781 14.5163 6.72708 13.0495 8.19389 12.6955C10.4194 12.0885 12.1391 10.3688 12.746 8.14331C13.1507 6.72708 14.5669 5.86723 16.0337 6.27186C18.2592 6.87882 20.6365 6.22129 22.255 4.60274C23.2666 3.59115 24.9863 3.59115 26.0485 4.60274C27.667 6.22129 30.0443 6.87882 32.2698 6.27186C33.686 5.91781 35.1528 6.72708 35.5069 8.19389C36.1138 10.4194 37.8335 12.1391 40.059 12.746C41.4752 13.1507 42.3351 14.5669 41.9305 16.0337C41.3235 18.2592 41.981 20.6365 43.5996 22.255C44.5606 23.1654 44.5606 24.8851 43.4984 25.8967Z" fill="#00B074"/>
<path d="M23.044 36.5455L23.0639 34.2386C20.956 34.0597 19.2822 33.4134 18.0426 32.2997C16.8097 31.1795 16.1667 29.6151 16.1136 27.6065H20.2798C20.3395 28.4351 20.6212 29.098 21.125 29.5952C21.6354 30.0923 22.295 30.4171 23.1037 30.5696L23.1534 25.3097L22.1989 25.071C20.482 24.66 19.1264 24.0071 18.1321 23.1122C17.1378 22.2173 16.6439 21.0208 16.6506 19.5227C16.6439 18.3958 16.9223 17.3949 17.4858 16.5199C18.0492 15.6449 18.8281 14.9389 19.8224 14.402C20.8168 13.8651 21.9635 13.5336 23.2628 13.4077L23.2827 11.0909H25.6293L25.6094 13.4276C27.5251 13.633 29.053 14.286 30.1932 15.3864C31.3333 16.4801 31.9167 17.849 31.9432 19.4929H27.8168C27.6908 18.2135 26.9418 17.4115 25.5696 17.0866L25.5298 22.0582L26.1165 22.1974C27.2964 22.4626 28.3438 22.8471 29.2585 23.3509C30.1799 23.8546 30.9025 24.5043 31.4261 25.2997C31.9564 26.0885 32.2216 27.0497 32.2216 28.1832C32.215 29.9067 31.6151 31.3087 30.4219 32.3892C29.2353 33.4631 27.5649 34.0829 25.4105 34.2486L25.3906 36.5455H23.044ZM25.4503 30.5696C26.1993 30.4171 26.7893 30.1321 27.2202 29.7145C27.651 29.2902 27.8698 28.7765 27.8764 28.1733C27.8698 27.6098 27.661 27.1558 27.25 26.8111C26.8456 26.4598 26.259 26.1648 25.4901 25.9261L25.4503 30.5696ZM23.1832 21.4517L23.223 17.0568C22.527 17.2027 21.9934 17.4711 21.6222 17.8622C21.2509 18.2467 21.0653 18.7041 21.0653 19.2344C21.0521 19.8045 21.2476 20.2652 21.652 20.6165C22.0563 20.9612 22.5668 21.2396 23.1832 21.4517Z" fill="#00B074"/>
</g>
<defs>
<clipPath id="clip0">
<rect width="48" height="48" fill="white"/>
</clipPath>
</defs>
</svg>
