<svg width="36" height="48" viewBox="0 0 36 48" fill="none" xmlns="http://www.w3.org/2000/svg">
<path d="M31.8772 24.5053L35.3297 22.5539C35.6299 22.4038 35.73 21.9534 35.5299 21.6532L33.1781 18.4509C33.028 18.2508 33.028 17.9505 33.1781 17.7504L35.4798 14.498C35.68 14.1978 35.5799 13.7975 35.2797 13.6474L31.7771 11.7961C31.527 11.696 31.4269 11.4458 31.4769 11.1456L32.1274 7.24276C32.1774 6.89251 31.9272 6.54225 31.577 6.54225L27.6241 6.39214C27.3739 6.39214 27.1238 6.192 27.0737 5.94182L25.9729 2.13905C25.8728 1.7888 25.4726 1.58865 25.1723 1.73876L21.5197 3.28989C21.2695 3.38996 21.0193 3.33993 20.8192 3.13978L18.1672 0.187636C17.9171 -0.0625454 17.5168 -0.0625454 17.2666 0.187636L14.6647 3.18982C14.5146 3.38996 14.2144 3.44 13.9642 3.33993L10.3115 1.83884C9.96129 1.68873 9.61103 1.88887 9.51096 2.23913L8.4602 6.09192C8.41016 6.34211 8.15998 6.49222 7.9098 6.54225L3.95693 6.79243C3.60667 6.79243 3.35649 7.14269 3.40653 7.49294L4.10704 11.3958C4.15707 11.646 4.057 11.8961 3.80682 12.0463L0.304273 13.8976C0.00405463 14.0477 -0.0960178 14.498 0.104128 14.7983L2.45583 18.0006C2.60594 18.2007 2.60594 18.5009 2.45583 18.7011L0.154164 21.9534C-0.0459818 22.2537 0.0540912 22.654 0.354309 22.8041L3.85685 24.6554C4.10703 24.7555 4.20711 25.0057 4.15707 25.3059L3.5066 29.2087C3.45656 29.559 3.70674 29.9092 4.057 29.9092L8.00987 30.0593C8.26005 30.0593 8.51023 30.2595 8.56027 30.5097L9.66107 34.3124C9.76114 34.6627 10.1614 34.8628 10.4616 34.7127L14.1143 33.1616C14.3645 33.0615 14.6147 33.1115 14.8148 33.3117L17.4667 36.2638C17.7169 36.514 18.1172 36.514 18.3674 36.2638L20.9693 33.2617C21.1194 33.0615 21.4196 33.0115 21.6698 33.1115L25.3224 34.6126C25.6727 34.7627 26.023 34.5626 26.123 34.2124L27.1738 30.3596C27.2238 30.1094 27.474 29.9593 27.7242 29.9092L31.6771 29.659C32.0273 29.659 32.2775 29.3088 32.2275 28.9585L31.527 25.0557C31.527 24.8556 31.627 24.6054 31.8772 24.5053ZM17.817 29.0086C11.8627 29.0086 7.05918 24.155 7.05918 18.2508C7.05918 12.2964 11.9127 7.49294 17.817 7.49294C23.7713 7.49294 28.5748 12.3465 28.5748 18.2508C28.5748 24.2051 23.7713 29.0086 17.817 29.0086ZM22.8707 47.6721L19.7184 37.915C19.7684 37.865 19.8685 37.815 19.9185 37.7649L21.8699 35.9636L24.4218 36.7142C24.722 36.8142 25.0222 36.8643 25.3224 36.8643C26.1731 36.8643 26.9736 36.514 27.524 35.9636L30.5262 45.2203C30.6263 45.5706 30.3261 45.8708 29.9758 45.7707L26.4232 44.72C26.2731 44.6699 26.073 44.72 25.9729 44.8701L23.6712 47.8222C23.4211 48.1225 22.9707 48.0224 22.8707 47.6721ZM5.10776 45.2203L8.10994 35.9636C8.66034 36.5641 9.46092 36.8643 10.3115 36.8643C10.6118 36.8643 10.912 36.8142 11.2122 36.7142L13.764 35.9636L15.7155 37.7649C15.7655 37.815 15.8656 37.865 15.9156 37.915L12.7633 47.6721C12.6632 48.0224 12.2129 48.0724 12.0128 47.8222L9.7111 44.8701C9.61103 44.72 9.41089 44.6699 9.26078 44.72L5.7082 45.7707C5.30791 45.8708 5.00769 45.5706 5.10776 45.2203ZM24.672 17.0499L21.5697 19.6518L22.5204 23.6046C22.7206 24.3552 21.8699 24.9556 21.2195 24.5553L17.817 22.4038L14.3645 24.5553C13.714 24.9556 12.9134 24.3552 13.0635 23.6046L14.0142 19.6518L10.912 17.0499C10.3115 16.5495 10.6618 15.5988 11.4123 15.5488L15.4653 15.2486L17.0164 11.4959C17.3166 10.7953 18.3174 10.7953 18.6176 11.4959L20.1687 15.2486L24.2216 15.5488C24.9722 15.5988 25.2724 16.5495 24.672 17.0499Z" fill="#00B074"/>
</svg>
