<svg width="105" height="34" viewBox="0 0 105 34" fill="none" xmlns="http://www.w3.org/2000/svg">
<path d="M25.5502 8.79694C27.3737 10.6186 27.3737 13.2812 27.1633 14.6825C26.8828 16.8545 25.9008 19.1667 24.3578 21.1986H17.4142L20.9211 24.7019C18.4663 26.5236 15.6608 27.5746 13.1359 27.5746C11.8033 27.5746 9.90955 27.2943 8.50681 25.893C6.68324 24.0012 6.68324 21.3387 6.89365 19.9374C7.24434 17.0647 8.85749 13.9818 11.3123 11.5996C14.1178 8.79694 17.7649 7.11535 20.9912 7.11535C21.4822 7.11535 23.8669 7.04529 25.5502 8.79694ZM27.8647 24.7019L30.3195 27.1542C32.3535 24.4216 33.5458 21.0585 33.5458 17.415C33.5458 14.8927 32.9847 12.4404 31.9326 10.3384C31.9326 10.3384 31.9326 10.3384 31.8625 10.2683C31.8625 10.2683 31.7924 10.2683 31.7924 10.3384C32.9146 14.7525 31.5118 20.1476 27.8647 24.7019ZM2.05418 24.1414C2.05418 24.2114 2.12432 24.2114 2.12432 24.1414L2.19446 24.0713C1.07226 19.0266 3.0361 12.7907 7.80544 8.02621C11.663 4.17258 16.5726 2.14067 20.9211 2.14067C21.903 2.14067 22.8849 2.2808 23.7967 2.491C23.8669 2.491 23.8669 2.491 23.8669 2.42094C23.8669 2.42094 23.8669 2.35087 23.7967 2.35087C21.8329 1.44001 19.5184 0.879486 17.0636 0.879486C7.94571 0.879486 0.581299 8.23641 0.581299 17.345C0.581299 19.7973 1.1424 22.1095 2.05418 24.1414ZM17.0636 33.8105C20.7107 33.8105 24.0773 32.6194 26.8828 30.5874L24.428 28.1351C20.9211 30.9378 16.8531 32.4092 13.1359 32.4092C12.0838 32.4092 11.0317 32.269 10.0498 32.0588C10.0498 32.0588 9.97969 32.0588 9.97969 32.1289C9.97969 32.1289 9.97969 32.199 10.0498 32.199C12.0838 33.2499 14.5386 33.8105 17.0636 33.8105ZM62.6528 8.51667H64.827V17.9055H62.6528V16.4341C62.0215 17.345 61.1799 18.1157 59.707 18.1157C57.6029 18.1157 56.3404 16.7144 56.3404 14.4723V8.51667H58.5147V13.8417C58.5147 15.3131 59.216 16.1539 60.5486 16.1539C61.8111 16.1539 62.6528 15.3131 62.6528 13.8417V8.51667ZM87.6216 14.9627V10.3384H90.7077L88.8841 8.51667H87.6918V5.92423H85.4474V15.3131C85.4474 17.345 86.5696 18.0456 88.1827 18.0456C88.9542 18.0456 89.5855 17.8354 90.1466 17.5552V15.8035C89.7257 16.0137 89.3049 16.1539 88.814 16.1539C88.0424 16.1539 87.6216 15.8035 87.6216 14.9627ZM53.1141 15.5233C53.8856 14.4022 54.3766 13.071 54.3766 11.6696C54.3766 8.16634 51.7113 5.22357 47.8538 5.22357C43.9963 5.22357 41.331 8.16634 41.331 11.6696C41.331 15.1729 43.9963 18.1157 47.8538 18.1157C49.3267 18.1157 50.5892 17.6953 51.6412 16.9246L52.7634 17.9055H55.9897L53.1141 15.5233ZM51.4308 14.0519H48.2746L50.0281 15.5233C49.467 15.8736 48.6954 16.1539 47.8538 16.1539C45.399 16.1539 43.5754 14.1219 43.5754 11.6696C43.5754 9.21733 45.3289 7.25549 47.7837 7.25549C50.2385 7.25549 52.062 9.2874 52.062 11.7397C52.1322 12.5805 51.9218 13.4213 51.4308 14.0519ZM81.0287 12.3703C79.9065 12.02 78.9246 11.7397 78.9246 11.039V10.969C78.9246 10.4085 79.4156 10.0581 80.2572 10.0581C80.8884 10.0581 81.7301 10.2683 82.5016 10.6887L83.7641 9.42753C82.7822 8.79694 81.4495 8.37654 80.3273 8.37654C78.4336 8.37654 76.9608 9.49759 76.9608 11.2492C76.9608 13.071 78.5038 13.6315 79.9065 13.9818C81.0287 14.3321 82.0106 14.5423 82.0106 15.3131V15.3831C82.0106 16.0137 81.4495 16.4341 80.5378 16.4341C79.6961 16.4341 78.6441 16.0838 77.7323 15.4532L76.4698 16.7144C77.6621 17.6252 79.135 18.1157 80.4676 18.1157C82.4315 18.1157 83.9745 17.1348 83.9745 15.1729C83.9745 13.4213 82.4315 12.7907 81.0287 12.3703ZM75.4879 13.4213C75.4879 10.6887 73.9449 8.37654 70.9991 8.37654C68.3339 8.37654 66.37 10.6186 66.37 13.2812C66.37 16.2239 68.4742 18.1858 71.2095 18.1858C72.8928 18.1858 74.0851 17.5552 74.9969 16.5042L73.8046 15.3131C73.0331 16.0137 72.3317 16.4341 71.2796 16.4341C69.8769 16.4341 68.8248 15.5933 68.5443 14.0519H75.4879C75.4879 13.7716 75.4879 13.6315 75.4879 13.4213ZM70.929 10.1282C72.3317 10.1282 73.1032 11.1792 73.3136 12.5104H68.5443C68.7547 11.039 69.6665 10.1282 70.929 10.1282ZM51.2905 23.2305H51.7815V28.7657H51.2204V23.2305H51.2905ZM51.2204 21.8292H51.9218V21.1986H51.2204V21.8292ZM49.5371 24.9822C49.5371 22.8101 47.8538 21.1285 45.4691 21.1285H42.9442V28.7657H45.4691C47.9239 28.8358 49.5371 27.1542 49.5371 24.9822ZM48.976 24.9822C48.976 26.8039 47.6434 28.2753 45.4691 28.2753H43.5053V21.6891H45.4691C47.6434 21.6891 48.976 23.1604 48.976 24.9822ZM58.164 28.8358V25.3325C58.164 23.8611 57.2522 23.1604 55.8494 23.1604C55.0779 23.1604 54.5168 23.3706 53.8856 23.6509L54.096 24.1414C54.587 23.8611 55.1481 23.721 55.8494 23.721C56.9716 23.721 57.673 24.2815 57.673 25.4026V25.6128C57.1119 25.4726 56.621 25.4026 55.8494 25.4026C54.3766 25.4026 53.3946 26.0332 53.3946 27.2243C53.3946 28.4154 54.5168 28.9759 55.5689 28.9759C56.621 28.9759 57.3223 28.4855 57.673 27.9249V28.8358H58.164ZM57.673 26.7338C57.673 27.7147 56.6911 28.4154 55.5689 28.4154C54.7273 28.4154 53.9557 27.9249 53.9557 27.1542C53.9557 26.3835 54.587 25.823 55.7793 25.823C56.5508 25.823 57.1821 25.9631 57.673 26.1032V26.7338ZM65.318 23.2305V27.9249C65.318 29.6065 64.1958 30.5874 62.5826 30.5874C61.6708 30.5874 60.7591 30.3072 60.0577 29.7466L60.4785 29.3263C61.1097 29.8167 61.8813 30.0269 62.6528 30.0269C63.9152 30.0269 64.827 29.3263 64.827 27.8549V27.0141C64.3361 27.7147 63.6347 28.2753 62.5125 28.2753C61.1799 28.2753 59.8473 27.2243 59.8473 25.6828C59.8473 24.0713 61.1799 23.0203 62.5125 23.0203C63.6347 23.0203 64.4062 23.5808 64.827 24.2815V23.1604H65.318V23.2305ZM64.827 25.7529C64.827 24.4917 63.7048 23.6509 62.5125 23.6509C61.3202 23.6509 60.3382 24.4917 60.3382 25.7529C60.3382 27.0141 61.3202 27.8549 62.5125 27.8549C63.6347 27.8549 64.827 27.0141 64.827 25.7529ZM71.981 28.8358V25.4026C71.981 24.0713 71.1394 23.0904 69.7366 23.0904C68.7547 23.0904 68.1235 23.5808 67.7026 24.2815V23.2305H67.2117V28.7657H67.7728V25.5427C67.7728 24.3516 68.6144 23.5808 69.7366 23.5808C70.8588 23.5808 71.4901 24.3516 71.4901 25.4726V28.7657H71.981V28.8358ZM78.9947 26.0332C78.9947 24.4216 77.8024 23.0904 76.1191 23.0904C74.4358 23.0904 73.2435 24.4216 73.2435 26.0332C73.2435 27.5746 74.4358 28.9059 76.1191 28.9059C77.8024 28.9059 78.9947 27.5746 78.9947 26.0332ZM78.4336 26.0332C78.4336 27.3644 77.4517 28.4154 76.1892 28.4154C74.9268 28.4154 73.8747 27.3644 73.8747 26.0332C73.8747 24.7019 74.8566 23.6509 76.1191 23.6509C77.3816 23.5808 78.4336 24.7019 78.4336 26.0332ZM82.2211 25.6828C81.4495 25.4726 80.678 25.1924 80.678 24.6318C80.678 24.0713 81.169 23.6509 81.9405 23.6509C82.5016 23.6509 83.0627 23.8611 83.5537 24.1414L83.9044 23.791C83.3432 23.4407 82.5717 23.1604 81.9405 23.1604C80.8884 23.1604 80.1169 23.791 80.1169 24.7019C80.1169 25.6828 81.0989 25.9631 82.0106 26.2434C82.7822 26.4535 83.4835 26.7338 83.4835 27.3644C83.4835 27.995 82.9224 28.4154 82.1509 28.4154C81.4495 28.4154 80.8183 28.2052 80.1871 27.7147L79.8364 28.0651C80.3975 28.5555 81.3093 28.9059 82.1509 28.9059C83.203 28.9059 84.0446 28.2753 84.0446 27.2943C84.0446 26.3134 83.1328 25.9631 82.2211 25.6828ZM86.0085 27.2943V23.721H87.9723L87.4813 23.2305H86.0085V21.4789H85.4474V27.3644C85.4474 28.4154 86.1487 28.9059 86.9904 28.9059C87.3411 28.9059 87.6216 28.8358 87.9022 28.6957V28.2052C87.5515 28.3453 87.3411 28.4154 87.0605 28.4154C86.4994 28.4154 86.0085 28.1351 86.0085 27.2943ZM89.5855 28.8358H90.1466V23.3006H89.5855V28.8358ZM89.5153 21.8292H90.2167V21.1986H89.5153V21.8292ZM94.4951 28.4154C93.2326 28.4154 92.1805 27.3644 92.1805 26.0332C92.1805 24.7019 93.1625 23.6509 94.4249 23.6509C95.2666 23.6509 95.8277 24.0713 96.2485 24.5618L96.6693 24.1414C96.1784 23.5808 95.477 23.0904 94.4249 23.0904C92.8118 23.0904 91.5493 24.4216 91.5493 26.0332C91.5493 27.5746 92.8118 28.9059 94.4249 28.9059C95.4069 28.9059 96.1082 28.4855 96.6693 27.8549L96.3186 27.5045C95.8978 28.0651 95.2666 28.4154 94.4951 28.4154ZM100.106 25.6828C99.3345 25.4726 98.563 25.1924 98.563 24.6318C98.563 24.0713 99.054 23.6509 99.8255 23.6509C100.387 23.6509 100.948 23.8611 101.439 24.1414L101.859 23.791C101.298 23.4407 100.527 23.1604 99.8956 23.1604C98.8436 23.1604 98.0721 23.791 98.0721 24.7019C98.0721 25.6828 99.054 25.9631 99.9658 26.2434C100.737 26.4535 101.439 26.7338 101.439 27.3644C101.439 27.995 100.878 28.4154 100.106 28.4154C99.4047 28.4154 98.7734 28.2052 98.1422 27.7147L97.7915 28.0651C98.3526 28.5555 99.2644 28.9059 100.106 28.9059C101.158 28.9059 102 28.2753 102 27.2943C101.93 26.3134 101.018 25.9631 100.106 25.6828ZM102.631 22.8802H102.35V21.6891H101.93V21.4789H103.052V21.6891H102.631V22.8802ZM104.384 21.4789L103.964 22.4598L103.543 21.4789H103.192V22.9503H103.473V21.9693L103.893 22.9503H104.104L104.455 21.9693V22.9503H104.735V21.4789H104.384Z" fill="#93979B"/>
</svg>
