<svg width="111" height="53" viewBox="0 0 111 53" fill="none" xmlns="http://www.w3.org/2000/svg">
<g clip-path="url(#clip0)">
<path d="M1.34888 3.74414V6.73487H22.6215V3.74414H1.34888ZM25.6374 3.74414V6.73487H55.9547C55.9547 6.73487 52.858 3.74414 48.7569 3.74414H25.6374ZM61.9013 3.74414V6.73487H80.2404L79.1524 3.74414H61.9013ZM93.3918 3.74414L92.3037 6.73487H110.48V3.74414H93.3918ZM1.34888 9.56099V12.5517H22.6215V9.56099H1.34888ZM25.6374 9.56517V12.5503H59.4699C59.4699 12.5503 59.0752 10.2487 58.3861 9.56517H25.6374ZM61.9013 9.56517V12.5503H82.2672L81.2601 9.56517H61.9013ZM91.2143 9.56517L90.2072 12.5503H110.478V9.56517H91.2143ZM7.46285 15.3778V18.3727H16.6763V15.3778H7.46285ZM31.7513 15.3778V18.3727H40.9648V15.3778H31.7513ZM49.9272 15.3778V18.3727H59.1407C59.1407 18.3727 59.7266 16.7909 59.7266 15.3778H49.9272ZM68.0167 15.3778V18.3727H84.3373L83.2493 15.3778H68.0167ZM89.2098 15.3778L88.1162 18.3727H104.532V15.3778H89.2098ZM7.46424 21.1989V24.1896H16.6777V21.1989H7.46424ZM31.7527 21.1989V24.1896H55.2851C55.2851 24.1896 57.252 22.6552 57.8797 21.1989H31.7527ZM68.0167 21.1989V24.1896H77.2302V22.524L77.816 24.1896H94.6946L95.3224 22.524V24.1896H104.536V21.1989H87.2388L86.3209 23.7321L85.4002 21.1989H68.0167ZM7.46285 27.0157V30.0064H16.6763V27.0157H7.46285ZM31.7513 27.0157V30.0064H57.8783C57.2506 28.5557 55.2838 27.0157 55.2838 27.0157H31.7513ZM68.0153 27.0157V30.0064H77.2288V27.0157H68.0153ZM78.9027 27.0157L80.0186 30.0064H92.6734L93.7335 27.0157H78.9027ZM95.3182 27.0157V30.0064H104.532V27.0157H95.3182ZM7.46563 32.8326V35.8233H16.6791V32.8326H7.46563ZM31.7541 32.8326V35.8233H40.9676V32.8326H31.7541ZM49.93 32.8326V35.8233H59.728C59.728 34.4116 59.1421 32.8326 59.1421 32.8326H49.93ZM68.0194 32.8326V35.8233H77.2329V32.8326H68.0194ZM80.9978 32.8326L82.0775 35.8233H90.5587L91.6467 32.8326H80.9978ZM95.321 32.8326V35.8233H104.534V32.8326H95.321ZM1.51906 38.6494V41.6443H22.7917V38.6494H1.51906ZM25.6415 38.6494V41.6443H58.3916C59.0807 40.958 59.4755 38.6494 59.4755 38.6494H25.6415ZM62.0715 38.6494V41.6443H77.2274V38.6494H62.0715ZM83.093 38.6494L84.2034 41.6443H88.5193L89.5613 38.6494H83.093ZM95.321 38.6494V41.6443H110.648V38.6494H95.321ZM1.51906 44.4704V47.4612H22.7917V44.4704H1.51906ZM25.6415 44.4704V47.4556H48.7569C52.858 47.4556 55.9547 44.4704 55.9547 44.4704H25.6415ZM62.0715 44.4704V47.4612H77.2274V44.4704H62.0715ZM85.1994 44.4704L86.2665 47.4528L86.4506 47.457L87.5345 44.4718L85.1994 44.4704ZM95.3224 44.4704V47.4612H110.65V44.4704H95.3224Z" fill="#93979B"/>
</g>
<defs>
<clipPath id="clip0">
<rect width="110" height="51.413" fill="white" transform="translate(0.916748 0.638672)"/>
</clipPath>
</defs>
</svg>
