<?xml version="1.0" encoding="utf-8"?>
<!-- Generator: Adobe Illustrator 25.2.1, SVG Export Plug-In . SVG Version: 6.00 Build 0)  -->
<svg version="1.1" id="layer" xmlns="http://www.w3.org/2000/svg" xmlns:xlink="http://www.w3.org/1999/xlink" x="0px" y="0px"
	 viewBox="0 0 600 163" style="enable-background:new 0 0 600 163;" xml:space="preserve">
<style type="text/css">
	.st0{fill-rule:evenodd;clip-rule:evenodd;fill:#93979B;}
</style>
<g>
	<path class="st0" d="M424.4,104.1h-15.1l44.3-87h2.1h13h2.3l44.3,87H500l-11.6-22.9h-52.3L424.4,104.1z M482.8,70.5l-20.7-40.6
		l-20.7,40.6H482.8z M355.3,14.8l10.3-11.9h22.9L355.3,14.8z M325.8,104.3h77.8v-9.9h-64.4V64.3H387V54.1h-47.8V26.9h64v-9.7h-77.4
		V104.3z M220,17.1h12.1h45.2c15.3,0,27.8,11.4,27.8,25.3c0,12.1-9.5,22.3-22.1,24.7l26.9,37.1h-15.8l-26.5-36.5h-35.5v36.5H220
		V67.7V17.1z M278,27.5l0.8,0.1l0.8,0.1l0.8,0.2l0.8,0.2l0.7,0.3l0.7,0.3l0.7,0.3l0.7,0.4l0.7,0.4l0.6,0.4l0.6,0.5l0.6,0.5l0.5,0.5
		l0.5,0.5l0.5,0.6l0.5,0.6l0.4,0.6l0.4,0.6l0.4,0.6l0.3,0.6l0.3,0.6l0.3,0.6l0.2,0.6l0.2,0.6l0.2,0.6l0.1,0.7l0.1,0.7l0.1,0.7v0.7
		v0.7V43v0.7l-0.1,0.7l-0.1,0.7l-0.1,0.7l-0.2,0.7l-0.2,0.6l-0.2,0.6l-0.3,0.6l-0.3,0.6l-0.3,0.6l-0.4,0.6l-0.4,0.6l-0.4,0.6
		l-0.5,0.6l-0.5,0.6L287,53l-0.5,0.5l-0.6,0.5l-0.6,0.5l-0.6,0.4l-0.7,0.4l-0.7,0.4l-0.7,0.3l-0.7,0.3l-0.7,0.3l-0.8,0.2l-0.8,0.2
		l-0.8,0.2l-0.8,0.1l-0.8,0.1h-0.9h-43.5v-30h43.5h1L278,27.5z M145.6,12c-24.6,0-44.5,19.9-44.5,44.5S121,101,145.6,101
		s44.5-19.9,44.5-44.5S170.1,12,145.6,12 M145.6,2c-32.7,0-59.3,24.4-59.3,54.5s26.5,54.5,59.3,54.5s59.3-24.4,59.3-54.5
		C204.8,26.4,178.3,2,145.6,2 M-0.3,104.3V17.2h11.1v77.6h65.8v9.5H-0.3z M521.6,104.3h78.1v-9.9h-65.8V17.2h-12.2L521.6,104.3
		L521.6,104.3z M241.4,160.9h-6.6l19.5-33.9h0.9h5.7h1l19.5,33.9h-6.7l-5.1-8.9h-23L241.4,160.9z M267,147.8l-9.1-15.8l-9.1,15.8
		H267z M293.9,127h5.1h19c6.4,0,11.7,4.4,11.7,9.8c0,4.7-4,8.7-9.3,9.6l11.3,14.4h-6.6l-11.2-14.2h-13.7v14.3h-6.4v-14.2V127H293.9z
		 M318.2,131.1h0.3l0.3,0.1l0.3,0.1l0.3,0.1l0.3,0.1l0.3,0.1l0.3,0.1l0.3,0.1l0.3,0.2l0.3,0.2l0.2,0.2l0.2,0.2l0.2,0.2l0.2,0.2
		l0.2,0.2l0.2,0.2l0.2,0.2l0.2,0.2l0.2,0.2l0.1,0.2l0.1,0.2l0.1,0.2l0.1,0.2l0.1,0.3l0.1,0.3v0.3v0.3v0.3v0.3v0.3v0.3v0.3v0.3v0.3
		v0.3l-0.1,0.3l-0.1,0.3l-0.1,0.2l-0.1,0.2l-0.1,0.2l-0.1,0.2l-0.2,0.2l-0.2,0.2l-0.2,0.2l-0.2,0.2l-0.2,0.2l-0.2,0.2l-0.2,0.2
		l-0.2,0.2l-0.2,0.2l-0.3,0.2l-0.3,0.2l-0.3,0.1l-0.3,0.1l-0.3,0.1l-0.3,0.1l-0.3,0.1l-0.3,0.1l-0.3,0.1h-0.3h-0.3h-0.4h-17V131h17
		h0.4L318.2,131.1z M196.4,127h5.1h19c6.4,0,11.7,4.4,11.7,9.8c0,3.4-2.1,6.4-5.2,8.2c-2.1,1.2-4.3,1.5-6.7,1.6c-1.2,0-2.5,0-3.8,0
		h-13.7v14.3h-6.4v-14.2L196.4,127L196.4,127z M220.7,131.1h0.3l0.3,0.1l0.3,0.1l0.3,0.1l0.3,0.1l0.3,0.1l0.3,0.1l0.3,0.1l0.3,0.2
		l0.3,0.2l0.3,0.2l0.2,0.2l0.2,0.2l0.2,0.2l0.2,0.2l0.2,0.2l0.2,0.2l0.2,0.2l0.1,0.2l0.1,0.2l0.1,0.2l0.1,0.2l0.1,0.2l0.1,0.3
		l0.1,0.3l0.1,0.3v0.3v0.3v0.3v0.3v0.3v0.3v0.3v0.3l-0.1,0.3l-0.1,0.3l-0.1,0.3l-0.1,0.2l-0.1,0.2l-0.1,0.2l-0.1,0.2l-0.1,0.2
		l-0.2,0.2l-0.2,0.2l-0.2,0.2l-0.2,0.2l-0.2,0.2l-0.2,0.2l-0.2,0.2l-0.3,0.2l-0.3,0.2l-0.3,0.2l-0.3,0.1l-0.3,0.1l-0.3,0.1l-0.3,0.1
		l-0.3,0.1l-0.3,0.1l-0.3,0.1h-0.3h-0.3H220h-17V131h17h0.4L220.7,131.1z M368.1,150l5.8-0.4c0.3,1.7,0.9,3.1,1.9,4.2s2.6,2,4.7,2.6
		c2.1,0.7,4.5,1,7.2,1c2.4,0,4.5-0.2,6.3-0.8c1.8-0.5,3.2-1.2,4-2.1c0.9-0.9,1.3-1.8,1.3-2.9s-0.4-2-1.3-2.8c-0.8-0.8-2.3-1.5-4.2-2
		c-1.3-0.4-4-0.9-8.4-1.7c-4.3-0.7-7.3-1.4-9-2.1c-2.2-0.8-3.9-1.9-5-3.1c-1.1-1.3-1.6-2.7-1.6-4.2c0-1.7,0.7-3.3,2-4.8
		s3.3-2.6,5.9-3.4s5.5-1.1,8.6-1.1c3.5,0,6.5,0.4,9.2,1.2c2.7,0.8,4.7,2,6.1,3.6s2.2,3.4,2.3,5.3l-5.8,0.4c-0.3-2.1-1.4-3.8-3.3-4.9
		c-1.8-1.1-4.6-1.6-8.2-1.6c-3.8,0-6.5,0.5-8.2,1.5s-2.6,2.2-2.6,3.6c0,1.2,0.6,2.2,1.8,3c1.2,0.8,4.3,1.6,9.4,2.4
		c5,0.8,8.5,1.6,10.4,2.2c2.7,0.9,4.7,2.1,6.1,3.4c1.3,1.4,1.9,3,1.9,4.8s-0.7,3.5-2.1,5.1s-3.5,2.8-6.2,3.7c-2.7,0.9-5.7,1.3-9,1.3
		c-4.2,0-7.8-0.4-10.7-1.3c-2.9-0.9-5.1-2.2-6.8-4C369.1,154.3,368.2,152.3,368.1,150 M347.2,137h6.3v23.9h-6.3V137z M347.2,127h6.3
		v6.3h-6.3V127z M54,47.7h10.3l15.4-29.9H66.6L54,47.7z"/>
</g>
</svg>
