<svg width="102" height="81" viewBox="0 0 102 81" fill="none" xmlns="http://www.w3.org/2000/svg">
<path d="M73.7033 18.046C72.5979 16.5684 71.4237 15.4013 70.2946 14.6579C69.3893 14.0619 68.4624 13.6512 67.4678 13.4057C66.6309 13.1991 66.1433 13.1447 65.1273 13.1447C63.3127 13.1447 61.7998 13.4441 58.4304 14.4699C55.296 15.4241 54.1642 15.7134 52.6001 15.9598C51.5826 16.1201 49.5801 16.1201 48.6972 15.9598C47.2775 15.7021 46.1221 15.2001 45.086 14.391C43.4338 13.1008 42.4838 11.02 42.5873 8.91809C42.7475 5.66133 45.112 3.09832 48.7812 2.20397C50.5662 1.76889 52.2475 1.73127 54.6337 2.07302C57.8246 2.53003 60.7737 3.57332 63.5433 5.22495C67.8269 7.77949 71.2924 11.7208 73.2679 16.2849C73.7402 17.3762 74.1219 18.4407 74.0409 18.4407C74.0176 18.4407 73.8657 18.2631 73.7033 18.046Z" fill="#E2E3E4"/>
<path d="M38.0252 43.2461C37.5611 43.1965 36.7155 43.0137 36.2656 42.8659C34.037 42.1338 32.1201 40.4666 30.454 37.8111C29.9406 36.993 29.2171 35.5779 28.8878 34.7482C28.1028 32.77 27.5352 30.4793 27.2978 28.3319C27.177 27.2391 27.2196 23.1123 27.3517 23.1123C27.3715 23.1123 27.603 23.3816 27.8661 23.7107C28.5002 24.5035 30.1391 26.1326 30.871 26.6975C32.9725 28.3195 34.5783 29.1206 38.3307 30.419C40.832 31.2844 42.0374 31.8143 42.7913 32.3796C43.2676 32.7368 44.0026 33.5234 44.2881 33.9815C44.5852 34.4583 44.8834 35.1393 45.0286 35.6727C45.1835 36.242 45.2259 37.6677 45.1068 38.3014C44.9431 39.1721 44.5712 40.0324 44.055 40.7344C43.7329 41.1726 42.927 41.9487 42.5222 42.2107C41.8443 42.6495 40.9952 42.9834 40.1345 43.1497C39.7151 43.2308 38.4302 43.2895 38.0252 43.2461Z" fill="#BEC1C3"/>
<path d="M7.85729 78.74C7.08961 78.6241 6.36135 78.4008 5.74414 78.0919C4.70778 77.5732 3.7585 76.662 3.20996 75.6593C2.82222 74.9506 2.50938 73.7372 2.55676 73.1259C2.56057 73.0768 2.85777 73.0623 3.85916 73.0623H5.15663L5.18144 73.1768C5.48886 74.5967 5.97509 75.3837 6.8872 75.9378C7.41091 76.256 7.89602 76.3846 8.67454 76.4116C9.2608 76.432 9.42914 76.4194 9.79476 76.3281C10.4912 76.154 11.0258 75.8616 11.4743 75.4095C12.1015 74.7771 12.3382 74.2025 12.3382 73.3115C12.3382 72.4693 12.0606 71.8417 11.4432 71.288C10.9974 70.8882 10.4336 70.6413 8.4174 69.9628C7.42321 69.6283 6.39209 69.2588 6.12604 69.1418C4.29217 68.3353 3.27456 66.839 3.27456 64.9489C3.27456 62.5978 4.64507 60.6739 6.86437 59.9096C8.4011 59.3804 9.88133 59.4198 11.3442 60.0288C12.7504 60.6143 14.0559 62.0325 14.452 63.405C14.5677 63.8058 14.6778 64.4549 14.6447 64.5411C14.6229 64.598 14.3799 64.6083 13.3163 64.5972L12.0146 64.5836L11.9252 64.2197C11.7854 63.6508 11.5601 63.2589 11.1219 62.8226C10.4541 62.1576 9.67983 61.8678 8.72739 61.9262C7.38879 62.0082 6.35442 62.7464 6.01579 63.8614C5.92859 64.1485 5.91366 64.3005 5.93416 64.6925C5.96832 65.3456 6.17887 65.7858 6.67443 66.24C7.13202 66.6594 7.6063 66.8799 9.35941 67.488C12.5255 68.5861 13.2485 68.9655 14.0161 69.9316C14.6985 70.7904 15.0473 71.8053 15.0483 72.935C15.0496 74.5707 14.4023 76.0885 13.247 77.1582C11.8796 78.4243 9.80287 79.0338 7.85729 78.74ZM50.1676 78.6451C49.8326 78.5548 49.4913 78.3395 49.2885 78.0906C49.0566 77.806 46.8255 74.1467 42.1479 66.3792C41.4777 65.2662 40.9007 64.3553 40.8657 64.355C40.8151 64.3545 40.802 65.8027 40.802 71.4273C40.802 77.8298 40.7944 78.503 40.7215 78.531C40.6772 78.548 40.086 78.5619 39.4078 78.5619C38.5165 78.5619 38.1576 78.545 38.1135 78.5008C38.035 78.4223 38.0248 61.7515 38.1029 61.2736C38.2081 60.6306 38.607 60.0816 39.1566 59.8232C39.8761 59.4849 40.7579 59.6206 41.2844 60.1506C41.5293 60.3971 43.066 62.9052 48.6723 72.2088C49.2586 73.1818 49.767 73.9781 49.802 73.9784C49.8526 73.9789 49.8656 72.5367 49.8656 66.9362C49.8656 61.5265 49.8798 59.8794 49.9267 59.8325C49.971 59.7882 50.3341 59.7714 51.2405 59.7714C52.1468 59.7714 52.51 59.7882 52.5542 59.8325C52.6342 59.9125 52.6434 76.718 52.5636 77.1419C52.3526 78.263 51.2698 78.9423 50.1676 78.6451ZM65.7524 78.6791C62.1109 78.2851 59.0082 75.8889 57.7384 72.4897C56.3472 68.7659 57.4879 64.4158 60.5208 61.8784C62.7803 59.9882 65.7202 59.2451 68.6294 59.8289C72.5058 60.6069 75.4459 63.6638 76.092 67.588C76.7142 71.3676 75.1251 75.0248 71.9391 77.1456C70.7434 77.9415 69.2749 78.4716 67.7396 78.6614C67.3348 78.7114 66.1488 78.722 65.7524 78.6791ZM68.1456 76.0231C68.7661 75.8792 69.0156 75.7893 69.657 75.4787C71.807 74.4375 73.2382 72.3046 73.438 69.844C73.6144 67.6717 72.8931 65.5994 71.4554 64.1478C70.5211 63.2045 69.2774 62.5521 67.9048 62.2853C67.347 62.1769 66.0415 62.1638 65.4978 62.2611C64.5969 62.4223 63.6142 62.8342 62.8755 63.3602C59.7793 65.5646 58.9762 69.9874 61.0943 73.1693C62.1849 74.8077 63.8266 75.8257 65.8797 76.1368C66.261 76.1946 67.7224 76.1213 68.1456 76.0231ZM17.3527 78.5093C17.3211 78.4582 23.8979 61.0384 24.1169 60.5931C24.4373 59.9417 25.3351 59.5194 26.075 59.6721C26.5771 59.7757 26.9599 60.0111 27.2301 60.3824C27.4307 60.6582 34.1619 78.3586 34.1138 78.4839C34.088 78.5512 33.9036 78.5618 32.7711 78.5612C32.0491 78.5607 31.4274 78.5408 31.3897 78.5169C31.3519 78.4929 30.8934 77.3074 30.3708 75.8824L29.4206 73.2914L25.7741 73.2783C22.8954 73.268 22.1168 73.2789 22.0761 73.3293C22.0477 73.3645 21.6088 74.526 21.1006 75.9105C20.5925 77.295 20.1517 78.458 20.1211 78.4949C20.0502 78.5802 17.405 78.594 17.3527 78.5093ZM28.4796 70.7719C28.4796 70.6824 25.8284 63.465 25.7764 63.413C25.7427 63.3793 25.7109 63.3862 25.6817 63.4335C25.5686 63.6165 23.0267 70.6856 23.0511 70.7492C23.0747 70.8106 23.4914 70.8216 25.7793 70.8216C27.5017 70.8216 28.4796 70.8036 28.4796 70.7719ZM80.8874 78.5195C80.8359 78.4868 80.8258 76.7556 80.8365 69.8241L80.85 61.1696L81.0173 60.8296C81.2985 60.2584 81.7788 59.9189 82.441 59.8231C82.9731 59.7462 91.3789 59.7549 91.4565 59.8325C91.5431 59.9192 91.5431 62.1697 91.4565 62.2564C91.41 62.3029 90.4584 62.3175 87.4847 62.3175H83.5742V65.3474V68.3773H87.4847C90.4584 68.3773 91.41 68.392 91.4565 68.4384C91.5431 68.5251 91.5431 70.7757 91.4565 70.8624C91.41 70.9089 90.4584 70.9235 87.4847 70.9235H83.5742V74.6816C83.5742 77.5367 83.5595 78.4544 83.5131 78.5008C83.4424 78.5715 80.9968 78.5889 80.8874 78.5195ZM96.5178 78.5008C96.4289 78.4119 96.4289 59.9214 96.5178 59.8325C96.562 59.7883 96.9209 59.7714 97.8121 59.7714C98.4903 59.7714 99.0815 59.7853 99.1258 59.8023C99.1988 59.8303 99.2064 60.7027 99.2064 69.1667C99.2064 77.6306 99.1988 78.503 99.1258 78.531C99.0815 78.548 98.4903 78.5619 97.8121 78.5619C96.9209 78.5619 96.562 78.545 96.5178 78.5008ZM49.8911 49.9125C47.5615 49.7345 45.7465 49.395 43.886 48.7894C41.6806 48.0715 39.9236 47.2306 38.0309 45.9868C37.3313 45.5271 36.2755 44.7511 36.1609 44.6124C36.0769 44.5107 36.1116 44.5173 36.8632 44.7453C39.188 45.4505 42.4158 45.5395 45.1991 44.9751C48.0453 44.398 50.3099 43.1916 52.3102 41.1867C53.4622 40.032 54.3874 38.7871 55.3723 37.0667C56.1892 35.6396 56.7692 34.4091 58.7115 29.9814C61.1642 24.3904 63.1755 21.7861 66.1852 20.3043C67.9417 19.4396 69.7402 19.0915 72.1173 19.1559C73.2499 19.1867 74.2609 19.2756 74.3365 19.3512C74.4015 19.4162 74.7606 20.9683 74.89 21.7438C75.4647 25.1884 75.3481 28.4143 74.529 31.734C73.1069 37.4975 69.5126 42.6004 64.5558 45.893C63.4997 46.5946 62.8325 46.9795 61.7614 47.5053C59.28 48.7234 56.5803 49.4956 53.6789 49.8172C52.9872 49.8939 50.475 49.9571 49.8911 49.9125Z" fill="#93979B"/>
</svg>
