<svg width="121" height="43" viewBox="0 0 121 43" fill="none" xmlns="http://www.w3.org/2000/svg">
<g clip-path="url(#clip0)">
<path d="M8.23291 15.6828C8.97552 14.9426 9.60241 14.411 10.21 14.0252C10.8128 13.6406 11.5699 13.4477 12.4788 13.4477C13.9086 13.4477 14.9261 13.936 15.5313 14.9113C16.1364 15.889 16.4402 17.1765 16.4402 18.7714V29.1741C16.4402 29.6129 16.2196 29.8938 15.7796 30.0191C15.3396 30.1421 14.7477 30.2313 14.0051 30.2868V30.74H22.4306V30.3687C22.1835 30.3434 21.9134 30.3085 21.6253 30.2663C21.336 30.2253 21.0683 30.1698 20.82 30.1011C20.5729 30.0312 20.3583 29.9299 20.181 29.7925C20.0026 29.6527 19.9122 29.4887 19.9122 29.297V17.162C19.9122 15.2922 19.4842 13.7648 18.6331 12.581C17.7796 11.3983 16.556 10.8076 14.9598 10.8076C14.2172 10.8076 13.5023 10.9523 12.814 11.2416C12.1256 11.5297 11.4927 11.895 10.9152 12.3339C10.339 12.7751 9.82181 13.2621 9.36853 13.7998C8.91404 14.3362 8.5355 14.8378 8.23412 15.3055" fill="#93979B"/>
<path d="M7.19838 16.4445V29.2546C7.25383 29.5307 7.35027 29.7284 7.4865 29.8514C7.62393 29.9767 7.7903 30.0659 7.98198 30.1226C8.17366 30.1768 8.39548 30.2118 8.64261 30.2251C8.89096 30.2383 9.15135 30.272 9.42742 30.3287V30.7399H1.4624V30.3287C2.09531 30.272 2.63901 30.1479 3.0923 29.9574C3.54558 29.7633 3.77343 29.4499 3.77343 29.0075V14.811C3.77343 14.5904 3.75172 14.4264 3.71074 14.3155C3.66975 14.2058 3.55281 14.0804 3.36113 13.943C3.11279 13.8056 2.82346 13.6476 2.49435 13.4692C2.16403 13.2896 1.83371 13.1317 1.50339 12.9931V12.7459L6.91025 10.8086H7.18873L7.19838 16.4445Z" fill="#93979B"/>
<path d="M106.175 15.6828C106.918 14.9426 107.543 14.411 108.15 14.0252C108.755 13.6406 109.512 13.4477 110.419 13.4477C111.851 13.4477 112.868 13.936 113.475 14.9113C114.079 15.889 114.381 17.1753 114.381 18.7714V29.1741C114.381 29.6129 114.161 29.8938 113.721 30.0191C113.281 30.1421 112.69 30.2313 111.946 30.2868V30.74H120.372V30.3687C120.126 30.3422 119.856 30.3085 119.566 30.2651C119.278 30.2253 119.01 30.1686 118.762 30.1011C118.514 30.0312 118.302 29.93 118.123 29.7913C117.944 29.6527 117.856 29.4887 117.856 29.297V17.162C117.856 15.2922 117.428 13.7648 116.576 12.581C115.723 11.3983 114.497 10.8076 112.902 10.8076C112.159 10.8076 111.443 10.9511 110.755 11.2404C110.068 11.5297 109.435 11.895 108.857 12.3339C108.28 12.7739 107.764 13.2621 107.309 13.7998C106.855 14.335 106.479 14.8377 106.176 15.3043" fill="#93979B"/>
<path d="M105.14 16.4435V29.2548C105.195 29.5297 105.292 29.7286 105.429 29.8528C105.565 29.977 105.732 30.0662 105.923 30.1216C106.116 30.1771 106.337 30.212 106.585 30.2265C106.832 30.2386 107.093 30.2723 107.369 30.3278V30.74H99.4038V30.3278C100.037 30.2723 100.58 30.1482 101.034 29.9577C101.488 29.7636 101.715 29.4501 101.715 29.0077V14.81C101.715 14.5894 101.693 14.4267 101.655 14.3158C101.611 14.2061 101.495 14.0807 101.303 13.942C101.055 13.8058 100.767 13.6467 100.437 13.4695C100.105 13.2886 99.7751 13.1319 99.4448 12.9944V12.7461L104.852 10.8076H105.133L105.139 16.4435" fill="#93979B"/>
<path d="M23.4604 30.7415V30.3231C23.7968 30.2942 24.1319 30.2593 24.4683 30.217C24.8046 30.1736 25.1048 30.1037 25.37 30.0048C25.6365 29.9096 25.8619 29.7758 26.0427 29.6082C26.226 29.4406 26.3152 29.2297 26.3152 28.9777V14.5703C26.3152 14.3449 26.2959 14.1496 26.2537 13.982C26.2116 13.8132 26.0922 13.6577 25.8957 13.519C25.6449 13.3515 25.3436 13.1839 24.9927 13.0163C24.6431 12.8476 24.273 12.6933 23.88 12.5534V12.3003L29.5569 10.4521H29.8077V29.2297C29.8644 29.5094 29.9825 29.7131 30.1645 29.8373C30.3478 29.9651 30.5636 30.0567 30.8167 30.111C31.0687 30.1688 31.3411 30.2026 31.6353 30.217C31.9294 30.2304 32.2164 30.2653 32.496 30.3231V30.7415H23.4605" fill="#93979B"/>
<path d="M29.4446 6.27846C29.0239 6.69919 28.5019 6.91019 27.8798 6.91019C27.2819 6.91019 26.7671 6.692 26.3331 6.25679C25.8991 5.8228 25.6821 5.30561 25.6821 4.70766C25.6821 4.08078 25.8931 3.56479 26.3138 3.15852C26.7334 2.74864 27.2542 2.54492 27.8798 2.54492C28.5019 2.54492 29.0239 2.74864 29.4446 3.15852C29.8642 3.56479 30.0751 4.08078 30.0751 4.70766C30.0751 5.33213 29.8642 5.85652 29.4446 6.27846Z" fill="#93979B"/>
<path d="M84.0882 16.7983C84.1437 16.4631 84.298 15.9785 84.5512 15.3504C84.8019 14.7199 85.1588 14.0966 85.6193 13.4794C86.0822 12.8658 86.6283 12.3245 87.2576 11.864C87.8869 11.3998 88.5934 11.1708 89.377 11.1708C90.5789 11.1708 91.5397 11.5409 92.2534 12.2835C92.9647 13.0249 93.3227 13.9146 93.3227 14.9502C93.3227 15.3408 93.2745 15.6373 93.1756 15.8326C93.0768 16.0291 92.9297 16.2389 92.7344 16.4631C92.4535 16.574 92.1341 16.6452 91.7688 16.6729C91.4047 16.7006 91.0141 16.7151 90.5958 16.7151C89.9496 16.7151 89.3637 16.7228 88.8308 16.7356C88.2992 16.7501 87.7881 16.7634 87.2998 16.7766C86.8092 16.791 86.5162 16.7983 86.0123 16.7983L85.8242 17.3709H97.4891C97.4047 16.1955 97.1395 15.1744 96.6922 14.3076C96.2425 13.4384 95.6627 12.7175 94.9466 12.1461C94.2329 11.5722 93.3926 11.1443 92.427 10.8658C91.4589 10.5861 90.4294 10.4463 89.3372 10.4463C87.9918 10.4463 86.7658 10.7308 85.6591 11.307C84.5536 11.8808 83.6157 12.6283 82.8453 13.553C82.0738 14.4776 81.4795 15.5204 81.0587 16.6826C80.6392 17.8435 80.4282 19.0141 80.4282 20.1883C80.4282 21.6446 80.6524 23.0237 81.1009 24.3269C81.5482 25.6276 82.1871 26.7621 83.0141 27.7277C83.8387 28.6945 84.8393 29.442 86.0159 29.9748C87.1925 30.5041 88.4969 30.7717 89.9255 30.7717C91.0744 30.7717 92.1172 30.5619 93.0551 30.1412C93.9942 29.7217 94.7995 29.1888 95.471 28.5451C96.1425 27.9013 96.6777 27.1937 97.0683 26.4246C97.4613 25.6542 97.7145 24.961 97.8254 24.3438L97.4891 24.2605C97.1527 25.2949 96.4595 26.1713 95.4107 26.885C94.3595 27.6011 93.1334 27.9567 91.735 27.9567C90.4451 27.9567 89.3107 27.7192 88.3318 27.2418C87.3517 26.7668 86.5379 26.1147 85.8941 25.2877C85.2504 24.4643 84.7585 23.5107 84.4222 22.4329C84.087 21.3527 83.9195 20.228 83.9195 19.0514C83.9195 18.7428 83.9327 18.4414 83.9616 18.1485C83.9894 17.8555 84.0039 17.5951 84.0039 17.3709L84.0882 16.7982" fill="#93979B"/>
<path d="M37.463 16.7953C37.5185 16.4602 37.6728 15.9767 37.9259 15.3474C38.1767 14.7157 38.5347 14.0937 38.9941 13.4776C39.457 12.8628 40.0031 12.3215 40.6324 11.8598C41.2617 11.3981 41.9669 11.1666 42.7529 11.1666C43.9549 11.1666 44.9145 11.5379 45.6269 12.2793C46.3406 13.022 46.6975 13.9116 46.6975 14.9472C46.6975 15.339 46.6492 15.6331 46.5504 15.8296C46.4527 16.0261 46.3045 16.236 46.1104 16.4602C45.8283 16.5711 45.5076 16.6422 45.1435 16.6699C44.7794 16.6976 44.3888 16.7122 43.9705 16.7122C43.3244 16.7122 42.7373 16.7189 42.2056 16.7327C41.674 16.7472 41.1628 16.7604 40.6746 16.7749C40.1851 16.7881 39.8898 16.7954 39.387 16.7954L39.2002 17.3681H50.8638C50.7794 16.1926 50.5142 15.1727 50.067 14.3047C49.6185 13.4368 49.0374 12.7158 48.3213 12.1432C47.6077 11.5693 46.7674 11.1402 45.8005 10.8629C44.8337 10.5821 43.8042 10.4434 42.7119 10.4434C41.3666 10.4434 40.1405 10.7291 39.0338 11.3041C37.9283 11.878 36.9904 12.6266 36.2201 13.55C35.4486 14.4747 34.853 15.5175 34.4347 16.6797C34.0127 17.8406 33.803 19.0112 33.803 20.1854C33.803 21.6405 34.0272 23.0208 34.4757 24.324C34.9229 25.6248 35.5619 26.7592 36.3889 27.7237C37.2135 28.6905 38.2153 29.4391 39.3919 29.972C40.5673 30.5024 41.8717 30.7677 43.3003 30.7677C44.4491 30.7677 45.4919 30.5591 46.4298 30.1383C47.369 29.7188 48.1755 29.1872 48.8457 28.5422C49.5184 27.8985 50.0525 27.1896 50.4431 26.4216C50.8361 25.6513 51.0893 24.9581 51.2002 24.3409L50.8638 24.2577C50.5275 25.2932 49.8343 26.1685 48.7843 26.8821C47.7354 27.597 46.5082 27.9551 45.1098 27.9551C43.821 27.9551 42.6854 27.7152 41.7065 27.2402C40.7252 26.764 39.9127 26.1118 39.2689 25.286C38.6251 24.4614 38.1333 23.509 37.7969 22.43C37.4618 21.3511 37.2942 20.2251 37.2942 19.0485C37.2942 18.7399 37.3075 18.4385 37.3365 18.1455C37.3643 17.8514 37.3799 17.5922 37.3799 17.368L37.4631 16.7954" fill="#93979B"/>
<path d="M51.9812 30.7415V30.2786C53.2687 30.1966 54.1222 30.0616 54.5418 29.8795C54.9637 29.6987 55.1747 29.3829 55.1747 28.9356V4.7765C55.1747 4.55106 55.153 4.3835 55.1108 4.27138C55.0674 4.15927 54.9505 4.0339 54.754 3.89165C54.5008 3.75301 54.1223 3.536 53.6196 3.24184C53.1157 2.94649 52.6961 2.73191 52.3598 2.59086V2.33892L58.3718 0.364258H58.6648V29.1466C58.6648 29.4251 58.7286 29.6348 58.8528 29.7759C58.9794 29.9169 59.1699 30.0134 59.4206 30.0712C59.6738 30.1255 59.9957 30.1616 60.3887 30.1737C60.7805 30.1882 61.2422 30.2231 61.7751 30.2786V30.7415H51.9812" fill="#93979B"/>
<path d="M77.2317 27.3831C76.7989 28.1824 76.2178 28.8322 75.4897 29.3373C74.7627 29.8412 73.9297 30.2041 72.9918 30.4295C72.0551 30.655 71.0677 30.7671 70.031 30.7671C68.8013 30.7671 67.6392 30.655 66.5482 30.4295C65.4559 30.2041 64.4481 29.8846 63.5247 29.4639V23.916H63.8345C64.0575 24.5887 64.3396 25.2964 64.6772 26.0378C65.0147 26.7804 65.421 27.4675 65.8984 28.098C66.3758 28.7285 66.952 29.2469 67.6247 29.652C68.2998 30.0595 69.0991 30.262 70.0262 30.262C71.374 30.262 72.4481 29.8786 73.2486 29.1071C74.0478 28.3355 74.4481 27.1529 74.4481 25.5556C74.4481 24.6876 74.1732 23.9654 73.6295 23.3916C73.081 22.8153 72.3311 22.4308 71.3776 22.2355C70.6205 22.0944 69.8911 21.9401 69.1907 21.7725C68.4891 21.6049 67.8562 21.4229 67.298 21.2252C66.2323 20.8611 65.3703 20.2319 64.7097 19.3349C64.0515 18.4392 63.7212 17.3603 63.7212 16.0993C63.7212 15.2301 63.9044 14.4465 64.2709 13.7461C64.6374 13.0456 65.1292 12.4428 65.7489 11.9389C66.3673 11.4326 67.0822 11.0493 67.8947 10.7828C68.7073 10.5152 69.5741 10.3838 70.4987 10.3838C71.6741 10.3838 72.7109 10.4874 73.6066 10.6984C74.5035 10.9082 75.3583 11.1674 76.1696 11.4748L76.6735 16.6876L76.3384 16.7719C75.9454 15.9305 75.5524 15.1541 75.1618 14.4393C74.7688 13.7244 74.336 13.1083 73.8586 12.5887C73.3836 12.0716 72.8435 11.6725 72.2419 11.3916C71.6404 11.1119 70.946 10.9721 70.1624 10.9721C69.6874 10.9721 69.2172 11.0553 68.7555 11.224C68.2938 11.3916 67.8875 11.6364 67.5379 11.9582C67.1883 12.2813 66.9002 12.6876 66.6759 13.177C66.4517 13.6677 66.3396 14.2355 66.3396 14.8793C66.3396 15.9172 66.635 16.6598 67.2221 17.1083C67.8092 17.5567 68.5506 17.8919 69.4463 18.1162C70.0623 18.2572 70.735 18.4031 71.4607 18.5586C72.1889 18.7117 72.8194 18.8587 73.351 18.9986C74.6096 19.3072 75.6813 19.9522 76.5614 20.9299C77.4426 21.9136 77.8839 23.1179 77.8839 24.5453C77.8839 25.6387 77.6657 26.5838 77.2317 27.3831Z" fill="#93979B"/>
<path d="M7.35493 40.1772C7.35493 41.3634 6.39412 42.3242 5.20907 42.3242C4.02281 42.3242 3.06079 41.3634 3.06079 40.1772C3.06079 38.9921 4.02281 38.0312 5.20907 38.0312C6.39412 38.0312 7.35493 38.9921 7.35493 40.1772Z" fill="#93979B"/>
<path d="M21.2312 40.1772C21.2312 41.3634 20.2703 42.3242 19.0853 42.3242C17.8978 42.3242 16.937 41.3634 16.937 40.1772C16.937 38.9921 17.8978 38.0312 19.0853 38.0312C20.2703 38.0312 21.2312 38.9921 21.2312 40.1772Z" fill="#93979B"/>
<path d="M35.1079 40.1772C35.1079 41.3634 34.147 42.3242 32.9608 42.3242C31.7745 42.3242 30.8137 41.3634 30.8137 40.1772C30.8137 38.9921 31.7745 38.0312 32.9608 38.0312C34.147 38.0312 35.1079 38.9921 35.1079 40.1772Z" fill="#93979B"/>
<path d="M48.9841 40.1772C48.9841 41.3634 48.0233 42.3242 46.837 42.3242C45.652 42.3242 44.6899 41.3634 44.6899 40.1772C44.6899 38.9921 45.652 38.0312 46.837 38.0312C48.0233 38.0312 48.9841 38.9921 48.9841 40.1772Z" fill="#93979B"/>
<path d="M62.8603 40.1772C62.8603 41.3634 61.8995 42.3242 60.7144 42.3242C59.527 42.3242 58.5662 41.3634 58.5662 40.1772C58.5662 38.9921 59.527 38.0312 60.7144 38.0312C61.8995 38.0312 62.8603 38.9921 62.8603 40.1772Z" fill="#93979B"/>
<path d="M76.7353 40.1772C76.7353 41.3634 75.7745 42.3242 74.5895 42.3242C73.4032 42.3242 72.4412 41.3634 72.4412 40.1772C72.4412 38.9921 73.4032 38.0312 74.5895 38.0312C75.7745 38.0312 76.7353 38.9921 76.7353 40.1772Z" fill="#93979B"/>
<path d="M90.6115 40.1772C90.6115 41.3634 89.6507 42.3242 88.4657 42.3242C87.2794 42.3242 86.3174 41.3634 86.3174 40.1772C86.3174 38.9921 87.2794 38.0312 88.4657 38.0312C89.6507 38.0312 90.6115 38.9921 90.6115 40.1772Z" fill="#93979B"/>
<path d="M118.364 40.1772C118.364 41.3634 117.403 42.3242 116.217 42.3242C115.03 42.3242 114.07 41.3634 114.07 40.1772C114.07 38.9921 115.03 38.0312 116.217 38.0312C117.403 38.0312 118.364 38.9921 118.364 40.1772Z" fill="#93979B"/>
<path d="M104.488 40.1772C104.488 41.3634 103.527 42.3242 102.342 42.3242C101.156 42.3242 100.194 41.3634 100.194 40.1772C100.194 38.9921 101.156 38.0312 102.342 38.0312C103.527 38.0312 104.488 38.9921 104.488 40.1772Z" fill="#93979B"/>
</g>
<defs>
<clipPath id="clip0">
<rect width="120" height="42.5455" fill="white" transform="translate(0.916748 0.0722656)"/>
</clipPath>
</defs>
</svg>
