<svg width="131" height="47" viewBox="0 0 131 47" fill="none" xmlns="http://www.w3.org/2000/svg">
<g clip-path="url(#clip0)">
<path d="M122.41 30.6233V34.7826H123.645V41.4332H122.41V45.5925H130.317V41.4332H129.039V30.6233H122.41ZM129.017 25.1426H123.168V29.0203H129.017V25.1426ZM113.485 27.0489V30.6017H110.842V34.761H113.073V42.0614C113.073 42.9063 113.095 43.9678 113.918 44.7693C114.546 45.3975 115.824 45.8741 117.514 45.8741C118.64 45.8741 119.68 45.6792 120.655 45.5058V41.6931C120.417 41.7798 120.2 41.8448 119.875 41.8448C118.489 41.8448 118.424 40.7183 118.402 40.1551V34.7826H120.807V30.6233H118.402V25.9441L113.485 27.0489ZM104.451 27.0489V30.6017H102.545V34.761H104.04V42.0614C104.04 42.9063 104.061 43.9678 104.884 44.7693C105.513 45.3975 106.791 45.8741 108.459 45.8741C109.585 45.8741 110.625 45.6792 111.622 45.5058V41.6931C111.383 41.7798 111.145 41.8448 110.842 41.8448C109.455 41.8448 109.39 40.7183 109.369 40.1551V34.7826H112.51V30.6233H109.369V25.9441L104.451 27.0489ZM96.6525 40.4584C96.5658 40.9999 96.3708 42.343 94.7894 42.343C92.9047 42.343 92.8831 40.2851 92.8831 39.1369H102.003C102.025 37.8155 102.155 34.3494 99.9452 32.2047C98.8621 31.0999 96.9991 30.2984 94.6811 30.2984C91.605 30.2984 88.8104 31.7498 87.7923 35.1942C87.4457 36.299 87.3807 37.3605 87.3807 38.2054C87.3807 44.0544 90.8684 45.9824 94.8761 45.9824C96.7608 45.9824 98.6455 45.5275 99.9886 44.2494C101.31 42.9713 101.57 41.5632 101.787 40.48H96.6525V40.4584ZM93.0347 36.2774C93.0347 35.6708 93.0997 34.0028 94.8328 34.0028C95.5043 34.0028 96.2192 34.2844 96.5008 35.1076C96.6525 35.5192 96.6525 35.9091 96.6525 36.299H93.0347V36.2774ZM73.3863 40.1117V45.6142H77.459L77.5456 44.4877C77.9789 44.9426 78.9971 46.0041 81.4233 46.0041C84.0662 46.0041 85.1494 44.856 85.4093 44.6177C86.4492 43.5562 86.5358 42.1481 86.5358 41.4115C86.5358 37.9888 84.4778 37.3389 80.9251 36.3207C79.3003 35.8875 79.0404 35.7791 78.8021 35.5408C78.6505 35.3892 78.5421 35.1942 78.5421 34.9126C78.5421 34.2844 79.2354 33.8078 80.0586 33.8078C81.7699 33.8078 81.9866 35.3242 82.1165 36.0391H86.1892V30.7533H82.2032L82.1165 31.9015C81.6183 31.3166 80.8168 30.2767 78.4122 30.2767C74.7294 30.2767 73.2347 32.6813 73.2347 34.8476C73.2347 38.4004 76.4192 39.2669 78.1739 39.7651C78.8888 39.9601 79.5603 40.1767 80.2752 40.3934C80.6218 40.5017 81.2067 40.7183 81.2067 41.3682C81.2067 41.9098 80.7518 42.4947 79.7336 42.4947C78.6938 42.5163 77.394 41.8665 77.3074 40.1334H73.3863V40.1117ZM70.8084 41.4332V35.6275C70.8084 34.566 70.7001 33.2229 69.5736 32.0964C68.3388 30.8183 66.0642 30.2334 64.0929 30.2334C62.0132 30.2334 59.3053 30.8616 58.2222 33.0496C57.7889 33.8945 57.7673 34.7176 57.7023 35.4759H62.7714C62.7714 35.0209 62.7931 34.436 63.2047 34.0244C63.3997 33.8078 63.7896 33.6128 64.1795 33.6128C64.3312 33.6128 65.2627 33.6128 65.4793 34.7176C65.5443 34.9776 65.5443 35.0859 65.5443 36.299C64.0929 36.2774 61.125 36.1474 59.197 37.4472C57.269 38.747 57.1824 40.6967 57.1824 41.4332C57.1824 44.3144 58.8504 45.9174 61.5583 45.9174C64.1579 45.9174 65.2627 44.4444 65.696 43.8378L65.8043 45.5708H72.0432V41.4115H70.8084V41.4332ZM65.5443 40.3934C65.5226 40.805 65.4793 41.3249 65.1977 41.7581C64.8294 42.3647 64.2445 42.473 63.8979 42.473C63.118 42.473 62.5981 41.9314 62.5981 40.9133C62.5981 40.2417 62.8581 39.3752 63.9196 39.0503C64.4395 38.877 64.9811 38.8986 65.5443 38.9419V40.3934ZM38.9421 30.6233H32.7248V34.7826H33.9379V41.4332H32.6815V45.5925H40.3285V41.4332H39.3537V37.1872C39.3537 36.3857 39.3537 35.6275 39.7653 35.1726C40.0036 34.9776 40.3069 34.826 40.6318 34.826C41.7799 34.826 41.7799 35.9308 41.8233 36.7973V45.6142H48.1055V41.4549H47.1307V36.8406C47.1524 36.2124 47.1524 35.6058 47.5856 35.1942C47.8889 34.8693 48.2139 34.826 48.5171 34.826C49.5786 34.826 49.5786 35.7791 49.5786 36.494V45.6142H56.2292V41.4549H54.9944V34.2844C54.9727 33.3312 54.9294 32.1397 54.0196 31.2516C53.4997 30.7316 52.5465 30.2984 51.1817 30.2984C49.7953 30.2984 48.5388 30.7533 47.7373 31.5765C47.3257 31.9881 47.1524 32.3347 47.0007 32.6813C46.8274 32.2697 46.6758 31.9014 46.1992 31.4032C45.181 30.385 43.9679 30.2984 43.2747 30.2984C40.8701 30.2984 39.6353 31.6198 39.0721 32.5947L38.9421 30.6233ZM16.6725 37.9671C16.6725 39.2886 16.7374 42.1047 18.7738 44.1194C19.8569 45.1809 21.0267 45.5708 22.2399 45.8091C22.9114 45.9174 23.6046 45.9824 24.2978 45.9824C25.5326 45.9824 26.9841 45.7875 28.1972 45.2242C29.4103 44.6827 30.6668 43.6862 31.4033 41.4982C31.7499 40.415 31.9016 39.3102 31.9016 38.1837C31.9016 33.4395 29.4103 30.32 24.2545 30.32C22.9547 30.32 21.5033 30.4934 20.1169 31.2516C16.6725 33.0496 16.6725 36.754 16.6725 37.9671ZM26.4208 38.0321C26.4208 39.0503 26.4208 41.8231 24.2762 41.8231C23.3013 41.8231 22.8031 41.1949 22.5431 40.675C22.1315 39.8735 22.1099 38.9203 22.1099 38.0971C22.1099 37.2306 22.1099 35.7358 22.9764 34.826C23.323 34.501 23.7346 34.3277 24.2762 34.3277C26.4208 34.3277 26.4208 37.1006 26.4208 38.0321ZM0.381836 25.1426H18.4272V31.4898H14.0946V29.2802H12.0799V41.4549L13.553 41.4332V45.5925H5.19103V41.4332L6.68578 41.4549V29.2802H4.71445V31.4898H0.381836V25.1426Z" fill="#93979B"/>
<path d="M45.7011 17.3006C44.683 17.3006 44.1631 16.6507 43.9031 16.1308C43.4915 15.3076 43.4482 14.3327 43.4482 13.5096C43.4482 12.6214 43.4482 11.105 44.358 10.1951C44.7263 9.87016 45.1379 9.69686 45.7228 9.69686C47.9541 9.69686 47.9541 12.5131 47.9541 13.4662C47.9324 14.4844 47.9324 17.3006 45.7011 17.3006ZM45.7011 5.60254C44.3364 5.60254 42.8416 5.77584 41.3902 6.53405C37.7725 8.37541 37.7725 12.1448 37.7725 13.3796C37.7725 14.7227 37.8374 17.5822 39.9821 19.6402C41.1086 20.7234 42.3434 21.1133 43.5998 21.3516C44.293 21.4599 45.0079 21.5249 45.7445 21.5249C47.0442 21.5249 48.539 21.3083 49.8171 20.7667C51.0736 20.2034 52.3733 19.2069 53.1532 16.9756C53.5215 15.8925 53.6731 14.7444 53.6731 13.5962C53.6731 8.78701 51.0736 5.60254 45.7011 5.60254Z" fill="#BEC1C3"/>
<path d="M61.1252 8.5701L60.9519 5.92721H54.8862V10.1515H56.186V16.9104H54.8862V21.1347H63.4431V16.9104H61.6018L61.6668 14.4408C61.6668 13.0327 61.6884 12.2312 62.425 11.5379C62.9882 11.018 63.9414 10.6498 65.0679 10.6498C65.6094 10.6498 65.9777 10.7147 66.3893 10.8014V5.92721C65.9127 5.79723 65.5444 5.75391 64.9162 5.75391C61.9484 5.75391 61.3851 7.74691 61.1252 8.5701Z" fill="#BEC1C3"/>
<path d="M35.8009 10.3039C35.7793 9.22079 35.736 7.81269 34.6961 6.7512C34.0679 6.14464 32.9198 5.53807 31.2084 5.53807C28.5005 5.53807 27.504 6.83786 26.8758 7.61773V0.685547H19.9436V4.62822H21.2434V16.9112H19.9436V21.1571H28.0672V16.9112H26.8541V12.0153C26.8541 11.5171 26.8758 11.0405 27.309 10.5639C27.7423 10.1306 28.2622 10.0873 28.5655 10.0873C30.1252 10.0873 30.1686 11.2355 30.1902 11.972V21.1355H37.1007V16.8895H35.8009V10.3039Z" fill="#BEC1C3"/>
<path d="M128.822 16.9329V10.0007C128.801 8.93919 128.757 7.70439 127.739 6.70789C127.176 6.12299 126.093 5.53809 124.446 5.53809C122.692 5.53809 121.37 6.18798 120.504 7.03284C120.027 7.4661 119.81 7.85603 119.572 8.26763L119.399 5.94968H113.225V10.174H114.481V16.9329H113.225V21.1571H121.11V16.9329H120.049V12.8169C120.07 11.972 120.114 11.2788 120.655 10.7589C120.959 10.4556 121.348 10.2823 121.803 10.2823C122.258 10.2823 122.865 10.4556 123.103 11.0838C123.19 11.3438 123.233 11.6904 123.233 12.1886V21.1571H130.122V16.9329H128.822Z" fill="#BEC1C3"/>
<path d="M104.473 17.3006C103.455 17.3006 102.935 16.6507 102.675 16.1308C102.242 15.3076 102.22 14.3327 102.22 13.5096C102.22 12.6214 102.22 11.105 103.13 10.1951C103.498 9.87016 103.91 9.69686 104.495 9.69686C106.726 9.69686 106.726 12.5131 106.726 13.4662C106.704 14.4844 106.704 17.3006 104.473 17.3006ZM104.473 5.60254C103.108 5.60254 101.613 5.77584 100.162 6.53405C96.5442 8.37541 96.5442 12.1448 96.5442 13.3796C96.5442 14.7227 96.6092 17.5822 98.7538 19.6402C99.8586 20.7234 101.093 21.1133 102.372 21.3516C103.065 21.4599 103.78 21.5249 104.516 21.5249C105.816 21.5249 107.311 21.3083 108.589 20.7667C109.845 20.2034 111.145 19.2069 111.925 16.9756C112.293 15.8925 112.445 14.7444 112.445 13.5962C112.423 8.78701 109.824 5.60254 104.473 5.60254Z" fill="#BEC1C3"/>
<path d="M92.3849 1.18359L87.2725 2.33174V5.94947H85.4961V10.1738H86.8609V17.5825C86.8609 18.4274 86.8825 19.5105 87.7274 20.3337C88.3989 20.9836 89.7204 21.4602 91.4751 21.4602C92.6449 21.4602 93.7281 21.2652 94.7679 21.0919V17.2143C94.5296 17.3009 94.2913 17.3659 93.9663 17.3659C92.5149 17.3659 92.4499 16.2178 92.4283 15.6545V10.1954H94.9412V5.97113H92.4283V1.18359H92.3849Z" fill="#BEC1C3"/>
<path d="M83.7412 9.97919C83.7196 8.9177 83.6762 7.68291 82.6581 6.68641C82.0948 6.10151 81.0117 5.5166 79.3653 5.5166C77.6322 5.5166 76.2891 6.1665 75.4226 7.01135C74.946 7.44462 74.7294 7.83455 74.4911 8.24615L74.3178 5.9282H68.1438V10.1525H69.4003V16.9114H68.1438V21.1357H76.0292V16.9114H74.9677V12.7954C74.9893 11.9505 75.0327 11.2573 75.5742 10.7374C75.8775 10.4341 76.2675 10.2608 76.7224 10.2608C77.1773 10.2608 77.7839 10.4341 78.0222 11.0623C78.1088 11.3223 78.1521 11.6689 78.1521 12.1672V21.1357H85.041V16.9114H83.7412V9.97919Z" fill="#BEC1C3"/>
<path d="M0.316895 0.707031H18.3622V7.07597H14.0296V4.84468H12.0366V17.041L13.5097 16.9977V21.157H5.14776V16.9977L6.66417 17.041V4.84468H4.67117V7.07597H0.316895V0.707031Z" fill="#BEC1C3"/>
</g>
<defs>
<clipPath id="clip0">
<rect width="130" height="45.3191" fill="white" transform="translate(0.316895 0.685547)"/>
</clipPath>
</defs>
</svg>
