<svg width="125" height="71" viewBox="0 0 125 71" fill="none" xmlns="http://www.w3.org/2000/svg">
<g clip-path="url(#clip0)">
<path d="M124.105 60.4038C124.072 60.4361 124.014 60.4635 124.008 60.5C123.658 62.5965 122.218 63.5539 120.311 63.9546C118.22 64.3793 116.048 64.1346 114.104 63.2552C113.855 63.1295 113.613 62.9885 113.381 62.8329L114.246 60.8775C115.171 61.1505 116.064 61.4707 116.984 61.6706C117.922 61.8876 118.902 61.8434 119.817 61.5429C120.076 61.4588 120.323 61.3414 120.552 61.1936C120.756 61.0875 120.93 60.9325 121.059 60.7426C121.188 60.5526 121.268 60.3336 121.291 60.1052C121.314 59.8768 121.281 59.6461 121.193 59.434C121.105 59.2218 120.966 59.0348 120.788 58.8897C120.13 58.3846 119.411 57.964 118.647 57.6378C117.605 57.1401 116.49 56.7825 115.474 56.2441C114.796 55.93 114.228 55.4198 113.843 54.7795C113.457 54.1392 113.273 53.3981 113.313 52.6519C113.353 51.9057 113.616 51.1887 114.068 50.5935C114.52 49.9983 115.14 49.5521 115.848 49.3126C118.502 48.2548 121.028 48.8016 123.507 50.1149L122.626 52.0503C121.701 51.7287 120.759 51.457 119.805 51.2365C119.13 51.1452 118.446 51.1623 117.776 51.2871C117.394 51.3717 117.04 51.5524 116.747 51.8122C116.567 51.9253 116.42 52.0834 116.32 52.2708C116.219 52.4582 116.17 52.6685 116.176 52.8809C116.182 53.0932 116.243 53.3004 116.354 53.4818C116.465 53.6632 116.621 53.8127 116.807 53.9153C117.479 54.3142 118.18 54.6622 118.904 54.9565C119.661 55.3041 120.45 55.587 121.192 55.9645C121.922 56.2757 122.567 56.757 123.073 57.3682C123.58 57.9793 123.932 58.7027 124.102 59.4779L124.105 60.4038Z" fill="#93979B"/>
<path d="M48.1313 0.344727C48.396 0.792721 48.6739 1.23242 48.9211 1.68954C49.3086 2.40384 49.6753 3.12976 50.0602 3.86895L47.4983 4.8255L45.7288 0.527244C46.5259 0.424734 47.3279 0.363812 48.1313 0.344727Z" fill="#BEC1C3"/>
<path d="M0.905273 23.4443C1.59303 23.8774 2.29323 24.293 2.96024 24.7568L4.25694 27.4381C3.23153 26.6085 2.18289 25.7971 1.19481 24.9269L0.905273 23.4443Z" fill="#BEC1C3"/>
<path d="M90.3018 49.1625C90.8991 49.1625 91.4466 49.1401 91.99 49.1783C92.0754 49.2 92.1545 49.2413 92.2212 49.2989C92.2879 49.3565 92.3402 49.4288 92.3741 49.5101C92.5401 49.9921 92.6537 50.4916 92.774 50.9362C93.636 50.4078 94.4648 49.8461 95.3458 49.3749C96.2236 48.9033 97.2076 48.6648 98.2039 48.6822C98.9891 48.6425 99.7687 48.8343 100.446 49.2339C101.123 49.6334 101.668 50.2231 102.013 50.9296C102.973 50.363 103.896 49.7225 104.899 49.2505C105.592 48.8895 106.357 48.6868 107.138 48.6571C107.919 48.6274 108.697 48.7714 109.415 49.0787C110.064 49.396 110.621 49.8736 111.033 50.4662C111.446 51.0588 111.701 51.7468 111.773 52.4652C111.888 53.0869 111.943 53.718 111.939 54.3501C111.955 57.3608 111.946 60.3715 111.945 63.383C111.945 63.5 111.926 63.6162 111.914 63.7539H109.036V63.1872C109.036 60.2272 109.045 57.2679 109.027 54.3103C109.027 53.7819 108.958 53.2558 108.824 52.7448C108.773 52.4695 108.663 52.2083 108.503 51.9785C108.343 51.7487 108.136 51.5556 107.896 51.4121C107.655 51.2685 107.387 51.1778 107.109 51.146C106.83 51.1142 106.549 51.1419 106.282 51.2274C104.976 51.5823 103.778 52.2566 102.797 53.1895C102.68 53.2874 102.671 53.557 102.67 53.747C102.662 57.0655 102.665 60.384 102.665 63.7406H99.7835V63.2279C99.7835 60.2338 99.7926 57.2397 99.7743 54.2456C99.7704 53.7339 99.7013 53.2249 99.5686 52.7307C99.5181 52.4635 99.4126 52.2098 99.2588 51.9856C99.105 51.7614 98.9062 51.5716 98.6751 51.4284C98.444 51.2851 98.1856 51.1915 97.9164 51.1535C97.6472 51.1155 97.373 51.1339 97.1112 51.2075C95.6683 51.5902 94.353 52.3495 93.3 53.4077C93.1814 53.5097 93.1689 53.7785 93.1689 53.9693C93.1612 57.0317 93.1592 60.0941 93.1631 63.1565V63.7464H90.3018V49.1625Z" fill="#93979B"/>
<path d="M54.3719 39.0541V45.7267L51.533 46.0586V24.8825C52.3626 24.9389 53.3349 24.5324 53.6618 25.6433C54.5889 25.2255 55.5452 24.8759 56.5231 24.5971C57.8662 24.3305 59.2591 24.4946 60.5034 25.0661C61.7477 25.6375 62.7799 26.5871 63.4529 27.7795C64.1664 29.0535 64.5596 30.4818 64.5986 31.9415C64.6376 33.4011 64.3213 34.8484 63.6769 36.1587C62.9097 37.6963 61.5838 38.8827 59.9707 39.4749C58.3575 40.0671 56.579 40.0204 54.9991 39.3444C54.8133 39.2615 54.6316 39.1735 54.3719 39.0541ZM54.3777 32.2105C54.3777 33.4765 54.3703 34.7425 54.3868 36.0085C54.3852 36.2009 54.4598 36.3861 54.5942 36.5237C56.2045 37.7292 59.4533 37.954 60.8695 35.344C61.588 33.9295 61.7952 32.3102 61.456 30.7604C60.8753 27.3589 57.5353 25.8507 54.7718 27.7181C54.6398 27.7905 54.5316 27.8995 54.46 28.032C54.3885 28.1644 54.3568 28.3147 54.3686 28.4648C54.3927 29.7125 54.3777 30.9611 54.3777 32.2105Z" fill="#93979B"/>
<path d="M48.5256 19.8757L47.5906 22.1157C46.6589 21.8129 45.7878 21.452 44.8811 21.2546C43.6247 20.9561 42.3079 21.039 41.0988 21.4927C40.684 21.6139 40.3086 21.8425 40.0105 22.1554C39.7124 22.4682 39.5022 22.8543 39.4012 23.2745C39.3001 23.6947 39.3119 24.1341 39.4351 24.5483C39.5584 24.9625 39.7889 25.3368 40.1033 25.6333C40.8188 26.3111 41.6293 26.8809 42.5092 27.3249C43.8474 28.0715 45.2469 28.7029 46.6108 29.4039C46.9676 29.6056 47.3099 29.8318 47.6354 30.0809C48.4107 30.6163 49.0246 31.3537 49.4105 32.2132C49.7964 33.0728 49.9397 34.0215 49.8247 34.9567C49.7098 35.8918 49.341 36.7776 48.7583 37.5181C48.1757 38.2585 47.4014 38.8253 46.5196 39.1569C44.2541 40.035 41.7591 40.125 39.4363 39.4125C38.5093 39.2421 37.6259 38.8872 36.8387 38.3688L37.4601 36.206C38.7576 36.5611 40.017 36.9949 41.3129 37.2372C42.6942 37.5419 44.1377 37.3757 45.4137 36.7651C45.8103 36.5869 46.1563 36.3128 46.4205 35.9674C46.6847 35.6221 46.8588 35.2165 46.9271 34.7871C46.9954 34.3577 46.9558 33.918 46.8118 33.5078C46.6678 33.0975 46.424 32.7295 46.1023 32.437C45.1974 31.629 44.1624 30.9799 43.041 30.5173C41.6879 29.8337 40.2916 29.2206 38.9966 28.4382C37.9652 27.8368 37.1752 26.8953 36.762 25.7752C36.3488 24.6551 36.3381 23.4262 36.7317 22.2991C36.9506 21.5743 37.3383 20.9118 37.8627 20.3658C38.3872 19.8198 39.0337 19.406 39.749 19.1581C42.7664 17.9568 45.665 18.5541 48.5256 19.8757Z" fill="#93979B"/>
<path d="M27.6123 60.4657C28.7812 60.8116 29.9087 61.2074 31.0652 61.472C32.3381 61.772 33.6687 61.7192 34.9138 61.3194C35.4196 61.2107 35.8847 60.9622 36.2563 60.6023C36.628 60.2424 36.8912 59.7855 37.016 59.2835C37.1539 58.7456 37.118 58.178 36.9135 57.6618C36.7091 57.1456 36.3465 56.7073 35.8778 56.4097C34.8383 55.7078 33.705 55.1429 32.5983 54.5447C31.4302 53.9125 30.2032 53.3832 29.0766 52.6839C28.1732 52.1568 27.4574 51.3602 27.0296 50.4057C26.6019 49.4513 26.4836 48.3869 26.6914 47.3618C26.8187 46.4214 27.2187 45.5388 27.8419 44.823C28.4651 44.1072 29.2842 43.5896 30.1982 43.334C33.1168 42.2995 35.9027 42.8827 38.6662 44.1637L37.7121 46.465C37.2276 46.2676 36.7755 46.0743 36.3175 45.8992C34.8425 45.3206 33.2214 45.2276 31.6899 45.6338C31.1818 45.7096 30.708 45.9359 30.3297 46.2835C29.9513 46.6311 29.6858 47.084 29.5672 47.5839C29.4487 48.0838 29.4826 48.6078 29.6645 49.0883C29.8465 49.5687 30.1682 49.9837 30.5881 50.2796C31.6866 51.0437 32.8928 51.6526 34.0601 52.3163C35.3477 53.0481 36.6933 53.6877 37.9245 54.5024C38.6621 55.0414 39.2421 55.7679 39.6042 56.6066C39.9663 57.4453 40.0974 58.3656 39.9839 59.2721C39.8704 60.1786 39.5164 61.0382 38.9587 61.7617C38.4009 62.4852 37.6597 63.0463 36.812 63.3868C34.7086 64.2504 32.3815 64.4065 30.1816 63.8315C29.2417 63.6091 28.3316 63.2507 27.4124 62.9471C27.0365 62.8218 26.9635 62.5729 27.0971 62.1921C27.3053 61.6006 27.4605 60.99 27.6123 60.4657Z" fill="#93979B"/>
<path d="M88.2801 57.1198H78.0484C77.9911 58.2216 78.3569 59.3036 79.0711 60.1446C79.7853 60.9855 80.7938 61.5218 81.8904 61.6437C83.3419 61.7965 84.807 61.5327 86.114 60.8829C86.4458 60.717 86.7893 60.5718 87.1701 60.3968L88.076 62.5131C87.047 63.1809 85.9047 63.6552 84.7053 63.9127C83.0097 64.2853 81.245 64.1947 79.5965 63.6505C78.6578 63.3687 77.8001 62.8668 77.0946 62.1866C76.3891 61.5063 75.8563 60.6674 75.5405 59.7397C75.0806 58.5381 74.8747 57.2543 74.9358 55.9692C74.9969 54.6841 75.3237 53.4256 75.8955 52.2731C76.3721 51.2592 77.1208 50.3975 78.0583 49.784C78.9958 49.1706 80.0852 48.8294 81.2051 48.7987C82.0452 48.6726 82.9025 48.7269 83.72 48.9579C84.5375 49.1889 85.2965 49.5914 85.9464 50.1385C87.1103 51.2441 87.8537 52.7198 88.0495 54.3132C88.1913 55.2216 88.2029 56.1458 88.2801 57.1198ZM85.3831 54.6732C85.1765 52.1844 83.7454 50.7566 81.5768 50.8387C80.6091 50.8922 79.7014 51.3245 79.0501 52.0421C78.3988 52.7597 78.0562 53.7049 78.0965 54.6732H85.3831Z" fill="#93979B"/>
<path d="M74.4542 30.7325C74.2692 29.9245 74.1596 29.1836 73.924 28.4843C73.7899 28.1009 73.5427 27.7672 73.2151 27.5271C72.8875 27.287 72.4949 27.1519 72.0889 27.1394C70.6018 27.0258 69.1096 27.2823 67.7459 27.8861C67.6048 27.9409 67.4671 28.0031 67.2854 28.0794L66.4724 25.7855C67.2269 25.3108 68.0648 24.9836 68.9413 24.8215C70.6036 24.3097 72.3888 24.3639 74.017 24.9758C74.9986 25.3492 75.8395 26.0191 76.423 26.8925C77.0064 27.7658 77.3033 28.7992 77.2724 29.849C77.2724 32.8765 77.2724 35.9038 77.2724 38.9308V39.4751C76.6286 39.4751 76.0337 39.4883 75.4406 39.4626C75.341 39.4585 75.2016 39.3008 75.1627 39.1864C75.0531 38.867 74.9876 38.5326 74.8955 38.1717C74.4483 38.458 74.0311 38.7525 73.593 39.0014C72.1735 39.8288 70.4846 40.062 68.8941 39.6501C67.8491 39.409 66.9327 38.7846 66.3259 37.9004C65.7192 37.0162 65.4662 35.9365 65.6171 34.8748C65.6653 33.828 66.1008 32.8365 66.8389 32.0927C67.5771 31.3488 68.5653 30.9058 69.6117 30.8495C70.813 30.7184 72.0333 30.7665 73.2462 30.7325C73.5864 30.7259 73.9265 30.7325 74.4542 30.7325ZM74.3612 32.6838C73.3533 32.6838 72.3834 32.6722 71.4136 32.6888C70.9376 32.6752 70.4616 32.7142 69.9941 32.8049C69.4138 32.9684 68.9136 33.3391 68.5884 33.8467C68.2631 34.3544 68.1355 34.9637 68.2295 35.5593C68.2862 36.1276 68.5629 36.6512 69.0005 37.0182C69.4382 37.3851 70.0021 37.5663 70.5715 37.523C71.2721 37.4976 71.9597 37.3264 72.5904 37.0203C73.2211 36.7142 73.781 36.2798 74.2343 35.7451C74.3108 35.6564 74.354 35.5437 74.3563 35.4265C74.3654 34.5264 74.3604 33.6262 74.3604 32.6846L74.3612 32.6838Z" fill="#93979B"/>
<path d="M112.179 39.46H110.149C110.035 39.0452 109.919 38.6262 109.811 38.238C109.103 38.6766 108.368 39.0685 107.609 39.411C106.716 39.8159 105.73 39.9727 104.755 39.865C103.78 39.7573 102.852 39.389 102.068 38.7988C100.547 37.6373 100.289 35.9308 100.633 34.1579C100.792 33.3534 101.193 32.6165 101.781 32.0454C102.37 31.4743 103.118 31.0962 103.927 30.9614C104.526 30.8217 105.138 30.7486 105.752 30.7432C106.894 30.71 108.038 30.7332 109.219 30.7332C109.302 29.8039 109.092 28.872 108.618 28.0685C108.437 27.7967 108.195 27.571 107.912 27.4097C107.628 27.2483 107.31 27.1557 106.984 27.1393C105.497 27.0296 104.006 27.2886 102.642 27.8934C102.502 27.9482 102.365 28.0104 102.191 28.0851L101.337 25.6659C102.182 25.383 102.984 25.0694 103.811 24.8471C105.401 24.3364 107.114 24.3512 108.695 24.8894C109.742 25.2362 110.648 25.9139 111.277 26.8204C111.905 27.7269 112.222 28.813 112.18 29.9152V39.46H112.179ZM109.268 32.7044C107.93 32.7044 106.636 32.6944 105.343 32.7127C105.088 32.7316 104.838 32.7957 104.605 32.9018C104.08 33.1367 103.65 33.5436 103.386 34.0554C103.123 34.5672 103.042 35.1534 103.156 35.7176C103.246 36.2362 103.52 36.7047 103.929 37.0363C104.338 37.3679 104.853 37.5401 105.379 37.5212C106.098 37.5133 106.806 37.35 107.455 37.0426C108.104 36.7351 108.679 36.2907 109.141 35.74C109.227 35.6181 109.27 35.4704 109.263 35.321C109.273 34.4682 109.268 33.6153 109.268 32.7044Z" fill="#93979B"/>
<path d="M39.9778 49.6386L42.7031 48.6074L46.716 59.5742C47.3846 57.749 48.011 56.0309 48.6374 54.3152C49.2181 52.7298 49.8063 51.1485 50.363 49.5548C50.3743 49.49 50.3983 49.4281 50.4337 49.3726C50.4691 49.3172 50.5151 49.2693 50.5691 49.2317C50.6231 49.1941 50.684 49.1677 50.7483 49.1538C50.8126 49.1399 50.879 49.1389 50.9437 49.1508C51.7634 49.1716 52.5839 49.1575 53.4915 49.1575C53.4185 49.3607 53.3604 49.5258 53.299 49.6892C51.2382 55.2311 49.1772 60.7724 47.1158 66.3132C46.2862 68.549 44.5191 69.6947 42.3422 70.3352C42.2699 70.3397 42.1976 70.3258 42.132 70.2949C42.0665 70.264 42.0098 70.2171 41.9672 70.1585C41.6644 69.513 41.3956 68.8526 41.111 68.1873C41.7125 67.8753 42.2841 67.58 42.8533 67.2805C43.6066 66.841 44.1926 66.1637 44.5191 65.355C44.8278 64.7329 44.9872 64.0474 44.9846 63.353C44.9821 62.6585 44.8176 61.9743 44.5042 61.3545C42.9553 57.6445 41.5823 53.8606 40.1396 50.1066C40.0865 49.9705 40.0417 49.8261 39.9778 49.6386Z" fill="#93979B"/>
<path d="M64.3014 50.1121L63.4137 52.0484C62.4928 51.7234 61.5531 51.4544 60.5997 51.2428C59.874 51.1612 59.1401 51.1892 58.4228 51.3258C58.0751 51.4133 57.757 51.5917 57.5011 51.8427C57.3302 51.9544 57.1908 52.108 57.0962 52.2889C57.0017 52.4698 56.9551 52.672 56.9609 52.876C56.9667 53.0801 57.0248 53.2793 57.1295 53.4545C57.2342 53.6297 57.3822 53.7751 57.5591 53.8769C58.2481 54.3126 58.9801 54.6763 59.7435 54.962C61.0489 55.4179 62.2766 56.0712 63.3839 56.8992C63.9167 57.3196 64.3295 57.8729 64.5805 58.5035C64.8316 59.1341 64.9122 59.8197 64.8141 60.4913C64.716 61.1629 64.4428 61.7969 64.0219 62.3293C63.6011 62.8618 63.0474 63.274 62.4165 63.5246C61.1085 64.0384 59.7017 64.2516 58.3001 64.1483C56.8985 64.0451 55.5381 63.628 54.3195 62.9281C54.2688 62.8915 54.2221 62.8498 54.1801 62.8036L55.0752 60.7893C56.1853 61.3846 57.4177 61.7159 58.6766 61.7575C59.4406 61.7655 60.2004 61.6446 60.9241 61.3999C61.2225 61.3319 61.4929 61.1743 61.6991 60.9481C61.9053 60.7219 62.0373 60.4381 62.0774 60.1346C62.1175 59.8312 62.0637 59.5228 61.9234 59.2509C61.7831 58.9789 61.5629 58.7564 61.2924 58.6132C60.6008 58.1822 59.8716 57.8145 59.1138 57.5148C58.0685 57.0228 56.9626 56.6354 55.9762 56.0472C55.3704 55.7343 54.8711 55.2486 54.5416 54.6516C54.2121 54.0546 54.0672 53.3733 54.1253 52.6939C54.1554 51.9268 54.4197 51.1873 54.8826 50.5749C55.3455 49.9625 55.9848 49.5065 56.7146 49.2684C58.7456 48.5294 60.9837 48.6043 62.9608 49.4774C63.403 49.6483 63.8203 49.8823 64.3014 50.1121Z" fill="#93979B"/>
<path d="M67.6201 51.5587H65.6116V49.356H67.6027V45.7057L70.4731 45.042V49.332C71.2289 49.332 71.9407 49.351 72.6509 49.3237C72.7905 49.2944 72.936 49.3216 73.0555 49.3993C73.1751 49.4771 73.259 49.599 73.2889 49.7385C73.4913 50.3325 73.7518 50.9066 74.0073 51.5371H70.5304C70.5163 51.703 70.4955 51.8308 70.4947 51.9594C70.4947 54.3376 70.4947 56.7145 70.4947 59.0899C70.4882 59.4145 70.5143 59.7388 70.5727 60.0581C70.6007 60.3499 70.6955 60.6313 70.8498 60.8805C71.0041 61.1298 71.2138 61.3401 71.4625 61.4952C71.7112 61.6503 71.9924 61.746 72.2841 61.7749C72.5758 61.8038 72.8702 61.7651 73.1445 61.6618C73.4058 61.5979 73.6639 61.5216 73.9451 61.4452C74.1591 62.0666 74.3715 62.6764 74.5798 63.2878C74.6171 63.3982 74.642 63.5135 74.6793 63.6487C73.9608 64.0353 73.1639 64.2536 72.3487 64.2869C71.5335 64.3203 70.7214 64.1678 69.9737 63.8412C69.2682 63.5549 68.6671 63.0597 68.251 62.4221C67.8349 61.7845 67.6238 61.0349 67.6458 60.2738C67.5794 57.5734 67.6176 54.8713 67.6126 52.1693L67.6201 51.5587Z" fill="#93979B"/>
<path d="M94.9286 25.0693C95.7457 25.0693 96.4791 25.0859 97.2109 25.0618C97.3264 25.0437 97.4444 25.0708 97.5404 25.1376C97.6364 25.2044 97.7029 25.3056 97.726 25.4202C97.9467 26.0242 98.2006 26.6165 98.4578 27.2537H94.9783C94.9667 27.4196 94.9476 27.5664 94.9476 27.7125C94.9476 30.1244 94.9476 32.5367 94.9476 34.9492C94.9476 35.0861 94.9476 35.2238 94.9601 35.3591C95.1102 37.0573 96.2145 37.8031 97.8488 37.3103L98.3955 37.1444C98.5225 37.5128 98.6444 37.8753 98.7714 38.2378C98.8983 38.6004 99.0128 38.9455 99.1472 39.3412C97.9492 39.9864 96.553 40.1593 95.2338 39.8257C94.303 39.6276 93.4734 39.104 92.894 38.349C92.3146 37.594 92.0235 36.6571 92.073 35.7067C92.0655 33.0884 92.073 30.4709 92.073 27.8535V27.2645H90.0579V25.0743H92.0489V21.4157L94.9261 20.752L94.9286 25.0693Z" fill="#93979B"/>
<path d="M88.0727 24.8799L88.6932 27.1854C86.8278 27.4555 85.1005 28.3239 83.7711 29.6602C83.6372 29.8254 83.5693 30.0343 83.5803 30.2467C83.5686 33.1197 83.572 35.9926 83.572 38.8656V39.4463H80.7114V24.9031H82.3284L83.2161 27.1514C84.0025 26.6478 84.7434 26.1376 85.5183 25.6863C86.2799 25.1887 87.1634 24.9098 88.0727 24.8799Z" fill="#93979B"/>
<path d="M12.1475 28.9814C13.3247 29.0578 14.7359 29.1407 15.9222 29.2378C15.9222 29.2378 18.7637 35.3645 20.0587 38.2242C19.6131 38.8849 19.0903 39.4901 18.5015 40.027C18.2513 40.2391 17.9568 40.3925 17.6395 40.4758C17.3326 40.5629 17.1161 40.4368 16.9709 40.1C15.3938 36.4497 12.1558 29.0014 12.1475 28.9814Z" fill="#BEC1C3"/>
<path d="M21.211 36.7187L17.866 29.0521L21.1015 27.8965C21.6092 28.97 23.2585 32.7796 23.2585 32.7796C23.2585 32.7796 21.6988 35.8567 21.211 36.7187Z" fill="#BEC1C3"/>
<path d="M9.5758 28.1469C9.69776 28.2033 14.215 37.9115 14.215 37.9115C13.0328 36.5377 6.9766 29.9546 6.91438 29.8202C6.44067 28.7251 5.52394 26.3798 5.52809 26.3076" fill="#BEC1C3"/>
<path d="M40.6289 1.92855L42.6582 1.02344L45.23 5.88501L42.8241 7.25056L40.6289 1.92855Z" fill="#BEC1C3"/>
<path d="M38.2282 3.81836L40.7611 8.63015L38.4746 10.4412C37.9578 9.20342 37.5048 7.97475 36.9349 6.80333C36.7557 6.43581 36.4761 5.94965 36.4761 5.94965C36.4761 5.94965 37.8665 4.22819 38.2282 3.81836Z" fill="#BEC1C3"/>
<path d="M24.4002 30.9203L22.6638 26.9174L25.2995 24.5381C25.6646 25.3022 26.456 27.0029 26.456 27.0029C26.456 27.0029 25.1087 29.5913 24.4002 30.9203Z" fill="#BEC1C3"/>
<path d="M34.4675 14.458C33.9988 13.3363 33.5616 12.3009 33.1401 11.2531C33.6528 10.3406 34.1772 9.43793 34.7513 8.44238C35.1561 9.21061 36.5623 12.0877 36.5623 12.0877C36.5623 12.0877 34.8483 14.0398 34.4675 14.458Z" fill="#BEC1C3"/>
<path d="M31.6909 13.8867C32.1431 14.7844 32.538 15.5559 32.9179 16.3474C32.2343 17.3147 31.5366 18.2696 30.8124 19.2693C30.512 18.5633 30.2184 17.8979 29.9529 17.2168C30.5029 16.1366 31.0671 15.0747 31.6909 13.8867Z" fill="#BEC1C3"/>
<path d="M27.5509 24.9835C27.258 24.309 26.6665 22.8456 26.6665 22.8456C26.6665 22.8456 28.0561 20.6662 28.7281 19.6416L29.542 21.3199C29.542 21.3199 28.2104 23.788 27.5509 24.9835Z" fill="#BEC1C3"/>
<path d="M51.4307 0.597656C52.4561 0.72127 54.4115 0.95854 54.4513 0.990066C54.4911 1.02159 55.0213 2.07438 55.295 2.59953L52.4984 3.16948L51.4307 0.597656Z" fill="#BEC1C3"/>
</g>
<defs>
<clipPath id="clip0">
<rect width="123.199" height="70" fill="white" transform="translate(0.905273 0.344727)"/>
</clipPath>
</defs>
</svg>
