<svg width="131" height="35" viewBox="0 0 131 35" fill="none" xmlns="http://www.w3.org/2000/svg">
<g clip-path="url(#clip0)">
<path d="M78.7722 6.8615L78.7309 6.42817C78.6484 4.24087 77.7301 3.76626 73.7682 3.76626C68.5992 3.76626 67.4746 4.24087 67.4746 6.49007C67.4746 8.3369 68.104 9.02817 70.023 9.21388C70.477 9.24483 70.9825 9.30674 71.5603 9.30674C72.1071 9.33769 73.1079 9.3996 74.604 9.4615C80.1032 9.67817 81.7333 9.99801 83.0333 11.1226C84.0754 12.0305 84.4881 13.0932 84.4881 15.0948C84.4881 17.9425 84.0238 19.2837 82.7754 20.1607C81.0214 21.3782 79.0198 21.698 73.4794 21.698C68.0111 21.698 66.2159 21.5123 64.596 20.6972C62.9246 19.8512 62.0476 18.2932 62.0476 15.9718C62.0476 15.7861 62.0889 15.4353 62.0889 14.971H67.1754V15.4353C67.1754 17.6845 68.0111 18.4686 70.5492 18.4996H73.0151L73.7682 18.5306C78.4421 18.5306 79.2365 18.0559 79.2365 15.4353C79.2365 13.3718 78.5659 12.8972 75.3159 12.7734L72.396 12.6186C66.7214 12.371 65.6794 12.2163 64.2659 11.3083C62.8008 10.4004 62.1817 9.02817 62.1817 6.80991C62.1817 4.20991 62.8524 2.68293 64.3484 1.8988C66.2262 0.928962 68.1865 0.650391 73.3555 0.650391C77.9881 0.650391 79.9484 0.89801 81.4444 1.68214C83.0643 2.52817 83.8175 3.93134 83.8175 6.11864C83.8175 6.30436 83.8175 6.5623 83.8175 6.87182H78.7722V6.8615Z" fill="#93979B"/>
<path d="M98.0039 21.5956H92.6594V0.764648H98.0039V21.5956Z" fill="#93979B"/>
<path d="M130.576 10.5249L130.617 11.1233L130.659 14.4042V14.6828C130.659 18.1598 130.029 19.532 127.986 20.5947C126.232 21.5336 124.272 21.7503 118.69 21.7503C113.016 21.7503 111.097 21.4717 109.219 20.2852C107.094 18.913 106.34 17.19 106.34 13.4344V13.0011C106.382 11.9384 106.382 11.1542 106.382 10.7209C106.423 6.99631 106.505 6.37726 106.959 5.02567C107.413 3.74631 108.332 2.68361 109.497 1.99234C111.582 0.836784 113.129 0.620117 118.639 0.620117C124.932 0.620117 126.15 0.743927 127.935 1.62091C129.018 2.15742 129.813 3.0344 130.143 4.02488C130.473 4.99472 130.514 5.24234 130.555 7.05821H125.263L125.221 6.64551C125.015 4.2725 124.262 3.95266 118.587 3.95266C115.544 3.95266 114.078 4.13837 113.243 4.67488C112.159 5.36615 111.829 6.27409 111.829 8.83282L111.788 10.9273L111.829 13.6201C111.87 16.086 112.118 16.963 113.119 17.5923C114.037 18.1804 115.533 18.3765 118.876 18.3765C124.509 18.3765 125.345 17.8709 125.345 14.2185C125.345 14.0638 125.345 13.8471 125.345 13.4963H118.298V10.5249H130.576Z" fill="#93979B"/>
<path fill-rule="evenodd" clip-rule="evenodd" d="M0.916748 13.4658C2.63976 14.4769 3.55802 15.8492 7.15881 15.8492C10.7596 15.8492 13.0191 13.4658 17.2906 13.4658C21.6033 13.4658 23.966 15.8492 28.289 15.8492C32.5604 15.8492 34.2421 13.4658 38.3691 13.4658C42.5477 13.4658 44.7969 15.8492 48.5009 15.8492C52.2048 15.8492 53.4429 14.3531 55.558 13.4658V19.0579C53.4429 19.9555 52.1945 21.3896 48.5009 21.3896C44.8072 21.3896 42.5477 18.996 38.3691 18.996C34.2421 18.996 32.5604 21.3896 28.289 21.3896C23.966 21.3896 21.6136 18.996 17.2906 18.996C13.0191 18.996 10.7596 21.3896 7.15881 21.3896C3.55802 21.3896 2.65008 20.069 0.916748 19.0579V13.4658Z" fill="#93979B"/>
<path fill-rule="evenodd" clip-rule="evenodd" d="M0.916748 9.18359V12.2479C2.63976 13.259 3.55802 14.5487 7.15881 14.5487C10.7596 14.5487 13.0191 12.186 17.2906 12.186C21.6033 12.186 23.966 14.5487 28.289 14.5487C32.5604 14.5487 34.2421 12.186 38.3691 12.186C42.5477 12.186 44.7969 14.5487 48.5009 14.5487C52.2048 14.5487 53.4429 13.1455 55.558 12.2479V9.18359C53.4429 10.0812 52.1945 11.5463 48.5009 11.5463C44.8072 11.5463 42.5477 9.18359 38.3691 9.18359C34.2421 9.18359 32.5604 11.5463 28.289 11.5463C23.966 11.5463 21.6136 9.18359 17.2906 9.18359C13.0191 9.18359 10.7596 11.5463 7.15881 11.5463C3.55802 11.5463 2.65008 10.1947 0.916748 9.18359Z" fill="#93979B"/>
<path fill-rule="evenodd" clip-rule="evenodd" d="M0.916748 6.05762V7.85285C2.63976 8.83301 3.55802 10.1536 7.15881 10.1536C10.7596 10.1536 13.0191 7.79095 17.2906 7.79095C21.6033 7.79095 23.966 10.1536 28.289 10.1536C32.5604 10.1536 34.2421 7.79095 38.3691 7.79095C42.5477 7.79095 44.7969 10.1536 48.5009 10.1536C52.2048 10.1536 53.4429 8.75047 55.558 7.85285V6.05762C53.4429 6.95524 52.1945 8.42032 48.5009 8.42032C44.8072 8.42032 42.5477 6.05762 38.3691 6.05762C34.2421 6.05762 32.5604 8.42032 28.289 8.42032C23.966 8.42032 21.6136 6.05762 17.2906 6.05762C13.0191 6.05762 10.7596 8.42032 7.15881 8.42032C3.55802 8.42032 2.65008 7.06873 0.916748 6.05762Z" fill="#93979B"/>
<path d="M56.6414 20.0481C57.0644 20.0481 57.4358 20.1925 57.7247 20.4814C58.0136 20.7497 58.158 21.1005 58.158 21.5029C58.158 21.8743 57.993 22.2251 57.7144 22.483C57.4152 22.7513 57.0334 22.906 56.6414 22.906C56.239 22.906 55.8572 22.7513 55.5684 22.4727C55.2795 22.2045 55.135 21.8537 55.135 21.4719C55.135 21.0902 55.3001 20.7291 55.5993 20.4505C55.8676 20.1822 56.2287 20.0481 56.6414 20.0481ZM56.6311 19.7695C55.9811 19.7695 55.4136 20.0791 55.0834 20.5949C54.908 20.8838 54.8152 21.1727 54.8152 21.4822C54.8152 21.9259 54.9906 22.3489 55.3311 22.6687C55.6819 22.9989 56.1358 23.1846 56.6207 23.1846C57.0953 23.1846 57.5493 23.0092 57.9104 22.6894C58.2509 22.3799 58.4469 21.9568 58.4469 21.4822C58.4469 21.0283 58.2715 20.6052 57.9311 20.2854C57.5906 19.9449 57.1366 19.7695 56.6311 19.7695ZM55.8882 20.4918V22.3902H56.3731V21.6164H56.6104L57.0025 22.3902H57.5493L57.0953 21.5441C57.3739 21.4822 57.539 21.2862 57.539 21.0386C57.539 20.6775 57.2501 20.4918 56.6723 20.4918H55.8882ZM56.3731 20.791H56.5898C56.889 20.791 57.0334 20.8735 57.0334 21.0695C57.0334 21.2552 56.8993 21.3378 56.6207 21.3378H56.3834V20.791H56.3731Z" fill="#93979B"/>
<path d="M1.31909 31.2729H2.25798C2.27862 31.7682 2.44369 32.1396 2.77385 32.3769C3.10401 32.6142 3.58893 32.738 4.23893 32.738C4.79608 32.738 5.22941 32.6451 5.53893 32.4594C5.84846 32.2737 5.9929 32.0055 5.9929 31.665C5.9929 31.4174 5.91036 31.2213 5.74528 31.0872C5.5802 30.9531 5.30163 30.8396 4.90957 30.7777L3.34131 30.4991C2.71195 30.3856 2.24766 30.1999 1.95877 29.9316C1.66989 29.6634 1.52544 29.292 1.52544 28.8277C1.52544 28.2189 1.75243 27.7443 2.21671 27.4142C2.681 27.084 3.331 26.9189 4.18735 26.9189C4.99211 26.9189 5.61115 27.0943 6.04449 27.4348C6.47782 27.7856 6.69449 28.2705 6.70481 28.9205H5.80719C5.77623 28.5182 5.62147 28.2189 5.35322 28.0332C5.07465 27.8372 4.66195 27.7443 4.11512 27.7443C3.57862 27.7443 3.16592 27.8269 2.88735 28.0023C2.60877 28.1777 2.46433 28.4253 2.46433 28.7451C2.46433 28.9824 2.54687 29.1682 2.70163 29.292C2.86671 29.4158 3.1556 29.5293 3.57862 29.6118L4.97147 29.8904C5.70401 30.0348 6.20957 30.2309 6.49846 30.4888C6.78734 30.7467 6.93179 31.1182 6.93179 31.6031C6.93179 32.2324 6.69449 32.7174 6.21988 33.0578C5.74528 33.4086 5.07465 33.5737 4.19766 33.5737C3.25877 33.5737 2.54687 33.3777 2.06195 32.9959C1.57703 32.6142 1.32941 32.0364 1.31909 31.2729Z" fill="#93979B"/>
<path d="M19.0031 27.0947V31.0566C19.0031 31.882 18.7658 32.5011 18.2912 32.9344C17.8166 33.3677 17.1254 33.5741 16.2071 33.5741C15.2888 33.5741 14.5976 33.3574 14.1333 32.9344C13.6587 32.5011 13.4214 31.882 13.4214 31.0566V27.0947H14.3087V30.6749C14.3087 31.3662 14.4635 31.882 14.773 32.2122C15.0825 32.5423 15.5571 32.7074 16.2071 32.7074C16.8571 32.7074 17.342 32.5423 17.6515 32.2122C17.9611 31.882 18.1158 31.3662 18.1158 30.6749V27.0947H19.0031Z" fill="#93979B"/>
<path d="M25.5547 31.2729H26.4936C26.5142 31.7682 26.6793 32.1396 27.0094 32.3769C27.3396 32.6142 27.8245 32.738 28.4745 32.738C29.0317 32.738 29.465 32.6451 29.7745 32.4594C30.0841 32.2737 30.2285 32.0055 30.2285 31.665C30.2285 31.4174 30.146 31.2213 29.9809 31.0872C29.8158 30.9531 29.5372 30.8396 29.1452 30.7777L27.5872 30.4991C26.9579 30.3856 26.4936 30.1999 26.2047 29.9316C25.9158 29.6634 25.7714 29.292 25.7714 28.8277C25.7714 28.2189 25.9983 27.7443 26.4626 27.4142C26.9269 27.084 27.5769 26.9189 28.4333 26.9189C29.238 26.9189 29.8571 27.0943 30.2904 27.4348C30.7237 27.7856 30.9404 28.2705 30.9507 28.9205H30.0634C30.0325 28.5182 29.8777 28.2189 29.6094 28.0332C29.3309 27.8372 28.9182 27.7443 28.3714 27.7443C27.8348 27.7443 27.4221 27.8269 27.1436 28.0023C26.8547 28.1777 26.7206 28.4253 26.7206 28.7451C26.7206 28.9824 26.8031 29.1682 26.9579 29.292C27.1229 29.4158 27.4118 29.5293 27.8348 29.6118L29.2174 29.8904C29.9499 30.0348 30.4555 30.2309 30.7444 30.4888C31.0333 30.7467 31.1777 31.1182 31.1777 31.6031C31.1777 32.2324 30.9404 32.7174 30.4658 33.0578C29.9912 33.4086 29.3102 33.5737 28.4436 33.5737C27.5047 33.5737 26.7928 33.3777 26.3079 32.9959C25.8126 32.6142 25.565 32.0364 25.5547 31.2729Z" fill="#93979B"/>
<path d="M42.5168 33.2126C42.2898 33.3364 42.0525 33.4293 41.7739 33.4808C41.5057 33.5324 41.1755 33.5634 40.7834 33.5634C39.7207 33.5634 38.885 33.2642 38.266 32.6658C37.6469 32.0674 37.3374 31.2626 37.3374 30.2412C37.3374 29.2197 37.6469 28.415 38.266 27.8166C38.885 27.2182 39.7311 26.9189 40.7937 26.9189C41.8564 26.9189 42.6922 27.2182 43.3112 27.8166C43.9303 28.415 44.2398 29.2301 44.2398 30.2412C44.2398 30.757 44.1469 31.242 43.9715 31.6753C43.7961 32.1086 43.5382 32.4697 43.1977 32.7483L44.0541 33.4293L43.5485 34.0689L42.5168 33.2126ZM41.7739 32.5935L41.1136 32.057L41.5985 31.438L42.5271 32.1912C42.785 31.9848 42.9811 31.7166 43.1152 31.3864C43.2493 31.0459 43.3215 30.6745 43.3215 30.2515C43.3215 29.4674 43.0945 28.8586 42.6509 28.4253C42.2072 27.992 41.5882 27.765 40.7937 27.765C39.9993 27.765 39.3803 27.9816 38.9366 28.4253C38.493 28.8689 38.266 29.4777 38.266 30.2515C38.266 31.0356 38.493 31.6547 38.9366 32.088C39.3906 32.5213 40.0199 32.738 40.8453 32.738C41.0414 32.738 41.2168 32.7277 41.3715 32.707C41.516 32.6761 41.6501 32.6451 41.7739 32.5935Z" fill="#93979B"/>
<path d="M56.2802 27.0947V31.0566C56.2802 31.882 56.0429 32.5011 55.5683 32.9344C55.0937 33.3677 54.4025 33.5741 53.4842 33.5741C52.5659 33.5741 51.8747 33.3574 51.4104 32.9344C50.9358 32.5011 50.6985 31.882 50.6985 31.0566V27.0947H51.5858V30.6749C51.5858 31.3662 51.7405 31.882 52.0501 32.2122C52.3596 32.5423 52.8342 32.7074 53.4842 32.7074C54.1342 32.7074 54.6191 32.5423 54.9286 32.2122C55.2382 31.8923 55.3929 31.3765 55.3929 30.6852V27.105H56.2802V27.0947Z" fill="#93979B"/>
<path d="M63.1206 33.4085V27.1045H68.1349V27.9196H64.0079V29.7767H67.877V30.6021H64.0079V32.5624H68.1968V33.4085H63.1206Z" fill="#93979B"/>
<path d="M74.6968 33.4085V27.1045H75.5841V29.6529H79.4325V27.1045H80.3198V33.4085H79.4325V30.4783H75.5841V33.4085H74.6968Z" fill="#93979B"/>
<path d="M86.366 33.4085L89.358 27.1045H90.2969L93.1033 33.4085H92.1747L91.3699 31.6132H88.1509L87.3049 33.4085H86.366ZM88.5223 30.7878H90.9985L89.7914 28.095L88.5223 30.7878Z" fill="#93979B"/>
<path d="M99.2112 33.4085V27.1045H100.418L104.391 32.4902V27.1045H105.257V33.4085H104.05L100.078 28.0227V33.4085H99.2112Z" fill="#93979B"/>
<path d="M112.087 33.4085V27.1045H113.295L117.267 32.4902V27.1045H118.133V33.4085H116.926L112.954 28.0227V33.4085H112.087Z" fill="#93979B"/>
<path d="M124.179 33.4085L127.172 27.1045H128.11L130.917 33.4085H129.988L129.183 31.6132H125.964L125.129 33.4085H124.179ZM126.336 30.7878H128.812L127.615 28.095L126.336 30.7878Z" fill="#93979B"/>
</g>
<defs>
<clipPath id="clip0">
<rect width="130" height="33.4492" fill="white" transform="translate(0.916748 0.620117)"/>
</clipPath>
</defs>
</svg>
