<svg width="147" height="23" viewBox="0 0 147 23" fill="none" xmlns="http://www.w3.org/2000/svg">
<path d="M33.7881 0.0269574C32.3292 -0.0479941 30.9821 1.42479 29.7886 2.06923L30.6821 3.00528C32.5066 4.96479 30.9119 7.14517 29.8312 9.1321C28.2008 11.5826 25.7177 14.2875 22.1301 13.7698C21.3523 13.6093 20.6937 12.9921 20.4282 12.3232C22.3565 10.7035 24.0805 8.8627 25.3637 6.96219C26.2419 5.21209 28.1531 3.10118 26.5976 1.17574C24.5349 0.539909 22.4909 1.72077 20.7686 2.6649C19.8359 3.37946 19.2335 3.96053 18.5136 4.79227C16.5411 7.06434 15.2068 9.96207 15.4076 12.9614C14.463 13.543 13.3738 14.1054 12.0889 13.7698C11.3111 13.5238 10.8431 12.7945 10.6423 12.153C9.83728 7.80516 13.0386 4.58148 15.9182 1.43102L11.9613 2.02669C8.71409 1.84221 4.84716 0.596385 2.17536 2.83509C1.25802 3.84394 0.870888 5.07333 0.941482 6.32397C1.78649 5.71403 2.92453 5.47684 4.0049 5.38793C6.06912 5.5425 8.18819 5.7358 10.0466 5.30284C8.38898 7.2931 6.55483 9.2775 6.04717 11.7275C5.77452 13.3471 6.03575 14.9535 7.45124 16.0248C10.1623 17.5614 13.3875 16.4989 15.7905 15.0887C16.4951 15.7968 17.4175 16.3791 18.4285 16.5354C25.2599 17.6065 30.7707 12.9883 34.2561 8.15351C35.6058 6.04194 37.2362 3.06443 35.2773 0.707716C34.7786 0.241519 34.2744 0.0519412 33.7881 0.0269574ZM60.3802 0.580074C57.5449 0.809843 55.4056 2.30578 53.445 4.2817C52.8493 4.87898 52.0817 5.69595 51.5304 6.32397C50.1212 8.03949 49.517 10.092 48.7648 12.0679C47.4782 12.6805 45.5907 13.324 44.2122 12.4508C43.4617 11.1489 44.4334 10 45.1057 9.00446C46.5608 8.63685 48.1113 7.57487 48.5095 6.19633C47.131 5.33863 45.1584 5.28926 43.4889 5.47303C41.2066 5.70278 38.6861 6.6031 36.6813 7.81313C33.9532 9.46736 33.092 10.4426 32.1287 13.0465C31.928 13.9502 31.6539 15.2845 32.6819 15.8971C35.6534 16.7548 38.2845 14.9781 40.3829 13.2167C40.3217 13.9671 40.1123 15.196 40.8935 15.8546C43.6659 17.2179 46.8621 15.8324 49.1903 14.408C49.8335 15.1126 50.7016 16.0417 51.7431 16.195C54.2109 16.5013 56.1953 15.2522 57.955 13.8123C58.1253 14.4864 58.2052 15.225 58.8485 15.6844C60.947 16.3277 62.9382 15.4495 64.5924 14.408C64.4222 15.5721 63.5577 16.6545 62.9756 17.7267C62.3766 18.5846 61.575 19.786 60.3802 19.9391C59.4748 19.1426 60.6661 18.2797 60.6355 17.5139C59.7914 17.4832 59.0987 17.7606 58.4231 18.0671C57.0292 19.0167 55.8294 20.4123 56.2106 22.0665C56.442 22.5261 56.9781 22.6928 57.5296 22.6622C65.7088 21.9882 69.7883 13.7169 72.9743 8.11097L72.6339 7.6004C73.1682 7.17151 73.8371 6.74087 74.2507 6.28143L71.7404 5.34538C68.4319 4.91659 65.4978 5.48832 63.0607 7.38766C62.7101 7.60207 62.1911 7.9782 61.8694 8.23861C59.4952 10.3065 57.7423 13.4618 54.1258 12.8337C53.7122 12.6807 53.1319 12.199 53.3599 11.77C55.1231 10.6672 56.8488 9.29214 58.3805 7.89823C60.1096 5.96833 62.2949 4.15071 62.2949 1.51612C61.9886 0.811641 61.1904 0.534259 60.3802 0.580074ZM139.05 3.30311C137.109 3.51484 136.022 5.52614 134.54 6.7069C131.935 8.54509 129.702 11.209 126.584 11.9402C125.883 12.0283 125.241 12.1495 124.84 11.4722C124.872 9.12317 127.426 7.66805 129.052 5.9836L129.137 5.55812C128.802 5.13099 128.356 4.69704 127.775 4.66463C124.669 5.64533 122.248 8.15369 119.479 9.89796C119.889 8.42957 121.523 7.23509 122.159 5.77086C121.858 5.24753 121.126 4.88949 120.457 4.79227C115.947 7.91518 111.626 11.4824 106.417 13.0465C105.809 13.2001 104.796 13.3642 104.289 12.8763C107.331 11.196 112.729 10.1719 112.586 5.9836C112.293 5.15592 111.301 4.8401 110.459 4.74972C107.569 4.81515 104.638 6.24847 102.502 8.02587C100.998 9.28485 100.016 10.576 99.1835 12.1955C97.6568 12.7498 96.1014 13.2381 94.3756 13.3868C93.5366 13.4799 92.1989 13.5965 91.4824 13.0465L94.8862 11.4722C96.714 10.5249 99.1903 9.23298 99.5239 7.08983C99.4234 6.47747 99.1137 5.84283 98.5453 5.47303C95.572 4.45672 92.684 5.6452 90.2485 7.21747L89.8656 7.47275C89.5899 7.66805 89.3193 7.87397 89.0572 8.06842C87.4285 9.29323 86.5946 10.9214 85.9512 12.5784C84.634 12.8518 82.9287 13.4411 81.9092 12.3657C81.5365 9.82618 84.4484 8.20343 86.2065 6.49416C86.4039 6.12759 86.8107 5.47436 86.2065 5.17519C84.3395 4.47207 82.7193 5.89384 80.9306 5.77086C81.0328 5.46682 81.2846 5.23273 81.4838 4.96246C81.591 4.59016 81.6437 4.0997 81.271 3.85622C79.5079 3.82215 77.9812 5.47402 77.1014 6.792C77.0691 9.45546 73.9393 11.0528 72.2084 13.0465C71.7694 13.6896 70.7397 14.1557 70.8469 14.9186H71.0171C73.8184 14.0618 76.1568 11.6751 78.1225 9.60013C78.7012 9.66246 79.4142 9.04245 79.952 9.34484C78.5412 10.9329 76.5959 12.5855 77.2716 14.7909C77.5064 15.7333 78.5991 16.1453 79.4415 16.2375C81.8105 16.3 83.8323 15.4429 85.8661 14.7058C86.7732 14.43 86.6711 15.6769 87.4829 15.8971C91.3684 17.0581 95.5091 15.7875 98.9282 14.408C99.4626 15.1152 100.24 15.8663 101.226 16.1099C106.054 16.6599 109.827 14.0573 113.607 11.8551L113.735 11.9402C113.054 13.0106 112.028 13.9585 111.522 15.0887C111.252 15.5824 111.565 16.1827 112.246 16.0248C115.426 15.6018 117.87 13.5614 120.372 11.7275H120.712C120.238 12.6424 119.559 13.6857 120.074 14.7909C120.507 15.7956 121.66 15.8949 122.67 15.9822C127.442 15.338 130.886 11.6391 134.711 9.1321C135.288 10.0844 134.745 11.2065 134.54 12.153C132.886 12.5219 131.026 12.9422 130.073 14.408C129.91 14.87 130.15 15.44 130.626 15.6844C132.216 16.05 133.783 15.4777 135.306 15.2589C137.777 15.2589 140.07 15.8161 142.539 15.5993C144.607 15.1364 146.309 13.0397 146.581 11.2595C144.382 12.3956 141.641 12.6155 139.306 11.6424C139.775 9.77929 139.656 7.59102 139.689 5.60067C139.483 4.93005 140.47 4.53493 140.327 3.77113L139.944 3.34566C139.627 3.29537 139.328 3.27287 139.05 3.30311ZM57.6147 3.77113L57.7848 4.02641C56.8352 6.20126 55.2354 8.34241 52.8919 9.81286C53.091 8.38831 54.17 6.62514 55.2745 5.43048C56.0234 4.6033 56.665 4.21531 57.6147 3.77113ZM22.6407 4.45189L23.1087 4.49444C23.3163 5.75082 22.5471 6.80347 21.8748 7.81313C21.2315 8.57682 20.6868 9.497 19.7049 9.98305C19.7491 8.61127 20.1491 7.15142 20.8962 6.02614C21.3472 5.34815 21.8816 4.89813 22.6407 4.45189ZM108.118 7.04728C108.527 7.07388 109.136 7.26361 108.799 7.72804C107.752 9.13503 106.108 10.0315 104.417 10.4936C104.533 9.66832 105.041 8.93263 105.736 8.3237C106.44 7.73101 107.305 7.27331 108.118 7.04728ZM94.5884 7.34511C95.0002 7.37669 95.5976 7.56964 95.2691 8.02587C94.2207 9.43275 92.5835 10.3761 90.8867 10.834C91.0025 10.0088 91.5079 9.22059 92.2057 8.62154C92.9052 8.02477 93.7748 7.57457 94.5884 7.34511ZM66.7623 7.89823C67.7316 7.93558 68.3013 8.50662 68.5068 8.62154C67.0823 10.3983 64.9957 12.449 62.4225 12.2806C61.8711 11.913 61.6975 11.3547 61.9119 10.834C62.0787 10.2212 62.5229 9.75847 63.0607 9.34484L63.316 9.1321C64.1125 8.41213 65.1353 8.25229 65.6561 8.06842C66.0697 7.92291 66.4393 7.88578 66.7623 7.89823ZM40.3829 8.3237C41.2213 8.34287 42.0534 8.55185 42.7656 8.91937C41.1437 10.6656 38.9806 11.7751 36.6813 12.2806C36.2848 12.2652 35.8082 12.1105 35.7027 11.7275C35.5172 10.4256 36.4073 9.67505 37.4472 9.04701C37.6616 8.92454 37.9577 8.79172 37.9577 8.79172C38.6998 8.47001 39.5445 8.30453 40.3829 8.3237Z" fill="#93979B"/>
</svg>
