<svg width="141" height="23" viewBox="0 0 141 23" fill="none" xmlns="http://www.w3.org/2000/svg">
<mask id="mask0" mask-type="alpha" maskUnits="userSpaceOnUse" x="0" y="0" width="87" height="23">
<path d="M0.104492 0.144531H86.3911V22.5212H0.104492V0.144531Z" fill="white"/>
</mask>
<g mask="url(#mask0)">
<path d="M14.081 20.0479C12.401 21.8212 10.3477 22.5445 8.01433 22.5445C5.72766 22.5445 3.74433 21.7045 2.22766 20.1879C0.0576604 18.0179 0.104327 15.5679 0.104327 11.3445C0.104327 7.1212 0.0809938 4.6712 2.22766 2.5012C3.74433 0.984532 5.65766 0.144531 8.01433 0.144531C12.681 0.144531 15.411 3.20119 16.0177 6.98119H12.6577C12.0977 4.57786 10.4877 3.15453 8.01433 3.15453C6.70766 3.15453 5.54099 3.6912 4.77099 4.50786C3.69766 5.67453 3.44099 6.9112 3.44099 11.3445C3.44099 15.7779 3.69766 17.0379 4.77099 18.2045C5.54099 19.0445 6.70766 19.5345 8.01433 19.5345C9.46099 19.5345 10.7443 18.9745 11.6077 17.9945C12.401 17.0612 12.7277 15.9645 12.7277 14.5412V13.3045H8.03766V10.4579H16.0643V13.8179C16.0643 16.6645 15.5277 18.4845 14.081 20.0479ZM27.731 22.3579V20.7712C26.6577 21.9379 25.141 22.5445 23.5543 22.5445C21.9443 22.5445 20.6143 22.0079 19.681 21.1212C18.4677 19.9545 18.0943 18.4612 18.0943 16.6879V6.67786H21.2443V16.2445C21.2443 18.6945 22.6443 19.7445 24.3943 19.7445C26.1677 19.7445 27.6377 18.6712 27.6377 16.2445V6.67786H30.7877V22.3579H27.731ZM42.4543 11.1112C41.9643 9.94453 40.8443 9.12786 39.3743 9.12786C37.881 9.12786 36.7377 9.9212 36.2477 11.1112C35.9443 11.8112 35.8743 12.2779 35.851 13.2345H42.8977C42.851 12.2779 42.7576 11.8112 42.4543 11.1112ZM35.851 15.4279C35.851 18.1112 37.2743 19.8145 39.841 19.8145C41.6143 19.8145 42.5243 19.3245 43.6443 18.2045L45.651 20.0945C44.041 21.7045 42.5243 22.5445 39.771 22.5445C35.851 22.5445 32.7243 20.4679 32.7243 14.4945C32.7243 9.4312 35.361 6.4912 39.3743 6.4912C43.5743 6.4912 46.0243 9.59453 46.0243 14.0279V15.4279C46.001 15.4279 35.851 15.4279 35.851 15.4279ZM56.501 10.3645C55.801 9.66453 55.241 9.31453 54.1443 9.31453C52.441 9.31453 51.0176 10.6679 51.0176 12.8379V22.3579H47.8676V6.67786H50.9477V8.38119C51.741 7.26119 53.351 6.4912 55.1243 6.4912C56.641 6.4912 57.7843 6.88786 58.8576 7.98453L56.501 10.3645ZM65.5543 9.31453C62.7076 9.31453 62.2876 11.7179 62.2876 14.5179C62.2876 17.2945 62.731 19.7445 65.5543 19.7445C68.401 19.7445 68.7976 17.2945 68.7976 14.5179C68.7976 11.7179 68.401 9.31453 65.5543 9.31453ZM70.1976 21.1445C69.3343 22.0079 67.9343 22.5445 66.371 22.5445C64.6676 22.5445 63.4076 22.1012 62.2176 20.6779V22.3579H59.1376V0.331199H62.2876V8.2412C63.431 6.88787 64.7376 6.46786 66.3943 6.46786C67.981 6.46786 69.3343 7.00453 70.1976 7.86786C71.7843 9.45453 71.971 12.1145 71.971 14.4945C71.9476 16.8745 71.761 19.5812 70.1976 21.1445ZM82.821 11.1112C82.331 9.94453 81.211 9.12786 79.741 9.12786C78.2476 9.12786 77.1043 9.9212 76.6143 11.1112C76.311 11.8112 76.241 12.2779 76.2176 13.2345H83.2643C83.241 12.2779 83.1476 11.8112 82.821 11.1112ZM76.2176 15.4279C76.2176 18.1112 77.641 19.8145 80.2076 19.8145C81.981 19.8145 82.891 19.3245 84.011 18.2045L86.0176 20.0945C84.4076 21.7045 82.891 22.5445 80.1376 22.5445C76.2176 22.5445 73.091 20.4679 73.091 14.4945C73.091 9.4312 75.7276 6.4912 79.741 6.4912C83.941 6.4912 86.391 9.59453 86.391 14.0279V15.4279H76.2176Z" fill="#93979B"/>
</g>
<path d="M92.7615 21.915C89.7748 21.915 88.3981 19.8384 88.3981 17.5984V9.08172H86.5781V6.70172H88.3981V2.01172H91.5948V6.72505H94.6748V9.10505H91.5948V17.4817C91.5948 18.6017 92.1548 19.2784 93.3448 19.2784H94.6515V21.9384H92.7615" fill="#93979B"/>
<path d="M106.505 0.144531V22.5445" stroke="#93979B" stroke-width="3.84"/>
<path d="M124.541 5.39366C124.541 5.93032 124.075 6.37365 123.515 6.37365H119.361C118.778 6.37365 118.311 5.93032 118.311 5.39366V1.14699C118.311 0.610325 118.778 0.166992 119.361 0.166992H123.515C124.075 0.166992 124.541 0.610325 124.541 1.14699V5.39366Z" fill="#93979B"/>
<path d="M132.008 5.39366C132.008 5.93032 131.541 6.37365 130.981 6.37365H126.828C126.244 6.37365 125.801 5.93032 125.801 5.39366V1.14699C125.801 0.610325 126.268 0.166992 126.828 0.166992H130.981C131.564 0.166992 132.008 0.610325 132.008 1.14699V5.39366Z" fill="#BEC1C3"/>
<path d="M124.541 13.4679C124.541 14.0045 124.075 14.4479 123.515 14.4479H119.361C118.778 14.4479 118.311 14.0045 118.311 13.4679V9.22121C118.311 8.68454 118.778 8.24121 119.361 8.24121H123.515C124.075 8.24121 124.541 8.68454 124.541 9.22121V13.4679Z" fill="#93979B"/>
<path d="M132.008 13.4679C132.008 14.0045 131.541 14.4479 130.981 14.4479H126.828C126.244 14.4479 125.801 14.0045 125.801 13.4679V9.22121C125.801 8.68454 126.268 8.24121 126.828 8.24121H130.981C131.564 8.24121 132.008 8.68454 132.008 9.22121V13.4679Z" fill="#BEC1C3"/>
<path d="M140.104 13.4679C140.104 14.0045 139.638 14.4479 139.078 14.4479H134.924C134.341 14.4479 133.898 14.0045 133.898 13.4679V9.22121C133.898 8.68454 134.364 8.24121 134.924 8.24121H139.078C139.638 8.24121 140.104 8.68454 140.104 9.22121V13.4679Z" fill="#E2E3E4"/>
<path d="M124.541 21.5646C124.541 22.1012 124.075 22.5446 123.515 22.5446H119.361C118.778 22.5446 118.311 22.1012 118.311 21.5646V17.3179C118.311 16.7812 118.778 16.3379 119.361 16.3379H123.515C124.075 16.3379 124.541 16.7812 124.541 17.3179V21.5646Z" fill="#93979B"/>
<path d="M132.008 21.5646C132.008 22.1012 131.541 22.5446 130.981 22.5446H126.828C126.244 22.5446 125.801 22.1012 125.801 21.5646V17.3179C125.801 16.7812 126.268 16.3379 126.828 16.3379H130.981C131.564 16.3379 132.008 16.7812 132.008 17.3179V21.5646Z" fill="#BEC1C3"/>
<path d="M140.104 21.5646C140.104 22.1012 139.638 22.5446 139.078 22.5446H134.924C134.341 22.5446 133.898 22.1012 133.898 21.5646V17.3179C133.898 16.7812 134.364 16.3379 134.924 16.3379H139.078C139.638 16.3379 140.104 16.7812 140.104 17.3179V21.5646Z" fill="#E2E3E4"/>
<path d="M139.054 6.37365H134.901C134.318 6.37365 133.874 5.93032 133.874 5.39366V1.14699C133.874 0.610325 134.341 0.166992 134.901 0.166992H139.054C139.638 0.166992 140.104 0.610325 140.104 1.14699V5.39366C140.104 5.93032 139.638 6.37365 139.054 6.37365Z" fill="#93979B"/>
<path d="M138.548 5.74453H134.814C134.301 5.74453 133.881 5.34786 133.881 4.85786V1.0312C133.881 0.541199 134.301 0.144531 134.814 0.144531H138.548C139.061 0.144531 139.481 0.541199 139.481 1.0312V4.85786C139.481 5.34786 139.061 5.74453 138.548 5.74453Z" fill="white" fill-opacity="0.2"/>
<path d="M138.665 5.74431H135.351C134.885 5.74431 134.511 5.39431 134.511 4.95098V1.54431C134.511 1.10098 134.885 0.750977 135.351 0.750977H138.665C139.131 0.750977 139.505 1.10098 139.505 1.54431V4.95098C139.481 5.39431 139.108 5.74431 138.665 5.74431Z" fill="white" fill-opacity="0.2"/>
<path d="M138.128 5.11431H135.235C134.838 5.11431 134.511 4.81098 134.511 4.41431V1.45098C134.511 1.07764 134.838 0.750977 135.235 0.750977H138.128C138.525 0.750977 138.851 1.05431 138.851 1.45098V4.41431C138.875 4.81098 138.548 5.11431 138.128 5.11431Z" fill="white" fill-opacity="0.2"/>
<path d="M138.244 5.11507H135.771C135.421 5.11507 135.141 4.83506 135.141 4.5084V1.96507C135.141 1.6384 135.421 1.3584 135.771 1.3584H138.244C138.594 1.3584 138.874 1.61507 138.874 1.96507V4.5084C138.874 4.8584 138.594 5.11507 138.244 5.11507Z" fill="white" fill-opacity="0.2"/>
<path d="M137.708 4.50665H135.654C135.374 4.50665 135.141 4.27332 135.141 4.01666V1.89332C135.141 1.61332 135.374 1.40332 135.654 1.40332H137.708C137.988 1.40332 138.244 1.63666 138.244 1.89332V4.01666C138.244 4.27332 138.011 4.50665 137.708 4.50665Z" fill="white" fill-opacity="0.2"/>
<path d="M137.824 4.50751H136.191C135.957 4.50751 135.771 4.32084 135.771 4.11084V2.43085C135.771 2.19751 135.957 2.03418 136.191 2.03418H137.824C138.057 2.03418 138.244 2.22085 138.244 2.43085V4.11084C138.244 4.32084 138.057 4.50751 137.824 4.50751Z" fill="white" fill-opacity="0.2"/>
<path d="M136.818 3.24816H136.421C136.351 3.24816 136.305 3.2015 136.305 3.1315V2.73483C136.305 2.66483 136.351 2.61816 136.421 2.61816H136.818C136.888 2.61816 136.935 2.66483 136.935 2.73483V3.1315C136.935 3.2015 136.865 3.24816 136.818 3.24816Z" fill="white" fill-opacity="0.2"/>
</svg>
