<svg width="101" height="17" viewBox="0 0 101 17" fill="none" xmlns="http://www.w3.org/2000/svg">
<path fill-rule="evenodd" clip-rule="evenodd" d="M99.7563 0.909177V3.90293C98.2031 3.31742 96.8203 3.02137 95.61 3.02137C94.8932 3.02137 94.3223 3.15394 93.8931 3.41022C93.4639 3.66872 93.2448 3.9869 93.2448 4.3625C93.2448 4.86182 93.7294 5.30589 94.7051 5.70362L97.5238 7.07346C99.8028 8.15829 100.933 9.5988 100.933 11.4083C100.933 12.9129 100.334 14.1127 99.1235 15.0008C97.9221 15.8979 96.3047 16.342 94.2914 16.342C93.3621 16.342 92.528 16.3022 91.7868 16.2182C91.0456 16.1387 90.1938 15.9752 89.249 15.741V12.6081C90.9814 13.1936 92.559 13.4896 93.9794 13.4896C95.6742 13.4896 96.5172 12.9991 96.5172 12.0093C96.5172 11.5166 96.172 11.1189 95.4707 10.8074L92.3399 9.47507C91.185 8.95366 90.3266 8.32177 89.7646 7.57278C89.2115 6.81717 88.9304 5.95108 88.9304 4.96126C88.9304 3.57591 89.5145 2.46016 90.6695 1.61174C91.8333 0.769939 93.3776 0.347961 95.2981 0.347961C95.922 0.347961 96.6411 0.403174 97.4376 0.504817C98.2407 0.613084 99.0129 0.745645 99.7563 0.909177Z" fill="#93979B"/>
<path fill-rule="evenodd" clip-rule="evenodd" d="M11.0875 0.909177V3.90293C9.53431 3.31742 8.15372 3.02137 6.94346 3.02137C6.22438 3.02137 5.6558 3.15394 5.22655 3.41022C4.79734 3.66872 4.57829 3.9869 4.57829 4.3625C4.57829 4.86182 5.06947 5.30589 6.04519 5.70362L8.86394 7.07346C11.134 8.15829 12.2668 9.5988 12.2668 11.4083C12.2668 12.9129 11.665 14.1127 10.4636 15.0008C9.25334 15.8979 7.64484 16.342 5.62484 16.342C4.69556 16.342 3.85922 16.3022 3.11802 16.2182C2.37683 16.1387 1.53386 15.9752 0.582511 15.741V12.6081C2.32154 13.1936 3.89908 13.4896 5.31064 13.4896C7.00544 13.4896 7.84841 12.9991 7.84841 12.0093C7.84841 11.5166 7.50546 11.1189 6.81071 10.8074L3.68003 9.47507C2.51621 8.95366 1.65776 8.32177 1.10465 7.57278C0.542651 6.81717 0.268311 5.95108 0.268311 4.96126C0.268311 3.57591 0.848005 2.46016 2.00955 1.61174C3.16452 0.769939 4.71104 0.347961 6.63152 0.347961C7.26208 0.347961 7.97231 0.403174 8.77764 0.504817C9.57417 0.613084 10.3463 0.745645 11.0875 0.909177Z" fill="#93979B"/>
<path fill-rule="evenodd" clip-rule="evenodd" d="M14.3177 0.62854H18.9088V16.0614H14.3177V0.62854Z" fill="#93979B"/>
<path fill-rule="evenodd" clip-rule="evenodd" d="M33.6994 0.62854V3.48094H26.8782V6.90329H32.7945V9.47507H26.8782V13.0676H33.8388V16.0614H22.4598V0.62854H33.6994Z" fill="#93979B"/>
<path fill-rule="evenodd" clip-rule="evenodd" d="M55.1321 0.62854V16.0614H50.8462V5.88256L46.3994 16.2028H43.7532L39.4764 5.88256V16.0614H36.3767V0.62854H41.981L45.8064 10.076L49.8089 0.62854H55.1321Z" fill="#93979B"/>
<path fill-rule="evenodd" clip-rule="evenodd" d="M69.9162 0.62854V3.48094H63.1322V6.90329H69.0485V9.47507H63.1322V13.0676H70.0556V16.0614H58.6766V0.62854H69.9162Z" fill="#93979B"/>
<path fill-rule="evenodd" clip-rule="evenodd" d="M86.0254 0.62854V16.0614H81.1557L75.691 6.16314V16.0614H72.5933V0.62854H77.6048L82.9281 10.3567V0.62854H86.0254Z" fill="#93979B"/>
</svg>
