<svg width="161" height="59" viewBox="0 0 161 59" fill="none" xmlns="http://www.w3.org/2000/svg">
<g clip-path="url(#clip0)">
<path fill-rule="evenodd" clip-rule="evenodd" d="M107.822 26.1128C105.722 26.6377 104.235 27.3375 103.71 29.6118C103.186 31.8862 103.011 32.7609 102.573 33.2858H109.046V35.4726H99.6865V29.087C99.6865 29.087 98.2869 31.2739 96.0126 31.2739C93.6508 31.2739 76.1558 31.2739 76.1558 31.2739V22.5264L75.0186 23.4886C75.0186 23.4886 74.4063 23.8385 74.4063 25.1506V35.6476H65.3089V31.3613L64.3467 32.0611C64.3467 32.0611 63.5594 32.4985 63.5594 33.7232V37.3971C63.5594 37.3971 63.8218 39.2341 61.9849 39.7589C60.0604 40.3712 58.6608 38.7092 58.136 37.9219L57.8735 38.0094C57.8735 38.0094 59.623 42.2957 63.4719 40.8961C63.4719 40.8961 65.2214 40.0213 65.3089 37.6595H110.971V23.6635C110.971 23.6635 109.921 25.5005 107.822 26.1128ZM97.6746 35.6476H76.2433V33.2858H97.6746V35.6476ZM109.046 31.2739H105.285C105.285 31.2739 105.547 29.6118 106.247 28.9995C106.947 28.2997 109.046 27.7749 109.046 27.7749V31.2739Z" fill="#93979B"/>
<path fill-rule="evenodd" clip-rule="evenodd" d="M106.687 23.4061C106.687 22.8813 107.124 22.3564 107.736 22.3564C108.349 22.3564 108.873 22.8813 108.873 23.4061C108.873 24.0185 108.349 24.5433 107.736 24.5433C107.124 24.5433 106.687 24.0185 106.687 23.4061Z" fill="#93979B"/>
<path fill-rule="evenodd" clip-rule="evenodd" d="M104.497 23.4061C104.497 22.8813 105.022 22.3564 105.634 22.3564C106.246 22.3564 106.684 22.8813 106.684 23.4061C106.684 24.0185 106.246 24.5433 105.634 24.5433C105.022 24.5433 104.497 24.0185 104.497 23.4061Z" fill="#93979B"/>
<path fill-rule="evenodd" clip-rule="evenodd" d="M38.4553 39.9823C38.4553 40.5946 38.9802 41.1195 39.5925 41.1195C40.1173 41.1195 40.6422 40.5946 40.6422 39.9823C40.6422 39.37 40.1173 38.9326 39.5925 38.9326C38.9802 38.9326 38.4553 39.37 38.4553 39.9823Z" fill="#93979B"/>
<path fill-rule="evenodd" clip-rule="evenodd" d="M26.3 27.6801C26.3 27.0678 26.7374 26.543 27.3497 26.543C27.9621 26.543 28.4869 27.0678 28.4869 27.6801C28.4869 28.2925 27.9621 28.7298 27.3497 28.7298C26.7374 28.7298 26.3 28.2925 26.3 27.6801Z" fill="#93979B"/>
<path fill-rule="evenodd" clip-rule="evenodd" d="M24.1104 27.6801C24.1104 27.0678 24.6352 26.543 25.2475 26.543C25.8599 26.543 26.2972 27.0678 26.2972 27.6801C26.2972 28.2925 25.8599 28.7298 25.2475 28.7298C24.6352 28.7298 24.1104 28.2925 24.1104 27.6801Z" fill="#93979B"/>
<path fill-rule="evenodd" clip-rule="evenodd" d="M13.3564 32.2287C10.9946 32.841 9.68245 34.678 9.68245 37.1273H14.3186C14.3186 37.1273 14.4061 38.8768 13.0065 39.5766C11.6069 40.3639 9.68245 39.5766 8.8077 38.352C8.8077 38.352 8.72022 38.6144 8.98265 38.8768C9.1576 39.0518 10.8196 42.2009 14.4061 40.8887C14.4061 40.8887 16.0681 40.3639 16.0681 38.177C16.0681 36.34 16.1556 30.2168 16.1556 30.2168C16.1556 30.2168 15.7182 31.5289 13.3564 32.2287ZM14.2311 35.2903H12.3942C12.3942 35.2903 12.6566 34.5031 13.2689 34.3281C13.7938 34.1532 14.2311 33.9782 14.2311 33.9782V35.2903Z" fill="#93979B"/>
<path fill-rule="evenodd" clip-rule="evenodd" d="M8.36715 22.2715C8.36715 22.2715 7.57988 22.7963 7.22998 23.1462C6.96755 23.4087 6.4427 24.021 6.4427 25.0707C6.4427 26.1204 6.4427 36.4424 6.4427 36.4424C6.4427 36.4424 6.96755 39.1541 3.99341 39.4166C1.01926 39.7665 0.931784 35.4802 1.36916 34.4305C1.36916 34.4305 1.45663 33.6432 1.01926 34.1681C0.669359 34.6929 -1.34256 40.5537 4.08088 41.0786C4.08088 41.0786 8.1922 41.516 8.1922 36.2675C8.1922 31.019 8.36715 22.2715 8.36715 22.2715Z" fill="#93979B"/>
<path fill-rule="evenodd" clip-rule="evenodd" d="M19.3894 47.1505H20.789V45.4885C20.789 45.4885 20.964 44.5263 21.6638 43.8265C22.7134 43.0392 22.8009 42.8643 22.8009 42.8643V47.1505H24.9003V48.7251H22.8009V51.8742C22.8009 52.4865 22.8884 52.9239 23.0633 53.0988C23.3258 53.3612 23.5882 53.4487 24.113 53.4487H24.9003V55.0233H23.0633C22.3636 55.0233 21.8387 54.8483 21.4013 54.4109C21.0514 53.9736 20.789 53.3612 20.789 52.574V48.7251H19.3894V47.1505Z" fill="#93979B"/>
<path fill-rule="evenodd" clip-rule="evenodd" d="M28.051 53.26C27.876 53.1725 27.7885 52.9975 27.7885 52.6476C27.7885 52.3852 27.876 52.1228 28.051 51.9478C28.2259 51.8604 28.5758 51.7729 29.0132 51.7729H31.375V53.4349H28.8382C28.4883 53.4349 28.1384 53.3474 28.051 53.26ZM26.214 48.7987H29.538C30.2378 48.7987 30.6752 48.8862 30.9376 49.0612C31.2001 49.2361 31.375 49.586 31.375 50.0234V50.1983H28.7508C27.7011 50.1983 26.9138 50.4608 26.4764 50.8107C25.9516 51.1606 25.7766 51.8604 25.7766 52.7351C25.7766 53.4349 25.9516 54.0472 26.3889 54.3971C26.7388 54.8345 27.3512 55.0095 28.051 55.0095H33.3869V50.1109C33.3869 49.0612 33.1245 48.3614 32.5997 47.8365C32.0748 47.3991 31.375 47.1367 30.3253 47.1367H26.214V48.7987Z" fill="#93979B"/>
<path fill-rule="evenodd" clip-rule="evenodd" d="M34.2576 46.4531C34.2576 46.4531 34.52 47.1529 35.7446 47.1529C36.182 47.1529 37.5816 47.1529 37.5816 47.1529C38.3689 47.1529 38.9812 47.3279 39.2436 47.5903C39.7685 48.0277 40.0309 48.7275 40.0309 49.4273H38.2814C38.2814 49.4273 38.2814 48.64 37.6691 48.64C37.4941 48.64 36.2695 48.64 36.2695 48.64V55.0257H34.2576V46.4531Z" fill="#93979B"/>
<path fill-rule="evenodd" clip-rule="evenodd" d="M13.5246 53.26C13.3496 53.1725 13.2622 52.9975 13.2622 52.6476C13.2622 52.3852 13.3496 52.1228 13.5246 51.9478C13.787 51.8604 14.0494 51.7729 14.4868 51.7729H16.8486V53.4349H14.3993C13.962 53.4349 13.6121 53.3474 13.5246 53.26ZM11.7751 48.7987H15.0991C15.7115 48.7987 16.2363 48.8862 16.4987 49.0612C16.7612 49.2361 16.8486 49.586 16.8486 50.0234V50.1983H14.2244C13.1747 50.1983 12.3874 50.4608 11.95 50.8107C11.5127 51.1606 11.2502 51.8604 11.2502 52.7351C11.2502 53.4349 11.4252 54.0472 11.8626 54.3971C12.2125 54.8345 12.8248 55.0095 13.6121 55.0095H18.948V50.1109C18.948 49.0612 18.6856 48.3614 18.1608 47.8365C17.6359 47.3991 16.8486 47.1367 15.7989 47.1367H11.7751V48.7987Z" fill="#93979B"/>
<path fill-rule="evenodd" clip-rule="evenodd" d="M3.46853 52.4581C3.73096 52.8955 4.16833 53.1579 4.6057 53.2454C4.6057 52.6331 4.6057 51.9333 4.6057 51.9333H6.44268C6.44268 52.2832 6.44268 52.7206 6.44268 53.2454C6.96753 53.1579 7.31743 52.8955 7.66733 52.4581C8.1047 51.8458 8.27965 50.8836 8.27965 49.6589C8.27965 48.3468 8.1047 47.3846 7.66733 46.7723C7.14248 46.1599 6.44268 45.8975 5.56793 45.8975C4.6057 45.8975 3.90591 46.1599 3.46853 46.7723C3.03116 47.3846 2.76873 48.3468 2.76873 49.6589C2.76873 50.8836 3.03116 51.8458 3.46853 52.4581ZM9.76672 53.4204C9.76672 53.4204 9.59177 53.6828 9.1544 54.1202C8.8045 54.3826 8.36713 54.645 8.36713 54.645C8.01723 54.82 7.57985 54.9949 7.14248 55.0824C6.96753 55.0824 6.79258 55.1699 6.61763 55.1699C6.79258 55.7822 7.055 56.2196 7.66733 56.482C8.8045 56.9194 10.379 56.9194 11.6912 55.3448L11.9536 55.4323C11.9536 55.4323 10.7289 57.9691 8.19217 58.0565C7.57985 58.0565 6.09278 57.7941 5.39298 56.7444C5.04308 56.2196 4.86813 55.7822 4.78065 55.1699C3.38106 55.0824 2.41883 54.645 1.71903 53.8577C0.844284 52.983 0.494385 51.4959 0.494385 49.6589C0.494385 47.7345 0.844284 46.3349 1.71903 45.3727C2.50631 44.4979 3.81843 44.0605 5.56793 44.0605C7.31743 44.0605 8.54207 44.4979 9.41682 45.3727C10.2041 46.3349 10.6415 47.7345 10.6415 49.6589C10.6415 50.4462 10.554 51.146 10.4665 51.7583C10.2916 52.3707 10.0291 52.983 9.76672 53.4204Z" fill="#93979B"/>
<path fill-rule="evenodd" clip-rule="evenodd" d="M67.7642 46.4531C67.7642 46.4531 68.0266 47.1529 69.2512 47.1529C69.6886 47.1529 71.0882 47.1529 71.0882 47.1529C71.8755 47.1529 72.4878 47.3279 72.7502 47.5903C73.2751 48.0277 73.5375 48.7275 73.5375 49.4273H71.788C71.788 49.4273 71.788 48.64 71.1757 48.64C71.0007 48.64 69.7761 48.64 69.7761 48.64V55.0257H67.7642V46.4531Z" fill="#93979B"/>
<path fill-rule="evenodd" clip-rule="evenodd" d="M61.6438 47.1505H63.0434V45.4885C63.0434 45.4885 63.2183 44.5263 63.9181 43.8265C64.9678 43.0392 65.0553 42.8643 65.0553 42.8643V47.1505H67.1547V48.7251H65.0553V51.8742C65.0553 52.4865 65.1428 52.9239 65.3177 53.0988C65.5802 53.3612 65.8426 53.4487 66.3674 53.4487H67.1547V55.0233H65.3177C64.6179 55.0233 64.0931 54.8483 63.6557 54.4109C63.3058 53.9736 63.0434 53.3612 63.0434 52.574V48.7251H61.6438V47.1505Z" fill="#93979B"/>
<path fill-rule="evenodd" clip-rule="evenodd" d="M51.4058 46.5276C51.6682 46.79 51.8432 47.2274 51.8432 47.7522C51.8432 48.2771 51.6682 48.7145 51.4058 48.9769C51.0559 49.2393 50.6185 49.3268 49.9187 49.3268H47.2945V46.1777H49.8312C50.531 46.1777 51.0559 46.2652 51.4058 46.5276ZM45.1951 55.0126H47.2945V51.2512H49.9187C50.7935 51.2512 51.4933 51.1638 51.9306 51.0763C52.368 50.9888 52.7179 50.8139 53.0678 50.5514C53.5052 50.289 53.7676 49.8516 53.9426 49.4143C54.205 48.9769 54.2925 48.452 54.2925 47.7522C54.2925 47.1399 54.1175 46.5276 53.9426 46.0027C53.6801 45.4779 53.3302 45.128 52.8929 44.7781C52.543 44.6031 52.1931 44.5157 51.7557 44.4282C51.2308 44.3407 50.6185 44.2532 49.8312 44.2532H47.1195C45.8949 44.2532 45.1951 43.291 45.1951 43.291V55.0126Z" fill="#93979B"/>
<path fill-rule="evenodd" clip-rule="evenodd" d="M58.1423 55.0095C56.9176 55.0095 55.9554 54.6596 55.3431 54.0472C54.7308 53.3474 54.3809 52.3852 54.3809 51.0731C54.3809 49.761 54.7308 48.7987 55.3431 48.0989C55.9554 47.4866 56.9176 47.1367 58.1423 47.1367H61.0289V48.7987H58.4047C57.7049 48.7987 57.2675 48.8862 57.0051 49.0612C56.7427 49.3236 56.5677 49.6735 56.5677 50.2858H61.0289V51.8604H56.5677C56.5677 52.4727 56.7427 52.8226 56.9176 53.085C57.1801 53.26 57.7049 53.3474 58.4047 53.3474H61.0289V55.0095H58.1423Z" fill="#93979B"/>
<path fill-rule="evenodd" clip-rule="evenodd" d="M76.4233 49.3276C76.7732 48.8903 77.2106 48.7153 77.8229 48.7153C78.4352 48.7153 78.8726 48.8903 79.2225 49.3276C79.5724 49.765 79.7474 50.3773 79.7474 51.0771C79.7474 51.8644 79.5724 52.3893 79.2225 52.8266C78.8726 53.264 78.4352 53.439 77.8229 53.439C77.2106 53.439 76.7732 53.264 76.4233 52.8266C76.0734 52.3893 75.8985 51.8644 75.8985 51.0771C75.8985 50.3773 76.0734 49.765 76.4233 49.3276ZM80.7096 48.103C80.0098 47.4032 79.0476 46.9658 77.8229 46.9658C76.5983 46.9658 75.636 47.4032 74.9362 48.103C74.149 48.8903 73.7991 49.8525 73.7991 51.0771C73.7991 52.3018 74.149 53.264 74.9362 54.0513C75.636 54.7511 76.5983 55.1885 77.8229 55.1885C79.0476 55.1885 80.0098 54.7511 80.7096 54.0513C81.4094 53.264 81.8468 52.3018 81.8468 51.0771C81.8468 49.8525 81.4094 48.8903 80.7096 48.103Z" fill="#93979B"/>
<path fill-rule="evenodd" clip-rule="evenodd" d="M89.0214 55.0095C87.7968 55.0095 86.8346 54.6596 86.2222 54.0472C85.5224 53.3474 85.26 52.3852 85.26 51.0731C85.26 49.761 85.5224 48.7987 86.2222 48.0989C86.8346 47.4866 87.7968 47.1367 89.0214 47.1367H91.9081V48.7987H89.2839C88.5841 48.7987 88.0592 48.8862 87.8843 49.0612C87.6218 49.3236 87.4469 49.6735 87.4469 50.2858H91.9081V51.8604H87.4469C87.4469 52.4727 87.6218 52.8226 87.7968 53.085C88.0592 53.26 88.4966 53.3474 89.2839 53.3474H91.9081V55.0095H89.0214Z" fill="#93979B"/>
<path fill-rule="evenodd" clip-rule="evenodd" d="M99.5191 55.0095H95.7577C94.6206 55.0095 93.8333 54.747 93.3959 54.3097C92.8711 53.8723 92.6086 53.1725 92.6086 52.1228V47.1367H94.6206V51.9478C94.6206 52.4727 94.708 52.8226 94.883 52.9975C95.0579 53.1725 95.4078 53.26 95.9327 53.26H97.5072V47.1367H99.5191V55.0095Z" fill="#93979B"/>
<path fill-rule="evenodd" clip-rule="evenodd" d="M100.128 46.3672C100.128 46.3672 100.566 47.1545 102.228 47.1545C103.627 47.1545 107.826 47.1545 107.826 47.1545C108.876 47.1545 109.663 47.3294 110.188 47.8543C110.713 48.2916 110.888 48.9914 110.888 50.0411V55.0272H108.963V50.3036C108.963 49.6912 108.876 49.3413 108.701 49.1664C108.526 48.9914 108.176 48.904 107.651 48.904H106.514V55.0272H104.502V48.904H102.14V55.0272H100.128V46.3672Z" fill="#93979B"/>
<path fill-rule="evenodd" clip-rule="evenodd" d="M82.4614 45.4885C82.4614 45.4885 82.6364 44.5263 83.3362 43.8265C84.3859 43.0392 84.4733 42.8643 84.4733 42.8643V55.2857H82.4614V45.4885Z" fill="#93979B"/>
<path fill-rule="evenodd" clip-rule="evenodd" d="M145.964 46.031C148.85 49.0051 151.912 52.0667 155.936 52.5916C157.86 52.854 159.697 52.6791 161.359 52.0667V55.1284H122.783V45.7686C128.294 48.6552 135.992 48.9177 141.415 47.6055C142.99 47.1682 144.564 46.6433 145.964 46.031Z" fill="#93979B"/>
<path fill-rule="evenodd" clip-rule="evenodd" d="M149.373 46.6944C148.935 46.1696 148.323 45.6447 147.798 45.0324C148.585 44.595 149.46 44.1577 150.16 43.6328C152.347 45.4698 154.621 46.9569 157.245 47.3068C158.645 47.4817 160.045 47.5692 161.357 47.3068V50.0185C157.333 51.8555 152.959 50.2809 149.373 46.6944Z" fill="#93979B"/>
<path fill-rule="evenodd" clip-rule="evenodd" d="M161.362 31.9268V45.3104C160.05 45.5728 158.65 45.5728 157.6 45.3979C155.326 45.048 153.402 43.9108 151.74 42.5112C155.851 39.3621 159.087 35.4258 161.362 31.9268Z" fill="#93979B"/>
<path fill-rule="evenodd" clip-rule="evenodd" d="M141.59 29.8258C134.242 29.8258 127.594 26.8516 122.783 22.0405V43.7343C122.958 43.8217 123.22 43.9092 123.483 44.0842C130.481 47.6706 137.829 47.4082 144.389 44.609C141.415 41.6349 138.441 39.1856 134.68 40.2353C133.892 40.4977 132.93 40.9351 132.318 41.4599C132.143 41.7223 131.88 41.8098 131.53 41.8098C131.006 41.8098 130.568 41.3724 130.568 40.8476C130.568 40.5852 130.656 40.3227 130.831 40.1478C130.831 40.1478 131.181 39.7979 131.793 39.448C137.391 35.774 142.29 39.6229 146.226 43.7343C147.014 43.2969 147.801 42.8595 148.588 42.3347C144.214 38.1359 140.453 33.2373 135.817 34.9868C134.942 35.2492 134.067 35.8615 133.455 36.5613C133.28 36.7363 132.93 36.9112 132.668 36.9112C132.143 36.9112 131.705 36.4738 131.705 35.949C131.705 35.6866 131.793 35.4241 131.968 35.2492C131.968 35.2492 132.055 35.1617 132.143 34.9868C137.304 29.9132 142.99 33.9371 147.101 38.1359C148.151 39.0981 149.2 40.2353 150.25 41.285C154.799 38.0484 158.735 33.4997 161.359 28.4262V20.9033C156.548 26.4142 149.463 29.8258 141.59 29.8258Z" fill="#BEC1C3"/>
<path fill-rule="evenodd" clip-rule="evenodd" d="M141.59 2.10449C141.59 2.10449 144.915 5.77844 147.101 8.92753C149.201 12.0766 150.863 15.3132 150.863 18.6372C150.863 22.2237 149.638 24.1482 148.414 25.3728C146.926 26.8599 144.04 28.2595 141.59 27.9096C141.59 27.9096 144.827 28.0845 147.189 25.7227C149.026 23.7983 149.638 21.5239 149.638 19.1621C149.638 16.6253 147.889 13.3888 145.964 10.852C144.215 8.40268 140.978 5.07864 140.978 5.07864C140.978 5.07864 137.654 9.10248 135.905 12.514C134.243 15.7506 133.455 18.2873 133.543 20.5617C133.543 20.5617 133.018 18.8122 133.98 15.3132C134.855 12.1641 136.254 9.80228 137.654 7.52794C139.316 4.99116 141.59 2.10449 141.59 2.10449Z" fill="#93979B" fill-opacity="0.6"/>
<path fill-rule="evenodd" clip-rule="evenodd" d="M141.593 7.14648C141.593 7.14648 138.356 10.2081 136.519 13.8821C134.682 17.556 134.332 19.1305 135.12 22.3671C135.907 25.6912 139.756 26.9158 139.756 26.9158C139.756 26.9158 136.082 24.2916 135.994 19.9178C135.907 15.5441 137.831 12.6574 138.444 11.5202C139.056 10.3831 141.593 7.14648 141.593 7.14648Z" fill="#93979B"/>
<path fill-rule="evenodd" clip-rule="evenodd" d="M54.1155 23.5761C53.7656 23.8385 53.4157 24.4508 53.4157 25.2381C53.4157 25.9379 53.4157 35.5601 53.4157 35.5601H49.6543V35.3852L49.7418 22.5264C49.7418 22.5264 49.3044 22.8763 48.9545 23.2262H48.867C48.7795 23.3136 48.6046 23.4886 48.5171 23.4886C48.1672 23.8385 47.8173 24.4508 47.8173 25.1506C47.8173 25.9379 47.8173 35.5601 47.8173 35.5601H44.4058V31.3613C44.4058 31.3613 43.6185 31.9737 43.3561 32.2361C43.0062 32.4985 42.4814 33.0234 42.4814 33.8981C42.4814 34.7728 42.4814 35.6476 42.4814 35.6476H28.4854V30.0492C28.4854 30.0492 27.5232 31.0114 26.6484 31.2739C25.7737 31.4488 22.712 31.5363 22.1872 34.5979C22.1872 34.5979 22.4496 38.9716 20.7876 39.584C19.5629 40.0213 18.1633 40.0213 16.9387 38.5343L16.6763 38.6217C16.6763 38.6217 18.8631 42.7331 22.1872 40.7211C22.1872 40.7211 23.6743 40.0213 23.7617 37.2221C23.9367 33.8106 24.724 33.8106 25.6862 33.4607C25.6862 33.4607 26.4735 33.1983 26.4735 33.9856C26.4735 35.0353 26.4735 37.3971 26.4735 37.3971H55.2527V22.5264C55.2527 22.5264 54.4654 23.2262 54.1155 23.5761Z" fill="#93979B"/>
</g>
<defs>
<clipPath id="clip0">
<rect width="160" height="57.5" fill="white" transform="translate(0.905273 0.594727)"/>
</clipPath>
</defs>
</svg>
