<?xml version="1.0" encoding="utf-8"?>
<!-- Generator: Adobe Illustrator 23.0.3, SVG Export Plug-In . SVG Version: 6.00 Build 0)  -->
<svg version="1.1" id="Layer_1" xmlns="http://www.w3.org/2000/svg" xmlns:xlink="http://www.w3.org/1999/xlink" x="0px" y="0px"
	 viewBox="0 0 90 90" style="enable-background:new 0 0 90 90;" xml:space="preserve">
<g id="Group_510" transform="translate(0 0)">
	<g id="Group_509">
		<path id="Path_526" d="M85,46.6L85,46.6L84.9,20c0-1.1-0.9-2-2-2c0,0,0,0,0,0H72.3L64.5,2.4c-0.5-1-1.7-1.4-2.7-0.9L29.2,18H8.1
			c-4.4,0-8,3.4-8.1,7.8c0,0,0,0,0,0s0,0,0,0c0,0.1,0,0.2,0,0.3v54.4c0,4.5,3.6,8.1,8.1,8.1h74.8c1.1,0,2-0.9,2-2V71.2H85
			c2.8,0,5-2.3,5-5V51.7C90,48.9,87.7,46.6,85,46.6z M80.9,22v7.8h-2.6L74.4,22H80.9z M30.6,21.8L30.6,21.8L61.8,6l7.5,14.9l0,0
			l4.5,8.9h-3.9c0-0.1-0.1-0.1-0.1-0.2l-5.2-10.2c-0.4-0.8-1.3-1.2-2.2-1.1l-0.6,0.1c-2.4,0.4-4.8-0.6-6-2.7l-0.4-0.6
			c-0.5-0.9-1.7-1.2-2.6-0.7L22.4,29.8h-7.7L30.6,21.8z M65.4,29.8H31.3l21.8-11c2.1,2.6,5.3,4,8.7,3.7L65.4,29.8z M8.1,22h13.1
			L6.5,29.5c-1.1-0.5-2-1.5-2.3-2.6l0,0c0-0.1,0-0.2-0.1-0.2c0-0.1,0-0.1,0-0.2c0-0.1,0-0.1,0-0.2c0-0.1,0-0.2,0-0.3
			C4.1,23.7,5.9,22,8.1,22z M80.9,84.7H8.1c-2.3,0-4.1-1.8-4.1-4.1v-0.9h61.3c1.1,0,2-0.9,2-2c0-1.1-0.9-2-2-2H4V32.7
			c0.8,0.5,1.7,0.8,2.6,1h0l0,0l0.1,0l0,0h0c0.1,0,0.2,0,0.4,0.1l0.1,0l0,0l0.2,0c0.1,0,0.2,0,0.2,0h0.1c0.2,0,0.3,0,0.4,0h72.8v4.4
			H19.1c-1.1,0-2,0.9-2,2c0,1.1,0.9,2,2,2h61.8v4.4h-29c-1.1,0-2,0.9-2,2v20.6c0,1.1,0.9,2,2,2h29V84.7z M85,67.2H53.9V50.7H85
			c0.6,0,1,0.5,1,1v14.5l0,0C86,66.8,85.5,67.2,85,67.2z"/>
	</g>
</g>
<g id="Group_512" transform="translate(34.799 30.93)">
	<g id="Group_511">
		<path id="Path_527" d="M29.1,20.4c-4.2,0-7.6,3.4-7.6,7.6s3.4,7.6,7.6,7.6s7.6-3.4,7.6-7.6v0C36.6,23.8,33.2,20.4,29.1,20.4z
			 M29.1,31.6c-2,0-3.6-1.6-3.6-3.6s1.6-3.6,3.6-3.6c2,0,3.6,1.6,3.6,3.6S31,31.6,29.1,31.6L29.1,31.6z"/>
	</g>
</g>
<g id="Group_514" transform="translate(42.88 45.918)">
	<g id="Group_513">
		<path id="Path_528" d="M30.4,31.3c0-0.1-0.1-0.3-0.1-0.4c0-0.1-0.1-0.2-0.2-0.3c-0.1-0.1-0.2-0.2-0.2-0.3
			c-0.5-0.5-1.2-0.7-1.8-0.5c-0.1,0-0.3,0.1-0.4,0.1c-0.2,0.1-0.5,0.2-0.6,0.4c-0.1,0.1-0.2,0.2-0.2,0.3c-0.1,0.1-0.1,0.2-0.2,0.3
			c-0.1,0.1-0.1,0.2-0.1,0.4c0,0.1,0,0.3,0,0.4c0,0.1,0,0.3,0,0.4c0,0.1,0.1,0.3,0.1,0.4c0.1,0.1,0.1,0.2,0.2,0.3
			c0.1,0.1,0.2,0.2,0.2,0.3c0.1,0.1,0.2,0.2,0.3,0.3c0.1,0.1,0.2,0.1,0.3,0.2c0.1,0.1,0.2,0.1,0.4,0.1c0.3,0.1,0.5,0.1,0.8,0
			c0.1,0,0.3-0.1,0.4-0.1c0.1-0.1,0.2-0.1,0.3-0.2c0.1-0.1,0.2-0.2,0.3-0.3c0.1-0.1,0.2-0.2,0.2-0.3c0.1-0.1,0.1-0.2,0.2-0.3
			c0-0.1,0.1-0.2,0.1-0.4c0-0.1,0-0.3,0-0.4C30.5,31.6,30.5,31.4,30.4,31.3z"/>
	</g>
</g>
<g id="Group_516" transform="translate(6.801 22.822)">
	<g id="Group_515">
		<path id="Path_529" d="M8.2,17c0-0.1-0.1-0.3-0.1-0.4c-0.1-0.1-0.1-0.2-0.2-0.3c-0.1-0.1-0.2-0.2-0.3-0.3
			c-0.1-0.1-0.2-0.2-0.3-0.2c-0.1-0.1-0.2-0.1-0.3-0.2c-0.1,0-0.2-0.1-0.4-0.1c-0.3-0.1-0.5-0.1-0.8,0c-0.1,0-0.3,0.1-0.4,0.1
			c-0.1,0-0.2,0.1-0.3,0.2C5,15.8,4.9,15.9,4.8,16c-0.1,0.1-0.2,0.2-0.2,0.3c-0.1,0.1-0.1,0.2-0.2,0.3c-0.1,0.1-0.1,0.2-0.1,0.4
			c-0.1,0.3-0.1,0.5,0,0.8c0,0.1,0.1,0.3,0.1,0.4c0.1,0.1,0.1,0.2,0.2,0.3c0.1,0.1,0.2,0.2,0.2,0.3C4.9,18.9,5,19,5.1,19.1
			c0.1,0.1,0.2,0.1,0.3,0.2c0.1,0.1,0.2,0.1,0.4,0.1c0.1,0,0.3,0,0.4,0c0.1,0,0.3,0,0.4,0c0.1,0,0.3-0.1,0.4-0.1
			c0.1-0.1,0.2-0.1,0.3-0.2c0.1-0.1,0.2-0.2,0.3-0.3c0.2-0.2,0.3-0.4,0.4-0.6c0.1-0.1,0.1-0.2,0.1-0.4c0-0.1,0-0.3,0-0.4
			C8.2,17.3,8.2,17.2,8.2,17z"/>
	</g>
</g>
</svg>
