<?xml version="1.0" encoding="utf-8"?>
<!-- Generator: Adobe Illustrator 23.0.3, SVG Export Plug-In . SVG Version: 6.00 Build 0)  -->
<svg version="1.1" id="Layer_1" xmlns="http://www.w3.org/2000/svg" xmlns:xlink="http://www.w3.org/1999/xlink" x="0px" y="0px"
	 viewBox="0 0 90 90" style="enable-background:new 0 0 90 90;" xml:space="preserve">
<g id="Group_356" transform="translate(32.766 10.57)">
	<g id="Group_355">
		<path id="Path_508" d="M1.8,0C0.8,0,0,0.8,0,1.8s0.8,1.8,1.8,1.8s1.8-0.8,1.8-1.8v0C3.5,0.8,2.7,0,1.8,0z"/>
	</g>
</g>
<g id="Group_358" transform="translate(39.7 14.093)">
	<g id="Group_357">
		<path id="Path_509" d="M5.4,10.6c-1,0-1.8-0.7-1.8-1.7c0-1,0.7-1.8,1.7-1.8c0,0,0.1,0,0.1,0c0.7,0,1.4,0.4,1.9,0.9
			C8,8.6,9.1,8.6,9.8,7.9c0.6-0.7,0.6-1.8,0-2.4C9,4.7,8.1,4.2,7.2,3.8V1.8c0-1-0.7-1.8-1.7-1.8S3.7,0.7,3.6,1.7c0,0,0,0.1,0,0.1
			v2.1c-2.8,1-4.2,4-3.2,6.7c0.7,2.1,2.7,3.5,5,3.5c1,0,1.7,0.8,1.7,1.8c0,0.9-0.8,1.7-1.7,1.7c-0.9-0.1-1.8-0.6-2.3-1.3
			c-0.6-0.7-1.7-0.8-2.5-0.2c-0.7,0.6-0.8,1.7-0.2,2.5c0.8,1,2,1.8,3.2,2.3v2.1c0,1,0.7,1.8,1.7,1.8S7.1,24,7.2,23c0,0,0-0.1,0-0.1
			v-2.1c2.8-1,4.2-4,3.2-6.7C9.6,12,7.6,10.6,5.4,10.6L5.4,10.6z"/>
	</g>
</g>
<g id="Group_360" transform="translate(51.439 25.72)">
	<g id="Group_359">
		<path id="Path_510" d="M31.7,0c-3.9,0-7,3.2-7,7v12.6c-2.4-0.6-5,0.1-6.7,1.8L6.1,33.3c-1.7,1.6-2.6,3.9-2.6,6.2v10.4H1.8
			c-1,0-1.8,0.8-1.8,1.8v11.1c0,1,0.8,1.8,1.8,1.8h24.7c1,0,1.8-0.8,1.8-1.8V51.6c0-1-0.8-1.8-1.8-1.8h-1.8V49
			c0-0.5,0.2-0.9,0.5-1.2l11-11c1.7-1.6,2.6-3.9,2.6-6.2V7C38.8,3.2,35.6,0,31.7,0z M24.7,61H3.5v-7.6h21.1L24.7,61z M35.2,30.6
			c0,1.4-0.6,2.7-1.5,3.7l-11,11c-1,1-1.5,2.3-1.5,3.7v0.8H7V39.5c0-1.4,0.6-2.7,1.5-3.7l11.8-11.8c1.3-1.3,3.4-1.4,4.8-0.1l0,0
			c0,0,0.1,0.1,0.1,0.1c1.4,1.4,1.4,3.6,0,5c0,0,0,0,0,0l-8.8,8.8c-0.7,0.7-0.6,1.8,0.1,2.5c0.7,0.6,1.7,0.6,2.4,0l8.8-8.8
			c2.6-2.6,2.8-6.9,0.3-9.6V7c0-1.9,1.6-3.5,3.5-3.5s3.5,1.6,3.5,3.5c0,0,0,0,0,0L35.2,30.6z"/>
	</g>
</g>
<g id="Group_362" transform="translate(0 25.72)">
	<g id="Group_361">
		<path id="Path_511" d="M37,49.9h-1.8V39.5c0-2.3-0.9-4.6-2.6-6.2L20.8,21.4c-1.8-1.8-4.3-2.5-6.7-1.8V7c0-3.9-3.2-7-7-7S0,3.2,0,7
			v23.5c0,2.3,0.9,4.6,2.6,6.2l11,11c0.3,0.3,0.5,0.8,0.5,1.2v0.8h-1.8c-1,0-1.8,0.8-1.8,1.8v11.1c0,1,0.8,1.8,1.8,1.8H37
			c1,0,1.8-0.8,1.8-1.8V51.6C38.8,50.6,38,49.9,37,49.9C37,49.9,37,49.9,37,49.9z M5.1,34.3c-1-1-1.6-2.3-1.5-3.7V7
			c0-1.9,1.6-3.5,3.5-3.5s3.5,1.6,3.5,3.5v14.7c-2.5,2.8-2.3,7,0.3,9.6l8.8,8.8c0.7,0.7,1.8,0.6,2.5-0.1c0.6-0.7,0.6-1.7,0-2.4
			l-8.8-8.8c-1.4-1.4-1.4-3.6,0-5c0,0,0,0,0,0c0,0,0.1-0.1,0.1-0.1l0,0c1.4-1.2,3.5-1.2,4.8,0.1l11.8,11.8c1,1,1.6,2.3,1.5,3.7v10.4
			H17.6V49c0-1.4-0.6-2.7-1.5-3.7L5.1,34.3z M35.2,61H14.1v-7.6h21.1V61z"/>
	</g>
</g>
<g id="Group_364" transform="translate(18.673)">
	<g id="Group_363">
		<path id="Path_512" d="M26.4,0C11.8,0,0,11.8,0,26.4s11.8,26.4,26.4,26.4S52.8,41,52.8,26.4c0,0,0,0,0,0C52.8,11.8,41,0,26.4,0z
			 M26.4,49.3c-12.6,0-22.9-10.3-22.9-22.9c0-12.6,10.3-22.9,22.9-22.9s22.9,10.3,22.9,22.9c0,0,0,0,0,0
			C49.3,39.1,39.1,49.3,26.4,49.3z"/>
	</g>
</g>
<g id="Group_366" transform="translate(25.72 7.052)">
	<g id="Group_365">
		<path id="Path_513" d="M31.5,4.3c-4.6-3.7-10.7-5.1-16.5-3.8c-1,0.2-1.6,1.1-1.4,2.1c0.2,1,1.1,1.6,2.1,1.4c0,0,0,0,0.1,0
			C20.6,2.8,25.5,4,29.3,7c6.8,5.5,7.9,15.5,2.4,22.3c-5.5,6.8-15.5,7.9-22.3,2.4c-5.9-4.8-7.6-13.1-4-19.8c0.4-0.9,0-1.9-0.8-2.3
			c-0.8-0.4-1.8-0.1-2.3,0.7c-5.1,9.4-1.5,21.2,7.9,26.2c9.4,5.1,21.2,1.5,26.2-7.9C40.9,20.3,38.8,10.1,31.5,4.3L31.5,4.3z"/>
	</g>
</g>
</svg>
