<?xml version="1.0" encoding="utf-8"?>
<!-- Generator: Adobe Illustrator 23.0.3, SVG Export Plug-In . SVG Version: 6.00 Build 0)  -->
<svg version="1.1" id="Layer_1" xmlns="http://www.w3.org/2000/svg" xmlns:xlink="http://www.w3.org/1999/xlink" x="0px" y="0px"
	 viewBox="0 0 90 90" style="enable-background:new 0 0 90 90;" xml:space="preserve">
<g id="Group_518" transform="translate(0)">
	<g id="Group_517">
		<path id="Path_530" d="M72.9,26.6c1,0,1.7-0.8,1.7-1.7v-19c0-2.9-2.3-5.2-5.2-5.2H5.9C3,0.6,0.6,2.9,0.6,5.8v78.9
			C0.6,87.7,3,90,5.9,90h63.6c2.9,0,5.2-2.3,5.2-5.2V71.9c0-1-0.8-1.7-1.7-1.7s-1.7,0.8-1.7,1.7v12.9c0,1-0.8,1.7-1.7,1.7H5.9
			c-1,0-1.7-0.8-1.7-1.7V5.8c0-1,0.8-1.7,1.7-1.7h63.6c1,0,1.7,0.8,1.7,1.7v19C71.2,25.8,72,26.6,72.9,26.6L72.9,26.6z"/>
	</g>
</g>
<g id="Group_520" transform="translate(12.864 5.789)">
	<g id="Group_519">
		<path id="Path_531" d="M24.8,4.2c-8.9,0-16.1,7.2-16.1,16c0,4.4,1.8,8.7,5,11.7c0.1,0.1,0.1,0.1,0.2,0.2c6.1,5.6,15.5,5.6,21.7,0
			c0.1-0.1,0.1-0.1,0.2-0.2c6.5-6.1,6.8-16.2,0.7-22.7C33.5,6,29.2,4.2,24.8,4.2z M24.8,32.9c-2.7,0-5.4-0.9-7.6-2.6
			c2.4-4.2,7.7-5.7,11.9-3.3c1.4,0.8,2.5,1.9,3.3,3.3C30.2,32,27.5,32.9,24.8,32.9z M22,19.6v-1.1c0-1.5,1.2-2.8,2.8-2.8
			c1.5,0,2.8,1.2,2.8,2.8c0,0,0,0,0,0v1.1c0,1.5-1.2,2.8-2.8,2.8C23.3,22.4,22,21.1,22,19.6C22,19.6,22,19.6,22,19.6z M34.9,27.7
			c-1.3-1.9-3.1-3.4-5.1-4.3c0.9-1.1,1.3-2.4,1.3-3.8v-1.1c0-3.5-2.8-6.3-6.3-6.3c-3.5,0-6.3,2.8-6.3,6.3v1.1c0,1.4,0.5,2.7,1.3,3.8
			c-2.1,0.9-3.9,2.4-5.1,4.3c-4.1-5.6-2.9-13.5,2.7-17.6c5.6-4.1,13.5-2.9,17.6,2.7C38.2,17.2,38.2,23.3,34.9,27.7z"/>
	</g>
</g>
<g id="Group_522" transform="translate(21.654 46.952)">
	<g id="Group_521">
		<path id="Path_532" d="M25.4,30.1H16c-1,0-1.7,0.8-1.7,1.7c0,1,0.8,1.7,1.7,1.7h9.4c1,0,1.7-0.8,1.7-1.7
			C27.2,30.9,26.4,30.1,25.4,30.1z"/>
	</g>
</g>
<g id="Group_524" transform="translate(12.22 40.949)">
	<g id="Group_523">
		<path id="Path_533" d="M34.9,26.3H10.1c-1,0-1.7,0.8-1.7,1.7c0,1,0.8,1.7,1.7,1.7h24.8c1,0,1.7-0.8,1.7-1.7
			C36.6,27.1,35.8,26.3,34.9,26.3z"/>
	</g>
</g>
<g id="Group_526" transform="translate(12.22 34.946)">
	<g id="Group_525">
		<path id="Path_534" d="M34.9,22.6H10.1c-1,0-1.7,0.8-1.7,1.7c0,1,0.8,1.7,1.7,1.7h24.8c1,0,1.7-0.8,1.7-1.7
			C36.6,23.3,35.8,22.6,34.9,22.6z"/>
	</g>
</g>
<g id="Group_528" transform="translate(7.641 28.943)">
	<g id="Group_527">
		<path id="Path_535" d="M8.4,19.3c-0.7-0.7-1.8-0.7-2.5,0c-0.7,0.7-0.7,1.8,0,2.5c0.7,0.7,1.8,0.7,2.5,0c0.3-0.3,0.5-0.8,0.5-1.2
			C8.9,20.1,8.8,19.6,8.4,19.3z"/>
	</g>
</g>
<g id="Group_530" transform="translate(7.641 34.946)">
	<g id="Group_529">
		<path id="Path_536" d="M8.4,23.1c-0.7-0.7-1.8-0.7-2.5,0c-0.7,0.7-0.7,1.8,0,2.5c0.7,0.7,1.8,0.7,2.5,0c0.3-0.3,0.5-0.8,0.5-1.2
			C8.9,23.8,8.8,23.4,8.4,23.1z"/>
	</g>
</g>
<g id="Group_532" transform="translate(7.641 40.949)">
	<g id="Group_531">
		<path id="Path_537" d="M8.4,26.9c-0.7-0.7-1.8-0.7-2.5,0c-0.7,0.7-0.7,1.8,0,2.5c0.7,0.7,1.8,0.7,2.5,0c0.3-0.3,0.5-0.8,0.5-1.2
			C8.9,27.6,8.8,27.2,8.4,26.9z"/>
	</g>
</g>
<g id="Group_534" transform="translate(12.22 28.943)">
	<g id="Group_533">
		<path id="Path_538" d="M34.9,18.8H10.1c-1,0-1.7,0.8-1.7,1.7c0,1,0.8,1.7,1.7,1.7h24.8c1,0,1.7-0.8,1.7-1.7
			C36.6,19.6,35.8,18.8,34.9,18.8z"/>
	</g>
</g>
<g id="Group_536" transform="translate(31.9 13.365)">
	<g id="Group_535">
		<path id="Path_539" d="M54.5,10c-3.5-2-8-0.8-10,2.7c0,0,0,0,0,0l-22,38.1c-0.1,0.2-0.2,0.4-0.2,0.7l-1.5,13.9
			c-0.1,1,0.6,1.8,1.5,1.9c0.4,0,0.9-0.1,1.2-0.3l11.2-8.3c0.2-0.1,0.4-0.3,0.5-0.5l22-38.1C59.2,16.5,58,12,54.5,10z M24.6,61.7
			l0.8-7.2l5.1,2.9L24.6,61.7z M33,54.8L26.4,51L44,20.4l6.7,3.8L33,54.8z M54.2,18.2l-1.7,3l-6.7-3.8l1.7-3
			c1.1-1.8,3.4-2.5,5.2-1.4C54.6,14.1,55.2,16.4,54.2,18.2z"/>
	</g>
</g>
</svg>
