<?xml version="1.0" encoding="utf-8"?>
<!-- Generator: Adobe Illustrator 23.0.3, SVG Export Plug-In . SVG Version: 6.00 Build 0)  -->
<svg version="1.1" id="Layer_1" xmlns="http://www.w3.org/2000/svg" xmlns:xlink="http://www.w3.org/1999/xlink" x="0px" y="0px"
	 viewBox="0 0 90 90" style="enable-background:new 0 0 90 90;" xml:space="preserve">
<g id="fast-forward" transform="translate(-0.001 0)">
	<g id="Group_369" transform="translate(0.001 0)">
		<g id="Group_368" transform="translate(0 0)">
			<path id="Path_517" d="M83.9,22.5C71.5,1,44-6.4,22.5,6C12.2,12,4.6,21.8,1.6,33.3c-6.4,24,7.8,48.6,31.8,55
				c3.8,1,7.8,1.5,11.7,1.6C69.9,89.9,90,69.7,89.9,44.9C89.9,37,87.8,29.3,83.9,22.5z M83.9,55.4C78.1,76.9,56,89.6,34.5,83.9
				c-10.3-2.8-19.1-9.5-24.4-18.8C-1,45.8,5.6,21.2,24.8,10.1c9.2-5.3,20.2-6.8,30.5-4C76.9,11.8,89.6,33.9,83.9,55.4
				C83.9,55.4,83.9,55.4,83.9,55.4L83.9,55.4z"/>
		</g>
	</g>
	<g id="Group_371" transform="translate(18.203 28.268)">
		<g id="Group_370">
			<path id="Path_518" d="M56.5,13L35,0.6c-2-1.2-4.6-0.5-5.8,1.6c-0.4,0.6-0.6,1.4-0.6,2.1v9.3c-0.2-0.2-0.5-0.4-0.7-0.5L6.4,0.6
				c-2-1.2-4.6-0.5-5.8,1.6C0.2,2.8,0,3.5,0,4.3v24.9c0,2.3,1.9,4.2,4.2,4.3c0.8,0,1.5-0.2,2.1-0.6l21.5-12.4
				c0.3-0.1,0.5-0.3,0.7-0.5v9.3c0,2.3,1.9,4.2,4.2,4.3c0.8,0,1.5-0.2,2.1-0.6l21.5-12.4c2-1.2,2.7-3.8,1.6-5.8
				C57.7,13.9,57.2,13.4,56.5,13L56.5,13z M4.7,28.4V5l20.2,11.7L4.7,28.4z M33.3,28.4V5l20.2,11.7L33.3,28.4z"/>
		</g>
	</g>
</g>
</svg>
