<svg width="178" height="48" viewBox="0 0 178 48" fill="none" xmlns="http://www.w3.org/2000/svg">
<g clip-path="url(#clip0)">
<path fill-rule="evenodd" clip-rule="evenodd" d="M11.9281 24.1068L11.9276 24.2107L27.3283 39.0759L27.7626 36.7521L11.9281 24.1068ZM28.2422 9.70778L12.7679 13.3163L14.0068 14.5607L28.3056 9.75127L28.2422 9.70778Z" fill="#00B074"/>
<path d="M33.0902 36.8542C30.9164 36.8542 28.8614 38.185 28.0101 40.3696C26.8957 43.229 28.2663 46.4684 31.0715 47.6047C31.7335 47.8729 32.4165 48 33.0881 48C35.2618 48 37.3168 46.6691 38.1682 44.4846C39.2826 41.625 37.912 38.3858 35.1068 37.2495C34.4448 36.9813 33.7617 36.8542 33.0902 36.8542ZM33.0902 38.6665C33.5556 38.6665 34.0137 38.7565 34.452 38.9339C35.3679 39.3052 36.0874 40.0172 36.4775 40.9395C36.8675 41.8609 36.8821 42.8821 36.5187 43.8147C35.9569 45.2563 34.6103 46.1878 33.088 46.1878C32.6227 46.1878 32.1644 46.0977 31.7261 45.9202C30.8103 45.5492 30.0909 44.837 29.7007 43.9148C29.3108 42.9934 29.2962 41.9722 29.6597 41.0397C30.2215 39.5981 31.5679 38.6665 33.0902 38.6665ZM37.4339 0C34.3548 0 31.4433 1.87512 30.2375 4.9532C28.6588 8.98213 30.6004 13.5462 34.5741 15.1471C35.512 15.5251 36.4796 15.7042 37.4309 15.7042C40.5102 15.7042 43.4214 13.8291 44.6274 10.7511C46.206 6.72216 44.2645 2.15808 40.2906 0.557139C39.3528 0.179055 38.3852 0 37.4339 0ZM37.4339 1.51024C38.2256 1.51024 39.0041 1.66216 39.7476 1.96179C41.3075 2.59029 42.5302 3.79704 43.1906 5.35988C43.845 6.90878 43.8675 8.62418 43.2538 10.1902C42.7824 11.3934 41.9738 12.4074 40.9153 13.1224C39.8776 13.8235 38.6728 14.194 37.431 14.194C36.6394 14.194 35.8609 14.0421 35.1173 13.7425C33.5574 13.114 32.3347 11.9073 31.6744 10.3446C31.0199 8.79542 30.9975 7.08003 31.6109 5.51396C32.0824 4.31084 32.891 3.29684 33.9496 2.58183C34.9873 1.88076 36.1922 1.51024 37.4339 1.51024ZM6.6112 11.0738C3.98312 11.0738 1.49809 12.6732 0.468656 15.2983C-0.878759 18.7346 0.778269 22.627 4.16981 23.9923C4.97027 24.3145 5.79598 24.4673 6.60789 24.4673C9.23581 24.4673 11.7209 22.8678 12.7504 20.2426C14.0977 16.8065 12.4407 12.9141 9.04913 11.5487C8.24866 11.2266 7.42311 11.0738 6.6112 11.0738ZM6.61104 13.1882C7.18482 13.1882 7.7496 13.2983 8.2893 13.5157C9.41949 13.9708 10.3048 14.8435 10.7822 15.9736C11.2541 17.0907 11.2702 18.3277 10.8275 19.4569C10.4865 20.3263 9.90174 21.059 9.13608 21.5757C8.38295 22.0842 7.50864 22.3528 6.60781 22.3528C6.03403 22.3528 5.46941 22.2426 4.92956 22.0254C3.79952 21.5703 2.91415 20.6975 2.43672 19.5675C1.96488 18.4504 1.94871 17.2133 2.39143 16.0841C2.73229 15.2148 3.31719 14.482 4.0827 13.9653C4.83582 13.4569 5.71022 13.1882 6.61104 13.1882Z" fill="#00B074"/>
<path fill-rule="evenodd" clip-rule="evenodd" d="M34.1275 19.8343L30.8728 33.2251L33.6343 35.6415L36.8891 34.232L37.185 20.3377L34.1275 19.8343ZM33.3385 16.4111L34.2261 19.4316L37.2836 19.935L38.8616 17.3172L33.3385 16.4111ZM34.0816 4.53831C33.0589 5.63697 32.6098 7.04492 32.7387 8.33583C33.1141 7.16098 33.756 6.03414 34.6658 5.05599C35.5522 4.10473 36.5949 3.40076 37.6994 2.94728C36.4316 2.91466 35.0904 3.45472 34.0816 4.53831Z" fill="#00B074"/>
<path fill-rule="evenodd" clip-rule="evenodd" d="M165.839 21.7467V21.3265C165.839 20.1299 166.138 19.194 166.737 18.519C167.336 17.8446 168.375 17.5067 169.854 17.5067C171.204 17.5067 172.129 17.8189 172.625 18.4428C173.122 19.067 173.371 20.066 173.371 21.4411C173.371 22.1546 173.224 22.6005 172.931 22.7781C172.638 22.9568 172.122 23.0457 171.383 23.0457H167.751C167.037 23.0457 166.54 22.9632 166.26 22.7974C165.979 22.6323 165.839 22.2817 165.839 21.747V21.7467ZM167.215 26.0251L173.677 25.7964C174.595 25.7455 175.327 25.6625 175.876 25.5479C176.423 25.4333 176.844 25.2367 177.138 24.9561C177.43 24.6759 177.628 24.2817 177.73 23.7717C177.831 23.2624 177.883 22.6008 177.883 21.7854C177.883 20.5628 177.749 19.4683 177.482 18.5001C177.214 17.5327 176.768 16.7114 176.143 16.0361C175.519 15.3617 174.703 14.8463 173.697 14.4893C172.689 14.1333 171.447 13.9545 169.969 13.9545C168.669 13.9545 167.47 14.1012 166.374 14.3936C165.278 14.6867 164.329 15.1957 163.526 15.9215C162.723 16.6473 162.098 17.6279 161.653 18.8628C161.206 20.0983 160.983 21.6703 160.983 23.5802V25.7193C160.983 27.4257 161.174 28.8773 161.557 30.0739C161.939 31.2713 162.532 32.2455 163.335 32.9961C164.138 33.7475 165.176 34.2948 166.451 34.6386C167.725 34.9824 169.242 35.1543 171.001 35.1543C172.301 35.1543 173.41 35.0776 174.327 34.9248C175.245 34.772 175.958 34.5561 176.468 34.2755C176.723 34.1227 176.927 33.8746 177.08 33.5304C177.233 33.1868 177.31 32.7989 177.31 32.3656C177.31 31.7544 177.138 31.3474 176.793 31.1432C176.449 30.9395 176.086 30.8756 175.704 30.9522C175.169 31.0541 174.557 31.1432 173.869 31.2194C173.18 31.2958 172.416 31.334 171.575 31.334C169.51 31.334 168.044 31.0157 167.178 30.379C166.311 29.7424 165.878 28.7238 165.878 27.3232C165.878 26.8646 165.96 26.5399 166.126 26.3489C166.291 26.1579 166.655 26.0499 167.216 26.0242L167.215 26.0251ZM151.12 28.4309C151.12 28.8129 151.101 29.1185 151.062 29.3477C151.024 29.5769 150.928 29.7485 150.775 29.8633C150.622 29.9779 150.399 30.0543 150.106 30.0925C149.813 30.1307 149.411 30.1498 148.902 30.1498C147.831 30.1498 146.971 30.0866 146.321 29.9588C145.671 29.8315 145.174 29.558 144.83 29.1376C144.485 28.7174 144.256 28.1128 144.141 27.3232C144.027 26.534 143.969 25.4894 143.969 24.1907C143.969 22.867 144.033 21.7908 144.16 20.9627C144.288 20.1358 144.491 19.4796 144.772 18.9957C145.053 18.5124 145.435 18.1745 145.92 17.9835C146.403 17.7925 146.99 17.6845 147.678 17.6588C148.417 17.6588 149.016 17.6777 149.475 17.7161C149.934 17.7543 150.284 17.8307 150.526 17.9453C150.769 18.0599 150.928 18.2318 151.004 18.461C151.081 18.6902 151.119 18.9957 151.119 19.3777V28.4307L151.12 28.4309ZM155.574 14.9661C155.204 14.6478 154.701 14.412 154.063 14.2594C153.426 14.1066 152.687 14.0177 151.846 13.992C151.005 13.9673 150.126 13.9543 149.207 13.9543C147.372 13.9543 145.798 14.126 144.486 14.4697C143.172 14.8135 142.096 15.3997 141.255 16.2269C140.414 17.0545 139.795 18.1368 139.4 19.4737C139.005 20.8106 138.808 22.4722 138.808 24.4583C138.808 26.3682 138.98 27.9096 139.324 29.0805C139.668 30.2524 140.222 31.1626 140.987 31.8119C141.751 32.4613 142.739 32.8947 143.95 33.1107C145.161 33.3276 146.646 33.4353 148.405 33.4353C149.016 33.4353 149.5 33.4483 149.857 33.4731C150.214 33.499 150.488 33.5438 150.679 33.607C150.87 33.6707 150.991 33.7539 151.043 33.8553C151.093 33.9576 151.119 34.0981 151.119 34.2757V35.2688C151.119 36.1092 150.666 36.726 149.762 37.1215C148.857 37.5159 147.397 37.7133 145.384 37.7133C144.517 37.7133 143.669 37.6685 142.841 37.5798C142.013 37.4902 141.267 37.4461 140.604 37.4461C139.89 37.4461 139.534 37.9807 139.534 39.0502C139.534 39.5595 139.693 39.9792 140.012 40.3108C140.33 40.6409 140.776 40.9026 141.35 41.0936C141.924 41.2846 142.599 41.4242 143.377 41.5138C144.154 41.6027 145.002 41.6475 145.919 41.6475C147.168 41.6475 148.404 41.5767 149.628 41.4371C150.851 41.2968 151.941 40.9788 152.897 40.4822C153.853 39.9856 154.63 39.2655 155.229 38.324C155.828 37.3815 156.128 36.1085 156.128 34.5042V16.3219C156.128 15.7364 155.942 15.2844 155.573 14.9661H155.574ZM129.248 29.6912C129.248 30.583 129.063 31.1809 128.694 31.4865C128.324 31.7921 127.604 31.9449 126.534 31.9449C125.743 31.9449 125.112 31.9135 124.641 31.8496C124.169 31.7865 123.8 31.6528 123.532 31.4488C123.265 31.2451 123.086 30.9461 122.997 30.5509C122.908 30.1564 122.863 29.6283 122.863 28.9657C122.863 27.7433 123.06 26.9096 123.456 26.4639C123.851 26.0183 124.584 25.7952 125.654 25.7952H127.222C127.986 25.7952 128.515 25.9096 128.808 26.1388C129.101 26.368 129.248 26.7754 129.248 27.3611V29.6915L129.248 29.6912ZM132.288 15.4051C131.638 14.8958 130.79 14.5266 129.745 14.2974C128.7 14.0682 127.426 13.9536 125.922 13.9536C125.055 13.9536 124.233 13.9913 123.456 14.068C122.678 14.1444 121.997 14.2912 121.411 14.5072C120.824 14.7242 120.359 15.0104 120.015 15.3667C119.67 15.7237 119.498 16.1689 119.498 16.7036C119.498 17.3662 119.626 17.8246 119.881 18.0788C120.136 18.3334 120.429 18.4607 120.76 18.4607C120.811 18.4607 120.856 18.4548 120.894 18.4419C120.932 18.4291 120.977 18.4225 121.028 18.4225C121.639 18.2952 122.34 18.1934 123.131 18.117C123.92 18.0406 124.685 18.0024 125.424 18.0024C126.291 18.0024 126.979 18.0731 127.489 18.2127C127.999 18.353 128.382 18.544 128.636 18.7857C128.891 19.0281 129.05 19.327 129.114 19.6833C129.178 20.0401 129.21 20.422 129.21 20.8293C129.21 21.6694 129.12 22.211 128.942 22.4524C128.763 22.6948 128.394 22.841 127.833 22.8917L124.583 23.2355C123.207 23.3883 122.085 23.6116 121.219 23.904C120.352 24.1971 119.682 24.5981 119.211 25.1072C118.739 25.617 118.414 26.2282 118.237 26.9407C118.058 27.6537 117.969 28.5064 117.969 29.4998C117.969 30.5443 118.103 31.4229 118.37 32.1354C118.638 32.8489 119.09 33.4219 119.727 33.8543C120.365 34.2882 121.186 34.5994 122.194 34.7904C123.2 34.9814 124.455 35.0769 125.96 35.0769C126.979 35.0769 127.973 35.0703 128.942 35.0581C129.91 35.0446 130.777 34.9623 131.542 34.8095C132.306 34.657 132.924 34.4087 133.396 34.0649C133.868 33.7211 134.104 33.2311 134.104 32.5943V20.5619C134.104 19.3395 133.963 18.3023 133.684 17.4487C133.403 16.5959 132.938 15.9149 132.288 15.4051H132.288ZM113.591 25.9669C113.247 25.4703 112.794 24.9804 112.234 24.4963C111.673 24.0129 110.997 23.5166 110.207 23.0068C108.907 22.1921 107.996 21.5237 107.473 21.0014C106.95 20.4798 106.689 19.9766 106.689 19.4923C106.689 18.8816 106.887 18.4421 107.282 18.1747C107.677 17.9073 108.41 17.7739 109.48 17.7739C109.99 17.7739 110.525 17.7927 111.086 17.8309C111.647 17.8691 112.207 17.9139 112.769 17.9646C113.355 18.0408 113.769 17.9203 114.011 17.6015C114.253 17.2832 114.375 16.8442 114.375 16.2834C114.375 15.9274 114.323 15.6091 114.221 15.3285C114.12 15.0488 113.89 14.8074 113.533 14.603C113.151 14.3995 112.571 14.2398 111.794 14.1255C111.016 14.0109 109.99 13.9534 108.716 13.9534C107.773 13.9534 106.874 14.03 106.02 14.1828C105.166 14.336 104.414 14.6096 103.764 15.0043C103.114 15.3995 102.592 15.9592 102.197 16.685C101.801 17.4108 101.604 18.3466 101.604 19.4926C101.604 20.6133 101.916 21.5998 102.541 22.4527C103.165 23.3062 104.255 24.2423 105.81 25.2602C106.549 25.7703 107.154 26.2152 107.626 26.5972C108.098 26.9792 108.468 27.3298 108.735 27.6479C109.003 27.9666 109.187 28.2656 109.29 28.5455C109.391 28.8261 109.442 29.106 109.442 29.3859C109.442 29.8193 109.359 30.163 109.194 30.4172C109.028 30.6723 108.805 30.8699 108.525 31.0095C108.244 31.1498 107.913 31.2453 107.531 31.296C107.148 31.3474 106.74 31.3724 106.307 31.3724C105.67 31.3724 105.065 31.3476 104.491 31.2962C103.918 31.2456 103.363 31.1817 102.828 31.1053C102.293 31.0289 101.904 31.1567 101.662 31.4872C101.419 31.8185 101.299 32.2387 101.299 32.7478C101.299 33.6645 101.643 34.2632 102.331 34.5431C103.273 34.9501 104.778 35.1543 106.842 35.1543C107.964 35.1543 108.996 35.0647 109.939 34.8866C110.882 34.7088 111.698 34.3967 112.386 33.9505C113.074 33.5056 113.61 32.9135 113.992 32.1746C114.374 31.4365 114.566 30.5071 114.566 29.3861C114.566 28.7242 114.489 28.1128 114.336 27.5526C114.184 26.9931 113.935 26.4642 113.59 25.9676L113.591 25.9669ZM96.0796 14.3936C95.837 14.3047 95.5694 14.2408 95.2765 14.2026C94.9829 14.1644 94.6837 14.1453 94.3778 14.1453C94.072 14.1453 93.772 14.1642 93.4794 14.2024C93.186 14.2406 92.9184 14.3045 92.6762 14.3933C92.4339 14.4829 92.2366 14.6166 92.0839 14.7942C91.9305 14.9729 91.8543 15.2146 91.8543 15.5204V33.5497C91.8543 33.8303 91.9305 34.0595 92.0832 34.2373C92.2366 34.416 92.4336 34.5563 92.676 34.6577C92.9182 34.7598 93.1858 34.8298 93.4791 34.8675C93.7718 34.906 94.0715 34.9251 94.3776 34.9251C94.6834 34.9251 94.9827 34.9062 95.276 34.8678C95.5687 34.8296 95.8363 34.7598 96.0789 34.6579C96.3208 34.5565 96.5186 34.416 96.6713 34.2375C96.8247 34.0599 96.9009 33.8308 96.9009 33.5502V15.5207C96.9009 15.2153 96.8244 14.9736 96.6715 14.7951C96.5186 14.6173 96.3208 14.4839 96.0791 14.3943L96.0796 14.3936ZM96.748 6.81173C96.5436 6.63394 96.251 6.51275 95.8684 6.44861C95.4861 6.38566 94.9891 6.35335 94.3773 6.35335C93.7906 6.35335 93.3068 6.38589 92.9245 6.44908C92.5422 6.51274 92.2361 6.64007 92.0065 6.83106C91.7776 7.02205 91.6178 7.28944 91.5288 7.63322C91.4391 7.97701 91.395 8.42949 91.395 8.98902C91.395 9.49904 91.4391 9.90012 91.5288 10.1925C91.6178 10.4856 91.7773 10.7214 92.0067 10.8992C92.2361 11.0774 92.542 11.192 92.9248 11.2427C93.3071 11.2941 93.7909 11.3191 94.3773 11.3191C94.9633 11.3191 95.4412 11.2877 95.8111 11.2238C96.1804 11.1607 96.4737 11.0395 96.6906 10.8607C96.9068 10.6832 97.0597 10.4217 97.1494 10.0779C97.2384 9.73412 97.2832 9.28235 97.2832 8.72211C97.2832 8.23873 97.245 7.84331 97.1685 7.53773C97.0918 7.23214 96.9514 6.99069 96.7477 6.81196L96.748 6.81173ZM87.2086 9.08499C86.6091 8.79261 85.9526 8.64547 85.2394 8.64547C84.7041 8.64547 84.2321 8.73508 83.8246 8.9131C83.4163 9.09159 83.1614 9.47357 83.0599 10.059C82.932 10.7723 82.7602 11.6577 82.5438 12.714C82.3271 13.7709 82.0852 14.9045 81.8176 16.1134C81.55 17.323 81.2757 18.5713 80.9956 19.8569C80.7148 21.1431 80.441 22.3845 80.1734 23.5812C79.9058 24.7785 79.6506 25.8797 79.4087 26.8853C79.1661 27.8917 78.9556 28.7127 78.7779 29.3493C78.65 29.7568 78.5294 30.0048 78.4145 30.0939C78.3 30.1835 78.1785 30.2276 78.0515 30.2276C77.8986 30.2276 77.7581 30.1838 77.6309 30.0942C77.503 30.0053 77.3761 29.757 77.2486 29.3491C77.0697 28.7132 76.8592 27.8919 76.6176 26.8855C76.3745 25.8799 76.1137 24.7846 75.8336 23.6005C75.5527 22.4164 75.2726 21.1749 74.9924 19.8762C74.7116 18.577 74.4378 17.3233 74.1702 16.1134C73.9026 14.9043 73.6541 13.7709 73.4245 12.7138C73.1955 11.6575 73.0166 10.7723 72.8894 10.0588C72.7873 9.47357 72.526 9.09159 72.1059 8.91286C71.6851 8.73531 71.2068 8.64571 70.6717 8.64571C69.8811 8.64571 69.1998 8.79284 68.6263 9.08522C68.0524 9.37831 67.7656 9.77939 67.7656 10.2885C67.7656 10.6197 67.8671 11.3198 68.0715 12.3894C68.2751 13.4589 68.5494 14.726 68.8935 16.1903C69.2376 17.6546 69.6199 19.2268 70.0404 20.9075C70.461 22.5883 70.8815 24.2308 71.3023 25.8351C71.7229 27.4397 72.1302 28.9103 72.5258 30.2472C72.9206 31.5841 73.2456 32.6221 73.5004 33.3604C73.6538 33.7683 73.8764 34.0861 74.1697 34.3153C74.4624 34.5445 74.807 34.7162 75.2023 34.831C75.5971 34.9456 76.0368 35.0154 76.5215 35.0408C77.0053 35.0661 77.5023 35.0793 78.0126 35.0793C78.5223 35.0793 79.0066 35.0661 79.4654 35.0411C79.9239 35.0151 80.3445 34.9456 80.7268 34.8312C81.1091 34.7164 81.4402 34.5445 81.7211 34.3153C82.0012 34.0861 82.2181 33.7805 82.371 33.3986C82.6254 32.6605 82.9504 31.6223 83.3457 30.2854C83.741 28.9485 84.1491 27.4779 84.5696 25.8738C84.9902 24.2692 85.4107 22.6208 85.8313 20.9269C86.2518 19.2339 86.6341 17.655 86.9782 16.1903C87.3228 14.726 87.5961 13.4591 87.8005 12.3894C88.0041 11.32 88.1063 10.62 88.1063 10.2885C88.1063 9.77962 87.8066 9.37831 87.2079 9.08546" fill="#2F343E"/>
</g>
<defs>
<clipPath id="clip0">
<rect width="177.882" height="48" fill="white"/>
</clipPath>
</defs>
</svg>
