<svg width="127" height="89" viewBox="0 0 127 89" xmlns="http://www.w3.org/2000/svg"><title>Group 4</title><g fill="none" fill-rule="evenodd"><path d="M89.776 31.735h9.842a2.324 2.324 0 0 1 2.317 2.317v6.385c0 6.65-5.392 12.042-12.043 12.042l-.98-.006M55.05 31.735h-9.843a2.323 2.323 0 0 0-2.316 2.317v6.385c0 6.65 5.392 12.042 12.043 12.042l.98-.006" stroke="#377C5B" stroke-width="2" stroke-linecap="round" stroke-linejoin="round"/><path d="M63.036 34.104v13.431s-.37 5.228 4.906 7.45" stroke="#8E9A9E" stroke-width="2" stroke-linecap="round" stroke-linejoin="round"/><path d="M48.918 1.46a1.46 1.46 0 1 1-2.918 0 1.46 1.46 0 0 1 2.918 0" fill="#8E9A9E"/><path d="M88.385 3.541a.96.96 0 1 1-1.92 0 .96.96 0 0 1 1.92 0z" stroke="#51D98C" stroke-width="2" stroke-linecap="round" stroke-linejoin="round"/><path d="M56.033 42.228v-11.42c0-1.9 1.555-3.455 3.455-3.455h26.42c1.9 0 3.454 1.555 3.454 3.455v12.284l.034 3.963c.093 9.213-7.468 16.682-16.681 16.682-9.213 0-16.681-7.469-16.681-16.682v-4.827z" stroke="#51BC8C" stroke-width="2" stroke-linecap="round" stroke-linejoin="round"/><path d="M11.635 38.826v6.041m-2.889-3.165h5.556" stroke="#8E9A9E" stroke-width="2" stroke-linecap="round" stroke-linejoin="round"/><path d="M85.864 87.334h-26.28a2.68 2.68 0 0 1-2.673-2.673v-2.45a2.68 2.68 0 0 1 2.672-2.672h26.281a2.68 2.68 0 0 1 2.673 2.672v2.45a2.68 2.68 0 0 1-2.673 2.673zm-8.24-23.905v16.11h-9.8v-16.11" stroke="#51BC8C" stroke-width="2" stroke-linecap="round" stroke-linejoin="round"/><path stroke="#51D98C" stroke-width="2" stroke-linecap="round" stroke-linejoin="round" d="M4.651 7.933l1.094 2.217 2.446.355-1.77 1.725.418 2.437-2.188-1.15-2.187 1.15.417-2.437-1.77-1.725 2.446-.355z"/><path d="M126 44v7.572M126 56v1.893M126 34v1.893" stroke="#8E9A9E" stroke-width="2" stroke-linecap="round" stroke-linejoin="round"/></g></svg>