<svg width="118" height="89" viewBox="0 0 118 89" xmlns="http://www.w3.org/2000/svg"><title>Group 2</title><g fill="none" fill-rule="evenodd"><path d="M107.502 9.751a1.751 1.751 0 1 1-3.502 0 1.751 1.751 0 0 1 3.502 0" fill="#8E9A9E"/><path d="M71.502 4.751a1.751 1.751 0 1 1-3.502 0 1.751 1.751 0 0 1 3.502 0" stroke="#8E9A9E" stroke-width="2" stroke-linecap="round" stroke-linejoin="round"/><path d="M4.502 35.751a1.751 1.751 0 1 1-3.502 0 1.751 1.751 0 0 1 3.502 0z" stroke="#51D98C" stroke-width="2" stroke-linecap="round" stroke-linejoin="round"/><path d="M13 1v6.285M10 4h5.82M10 66.548v2.272" stroke="#8E9A9E" stroke-width="2" stroke-linecap="round" stroke-linejoin="round"/><path d="M117 57.34V54" stroke="#51D98C" stroke-width="2" stroke-linecap="round" stroke-linejoin="round"/><path d="M82.622 77.554v-1.47c0-6.594-5.345-11.938-11.938-11.938H54.176c-6.593 0-11.937 5.344-11.937 11.937v1.471h40.383z" stroke="#8E9A9E" stroke-width="2"/><path d="M62.371 40.953a9.377 9.377 0 1 1-9.377 9.377 9.377 9.377 0 0 1 9.377-9.377z" stroke="#51BC8C" stroke-width="2"/><path d="M94.102 77.776H30.759a3.217 3.217 0 0 1-3.208-3.207V32.875a3.217 3.217 0 0 1 3.208-3.207h63.343a3.217 3.217 0 0 1 3.207 3.207V74.57a3.217 3.217 0 0 1-3.207 3.207zM61 78.044v9.621M51.763 88h19.334" stroke="#51BC8C" stroke-width="2" stroke-linecap="round" stroke-linejoin="round"/></g></svg>